<svg width="40" height="40" viewBox="0 0 40 40" fill="none" xmlns="http://www.w3.org/2000/svg">
<circle cx="20" cy="20" r="20" fill="#D8E8FF"/>
<path d="M24.999 10.0042L22.4055 10C19.4917 10 17.6087 11.9319 17.6087 14.922V17.1914H15.0011C14.7757 17.1914 14.5933 17.3741 14.5933 17.5994V20.8875C14.5933 21.1128 14.7759 21.2953 15.0011 21.2953H17.6087V29.5922C17.6087 29.8175 17.7912 30 18.0165 30H21.4188C21.6442 30 21.8266 29.8173 21.8266 29.5922V21.2953H24.8756C25.1009 21.2953 25.2834 21.1128 25.2834 20.8875L25.2847 17.5994C25.2847 17.4912 25.2416 17.3876 25.1652 17.311C25.0889 17.2345 24.9848 17.1914 24.8766 17.1914H21.8266V15.2676C21.8266 14.343 22.047 13.8736 23.2515 13.8736L24.9986 13.873C25.2237 13.873 25.4062 13.6903 25.4062 13.4651V10.412C25.4062 10.1871 25.2239 10.0046 24.999 10.0042Z" fill="#0E1612"/>
</svg>
