<svg width="40" height="40" viewBox="0 0 40 40" fill="none" xmlns="http://www.w3.org/2000/svg">
<circle cx="20" cy="20" r="20" fill="#D8E8FF"/>
<path d="M29.9998 20.1347C30.0028 20.343 29.9772 20.551 29.9232 20.7521C29.8691 20.9532 29.7873 21.1459 29.68 21.3238C29.573 21.5018 29.4416 21.6637 29.29 21.8047C29.1383 21.9458 28.9679 22.0644 28.7836 22.1572C28.7877 22.2127 28.7911 22.2685 28.793 22.3244C28.7975 22.4359 28.7975 22.5475 28.793 22.659C28.7911 22.7148 28.7877 22.7707 28.7836 22.8262C28.7836 26.2324 24.8649 29 20.0303 29C15.1957 29 11.277 26.2324 11.277 22.8262C11.2729 22.7707 11.2695 22.7148 11.2676 22.659C11.2631 22.5475 11.2631 22.4359 11.2676 22.3244C11.2695 22.2685 11.2729 22.2127 11.277 22.1572C10.9883 22.0227 10.7318 21.8264 10.5254 21.5817C10.319 21.337 10.1675 21.0498 10.0815 20.7399C9.99564 20.43 9.97735 20.1048 10.0279 19.7869C10.0785 19.4691 10.1967 19.1662 10.3743 18.8992C10.5518 18.6323 10.7845 18.4076 11.0562 18.2409C11.328 18.0741 11.6324 17.9693 11.9482 17.9336C12.264 17.8977 12.5837 17.9319 12.8853 18.0336C13.1868 18.1354 13.4628 18.3023 13.6943 18.5228C14.124 18.2278 14.5743 17.9647 15.0415 17.7355C15.5088 17.5067 15.9919 17.312 16.487 17.1539C16.9821 16.9957 17.488 16.8745 18.0004 16.7905C18.5128 16.7064 19.0307 16.6604 19.5499 16.6525L20.6609 11.3759C20.6733 11.3147 20.6977 11.2569 20.7326 11.2052C20.7671 11.1539 20.8118 11.1098 20.8632 11.0759C20.915 11.0421 20.9728 11.0189 21.0336 11.0075C21.0941 10.9965 21.1564 10.9976 21.2164 11.0109L24.8949 11.756C25.2662 11.1101 26.0454 10.8334 26.7334 11.1025C27.4214 11.3717 27.8148 12.1073 27.6609 12.838C27.5074 13.5686 26.852 14.078 26.1156 14.0396C25.3788 14.0012 24.7786 13.4264 24.6997 12.6836L21.4867 11.9993L20.5108 16.7437C21.0235 16.7547 21.5351 16.8034 22.0411 16.8889C23.0544 17.06 24.0379 17.3783 24.9614 17.834C25.4226 18.0613 25.867 18.322 26.2913 18.6141C26.5963 18.3175 26.9795 18.1167 27.3948 18.0359C27.8101 17.9548 28.2396 17.9972 28.6316 18.1579C29.0236 18.3185 29.3614 18.5907 29.6041 18.9414C29.847 19.2922 29.9844 19.7066 29.9998 20.1347ZM15.0996 22.2374C15.1755 22.4217 15.2858 22.5894 15.4255 22.7304C15.5647 22.8718 15.7302 22.9836 15.9123 23.0604C16.0945 23.1367 16.2898 23.176 16.487 23.176C17.0943 23.176 17.6416 22.8053 17.8743 22.2374C18.1066 21.669 17.9779 21.0152 17.5485 20.5803C17.1191 20.1454 16.4734 20.015 15.9123 20.2503C15.3515 20.486 14.9855 21.0402 14.9855 21.6553C14.9855 21.8549 15.0242 22.0526 15.0996 22.2374ZM23.699 25.8876C23.776 25.8116 23.8199 25.7078 23.8214 25.5991C23.8229 25.49 23.7812 25.3851 23.7062 25.3071C23.6311 25.2292 23.5286 25.1847 23.4213 25.1832C23.3136 25.1817 23.21 25.2239 23.1232 25.2897C22.8975 25.4537 22.6584 25.598 22.4086 25.7211C22.1587 25.8443 21.8991 25.9459 21.6323 26.0249C21.3658 26.1036 21.0929 26.1595 20.8171 26.1918C20.5408 26.2241 20.2627 26.2324 19.9853 26.2172C19.7083 26.2298 19.4305 26.2184 19.1554 26.1834C18.8802 26.1488 18.6084 26.0903 18.3431 26.0085C18.0773 25.9272 17.8195 25.823 17.5714 25.6976C17.3233 25.5721 17.086 25.4254 16.8623 25.2592C16.7846 25.1946 16.6859 25.1615 16.5853 25.1665C16.4847 25.1714 16.3897 25.2144 16.3184 25.2862C16.2475 25.3585 16.2051 25.4546 16.2002 25.5565C16.1953 25.6584 16.228 25.7584 16.2918 25.8371C16.5556 26.0386 16.836 26.2165 17.1299 26.3693C17.4238 26.5221 17.7305 26.6487 18.0458 26.7483C18.3611 26.8479 18.6843 26.9198 19.012 26.9635C19.3397 27.0068 19.6704 27.0217 20.0003 27.008C20.3302 27.0217 20.6609 27.0068 20.9886 26.9635C21.6449 26.8761 22.2815 26.6751 22.8706 26.3693C23.1645 26.2165 23.4449 26.0386 23.7088 25.8371L23.699 25.8876ZM23.4235 23.2976C23.627 23.2999 23.8289 23.26 24.017 23.1809C24.205 23.1015 24.3751 22.9844 24.5169 22.8365C24.6588 22.6886 24.7692 22.513 24.842 22.3202C24.9149 22.1277 24.9482 21.9222 24.94 21.7162C24.94 21.1011 24.574 20.5468 24.0132 20.3111C23.4521 20.0758 22.8064 20.2062 22.377 20.6411C21.9476 21.076 21.8189 21.7299 22.0512 22.2982C22.284 22.8661 22.8312 23.2368 23.4385 23.2368L23.4235 23.2976Z" fill="#0E1612"/>
</svg>
