<svg width="40" height="40" viewBox="0 0 40 40" fill="none" xmlns="http://www.w3.org/2000/svg">
<circle cx="20" cy="20" r="20" fill="#D8E8FF"/>
<path d="M17.5196 26.8341C16.922 26.8341 17.0293 26.6121 16.8148 26.0646L15.0679 20.5006L25.917 13.96L27.1888 14.2855L26.1315 17.0675L17.5196 26.8341Z" fill="#AAABD0"/>
<path d="M17.52 26.8343C17.9797 26.8343 18.1789 26.6271 18.4394 26.3903C18.8378 26.0204 23.9559 21.2111 23.9559 21.2111L20.8146 20.4712L17.9031 22.2469L17.52 26.6863V26.8343Z" fill="#60618A"/>
<path d="M17.8263 22.306L25.2429 27.5889C26.0857 28.0328 26.6987 27.8108 26.9132 26.8342L29.9319 13.1018C30.2384 11.9032 29.4569 11.3704 28.6448 11.7256L10.9307 18.3254C9.72013 18.799 9.73545 19.4501 10.7162 19.7312L15.2673 21.1074L25.7946 14.6999C26.2849 14.404 26.7446 14.5668 26.3769 14.8923L17.8263 22.306Z" fill="#0E1612"/>
</svg>
