<svg width="216" height="146" viewBox="0 0 216 146" fill="none" xmlns="http://www.w3.org/2000/svg">
<g filter="url(#filter0_d)">
<circle cx="140" cy="15" r="8" fill="#5CE1E6"/>
<circle cx="140" cy="15" r="6.5" stroke="#D8E8FF" stroke-width="3"/>
</g>
<circle opacity="0.85" cx="140" cy="15" r="14.5" stroke="#D8E8FF"/>
<path d="M4.216 106V95.715H0.51V94.304H9.367V95.715H5.678V106H4.216ZM18.8535 106V100.815H12.7165V106H11.2545V94.304H12.7165V99.404H18.8535V94.304H20.2985V106H18.8535ZM23.3657 106V94.304H30.9817V95.664H24.8277V99.421H30.1657V100.781H24.8277V104.64H30.9817V106H23.3657ZM44.8854 106L43.6784 102.889H38.4084L37.2014 106H35.7224L40.1424 94.304H41.9784L46.3984 106H44.8854ZM41.0774 95.885H40.9924L38.8504 101.512H43.2194L41.0774 95.885ZM55.8775 106L49.7065 97.058H49.6385V106H48.2275V94.304H49.7235L55.8095 103.042H55.8775V94.304H57.2715V106H55.8775ZM60.3387 94.304H64.0617C65.6824 94.304 66.827 94.4513 67.4957 94.746C68.1644 95.0293 68.5894 95.545 68.7707 96.293C68.952 97.041 69.0427 98.3273 69.0427 100.152C69.0427 101.977 68.952 103.263 68.7707 104.011C68.5894 104.759 68.1644 105.28 67.4957 105.575C66.827 105.858 65.6824 106 64.0617 106H60.3387V94.304ZM63.8237 104.64C65.1497 104.64 66.0394 104.572 66.4927 104.436C66.9574 104.289 67.2577 103.937 67.3937 103.382C67.5297 102.815 67.5977 101.739 67.5977 100.152C67.5977 98.5767 67.524 97.5057 67.3767 96.939C67.2407 96.3723 66.9404 96.021 66.4757 95.885C66.0224 95.7377 65.1384 95.664 63.8237 95.664H61.8007V104.64H63.8237ZM78.9614 106L77.1424 101.41H76.8534H73.1814V106H71.7194V94.304H77.0914C78.0208 94.304 78.7234 94.4513 79.1994 94.746C79.6754 95.0407 79.9871 95.4373 80.1344 95.936C80.2818 96.4347 80.3554 97.075 80.3554 97.857C80.3554 98.6617 80.2364 99.3643 79.9984 99.965C79.7604 100.554 79.2731 100.957 78.5364 101.172L80.5254 106H78.9614ZM76.4794 100.05C77.2048 100.05 77.7374 99.9763 78.0774 99.829C78.4288 99.6703 78.6498 99.4437 78.7404 99.149C78.8424 98.8543 78.8934 98.4237 78.8934 97.857C78.8934 97.279 78.8481 96.8427 78.7574 96.548C78.6668 96.2533 78.4571 96.0323 78.1284 95.885C77.8111 95.7377 77.3011 95.664 76.5984 95.664H73.1814V100.05H76.4794ZM87.3703 106.136C85.8176 106.136 84.7183 105.983 84.0723 105.677C83.4263 105.371 83.0126 104.838 82.8313 104.079C82.6613 103.308 82.5763 101.999 82.5763 100.152C82.5763 98.3047 82.6613 97.0013 82.8313 96.242C83.0126 95.4713 83.4263 94.933 84.0723 94.627C84.7183 94.321 85.8176 94.168 87.3703 94.168C88.9116 94.168 90.0053 94.321 90.6513 94.627C91.3086 94.933 91.7223 95.4713 91.8923 96.242C92.0736 97.0013 92.1643 98.3047 92.1643 100.152C92.1643 101.999 92.0736 103.308 91.8923 104.079C91.7223 104.838 91.3086 105.371 90.6513 105.677C90.0053 105.983 88.9116 106.136 87.3703 106.136ZM87.3703 104.776C88.5263 104.776 89.3083 104.702 89.7163 104.555C90.1243 104.408 90.3906 104.039 90.5153 103.45C90.64 102.861 90.7023 101.761 90.7023 100.152C90.7023 98.5427 90.64 97.4433 90.5153 96.854C90.3906 96.2647 90.1243 95.8963 89.7163 95.749C89.3083 95.6017 88.5263 95.528 87.3703 95.528C86.2143 95.528 85.4266 95.6017 85.0073 95.749C84.5993 95.8963 84.333 96.2647 84.2083 96.854C84.0836 97.4433 84.0213 98.5427 84.0213 100.152C84.0213 101.761 84.0836 102.861 84.2083 103.45C84.333 104.039 84.5993 104.408 85.0073 104.555C85.4266 104.702 86.2143 104.776 87.3703 104.776ZM105.42 106V96.803H105.352L101.34 106H100.269L96.2745 96.803H96.2065V106H94.8295V94.304H96.8015L100.796 103.399H100.881L104.876 94.304H106.848V106H105.42ZM109.912 106V94.304H117.528V95.664H111.374V99.421H116.712V100.781H111.374V104.64H117.528V106H109.912ZM119.832 94.304H123.555C125.176 94.304 126.32 94.4513 126.989 94.746C127.658 95.0293 128.083 95.545 128.264 96.293C128.445 97.041 128.536 98.3273 128.536 100.152C128.536 101.977 128.445 103.263 128.264 104.011C128.083 104.759 127.658 105.28 126.989 105.575C126.32 105.858 125.176 106 123.555 106H119.832V94.304ZM123.317 104.64C124.643 104.64 125.533 104.572 125.986 104.436C126.451 104.289 126.751 103.937 126.887 103.382C127.023 102.815 127.091 101.739 127.091 100.152C127.091 98.5767 127.017 97.5057 126.87 96.939C126.734 96.3723 126.434 96.021 125.969 95.885C125.516 95.7377 124.632 95.664 123.317 95.664H121.294V104.64H123.317ZM139.152 106L137.945 102.889H132.675L131.468 106H129.989L134.409 94.304H136.245L140.665 106H139.152ZM135.344 95.885H135.259L133.117 101.512H137.486L135.344 95.885ZM150.405 101.002V99.659H154.451V105.796C153.896 105.898 153.267 105.977 152.564 106.034C151.873 106.102 151.261 106.136 150.728 106.136C149.3 106.136 148.24 105.983 147.549 105.677C146.869 105.36 146.399 104.793 146.138 103.977C145.889 103.15 145.764 101.875 145.764 100.152C145.764 98.4407 145.894 97.1713 146.155 96.344C146.416 95.5167 146.886 94.95 147.566 94.644C148.257 94.3267 149.311 94.168 150.728 94.168C151.283 94.168 151.901 94.202 152.581 94.27C153.272 94.338 153.879 94.4173 154.4 94.508V95.8C153.108 95.6187 152.122 95.528 151.442 95.528C150.093 95.528 149.153 95.6017 148.62 95.749C148.099 95.8963 147.73 96.2817 147.515 96.905C147.311 97.5283 147.209 98.6107 147.209 100.152C147.209 101.58 147.288 102.606 147.447 103.229C147.606 103.852 147.923 104.272 148.399 104.487C148.875 104.702 149.657 104.81 150.745 104.81C151.085 104.81 151.482 104.799 151.935 104.776C152.388 104.742 152.757 104.708 153.04 104.674V101.002H150.405ZM165.259 106L164.052 102.889H158.782L157.575 106H156.096L160.516 94.304H162.352L166.772 106H165.259ZM161.451 95.885H161.366L159.224 101.512H163.593L161.451 95.885ZM168.601 106V94.304H170.063V104.589H175.52V106H168.601ZM185.347 106L184.14 102.889H178.87L177.663 106H176.184L180.604 94.304H182.44L186.86 106H185.347ZM181.539 95.885H181.454L179.312 101.512H183.681L181.539 95.885ZM196.254 106L192.769 101.393H192.633L189.148 106H187.482L191.851 100.135L187.55 94.304H189.284L192.684 98.809H192.82L196.237 94.304H197.92L193.619 100.084L197.971 106H196.254ZM202.558 106V101.58L198.325 94.304H199.889L203.272 99.999H203.391L206.757 94.304H208.287L204.02 101.58V106H202.558Z" fill="#D8E8FF"/>
<path d="M4.216 137V126.715H0.51V125.304H9.367V126.715H5.678V137H4.216ZM18.6782 137L17.4712 133.889H12.2012L10.9942 137H9.51522L13.9352 125.304H15.7712L20.1912 137H18.6782ZM14.8702 126.885H14.7852L12.6432 132.512H17.0122L14.8702 126.885ZM29.9423 137L28.1233 132.41H27.8343H24.1623V137H22.7003V125.304H28.0723C29.0016 125.304 29.7043 125.451 30.1803 125.746C30.6563 126.041 30.968 126.437 31.1153 126.936C31.2626 127.435 31.3363 128.075 31.3363 128.857C31.3363 129.662 31.2173 130.364 30.9793 130.965C30.7413 131.554 30.254 131.957 29.5173 132.172L31.5063 137H29.9423ZM27.4603 131.05C28.1856 131.05 28.7183 130.976 29.0583 130.829C29.4096 130.67 29.6306 130.444 29.7213 130.149C29.8233 129.854 29.8743 129.424 29.8743 128.857C29.8743 128.279 29.829 127.843 29.7383 127.548C29.6476 127.253 29.438 127.032 29.1093 126.885C28.792 126.738 28.282 126.664 27.5793 126.664H24.1623V131.05H27.4603ZM38.8782 132.002V130.659H42.9242V136.796C42.3689 136.898 41.7399 136.977 41.0372 137.034C40.3459 137.102 39.7339 137.136 39.2012 137.136C37.7732 137.136 36.7135 136.983 36.0222 136.677C35.3422 136.36 34.8719 135.793 34.6112 134.977C34.3619 134.15 34.2372 132.875 34.2372 131.152C34.2372 129.441 34.3675 128.171 34.6282 127.344C34.8889 126.517 35.3592 125.95 36.0392 125.644C36.7305 125.327 37.7845 125.168 39.2012 125.168C39.7565 125.168 40.3742 125.202 41.0542 125.27C41.7455 125.338 42.3519 125.417 42.8732 125.508V126.8C41.5812 126.619 40.5952 126.528 39.9152 126.528C38.5665 126.528 37.6259 126.602 37.0932 126.749C36.5719 126.896 36.2035 127.282 35.9882 127.905C35.7842 128.528 35.6822 129.611 35.6822 131.152C35.6822 132.58 35.7615 133.606 35.9202 134.229C36.0789 134.852 36.3962 135.272 36.8722 135.487C37.3482 135.702 38.1302 135.81 39.2182 135.81C39.5582 135.81 39.9549 135.799 40.4082 135.776C40.8615 135.742 41.2299 135.708 41.5132 135.674V132.002H38.8782ZM46.4731 137V125.304H54.0891V126.664H47.9351V130.421H53.2731V131.781H47.9351V135.64H54.0891V137H46.4731ZM59.5889 137V126.715H55.8829V125.304H64.7399V126.715H61.0509V137H59.5889ZM70.7023 132.818V131.475H74.8503V132.818H70.7023ZM83.4975 135.249H89.8215V137H81.6275V135.521C81.6275 134.546 81.6672 133.821 81.7465 133.345C81.8258 132.869 82.0072 132.478 82.2905 132.172C82.5738 131.855 83.0328 131.571 83.6675 131.322C84.6308 130.914 85.5828 130.529 86.5235 130.166C86.9315 129.996 87.2262 129.849 87.4075 129.724C87.6002 129.588 87.7305 129.429 87.7985 129.248C87.8665 129.055 87.9005 128.783 87.9005 128.432C87.9005 127.967 87.8212 127.633 87.6625 127.429C87.5152 127.214 87.2602 127.072 86.8975 127.004C86.5348 126.936 85.9682 126.902 85.1975 126.902C84.8122 126.902 84.3022 126.925 83.6675 126.97C83.0328 127.015 82.4322 127.072 81.8655 127.14V125.508C82.3868 125.417 83.0215 125.338 83.7695 125.27C84.5175 125.202 85.2032 125.168 85.8265 125.168C86.6878 125.168 87.3962 125.242 87.9515 125.389C88.5182 125.525 88.9715 125.82 89.3115 126.273C89.6515 126.726 89.8215 127.395 89.8215 128.279C89.8215 128.97 89.7478 129.526 89.6005 129.945C89.4532 130.364 89.2322 130.704 88.9375 130.965C88.6428 131.214 88.2348 131.441 87.7135 131.645L84.4325 132.954C84.0698 133.09 83.8262 133.254 83.7015 133.447C83.6222 133.572 83.5655 133.725 83.5315 133.906C83.5088 134.087 83.4975 134.342 83.4975 134.671V135.249ZM94.2467 135.249H100.571V137H92.3767V135.521C92.3767 134.546 92.4163 133.821 92.4957 133.345C92.575 132.869 92.7563 132.478 93.0397 132.172C93.323 131.855 93.782 131.571 94.4167 131.322C95.38 130.914 96.332 130.529 97.2727 130.166C97.6807 129.996 97.9753 129.849 98.1567 129.724C98.3493 129.588 98.4797 129.429 98.5477 129.248C98.6157 129.055 98.6497 128.783 98.6497 128.432C98.6497 127.967 98.5703 127.633 98.4117 127.429C98.2643 127.214 98.0093 127.072 97.6467 127.004C97.284 126.936 96.7173 126.902 95.9467 126.902C95.5613 126.902 95.0513 126.925 94.4167 126.97C93.782 127.015 93.1813 127.072 92.6147 127.14V125.508C93.136 125.417 93.7707 125.338 94.5187 125.27C95.2667 125.202 95.9523 125.168 96.5757 125.168C97.437 125.168 98.1453 125.242 98.7007 125.389C99.2673 125.525 99.7207 125.82 100.061 126.273C100.401 126.726 100.571 127.395 100.571 128.279C100.571 128.97 100.497 129.526 100.35 129.945C100.202 130.364 99.9813 130.704 99.6867 130.965C99.392 131.214 98.984 131.441 98.4627 131.645L95.1817 132.954C94.819 133.09 94.5753 133.254 94.4507 133.447C94.3713 133.572 94.3147 133.725 94.2807 133.906C94.258 134.087 94.2467 134.342 94.2467 134.671V135.249ZM103.364 135.198C104.758 135.334 105.903 135.402 106.798 135.402C107.58 135.402 108.164 135.351 108.549 135.249C108.934 135.136 109.201 134.943 109.348 134.671C109.495 134.399 109.569 134.002 109.569 133.481C109.569 132.903 109.49 132.484 109.331 132.223C109.172 131.962 108.895 131.792 108.498 131.713C108.101 131.634 107.478 131.594 106.628 131.594C106.22 131.594 105.721 131.617 105.132 131.662C104.554 131.696 104.01 131.747 103.5 131.815V125.304H110.657V127.055H105.234V130.013C106.095 129.922 106.911 129.877 107.682 129.877C108.725 129.877 109.524 130.002 110.079 130.251C110.634 130.5 111.014 130.869 111.218 131.356C111.422 131.832 111.524 132.472 111.524 133.277C111.524 134.252 111.399 135.011 111.15 135.555C110.901 136.099 110.447 136.501 109.79 136.762C109.133 137.011 108.186 137.136 106.951 137.136C106.396 137.136 105.778 137.102 105.098 137.034C104.418 136.977 103.84 136.898 103.364 136.796V135.198ZM123.072 137.136C121.621 137.136 120.584 136.977 119.961 136.66C119.349 136.331 118.963 135.787 118.805 135.028C118.646 134.257 118.567 132.965 118.567 131.152C118.567 129.339 118.646 128.052 118.805 127.293C118.963 126.522 119.349 125.978 119.961 125.661C120.584 125.332 121.621 125.168 123.072 125.168C124.534 125.168 125.571 125.332 126.183 125.661C126.806 125.978 127.197 126.522 127.356 127.293C127.514 128.052 127.594 129.339 127.594 131.152C127.594 132.965 127.514 134.257 127.356 135.028C127.197 135.787 126.806 136.331 126.183 136.66C125.571 136.977 124.534 137.136 123.072 137.136ZM123.072 135.402C123.99 135.402 124.607 135.334 124.925 135.198C125.253 135.062 125.463 134.728 125.554 134.195C125.644 133.662 125.69 132.648 125.69 131.152C125.69 129.656 125.644 128.642 125.554 128.109C125.463 127.576 125.253 127.242 124.925 127.106C124.607 126.97 123.99 126.902 123.072 126.902C122.154 126.902 121.536 126.97 121.219 127.106C120.901 127.242 120.697 127.576 120.607 128.109C120.516 128.63 120.471 129.645 120.471 131.152C120.471 132.659 120.516 133.679 120.607 134.212C120.697 134.733 120.901 135.062 121.219 135.198C121.536 135.334 122.154 135.402 123.072 135.402ZM134.8 137.136C133.35 137.136 132.313 136.977 131.689 136.66C131.077 136.331 130.692 135.787 130.533 135.028C130.375 134.257 130.295 132.965 130.295 131.152C130.295 129.339 130.375 128.052 130.533 127.293C130.692 126.522 131.077 125.978 131.689 125.661C132.313 125.332 133.35 125.168 134.8 125.168C136.262 125.168 137.299 125.332 137.911 125.661C138.535 125.978 138.926 126.522 139.084 127.293C139.243 128.052 139.322 129.339 139.322 131.152C139.322 132.965 139.243 134.257 139.084 135.028C138.926 135.787 138.535 136.331 137.911 136.66C137.299 136.977 136.262 137.136 134.8 137.136ZM134.8 135.402C135.718 135.402 136.336 135.334 136.653 135.198C136.982 135.062 137.192 134.728 137.282 134.195C137.373 133.662 137.418 132.648 137.418 131.152C137.418 129.656 137.373 128.642 137.282 128.109C137.192 127.576 136.982 127.242 136.653 127.106C136.336 126.97 135.718 126.902 134.8 126.902C133.882 126.902 133.265 126.97 132.947 127.106C132.63 127.242 132.426 127.576 132.335 128.109C132.245 128.63 132.199 129.645 132.199 131.152C132.199 132.659 132.245 133.679 132.335 134.212C132.426 134.733 132.63 135.062 132.947 135.198C133.265 135.334 133.882 135.402 134.8 135.402ZM146.529 137.136C145.078 137.136 144.041 136.977 143.418 136.66C142.806 136.331 142.421 135.787 142.262 135.028C142.103 134.257 142.024 132.965 142.024 131.152C142.024 129.339 142.103 128.052 142.262 127.293C142.421 126.522 142.806 125.978 143.418 125.661C144.041 125.332 145.078 125.168 146.529 125.168C147.991 125.168 149.028 125.332 149.64 125.661C150.263 125.978 150.654 126.522 150.813 127.293C150.972 128.052 151.051 129.339 151.051 131.152C151.051 132.965 150.972 134.257 150.813 135.028C150.654 135.787 150.263 136.331 149.64 136.66C149.028 136.977 147.991 137.136 146.529 137.136ZM146.529 135.402C147.447 135.402 148.065 135.334 148.382 135.198C148.711 135.062 148.92 134.728 149.011 134.195C149.102 133.662 149.147 132.648 149.147 131.152C149.147 129.656 149.102 128.642 149.011 128.109C148.92 127.576 148.711 127.242 148.382 127.106C148.065 126.97 147.447 126.902 146.529 126.902C145.611 126.902 144.993 126.97 144.676 127.106C144.359 127.242 144.155 127.576 144.064 128.109C143.973 128.63 143.928 129.645 143.928 131.152C143.928 132.659 143.973 133.679 144.064 134.212C144.155 134.733 144.359 135.062 144.676 135.198C144.993 135.334 145.611 135.402 146.529 135.402ZM164.877 133.158C164.877 133.827 164.786 134.348 164.605 134.722C164.435 135.096 164.151 135.368 163.755 135.538C163.358 135.697 162.797 135.799 162.072 135.844V137.136H161.001V135.844C160.015 135.81 159.142 135.736 158.383 135.623V134.365C159.176 134.467 160.049 134.524 161.001 134.535V131.747L160.049 131.628C159.289 131.537 158.774 131.305 158.502 130.931C158.23 130.546 158.094 129.951 158.094 129.146C158.094 128.194 158.326 127.531 158.791 127.157C159.267 126.783 160.003 126.568 161.001 126.511V125.168H162.072V126.494C162.854 126.505 163.63 126.585 164.401 126.732V127.973C163.653 127.882 162.876 127.82 162.072 127.786V130.489L163.092 130.591C163.556 130.648 163.913 130.755 164.163 130.914C164.412 131.061 164.593 131.311 164.707 131.662C164.82 132.002 164.877 132.501 164.877 133.158ZM161.001 130.37V127.786C160.457 127.809 160.066 127.911 159.828 128.092C159.59 128.262 159.471 128.591 159.471 129.078C159.471 129.441 159.499 129.701 159.556 129.86C159.612 130.007 159.709 130.115 159.845 130.183C159.981 130.24 160.213 130.285 160.542 130.319L161.001 130.37ZM162.072 134.535C162.48 134.512 162.786 134.456 162.99 134.365C163.194 134.274 163.33 134.138 163.398 133.957C163.466 133.776 163.5 133.521 163.5 133.192C163.5 132.807 163.471 132.535 163.415 132.376C163.358 132.206 163.262 132.098 163.126 132.053C162.99 131.996 162.757 131.951 162.429 131.917L162.072 131.866V134.535Z" fill="#D8E8FF"/>
<rect y="115" width="214" height="1" fill="#D8E8FF"/>
<rect x="215" y="76" width="40" height="1" transform="rotate(90 215 76)" fill="#D8E8FF"/>
<rect x="154.809" y="16.1016" width="85.3623" height="1" transform="rotate(45 154.809 16.1016)" fill="#D8E8FF"/>
<defs>
<filter id="filter0_d" x="129" y="6" width="22" height="22" filterUnits="userSpaceOnUse" color-interpolation-filters="sRGB">
<feFlood flood-opacity="0" result="BackgroundImageFix"/>
<feColorMatrix in="SourceAlpha" type="matrix" values="0 0 0 0 0 0 0 0 0 0 0 0 0 0 0 0 0 0 127 0" result="hardAlpha"/>
<feOffset dy="2"/>
<feGaussianBlur stdDeviation="1.5"/>
<feColorMatrix type="matrix" values="0 0 0 0 0 0 0 0 0 0 0 0 0 0 0 0 0 0 0.8 0"/>
<feBlend mode="normal" in2="BackgroundImageFix" result="effect1_dropShadow"/>
<feBlend mode="normal" in="SourceGraphic" in2="effect1_dropShadow" result="shape"/>
</filter>
</defs>
</svg>
