<svg width="282" height="75" viewBox="0 0 282 75" fill="none" xmlns="http://www.w3.org/2000/svg">
<g filter="url(#filter0_d)">
<circle cx="267" cy="60" r="8" fill="#5CE1E6"/>
<circle cx="267" cy="60" r="6.5" stroke="#D8E8FF" stroke-width="3"/>
</g>
<circle opacity="0.85" cx="267" cy="60" r="14.5" stroke="#D8E8FF"/>
<path d="M4.216 21V10.715H0.51V9.304H9.367V10.715H5.678V21H4.216ZM19.5335 21V15.815H13.3965V21H11.9345V9.304H13.3965V14.404H19.5335V9.304H20.9785V21H19.5335ZM24.7257 21V9.304H32.3417V10.664H26.1877V14.421H31.5257V15.781H26.1877V19.64H32.3417V21H24.7257ZM47.6054 21L46.3984 17.889H41.1284L39.9214 21H38.4424L42.8624 9.304H44.6984L49.1184 21H47.6054ZM43.7974 10.885H43.7124L41.5704 16.512H45.9394L43.7974 10.885ZM59.2775 21L53.1065 12.058H53.0385V21H51.6275V9.304H53.1235L59.2095 18.042H59.2775V9.304H60.6715V21H59.2775ZM64.4187 9.304H68.1417C69.7624 9.304 70.907 9.45133 71.5757 9.746C72.2444 10.0293 72.6694 10.545 72.8507 11.293C73.032 12.041 73.1227 13.3273 73.1227 15.152C73.1227 16.9767 73.032 18.263 72.8507 19.011C72.6694 19.759 72.2444 20.2803 71.5757 20.575C70.907 20.8583 69.7624 21 68.1417 21H64.4187V9.304ZM67.9037 19.64C69.2297 19.64 70.1194 19.572 70.5727 19.436C71.0374 19.2887 71.3377 18.9373 71.4737 18.382C71.6097 17.8153 71.6777 16.7387 71.6777 15.152C71.6777 13.5767 71.604 12.5057 71.4567 11.939C71.3207 11.3723 71.0204 11.021 70.5557 10.885C70.1024 10.7377 69.2184 10.664 67.9037 10.664H65.8807V19.64H67.9037ZM83.7214 21L81.9024 16.41H81.6134H77.9414V21H76.4794V9.304H81.8514C82.7807 9.304 83.4834 9.45133 83.9594 9.746C84.4354 10.0407 84.7471 10.4373 84.8944 10.936C85.0417 11.4347 85.1154 12.075 85.1154 12.857C85.1154 13.6617 84.9964 14.3643 84.7584 14.965C84.5204 15.5543 84.0331 15.9567 83.2964 16.172L85.2854 21H83.7214ZM81.2394 15.05C81.9647 15.05 82.4974 14.9763 82.8374 14.829C83.1887 14.6703 83.4097 14.4437 83.5004 14.149C83.6024 13.8543 83.6534 13.4237 83.6534 12.857C83.6534 12.279 83.6081 11.8427 83.5174 11.548C83.4267 11.2533 83.2171 11.0323 82.8884 10.885C82.5711 10.7377 82.0611 10.664 81.3584 10.664H77.9414V15.05H81.2394ZM92.8103 21.136C91.2576 21.136 90.1583 20.983 89.5123 20.677C88.8663 20.371 88.4526 19.8383 88.2713 19.079C88.1013 18.3083 88.0163 16.9993 88.0163 15.152C88.0163 13.3047 88.1013 12.0013 88.2713 11.242C88.4526 10.4713 88.8663 9.933 89.5123 9.627C90.1583 9.321 91.2576 9.168 92.8103 9.168C94.3516 9.168 95.4453 9.321 96.0913 9.627C96.7486 9.933 97.1623 10.4713 97.3323 11.242C97.5136 12.0013 97.6043 13.3047 97.6043 15.152C97.6043 16.9993 97.5136 18.3083 97.3323 19.079C97.1623 19.8383 96.7486 20.371 96.0913 20.677C95.4453 20.983 94.3516 21.136 92.8103 21.136ZM92.8103 19.776C93.9663 19.776 94.7483 19.7023 95.1563 19.555C95.5643 19.4077 95.8306 19.0393 95.9553 18.45C96.08 17.8607 96.1423 16.7613 96.1423 15.152C96.1423 13.5427 96.08 12.4433 95.9553 11.854C95.8306 11.2647 95.5643 10.8963 95.1563 10.749C94.7483 10.6017 93.9663 10.528 92.8103 10.528C91.6543 10.528 90.8666 10.6017 90.4473 10.749C90.0393 10.8963 89.773 11.2647 89.6483 11.854C89.5236 12.4433 89.4613 13.5427 89.4613 15.152C89.4613 16.7613 89.5236 17.8607 89.6483 18.45C89.773 19.0393 90.0393 19.4077 90.4473 19.555C90.8666 19.7023 91.6543 19.776 92.8103 19.776ZM111.54 21V11.803H111.472L107.46 21H106.389L102.394 11.803H102.326V21H100.949V9.304H102.921L106.916 18.399H107.001L110.996 9.304H112.968V21H111.54ZM116.712 21V9.304H124.328V10.664H118.174V14.421H123.512V15.781H118.174V19.64H124.328V21H116.712ZM127.312 9.304H131.035C132.656 9.304 133.8 9.45133 134.469 9.746C135.138 10.0293 135.563 10.545 135.744 11.293C135.925 12.041 136.016 13.3273 136.016 15.152C136.016 16.9767 135.925 18.263 135.744 19.011C135.563 19.759 135.138 20.2803 134.469 20.575C133.8 20.8583 132.656 21 131.035 21H127.312V9.304ZM130.797 19.64C132.123 19.64 133.013 19.572 133.466 19.436C133.931 19.2887 134.231 18.9373 134.367 18.382C134.503 17.8153 134.571 16.7387 134.571 15.152C134.571 13.5767 134.497 12.5057 134.35 11.939C134.214 11.3723 133.914 11.021 133.449 10.885C132.996 10.7377 132.112 10.664 130.797 10.664H128.774V19.64H130.797ZM147.312 21L146.105 17.889H140.835L139.628 21H138.149L142.569 9.304H144.405L148.825 21H147.312ZM143.504 10.885H143.419L141.277 16.512H145.646L143.504 10.885ZM159.925 16.002V14.659H163.971V20.796C163.416 20.898 162.787 20.9773 162.084 21.034C161.393 21.102 160.781 21.136 160.248 21.136C158.82 21.136 157.76 20.983 157.069 20.677C156.389 20.3597 155.919 19.793 155.658 18.977C155.409 18.1497 155.284 16.8747 155.284 15.152C155.284 13.4407 155.414 12.1713 155.675 11.344C155.936 10.5167 156.406 9.95 157.086 9.644C157.777 9.32667 158.831 9.168 160.248 9.168C160.803 9.168 161.421 9.202 162.101 9.27C162.792 9.338 163.399 9.41733 163.92 9.508V10.8C162.628 10.6187 161.642 10.528 160.962 10.528C159.613 10.528 158.673 10.6017 158.14 10.749C157.619 10.8963 157.25 11.2817 157.035 11.905C156.831 12.5283 156.729 13.6107 156.729 15.152C156.729 16.58 156.808 17.6057 156.967 18.229C157.126 18.8523 157.443 19.2717 157.919 19.487C158.395 19.7023 159.177 19.81 160.265 19.81C160.605 19.81 161.002 19.7987 161.455 19.776C161.908 19.742 162.277 19.708 162.56 19.674V16.002H159.925ZM175.459 21L174.252 17.889H168.982L167.775 21H166.296L170.716 9.304H172.552L176.972 21H175.459ZM171.651 10.885H171.566L169.424 16.512H173.793L171.651 10.885ZM179.481 21V9.304H180.943V19.589H186.4V21H179.481ZM196.907 21L195.7 17.889H190.43L189.223 21H187.744L192.164 9.304H194L198.42 21H196.907ZM193.099 10.885H193.014L190.872 16.512H195.241L193.099 10.885ZM208.494 21L205.009 16.393H204.873L201.388 21H199.722L204.091 15.135L199.79 9.304H201.524L204.924 13.809H205.06L208.477 9.304H210.16L205.859 15.084L210.211 21H208.494ZM215.478 21V16.58L211.245 9.304H212.809L216.192 14.999H216.311L219.677 9.304H221.207L216.94 16.58V21H215.478Z" fill="#D8E8FF"/>
<path d="M4.216 52V41.715H0.51V40.304H9.367V41.715H5.678V52H4.216ZM18.6782 52L17.4712 48.889H12.2012L10.9942 52H9.51522L13.9352 40.304H15.7712L20.1912 52H18.6782ZM14.8702 41.885H14.7852L12.6432 47.512H17.0122L14.8702 41.885ZM29.9423 52L28.1233 47.41H27.8343H24.1623V52H22.7003V40.304H28.0723C29.0016 40.304 29.7043 40.4513 30.1803 40.746C30.6563 41.0407 30.968 41.4373 31.1153 41.936C31.2626 42.4347 31.3363 43.075 31.3363 43.857C31.3363 44.6617 31.2173 45.3643 30.9793 45.965C30.7413 46.5543 30.254 46.9567 29.5173 47.172L31.5063 52H29.9423ZM27.4603 46.05C28.1856 46.05 28.7183 45.9763 29.0583 45.829C29.4096 45.6703 29.6306 45.4437 29.7213 45.149C29.8233 44.8543 29.8743 44.4237 29.8743 43.857C29.8743 43.279 29.829 42.8427 29.7383 42.548C29.6476 42.2533 29.438 42.0323 29.1093 41.885C28.792 41.7377 28.282 41.664 27.5793 41.664H24.1623V46.05H27.4603ZM38.8782 47.002V45.659H42.9242V51.796C42.3689 51.898 41.7399 51.9773 41.0372 52.034C40.3459 52.102 39.7339 52.136 39.2012 52.136C37.7732 52.136 36.7135 51.983 36.0222 51.677C35.3422 51.3597 34.8719 50.793 34.6112 49.977C34.3619 49.1497 34.2372 47.8747 34.2372 46.152C34.2372 44.4407 34.3675 43.1713 34.6282 42.344C34.8889 41.5167 35.3592 40.95 36.0392 40.644C36.7305 40.3267 37.7845 40.168 39.2012 40.168C39.7565 40.168 40.3742 40.202 41.0542 40.27C41.7455 40.338 42.3519 40.4173 42.8732 40.508V41.8C41.5812 41.6187 40.5952 41.528 39.9152 41.528C38.5665 41.528 37.6259 41.6017 37.0932 41.749C36.5719 41.8963 36.2035 42.2817 35.9882 42.905C35.7842 43.5283 35.6822 44.6107 35.6822 46.152C35.6822 47.58 35.7615 48.6057 35.9202 49.229C36.0789 49.8523 36.3962 50.2717 36.8722 50.487C37.3482 50.7023 38.1302 50.81 39.2182 50.81C39.5582 50.81 39.9549 50.7987 40.4082 50.776C40.8615 50.742 41.2299 50.708 41.5132 50.674V47.002H38.8782ZM46.4731 52V40.304H54.0891V41.664H47.9351V45.421H53.2731V46.781H47.9351V50.64H54.0891V52H46.4731ZM59.5889 52V41.715H55.8829V40.304H64.7399V41.715H61.0509V52H59.5889ZM70.7023 47.818V46.475H74.8503V47.818H70.7023ZM83.4975 50.249H89.8215V52H81.6275V50.521C81.6275 49.5463 81.6672 48.821 81.7465 48.345C81.8258 47.869 82.0072 47.478 82.2905 47.172C82.5738 46.8547 83.0328 46.5713 83.6675 46.322C84.6308 45.914 85.5828 45.5287 86.5235 45.166C86.9315 44.996 87.2262 44.8487 87.4075 44.724C87.6002 44.588 87.7305 44.4293 87.7985 44.248C87.8665 44.0553 87.9005 43.7833 87.9005 43.432C87.9005 42.9673 87.8212 42.633 87.6625 42.429C87.5152 42.2137 87.2602 42.072 86.8975 42.004C86.5348 41.936 85.9682 41.902 85.1975 41.902C84.8122 41.902 84.3022 41.9247 83.6675 41.97C83.0328 42.0153 82.4322 42.072 81.8655 42.14V40.508C82.3868 40.4173 83.0215 40.338 83.7695 40.27C84.5175 40.202 85.2032 40.168 85.8265 40.168C86.6878 40.168 87.3962 40.2417 87.9515 40.389C88.5182 40.525 88.9715 40.8197 89.3115 41.273C89.6515 41.7263 89.8215 42.395 89.8215 43.279C89.8215 43.9703 89.7478 44.5257 89.6005 44.945C89.4532 45.3643 89.2322 45.7043 88.9375 45.965C88.6428 46.2143 88.2348 46.441 87.7135 46.645L84.4325 47.954C84.0698 48.09 83.8262 48.2543 83.7015 48.447C83.6222 48.5717 83.5655 48.7247 83.5315 48.906C83.5088 49.0873 83.4975 49.3423 83.4975 49.671V50.249ZM94.2467 50.249H100.571V52H92.3767V50.521C92.3767 49.5463 92.4163 48.821 92.4957 48.345C92.575 47.869 92.7563 47.478 93.0397 47.172C93.323 46.8547 93.782 46.5713 94.4167 46.322C95.38 45.914 96.332 45.5287 97.2727 45.166C97.6807 44.996 97.9753 44.8487 98.1567 44.724C98.3493 44.588 98.4797 44.4293 98.5477 44.248C98.6157 44.0553 98.6497 43.7833 98.6497 43.432C98.6497 42.9673 98.5703 42.633 98.4117 42.429C98.2643 42.2137 98.0093 42.072 97.6467 42.004C97.284 41.936 96.7173 41.902 95.9467 41.902C95.5613 41.902 95.0513 41.9247 94.4167 41.97C93.782 42.0153 93.1813 42.072 92.6147 42.14V40.508C93.136 40.4173 93.7707 40.338 94.5187 40.27C95.2667 40.202 95.9523 40.168 96.5757 40.168C97.437 40.168 98.1453 40.2417 98.7007 40.389C99.2673 40.525 99.7207 40.8197 100.061 41.273C100.401 41.7263 100.571 42.395 100.571 43.279C100.571 43.9703 100.497 44.5257 100.35 44.945C100.202 45.3643 99.9813 45.7043 99.6867 45.965C99.392 46.2143 98.984 46.441 98.4627 46.645L95.1817 47.954C94.819 48.09 94.5753 48.2543 94.4507 48.447C94.3713 48.5717 94.3147 48.7247 94.2807 48.906C94.258 49.0873 94.2467 49.3423 94.2467 49.671V50.249ZM103.364 50.198C104.758 50.334 105.903 50.402 106.798 50.402C107.58 50.402 108.164 50.351 108.549 50.249C108.934 50.1357 109.201 49.943 109.348 49.671C109.495 49.399 109.569 49.0023 109.569 48.481C109.569 47.903 109.49 47.4837 109.331 47.223C109.172 46.9623 108.895 46.7923 108.498 46.713C108.101 46.6337 107.478 46.594 106.628 46.594C106.22 46.594 105.721 46.6167 105.132 46.662C104.554 46.696 104.01 46.747 103.5 46.815V40.304H110.657V42.055H105.234V45.013C106.095 44.9223 106.911 44.877 107.682 44.877C108.725 44.877 109.524 45.0017 110.079 45.251C110.634 45.5003 111.014 45.8687 111.218 46.356C111.422 46.832 111.524 47.4723 111.524 48.277C111.524 49.2517 111.399 50.011 111.15 50.555C110.901 51.099 110.447 51.5013 109.79 51.762C109.133 52.0113 108.186 52.136 106.951 52.136C106.396 52.136 105.778 52.102 105.098 52.034C104.418 51.9773 103.84 51.898 103.364 51.796V50.198ZM123.072 52.136C121.621 52.136 120.584 51.9773 119.961 51.66C119.349 51.3313 118.963 50.7873 118.805 50.028C118.646 49.2573 118.567 47.9653 118.567 46.152C118.567 44.3387 118.646 43.0523 118.805 42.293C118.963 41.5223 119.349 40.9783 119.961 40.661C120.584 40.3323 121.621 40.168 123.072 40.168C124.534 40.168 125.571 40.3323 126.183 40.661C126.806 40.9783 127.197 41.5223 127.356 42.293C127.514 43.0523 127.594 44.3387 127.594 46.152C127.594 47.9653 127.514 49.2573 127.356 50.028C127.197 50.7873 126.806 51.3313 126.183 51.66C125.571 51.9773 124.534 52.136 123.072 52.136ZM123.072 50.402C123.99 50.402 124.607 50.334 124.925 50.198C125.253 50.062 125.463 49.7277 125.554 49.195C125.644 48.6623 125.69 47.648 125.69 46.152C125.69 44.656 125.644 43.6417 125.554 43.109C125.463 42.5763 125.253 42.242 124.925 42.106C124.607 41.97 123.99 41.902 123.072 41.902C122.154 41.902 121.536 41.97 121.219 42.106C120.901 42.242 120.697 42.5763 120.607 43.109C120.516 43.6303 120.471 44.6447 120.471 46.152C120.471 47.6593 120.516 48.6793 120.607 49.212C120.697 49.7333 120.901 50.062 121.219 50.198C121.536 50.334 122.154 50.402 123.072 50.402ZM134.8 52.136C133.35 52.136 132.313 51.9773 131.689 51.66C131.077 51.3313 130.692 50.7873 130.533 50.028C130.375 49.2573 130.295 47.9653 130.295 46.152C130.295 44.3387 130.375 43.0523 130.533 42.293C130.692 41.5223 131.077 40.9783 131.689 40.661C132.313 40.3323 133.35 40.168 134.8 40.168C136.262 40.168 137.299 40.3323 137.911 40.661C138.535 40.9783 138.926 41.5223 139.084 42.293C139.243 43.0523 139.322 44.3387 139.322 46.152C139.322 47.9653 139.243 49.2573 139.084 50.028C138.926 50.7873 138.535 51.3313 137.911 51.66C137.299 51.9773 136.262 52.136 134.8 52.136ZM134.8 50.402C135.718 50.402 136.336 50.334 136.653 50.198C136.982 50.062 137.192 49.7277 137.282 49.195C137.373 48.6623 137.418 47.648 137.418 46.152C137.418 44.656 137.373 43.6417 137.282 43.109C137.192 42.5763 136.982 42.242 136.653 42.106C136.336 41.97 135.718 41.902 134.8 41.902C133.882 41.902 133.265 41.97 132.947 42.106C132.63 42.242 132.426 42.5763 132.335 43.109C132.245 43.6303 132.199 44.6447 132.199 46.152C132.199 47.6593 132.245 48.6793 132.335 49.212C132.426 49.7333 132.63 50.062 132.947 50.198C133.265 50.334 133.882 50.402 134.8 50.402ZM146.529 52.136C145.078 52.136 144.041 51.9773 143.418 51.66C142.806 51.3313 142.421 50.7873 142.262 50.028C142.103 49.2573 142.024 47.9653 142.024 46.152C142.024 44.3387 142.103 43.0523 142.262 42.293C142.421 41.5223 142.806 40.9783 143.418 40.661C144.041 40.3323 145.078 40.168 146.529 40.168C147.991 40.168 149.028 40.3323 149.64 40.661C150.263 40.9783 150.654 41.5223 150.813 42.293C150.972 43.0523 151.051 44.3387 151.051 46.152C151.051 47.9653 150.972 49.2573 150.813 50.028C150.654 50.7873 150.263 51.3313 149.64 51.66C149.028 51.9773 147.991 52.136 146.529 52.136ZM146.529 50.402C147.447 50.402 148.065 50.334 148.382 50.198C148.711 50.062 148.92 49.7277 149.011 49.195C149.102 48.6623 149.147 47.648 149.147 46.152C149.147 44.656 149.102 43.6417 149.011 43.109C148.92 42.5763 148.711 42.242 148.382 42.106C148.065 41.97 147.447 41.902 146.529 41.902C145.611 41.902 144.993 41.97 144.676 42.106C144.359 42.242 144.155 42.5763 144.064 43.109C143.973 43.6303 143.928 44.6447 143.928 46.152C143.928 47.6593 143.973 48.6793 144.064 49.212C144.155 49.7333 144.359 50.062 144.676 50.198C144.993 50.334 145.611 50.402 146.529 50.402ZM164.877 48.158C164.877 48.8267 164.786 49.348 164.605 49.722C164.435 50.096 164.151 50.368 163.755 50.538C163.358 50.6967 162.797 50.7987 162.072 50.844V52.136H161.001V50.844C160.015 50.81 159.142 50.7363 158.383 50.623V49.365C159.176 49.467 160.049 49.5237 161.001 49.535V46.747L160.049 46.628C159.289 46.5373 158.774 46.305 158.502 45.931C158.23 45.5457 158.094 44.9507 158.094 44.146C158.094 43.194 158.326 42.531 158.791 42.157C159.267 41.783 160.003 41.5677 161.001 41.511V40.168H162.072V41.494C162.854 41.5053 163.63 41.5847 164.401 41.732V42.973C163.653 42.8823 162.876 42.82 162.072 42.786V45.489L163.092 45.591C163.556 45.6477 163.913 45.7553 164.163 45.914C164.412 46.0613 164.593 46.3107 164.707 46.662C164.82 47.002 164.877 47.5007 164.877 48.158ZM161.001 45.37V42.786C160.457 42.8087 160.066 42.9107 159.828 43.092C159.59 43.262 159.471 43.5907 159.471 44.078C159.471 44.4407 159.499 44.7013 159.556 44.86C159.612 45.0073 159.709 45.115 159.845 45.183C159.981 45.2397 160.213 45.285 160.542 45.319L161.001 45.37ZM162.072 49.535C162.48 49.5123 162.786 49.4557 162.99 49.365C163.194 49.2743 163.33 49.1383 163.398 48.957C163.466 48.7757 163.5 48.5207 163.5 48.192C163.5 47.8067 163.471 47.5347 163.415 47.376C163.358 47.206 163.262 47.0983 163.126 47.053C162.99 46.9963 162.757 46.951 162.429 46.917L162.072 46.866V49.535Z" fill="#D8E8FF"/>
<rect y="30" width="222" height="1" fill="#D8E8FF"/>
<rect x="221.93" y="30.0669" width="40" height="1" transform="rotate(30 221.93 30.0669)" fill="#D8E8FF"/>
<defs>
<filter id="filter0_d" x="256" y="51" width="22" height="22" filterUnits="userSpaceOnUse" color-interpolation-filters="sRGB">
<feFlood flood-opacity="0" result="BackgroundImageFix"/>
<feColorMatrix in="SourceAlpha" type="matrix" values="0 0 0 0 0 0 0 0 0 0 0 0 0 0 0 0 0 0 127 0" result="hardAlpha"/>
<feOffset dy="2"/>
<feGaussianBlur stdDeviation="1.5"/>
<feColorMatrix type="matrix" values="0 0 0 0 0 0 0 0 0 0 0 0 0 0 0 0 0 0 0.8 0"/>
<feBlend mode="normal" in2="BackgroundImageFix" result="effect1_dropShadow"/>
<feBlend mode="normal" in="SourceGraphic" in2="effect1_dropShadow" result="shape"/>
</filter>
</defs>
</svg>
