<svg width="40" height="39" viewBox="0 0 40 39" fill="none" xmlns="http://www.w3.org/2000/svg">
<path opacity="0.6" d="M13 7H22L23 14H24H30V16H10V9L11 7H13Z" fill="#00183C"/>
<path d="M22.5 7V6.5H22H12.8205C10.9938 6.5 9.5 7.97217 9.5 9.79297V30.207C9.5 32.0278 10.9938 33.5 12.8205 33.5H27.1795C29.0062 33.5 30.5 32.0278 30.5 30.207V14.6172V14.1172H30H23.7949C23.0767 14.1172 22.5 13.5391 22.5 12.8398V7ZM14.2051 25.7812H17.9344C18.0877 25.7812 18.2036 25.9031 18.2036 26.043C18.2036 26.1829 18.0877 26.3047 17.9344 26.3047H14.2051C14.0518 26.3047 13.9359 26.1829 13.9359 26.043C13.9359 25.9031 14.0518 25.7812 14.2051 25.7812ZM13.9359 21.9805C13.9359 21.8406 14.0518 21.7188 14.2051 21.7188H25.4872C25.6405 21.7188 25.7564 21.8406 25.7564 21.9805C25.7564 22.1204 25.6405 22.2422 25.4872 22.2422H14.2051C14.0518 22.2422 13.9359 22.1204 13.9359 21.9805ZM25.4872 17.6562C25.6405 17.6562 25.7564 17.7781 25.7564 17.918C25.7564 18.0579 25.6405 18.1797 25.4872 18.1797H14.2051C14.0518 18.1797 13.9359 18.0579 13.9359 17.918C13.9359 17.7781 14.0518 17.6562 14.2051 17.6562H25.4872Z" stroke="#00183C"/>
<path d="M24.9268 6.63388L30.3661 12.0732C30.5236 12.2307 30.4121 12.5 30.1893 12.5H24.75C24.6119 12.5 24.5 12.3881 24.5 12.25V6.81066C24.5 6.58793 24.7693 6.47639 24.9268 6.63388Z" fill="#566B8A" stroke="#00183C"/>
<rect width="40" height="2" rx="1" fill="#00183C"/>
<rect y="15" width="40" height="1" rx="0.5" fill="#00183C"/>
<rect y="7" width="7" height="2" rx="1" transform="rotate(-90 0 7)" fill="#00183C"/>
<rect y="39" width="7" height="2" rx="1" transform="rotate(-90 0 39)" fill="#00183C"/>
<rect x="38" y="7" width="7" height="2" rx="1" transform="rotate(-90 38 7)" fill="#00183C"/>
<rect x="38" y="39" width="7" height="2" rx="1" transform="rotate(-90 38 39)" fill="#00183C"/>
<rect y="37" width="40" height="2" rx="1" fill="#00183C"/>
</svg>
