<svg width="211" height="134" viewBox="0 0 211 134" fill="none" xmlns="http://www.w3.org/2000/svg">
<rect x="0.0209045" y="104" width="40" height="1" transform="rotate(-90 0.0209045 104)" fill="#D8E8FF"/>
<rect x="1.0209" y="103" width="208" height="1" fill="#D8E8FF"/>
<g filter="url(#filter0_d)">
<circle cx="140.021" cy="15" r="8" fill="#5CE1E6"/>
<circle cx="140.021" cy="15" r="6.5" stroke="#D8E8FF" stroke-width="3"/>
</g>
<circle opacity="0.85" cx="140.021" cy="15" r="14.5" stroke="#D8E8FF"/>
<path d="M9.2369 94V83.715H5.5309V82.304H14.3879V83.715H10.6989V94H9.2369ZM24.5544 94V88.815H18.4174V94H16.9554V82.304H18.4174V87.404H24.5544V82.304H25.9994V94H24.5544ZM29.7466 94V82.304H37.3626V83.664H31.2086V87.421H36.5466V88.781H31.2086V92.64H37.3626V94H29.7466ZM55.2784 94V84.803H55.2104L51.1984 94H50.1274L46.1324 84.803H46.0644V94H44.6874V82.304H46.6594L50.6544 91.399H50.7394L54.7344 82.304H56.7064V94H55.2784ZM60.4502 94V82.304H61.9122V94H60.4502ZM65.6545 94V82.304H67.1165V92.589H72.5735V94H65.6545ZM82.6899 94L78.7119 88.73H76.6039V94H75.1419V82.304H76.6039V87.37H78.7119L82.7069 82.304H84.3389L79.8849 87.965L84.3899 94H82.6899ZM89.6242 94V89.58L85.3912 82.304H86.9552L90.3382 87.999H90.4572L93.8232 82.304H95.3532L91.0862 89.58V94H89.6242ZM111.266 94L108.427 84.701H108.359L105.537 94H103.803L100.607 82.304H102.103L104.721 91.994H104.806L107.662 82.304H109.192L112.082 91.994H112.184L114.717 82.304H116.179L113 94H111.266ZM126.094 94L124.887 90.889H119.617L118.41 94H116.931L121.351 82.304H123.187L127.607 94H126.094ZM122.286 83.885H122.201L120.059 89.512H124.428L122.286 83.885ZM131.658 94V89.58L127.425 82.304H128.989L132.372 87.999H132.491L135.857 82.304H137.387L133.12 89.58V94H131.658ZM147.979 89.002V87.659H152.025V93.796C151.47 93.898 150.841 93.9773 150.138 94.034C149.447 94.102 148.835 94.136 148.302 94.136C146.874 94.136 145.814 93.983 145.123 93.677C144.443 93.3597 143.973 92.793 143.712 91.977C143.463 91.1497 143.338 89.8747 143.338 88.152C143.338 86.4407 143.468 85.1713 143.729 84.344C143.99 83.5167 144.46 82.95 145.14 82.644C145.831 82.3267 146.885 82.168 148.302 82.168C148.857 82.168 149.475 82.202 150.155 82.27C150.846 82.338 151.453 82.4173 151.974 82.508V83.8C150.682 83.6187 149.696 83.528 149.016 83.528C147.667 83.528 146.727 83.6017 146.194 83.749C145.673 83.8963 145.304 84.2817 145.089 84.905C144.885 85.5283 144.783 86.6107 144.783 88.152C144.783 89.58 144.862 90.6057 145.021 91.229C145.18 91.8523 145.497 92.2717 145.973 92.487C146.449 92.7023 147.231 92.81 148.319 92.81C148.659 92.81 149.056 92.7987 149.509 92.776C149.962 92.742 150.331 92.708 150.614 92.674V89.002H147.979ZM163.513 94L162.306 90.889H157.036L155.829 94H154.35L158.77 82.304H160.606L165.026 94H163.513ZM159.705 83.885H159.62L157.478 89.512H161.847L159.705 83.885ZM167.535 94V82.304H168.997V92.589H174.454V94H167.535ZM184.961 94L183.754 90.889H178.484L177.277 94H175.798L180.218 82.304H182.054L186.474 94H184.961ZM181.153 83.885H181.068L178.926 89.512H183.295L181.153 83.885ZM196.548 94L193.063 89.393H192.927L189.442 94H187.776L192.145 88.135L187.844 82.304H189.578L192.978 86.809H193.114L196.531 82.304H198.214L193.913 88.084L198.265 94H196.548ZM203.532 94V89.58L199.299 82.304H200.863L204.246 87.999H204.365L207.731 82.304H209.261L204.994 89.58V94H203.532Z" fill="#D8E8FF"/>
<path d="M10.6139 125.136C9.99057 125.136 9.29357 125.113 8.5229 125.068C7.76357 125.023 7.08924 124.966 6.4999 124.898V123.555C7.97324 123.702 9.2029 123.776 10.1889 123.776C10.8009 123.776 11.2826 123.753 11.6339 123.708C11.9966 123.651 12.3026 123.555 12.5519 123.419C12.7786 123.283 12.9259 123.085 12.9939 122.824C13.0619 122.552 13.0959 122.195 13.0959 121.753C13.0959 121.22 13.0676 120.846 13.0109 120.631C12.9542 120.404 12.8182 120.24 12.6029 120.138C12.3989 120.036 12.0419 119.962 11.5319 119.917L8.6419 119.594C7.93924 119.515 7.40657 119.35 7.0439 119.101C6.69257 118.84 6.45457 118.506 6.3299 118.098C6.21657 117.679 6.1599 117.135 6.1599 116.466C6.1599 115.537 6.31857 114.834 6.6359 114.358C6.96457 113.882 7.4179 113.565 7.9959 113.406C8.58524 113.247 9.3729 113.168 10.3589 113.168C11.0162 113.168 11.6849 113.196 12.3649 113.253C13.0449 113.31 13.5832 113.378 13.9799 113.457V114.749C13.5492 114.681 13.0166 114.63 12.3819 114.596C11.7472 114.551 11.1579 114.528 10.6139 114.528C9.97924 114.528 9.46924 114.556 9.0839 114.613C8.69857 114.67 8.39824 114.766 8.1829 114.902C7.9449 115.038 7.7919 115.219 7.7239 115.446C7.6559 115.673 7.6219 115.996 7.6219 116.415C7.6219 116.88 7.6559 117.22 7.7239 117.435C7.7919 117.639 7.92224 117.792 8.1149 117.894C8.30757 117.985 8.6249 118.053 9.0669 118.098L11.9229 118.421C12.6029 118.489 13.1299 118.608 13.5039 118.778C13.8779 118.948 14.1499 119.254 14.3199 119.696C14.4786 120.104 14.5579 120.756 14.5579 121.651C14.5579 122.682 14.3992 123.453 14.0819 123.963C13.7646 124.462 13.3396 124.785 12.8069 124.932C12.2742 125.068 11.5432 125.136 10.6139 125.136ZM20.2683 125V114.715H16.5623V113.304H25.4193V114.715H21.7303V125H20.2683ZM34.7305 125L33.5235 121.889H28.2535L27.0465 125H25.5675L29.9875 113.304H31.8235L36.2435 125H34.7305ZM30.9225 114.885H30.8375L28.6955 120.512H33.0645L30.9225 114.885ZM45.9946 125L44.1756 120.41H43.8866H40.2146V125H38.7526V113.304H44.1246C45.054 113.304 45.7566 113.451 46.2326 113.746C46.7086 114.041 47.0203 114.437 47.1676 114.936C47.315 115.435 47.3886 116.075 47.3886 116.857C47.3886 117.662 47.2696 118.364 47.0316 118.965C46.7936 119.554 46.3063 119.957 45.5696 120.172L47.5586 125H45.9946ZM43.5126 119.05C44.238 119.05 44.7706 118.976 45.1106 118.829C45.462 118.67 45.683 118.444 45.7736 118.149C45.8756 117.854 45.9266 117.424 45.9266 116.857C45.9266 116.279 45.8813 115.843 45.7906 115.548C45.7 115.253 45.4903 115.032 45.1616 114.885C44.8443 114.738 44.3343 114.664 43.6316 114.664H40.2146V119.05H43.5126ZM53.1965 125V114.715H49.4905V113.304H58.3475V114.715H54.6585V125H53.1965ZM64.31 120.818V119.475H68.458V120.818H64.31ZM79.8252 125.136C78.3745 125.136 77.3375 124.977 76.7142 124.66C76.1022 124.331 75.7168 123.787 75.5582 123.028C75.3995 122.257 75.3202 120.965 75.3202 119.152C75.3202 117.339 75.3995 116.052 75.5582 115.293C75.7168 114.522 76.1022 113.978 76.7142 113.661C77.3375 113.332 78.3745 113.168 79.8252 113.168C81.2872 113.168 82.3242 113.332 82.9362 113.661C83.5595 113.978 83.9505 114.522 84.1092 115.293C84.2678 116.052 84.3472 117.339 84.3472 119.152C84.3472 120.965 84.2678 122.257 84.1092 123.028C83.9505 123.787 83.5595 124.331 82.9362 124.66C82.3242 124.977 81.2872 125.136 79.8252 125.136ZM79.8252 123.402C80.7432 123.402 81.3608 123.334 81.6782 123.198C82.0068 123.062 82.2165 122.728 82.3072 122.195C82.3978 121.662 82.4432 120.648 82.4432 119.152C82.4432 117.656 82.3978 116.642 82.3072 116.109C82.2165 115.576 82.0068 115.242 81.6782 115.106C81.3608 114.97 80.7432 114.902 79.8252 114.902C78.9072 114.902 78.2895 114.97 77.9722 115.106C77.6548 115.242 77.4508 115.576 77.3602 116.109C77.2695 116.63 77.2242 117.645 77.2242 119.152C77.2242 120.659 77.2695 121.679 77.3602 122.212C77.4508 122.733 77.6548 123.062 77.9722 123.198C78.2895 123.334 78.9072 123.402 79.8252 123.402ZM91.5538 125.136C90.1032 125.136 89.0662 124.977 88.4428 124.66C87.8308 124.331 87.4455 123.787 87.2868 123.028C87.1282 122.257 87.0488 120.965 87.0488 119.152C87.0488 117.339 87.1282 116.052 87.2868 115.293C87.4455 114.522 87.8308 113.978 88.4428 113.661C89.0662 113.332 90.1032 113.168 91.5538 113.168C93.0158 113.168 94.0528 113.332 94.6648 113.661C95.2882 113.978 95.6792 114.522 95.8378 115.293C95.9965 116.052 96.0758 117.339 96.0758 119.152C96.0758 120.965 95.9965 122.257 95.8378 123.028C95.6792 123.787 95.2882 124.331 94.6648 124.66C94.0528 124.977 93.0158 125.136 91.5538 125.136ZM91.5538 123.402C92.4718 123.402 93.0895 123.334 93.4068 123.198C93.7355 123.062 93.9452 122.728 94.0358 122.195C94.1265 121.662 94.1718 120.648 94.1718 119.152C94.1718 117.656 94.1265 116.642 94.0358 116.109C93.9452 115.576 93.7355 115.242 93.4068 115.106C93.0895 114.97 92.4718 114.902 91.5538 114.902C90.6358 114.902 90.0182 114.97 89.7008 115.106C89.3835 115.242 89.1795 115.576 89.0888 116.109C88.9982 116.63 88.9528 117.645 88.9528 119.152C88.9528 120.659 88.9982 121.679 89.0888 122.212C89.1795 122.733 89.3835 123.062 89.7008 123.198C90.0182 123.334 90.6358 123.402 91.5538 123.402ZM103.283 125.136C101.832 125.136 100.795 124.977 100.171 124.66C99.5595 124.331 99.1742 123.787 99.0155 123.028C98.8568 122.257 98.7775 120.965 98.7775 119.152C98.7775 117.339 98.8568 116.052 99.0155 115.293C99.1742 114.522 99.5595 113.978 100.171 113.661C100.795 113.332 101.832 113.168 103.283 113.168C104.745 113.168 105.782 113.332 106.394 113.661C107.017 113.978 107.408 114.522 107.567 115.293C107.725 116.052 107.805 117.339 107.805 119.152C107.805 120.965 107.725 122.257 107.567 123.028C107.408 123.787 107.017 124.331 106.394 124.66C105.782 124.977 104.745 125.136 103.283 125.136ZM103.283 123.402C104.201 123.402 104.818 123.334 105.136 123.198C105.464 123.062 105.674 122.728 105.765 122.195C105.855 121.662 105.901 120.648 105.901 119.152C105.901 117.656 105.855 116.642 105.765 116.109C105.674 115.576 105.464 115.242 105.136 115.106C104.818 114.97 104.201 114.902 103.283 114.902C102.365 114.902 101.747 114.97 101.429 115.106C101.112 115.242 100.908 115.576 100.817 116.109C100.727 116.63 100.681 117.645 100.681 119.152C100.681 120.659 100.727 121.679 100.817 122.212C100.908 122.733 101.112 123.062 101.429 123.198C101.747 123.334 102.365 123.402 103.283 123.402ZM110.132 126.394C110.574 126.394 110.863 126.32 110.999 126.173C111.147 126.037 111.22 125.742 111.22 125.289V125H110.421V122.96H112.461V124.439C112.461 125.255 112.405 125.856 112.291 126.241C112.189 126.626 111.974 126.893 111.645 127.04C111.328 127.187 110.824 127.261 110.132 127.261V126.394ZM119.568 125.136C118.117 125.136 117.08 124.977 116.457 124.66C115.845 124.331 115.46 123.787 115.301 123.028C115.142 122.257 115.063 120.965 115.063 119.152C115.063 117.339 115.142 116.052 115.301 115.293C115.46 114.522 115.845 113.978 116.457 113.661C117.08 113.332 118.117 113.168 119.568 113.168C121.03 113.168 122.067 113.332 122.679 113.661C123.302 113.978 123.693 114.522 123.852 115.293C124.011 116.052 124.09 117.339 124.09 119.152C124.09 120.965 124.011 122.257 123.852 123.028C123.693 123.787 123.302 124.331 122.679 124.66C122.067 124.977 121.03 125.136 119.568 125.136ZM119.568 123.402C120.486 123.402 121.104 123.334 121.421 123.198C121.75 123.062 121.959 122.728 122.05 122.195C122.141 121.662 122.186 120.648 122.186 119.152C122.186 117.656 122.141 116.642 122.05 116.109C121.959 115.576 121.75 115.242 121.421 115.106C121.104 114.97 120.486 114.902 119.568 114.902C118.65 114.902 118.032 114.97 117.715 115.106C117.398 115.242 117.194 115.576 117.103 116.109C117.012 116.63 116.967 117.645 116.967 119.152C116.967 120.659 117.012 121.679 117.103 122.212C117.194 122.733 117.398 123.062 117.715 123.198C118.032 123.334 118.65 123.402 119.568 123.402ZM131.297 125.136C129.846 125.136 128.809 124.977 128.186 124.66C127.574 124.331 127.188 123.787 127.03 123.028C126.871 122.257 126.792 120.965 126.792 119.152C126.792 117.339 126.871 116.052 127.03 115.293C127.188 114.522 127.574 113.978 128.186 113.661C128.809 113.332 129.846 113.168 131.297 113.168C132.759 113.168 133.796 113.332 134.408 113.661C135.031 113.978 135.422 114.522 135.581 115.293C135.739 116.052 135.819 117.339 135.819 119.152C135.819 120.965 135.739 122.257 135.581 123.028C135.422 123.787 135.031 124.331 134.408 124.66C133.796 124.977 132.759 125.136 131.297 125.136ZM131.297 123.402C132.215 123.402 132.832 123.334 133.15 123.198C133.478 123.062 133.688 122.728 133.779 122.195C133.869 121.662 133.915 120.648 133.915 119.152C133.915 117.656 133.869 116.642 133.779 116.109C133.688 115.576 133.478 115.242 133.15 115.106C132.832 114.97 132.215 114.902 131.297 114.902C130.379 114.902 129.761 114.97 129.444 115.106C129.126 115.242 128.922 115.576 128.832 116.109C128.741 116.63 128.696 117.645 128.696 119.152C128.696 120.659 128.741 121.679 128.832 122.212C128.922 122.733 129.126 123.062 129.444 123.198C129.761 123.334 130.379 123.402 131.297 123.402ZM143.025 125.136C141.575 125.136 140.538 124.977 139.914 124.66C139.302 124.331 138.917 123.787 138.758 123.028C138.6 122.257 138.52 120.965 138.52 119.152C138.52 117.339 138.6 116.052 138.758 115.293C138.917 114.522 139.302 113.978 139.914 113.661C140.538 113.332 141.575 113.168 143.025 113.168C144.487 113.168 145.524 113.332 146.136 113.661C146.76 113.978 147.151 114.522 147.309 115.293C147.468 116.052 147.547 117.339 147.547 119.152C147.547 120.965 147.468 122.257 147.309 123.028C147.151 123.787 146.76 124.331 146.136 124.66C145.524 124.977 144.487 125.136 143.025 125.136ZM143.025 123.402C143.943 123.402 144.561 123.334 144.878 123.198C145.207 123.062 145.417 122.728 145.507 122.195C145.598 121.662 145.643 120.648 145.643 119.152C145.643 117.656 145.598 116.642 145.507 116.109C145.417 115.576 145.207 115.242 144.878 115.106C144.561 114.97 143.943 114.902 143.025 114.902C142.107 114.902 141.49 114.97 141.172 115.106C140.855 115.242 140.651 115.576 140.56 116.109C140.47 116.63 140.424 117.645 140.424 119.152C140.424 120.659 140.47 121.679 140.56 122.212C140.651 122.733 140.855 123.062 141.172 123.198C141.49 123.334 142.107 123.402 143.025 123.402ZM161.373 121.158C161.373 121.827 161.282 122.348 161.101 122.722C160.931 123.096 160.648 123.368 160.251 123.538C159.854 123.697 159.293 123.799 158.568 123.844V125.136H157.497V123.844C156.511 123.81 155.638 123.736 154.879 123.623V122.365C155.672 122.467 156.545 122.524 157.497 122.535V119.747L156.545 119.628C155.786 119.537 155.27 119.305 154.998 118.931C154.726 118.546 154.59 117.951 154.59 117.146C154.59 116.194 154.822 115.531 155.287 115.157C155.763 114.783 156.5 114.568 157.497 114.511V113.168H158.568V114.494C159.35 114.505 160.126 114.585 160.897 114.732V115.973C160.149 115.882 159.373 115.82 158.568 115.786V118.489L159.588 118.591C160.053 118.648 160.41 118.755 160.659 118.914C160.908 119.061 161.09 119.311 161.203 119.662C161.316 120.002 161.373 120.501 161.373 121.158ZM157.497 118.37V115.786C156.953 115.809 156.562 115.911 156.324 116.092C156.086 116.262 155.967 116.591 155.967 117.078C155.967 117.441 155.995 117.701 156.052 117.86C156.109 118.007 156.205 118.115 156.341 118.183C156.477 118.24 156.709 118.285 157.038 118.319L157.497 118.37ZM158.568 122.535C158.976 122.512 159.282 122.456 159.486 122.365C159.69 122.274 159.826 122.138 159.894 121.957C159.962 121.776 159.996 121.521 159.996 121.192C159.996 120.807 159.968 120.535 159.911 120.376C159.854 120.206 159.758 120.098 159.622 120.053C159.486 119.996 159.254 119.951 158.925 119.917L158.568 119.866V122.535Z" fill="#D8E8FF"/>
<rect y="63.5645" width="138.624" height="1" transform="rotate(-23.6495 0 63.5645)" fill="#D8E8FF"/>
<defs>
<filter id="filter0_d" x="129.021" y="6" width="22" height="22" filterUnits="userSpaceOnUse" color-interpolation-filters="sRGB">
<feFlood flood-opacity="0" result="BackgroundImageFix"/>
<feColorMatrix in="SourceAlpha" type="matrix" values="0 0 0 0 0 0 0 0 0 0 0 0 0 0 0 0 0 0 127 0" result="hardAlpha"/>
<feOffset dy="2"/>
<feGaussianBlur stdDeviation="1.5"/>
<feColorMatrix type="matrix" values="0 0 0 0 0 0 0 0 0 0 0 0 0 0 0 0 0 0 0.8 0"/>
<feBlend mode="normal" in2="BackgroundImageFix" result="effect1_dropShadow"/>
<feBlend mode="normal" in="SourceGraphic" in2="effect1_dropShadow" result="shape"/>
</filter>
</defs>
</svg>
