<svg width="198" height="124" viewBox="0 0 198 124" fill="none" xmlns="http://www.w3.org/2000/svg">
<g filter="url(#filter0_d)">
<circle cx="161" cy="15" r="8" fill="#5CE1E6"/>
<circle cx="161" cy="15" r="6.5" stroke="#D8E8FF" stroke-width="3"/>
</g>
<circle opacity="0.85" cx="161" cy="15" r="14.5" stroke="#D8E8FF"/>
<path d="M10.216 84V73.715H6.51V72.304H15.367V73.715H11.678V84H10.216ZM24.8535 84V78.815H18.7165V84H17.2545V72.304H18.7165V77.404H24.8535V72.304H26.2985V84H24.8535ZM29.3657 84V72.304H36.9817V73.664H30.8277V77.421H36.1657V78.781H30.8277V82.64H36.9817V84H29.3657ZM53.5374 84V74.803H53.4694L49.4574 84H48.3864L44.3914 74.803H44.3234V84H42.9464V72.304H44.9184L48.9134 81.399H48.9984L52.9934 72.304H54.9654V84H53.5374ZM58.0293 84V72.304H59.4913V84H58.0293ZM62.5536 84V72.304H64.0156V82.589H69.4726V84H62.5536ZM78.909 84L74.931 78.73H72.823V84H71.361V72.304H72.823V77.37H74.931L78.926 72.304H80.558L76.104 77.965L80.609 84H78.909ZM85.1633 84V79.58L80.9303 72.304H82.4943L85.8773 77.999H85.9963L89.3623 72.304H90.8923L86.6253 79.58V84H85.1633ZM105.445 84L102.606 74.701H102.538L99.7162 84H97.9822L94.7862 72.304H96.2822L98.9002 81.994H98.9852L101.841 72.304H103.371L106.261 81.994H106.363L108.896 72.304H110.358L107.179 84H105.445ZM119.593 84L118.386 80.889H113.116L111.909 84H110.43L114.85 72.304H116.686L121.106 84H119.593ZM115.785 73.885H115.7L113.558 79.512H117.927L115.785 73.885ZM124.477 84V79.58L120.244 72.304H121.808L125.191 77.999H125.31L128.676 72.304H130.206L125.939 79.58V84H124.477ZM139.438 79.002V77.659H143.484V83.796C142.929 83.898 142.3 83.9773 141.597 84.034C140.906 84.102 140.294 84.136 139.761 84.136C138.333 84.136 137.273 83.983 136.582 83.677C135.902 83.3597 135.432 82.793 135.171 81.977C134.922 81.1497 134.797 79.8747 134.797 78.152C134.797 76.4407 134.927 75.1713 135.188 74.344C135.449 73.5167 135.919 72.95 136.599 72.644C137.29 72.3267 138.344 72.168 139.761 72.168C140.316 72.168 140.934 72.202 141.614 72.27C142.305 72.338 142.912 72.4173 143.433 72.508V73.8C142.141 73.6187 141.155 73.528 140.475 73.528C139.126 73.528 138.186 73.6017 137.653 73.749C137.132 73.8963 136.763 74.2817 136.548 74.905C136.344 75.5283 136.242 76.6107 136.242 78.152C136.242 79.58 136.321 80.6057 136.48 81.229C136.639 81.8523 136.956 82.2717 137.432 82.487C137.908 82.7023 138.69 82.81 139.778 82.81C140.118 82.81 140.515 82.7987 140.968 82.776C141.421 82.742 141.79 82.708 142.073 82.674V79.002H139.438ZM154.292 84L153.085 80.889H147.815L146.608 84H145.129L149.549 72.304H151.385L155.805 84H154.292ZM150.484 73.885H150.399L148.257 79.512H152.626L150.484 73.885ZM157.634 84V72.304H159.096V82.589H164.553V84H157.634ZM174.38 84L173.173 80.889H167.903L166.696 84H165.217L169.637 72.304H171.473L175.893 84H174.38ZM170.572 73.885H170.487L168.345 79.512H172.714L170.572 73.885ZM185.288 84L181.803 79.393H181.667L178.182 84H176.516L180.885 78.135L176.584 72.304H178.318L181.718 76.809H181.854L185.271 72.304H186.954L182.653 78.084L187.005 84H185.288ZM191.591 84V79.58L187.358 72.304H188.922L192.305 77.999H192.424L195.79 72.304H197.32L193.053 79.58V84H191.591Z" fill="#D8E8FF"/>
<path d="M11.593 115.136C10.9697 115.136 10.2727 115.113 9.502 115.068C8.74267 115.023 8.06833 114.966 7.479 114.898V113.555C8.95233 113.702 10.182 113.776 11.168 113.776C11.78 113.776 12.2617 113.753 12.613 113.708C12.9757 113.651 13.2817 113.555 13.531 113.419C13.7577 113.283 13.905 113.085 13.973 112.824C14.041 112.552 14.075 112.195 14.075 111.753C14.075 111.22 14.0467 110.846 13.99 110.631C13.9333 110.404 13.7973 110.24 13.582 110.138C13.378 110.036 13.021 109.962 12.511 109.917L9.621 109.594C8.91833 109.515 8.38567 109.35 8.023 109.101C7.67167 108.84 7.43367 108.506 7.309 108.098C7.19567 107.679 7.139 107.135 7.139 106.466C7.139 105.537 7.29767 104.834 7.615 104.358C7.94367 103.882 8.397 103.565 8.975 103.406C9.56433 103.247 10.352 103.168 11.338 103.168C11.9953 103.168 12.664 103.196 13.344 103.253C14.024 103.31 14.5623 103.378 14.959 103.457V104.749C14.5283 104.681 13.9957 104.63 13.361 104.596C12.7263 104.551 12.137 104.528 11.593 104.528C10.9583 104.528 10.4483 104.556 10.063 104.613C9.67767 104.67 9.37733 104.766 9.162 104.902C8.924 105.038 8.771 105.219 8.703 105.446C8.635 105.673 8.601 105.996 8.601 106.415C8.601 106.88 8.635 107.22 8.703 107.435C8.771 107.639 8.90133 107.792 9.094 107.894C9.28667 107.985 9.604 108.053 10.046 108.098L12.902 108.421C13.582 108.489 14.109 108.608 14.483 108.778C14.857 108.948 15.129 109.254 15.299 109.696C15.4577 110.104 15.537 110.756 15.537 111.651C15.537 112.682 15.3783 113.453 15.061 113.963C14.7437 114.462 14.3187 114.785 13.786 114.932C13.2533 115.068 12.5223 115.136 11.593 115.136ZM20.5674 115V104.715H16.8614V103.304H25.7184V104.715H22.0294V115H20.5674ZM34.3496 115L33.1426 111.889H27.8726L26.6656 115H25.1866L29.6066 103.304H31.4426L35.8626 115H34.3496ZM30.5416 104.885H30.4566L28.3146 110.512H32.6836L30.5416 104.885ZM44.9337 115L43.1147 110.41H42.8257H39.1537V115H37.6917V103.304H43.0637C43.9931 103.304 44.6957 103.451 45.1717 103.746C45.6477 104.041 45.9594 104.437 46.1067 104.936C46.2541 105.435 46.3277 106.075 46.3277 106.857C46.3277 107.662 46.2087 108.364 45.9707 108.965C45.7327 109.554 45.2454 109.957 44.5087 110.172L46.4977 115H44.9337ZM42.4517 109.05C43.1771 109.05 43.7097 108.976 44.0497 108.829C44.4011 108.67 44.6221 108.444 44.7127 108.149C44.8147 107.854 44.8657 107.424 44.8657 106.857C44.8657 106.279 44.8204 105.843 44.7297 105.548C44.6391 105.253 44.4294 105.032 44.1007 104.885C43.7834 104.738 43.2734 104.664 42.5707 104.664H39.1537V109.05H42.4517ZM51.4556 115V104.715H47.7496V103.304H56.6066V104.715H52.9176V115H51.4556ZM57.7971 110.818V109.475H61.9451V110.818H57.7971ZM68.2913 115.136C66.8407 115.136 65.8037 114.977 65.1803 114.66C64.5683 114.331 64.183 113.787 64.0243 113.028C63.8657 112.257 63.7863 110.965 63.7863 109.152C63.7863 107.339 63.8657 106.052 64.0243 105.293C64.183 104.522 64.5683 103.978 65.1803 103.661C65.8037 103.332 66.8407 103.168 68.2913 103.168C69.7533 103.168 70.7903 103.332 71.4023 103.661C72.0257 103.978 72.4167 104.522 72.5753 105.293C72.734 106.052 72.8133 107.339 72.8133 109.152C72.8133 110.965 72.734 112.257 72.5753 113.028C72.4167 113.787 72.0257 114.331 71.4023 114.66C70.7903 114.977 69.7533 115.136 68.2913 115.136ZM68.2913 113.402C69.2093 113.402 69.827 113.334 70.1443 113.198C70.473 113.062 70.6827 112.728 70.7733 112.195C70.864 111.662 70.9093 110.648 70.9093 109.152C70.9093 107.656 70.864 106.642 70.7733 106.109C70.6827 105.576 70.473 105.242 70.1443 105.106C69.827 104.97 69.2093 104.902 68.2913 104.902C67.3733 104.902 66.7557 104.97 66.4383 105.106C66.121 105.242 65.917 105.576 65.8263 106.109C65.7357 106.63 65.6903 107.645 65.6903 109.152C65.6903 110.659 65.7357 111.679 65.8263 112.212C65.917 112.733 66.121 113.062 66.4383 113.198C66.7557 113.334 67.3733 113.402 68.2913 113.402ZM79.34 115.136C77.8893 115.136 76.8523 114.977 76.229 114.66C75.617 114.331 75.2317 113.787 75.073 113.028C74.9143 112.257 74.835 110.965 74.835 109.152C74.835 107.339 74.9143 106.052 75.073 105.293C75.2317 104.522 75.617 103.978 76.229 103.661C76.8523 103.332 77.8893 103.168 79.34 103.168C80.802 103.168 81.839 103.332 82.451 103.661C83.0743 103.978 83.4653 104.522 83.624 105.293C83.7827 106.052 83.862 107.339 83.862 109.152C83.862 110.965 83.7827 112.257 83.624 113.028C83.4653 113.787 83.0743 114.331 82.451 114.66C81.839 114.977 80.802 115.136 79.34 115.136ZM79.34 113.402C80.258 113.402 80.8757 113.334 81.193 113.198C81.5217 113.062 81.7313 112.728 81.822 112.195C81.9127 111.662 81.958 110.648 81.958 109.152C81.958 107.656 81.9127 106.642 81.822 106.109C81.7313 105.576 81.5217 105.242 81.193 105.106C80.8757 104.97 80.258 104.902 79.34 104.902C78.422 104.902 77.8043 104.97 77.487 105.106C77.1697 105.242 76.9657 105.576 76.875 106.109C76.7843 106.63 76.739 107.645 76.739 109.152C76.739 110.659 76.7843 111.679 76.875 112.212C76.9657 112.733 77.1697 113.062 77.487 113.198C77.8043 113.334 78.422 113.402 79.34 113.402ZM90.3887 115.136C88.938 115.136 87.901 114.977 87.2777 114.66C86.6657 114.331 86.2803 113.787 86.1217 113.028C85.963 112.257 85.8837 110.965 85.8837 109.152C85.8837 107.339 85.963 106.052 86.1217 105.293C86.2803 104.522 86.6657 103.978 87.2777 103.661C87.901 103.332 88.938 103.168 90.3887 103.168C91.8507 103.168 92.8877 103.332 93.4997 103.661C94.123 103.978 94.514 104.522 94.6727 105.293C94.8313 106.052 94.9107 107.339 94.9107 109.152C94.9107 110.965 94.8313 112.257 94.6727 113.028C94.514 113.787 94.123 114.331 93.4997 114.66C92.8877 114.977 91.8507 115.136 90.3887 115.136ZM90.3887 113.402C91.3067 113.402 91.9243 113.334 92.2417 113.198C92.5703 113.062 92.78 112.728 92.8707 112.195C92.9613 111.662 93.0067 110.648 93.0067 109.152C93.0067 107.656 92.9613 106.642 92.8707 106.109C92.78 105.576 92.5703 105.242 92.2417 105.106C91.9243 104.97 91.3067 104.902 90.3887 104.902C89.4707 104.902 88.853 104.97 88.5357 105.106C88.2183 105.242 88.0143 105.576 87.9237 106.109C87.833 106.63 87.7877 107.645 87.7877 109.152C87.7877 110.659 87.833 111.679 87.9237 112.212C88.0143 112.733 88.2183 113.062 88.5357 113.198C88.853 113.334 89.4707 113.402 90.3887 113.402ZM96.5583 116.394C97.0003 116.394 97.2893 116.32 97.4253 116.173C97.5727 116.037 97.6463 115.742 97.6463 115.289V115H96.8473V112.96H98.8873V114.439C98.8873 115.255 98.8307 115.856 98.7173 116.241C98.6153 116.626 98.4 116.893 98.0713 117.04C97.754 117.187 97.2497 117.261 96.5583 117.261V116.394ZM105.314 115.136C103.863 115.136 102.826 114.977 102.203 114.66C101.591 114.331 101.206 113.787 101.047 113.028C100.888 112.257 100.809 110.965 100.809 109.152C100.809 107.339 100.888 106.052 101.047 105.293C101.206 104.522 101.591 103.978 102.203 103.661C102.826 103.332 103.863 103.168 105.314 103.168C106.776 103.168 107.813 103.332 108.425 103.661C109.048 103.978 109.439 104.522 109.598 105.293C109.757 106.052 109.836 107.339 109.836 109.152C109.836 110.965 109.757 112.257 109.598 113.028C109.439 113.787 109.048 114.331 108.425 114.66C107.813 114.977 106.776 115.136 105.314 115.136ZM105.314 113.402C106.232 113.402 106.85 113.334 107.167 113.198C107.496 113.062 107.705 112.728 107.796 112.195C107.887 111.662 107.932 110.648 107.932 109.152C107.932 107.656 107.887 106.642 107.796 106.109C107.705 105.576 107.496 105.242 107.167 105.106C106.85 104.97 106.232 104.902 105.314 104.902C104.396 104.902 103.778 104.97 103.461 105.106C103.144 105.242 102.94 105.576 102.849 106.109C102.758 106.63 102.713 107.645 102.713 109.152C102.713 110.659 102.758 111.679 102.849 112.212C102.94 112.733 103.144 113.062 103.461 113.198C103.778 113.334 104.396 113.402 105.314 113.402ZM116.363 115.136C114.912 115.136 113.875 114.977 113.252 114.66C112.64 114.331 112.254 113.787 112.096 113.028C111.937 112.257 111.858 110.965 111.858 109.152C111.858 107.339 111.937 106.052 112.096 105.293C112.254 104.522 112.64 103.978 113.252 103.661C113.875 103.332 114.912 103.168 116.363 103.168C117.825 103.168 118.862 103.332 119.474 103.661C120.097 103.978 120.488 104.522 120.647 105.293C120.805 106.052 120.885 107.339 120.885 109.152C120.885 110.965 120.805 112.257 120.647 113.028C120.488 113.787 120.097 114.331 119.474 114.66C118.862 114.977 117.825 115.136 116.363 115.136ZM116.363 113.402C117.281 113.402 117.898 113.334 118.216 113.198C118.544 113.062 118.754 112.728 118.845 112.195C118.935 111.662 118.981 110.648 118.981 109.152C118.981 107.656 118.935 106.642 118.845 106.109C118.754 105.576 118.544 105.242 118.216 105.106C117.898 104.97 117.281 104.902 116.363 104.902C115.445 104.902 114.827 104.97 114.51 105.106C114.192 105.242 113.988 105.576 113.898 106.109C113.807 106.63 113.762 107.645 113.762 109.152C113.762 110.659 113.807 111.679 113.898 112.212C113.988 112.733 114.192 113.062 114.51 113.198C114.827 113.334 115.445 113.402 116.363 113.402ZM127.411 115.136C125.961 115.136 124.924 114.977 124.3 114.66C123.688 114.331 123.303 113.787 123.144 113.028C122.986 112.257 122.906 110.965 122.906 109.152C122.906 107.339 122.986 106.052 123.144 105.293C123.303 104.522 123.688 103.978 124.3 103.661C124.924 103.332 125.961 103.168 127.411 103.168C128.873 103.168 129.91 103.332 130.522 103.661C131.146 103.978 131.537 104.522 131.695 105.293C131.854 106.052 131.933 107.339 131.933 109.152C131.933 110.965 131.854 112.257 131.695 113.028C131.537 113.787 131.146 114.331 130.522 114.66C129.91 114.977 128.873 115.136 127.411 115.136ZM127.411 113.402C128.329 113.402 128.947 113.334 129.264 113.198C129.593 113.062 129.803 112.728 129.893 112.195C129.984 111.662 130.029 110.648 130.029 109.152C130.029 107.656 129.984 106.642 129.893 106.109C129.803 105.576 129.593 105.242 129.264 105.106C128.947 104.97 128.329 104.902 127.411 104.902C126.493 104.902 125.876 104.97 125.558 105.106C125.241 105.242 125.037 105.576 124.946 106.109C124.856 106.63 124.81 107.645 124.81 109.152C124.81 110.659 124.856 111.679 124.946 112.212C125.037 112.733 125.241 113.062 125.558 113.198C125.876 113.334 126.493 113.402 127.411 113.402ZM144.399 111.158C144.399 111.827 144.308 112.348 144.127 112.722C143.957 113.096 143.674 113.368 143.277 113.538C142.88 113.697 142.319 113.799 141.594 113.844V115.136H140.523V113.844C139.537 113.81 138.664 113.736 137.905 113.623V112.365C138.698 112.467 139.571 112.524 140.523 112.535V109.747L139.571 109.628C138.812 109.537 138.296 109.305 138.024 108.931C137.752 108.546 137.616 107.951 137.616 107.146C137.616 106.194 137.848 105.531 138.313 105.157C138.789 104.783 139.526 104.568 140.523 104.511V103.168H141.594V104.494C142.376 104.505 143.152 104.585 143.923 104.732V105.973C143.175 105.882 142.399 105.82 141.594 105.786V108.489L142.614 108.591C143.079 108.648 143.436 108.755 143.685 108.914C143.934 109.061 144.116 109.311 144.229 109.662C144.342 110.002 144.399 110.501 144.399 111.158ZM140.523 108.37V105.786C139.979 105.809 139.588 105.911 139.35 106.092C139.112 106.262 138.993 106.591 138.993 107.078C138.993 107.441 139.021 107.701 139.078 107.86C139.135 108.007 139.231 108.115 139.367 108.183C139.503 108.24 139.735 108.285 140.064 108.319L140.523 108.37ZM141.594 112.535C142.002 112.512 142.308 112.456 142.512 112.365C142.716 112.274 142.852 112.138 142.92 111.957C142.988 111.776 143.022 111.521 143.022 111.192C143.022 110.807 142.994 110.535 142.937 110.376C142.88 110.206 142.784 110.098 142.648 110.053C142.512 109.996 142.28 109.951 141.951 109.917L141.594 109.866V112.535Z" fill="#D8E8FF"/>
<rect x="2" y="93" width="196" height="1" fill="#D8E8FF"/>
<rect x="146.533" y="16.334" width="150.464" height="0.999984" transform="rotate(165 146.533 16.334)" fill="#D8E8FF"/>
<rect x="1" y="54" width="1" height="40" fill="#D8E8FF"/>
<defs>
<filter id="filter0_d" x="150" y="6" width="22" height="22" filterUnits="userSpaceOnUse" color-interpolation-filters="sRGB">
<feFlood flood-opacity="0" result="BackgroundImageFix"/>
<feColorMatrix in="SourceAlpha" type="matrix" values="0 0 0 0 0 0 0 0 0 0 0 0 0 0 0 0 0 0 127 0" result="hardAlpha"/>
<feOffset dy="2"/>
<feGaussianBlur stdDeviation="1.5"/>
<feColorMatrix type="matrix" values="0 0 0 0 0 0 0 0 0 0 0 0 0 0 0 0 0 0 0.8 0"/>
<feBlend mode="normal" in2="BackgroundImageFix" result="effect1_dropShadow"/>
<feBlend mode="normal" in="SourceGraphic" in2="effect1_dropShadow" result="shape"/>
</filter>
</defs>
</svg>
