<svg width="228" height="102" viewBox="0 0 228 102" fill="none" xmlns="http://www.w3.org/2000/svg">
<g filter="url(#filter0_d)">
<circle cx="210" cy="84" r="8" fill="#F1C2C7"/>
<circle cx="210" cy="84" r="6.5" stroke="#D8E8FF" stroke-width="3"/>
</g>
<circle opacity="0.85" cx="210" cy="84" r="14.5" stroke="#D8E8FF"/>
<circle opacity="0.5" cx="210" cy="84" r="17.5" stroke="#D8E8FF"/>
<path d="M4.216 21V10.715H0.51V9.304H9.367V10.715H5.678V21H4.216ZM15.6575 21.136C14.1049 21.136 13.0055 20.983 12.3595 20.677C11.7135 20.371 11.2999 19.8383 11.1185 19.079C10.9485 18.3083 10.8635 16.9993 10.8635 15.152C10.8635 13.3047 10.9485 12.0013 11.1185 11.242C11.2999 10.4713 11.7135 9.933 12.3595 9.627C13.0055 9.321 14.1049 9.168 15.6575 9.168C17.1989 9.168 18.2925 9.321 18.9385 9.627C19.5959 9.933 20.0095 10.4713 20.1795 11.242C20.3609 12.0013 20.4515 13.3047 20.4515 15.152C20.4515 16.9993 20.3609 18.3083 20.1795 19.079C20.0095 19.8383 19.5959 20.371 18.9385 20.677C18.2925 20.983 17.1989 21.136 15.6575 21.136ZM15.6575 19.776C16.8135 19.776 17.5955 19.7023 18.0035 19.555C18.4115 19.4077 18.6779 19.0393 18.8025 18.45C18.9272 17.8607 18.9895 16.7613 18.9895 15.152C18.9895 13.5427 18.9272 12.4433 18.8025 11.854C18.6779 11.2647 18.4115 10.8963 18.0035 10.749C17.5955 10.6017 16.8135 10.528 15.6575 10.528C14.5015 10.528 13.7139 10.6017 13.2945 10.749C12.8865 10.8963 12.6202 11.2647 12.4955 11.854C12.3709 12.4433 12.3085 13.5427 12.3085 15.152C12.3085 16.7613 12.3709 17.8607 12.4955 18.45C12.6202 19.0393 12.8865 19.4077 13.2945 19.555C13.7139 19.7023 14.5015 19.776 15.6575 19.776ZM30.6647 21L26.6867 15.73H24.5787V21H23.1167V9.304H24.5787V14.37H26.6867L30.6817 9.304H32.3137L27.8597 14.965L32.3647 21H30.6647ZM34.182 21V9.304H41.798V10.664H35.644V14.421H40.982V15.781H35.644V19.64H41.798V21H34.182ZM51.7517 21L45.5807 12.058H45.5127V21H44.1017V9.304H45.5977L51.6837 18.042H51.7517V9.304H53.1457V21H51.7517ZM60.1059 21.136C59.4826 21.136 58.7856 21.1133 58.0149 21.068C57.2556 21.0227 56.5812 20.966 55.9919 20.898V19.555C57.4652 19.7023 58.6949 19.776 59.6809 19.776C60.2929 19.776 60.7746 19.7533 61.1259 19.708C61.4886 19.6513 61.7946 19.555 62.0439 19.419C62.2706 19.283 62.4179 19.0847 62.4859 18.824C62.5539 18.552 62.5879 18.195 62.5879 17.753C62.5879 17.2203 62.5596 16.8463 62.5029 16.631C62.4462 16.4043 62.3102 16.24 62.0949 16.138C61.8909 16.036 61.5339 15.9623 61.0239 15.917L58.1339 15.594C57.4312 15.5147 56.8986 15.3503 56.5359 15.101C56.1846 14.8403 55.9466 14.506 55.8219 14.098C55.7086 13.6787 55.6519 13.1347 55.6519 12.466C55.6519 11.5367 55.8106 10.834 56.1279 10.358C56.4566 9.882 56.9099 9.56467 57.4879 9.406C58.0772 9.24733 58.8649 9.168 59.8509 9.168C60.5082 9.168 61.1769 9.19633 61.8569 9.253C62.5369 9.30967 63.0752 9.37767 63.4719 9.457V10.749C63.0412 10.681 62.5086 10.63 61.8739 10.596C61.2392 10.5507 60.6499 10.528 60.1059 10.528C59.4712 10.528 58.9612 10.5563 58.5759 10.613C58.1906 10.6697 57.8902 10.766 57.6749 10.902C57.4369 11.038 57.2839 11.2193 57.2159 11.446C57.1479 11.6727 57.1139 11.9957 57.1139 12.415C57.1139 12.8797 57.1479 13.2197 57.2159 13.435C57.2839 13.639 57.4142 13.792 57.6069 13.894C57.7996 13.9847 58.1169 14.0527 58.5589 14.098L61.4149 14.421C62.0949 14.489 62.6219 14.608 62.9959 14.778C63.3699 14.948 63.6419 15.254 63.8119 15.696C63.9706 16.104 64.0499 16.7557 64.0499 17.651C64.0499 18.6823 63.8912 19.453 63.5739 19.963C63.2566 20.4617 62.8316 20.7847 62.2989 20.932C61.7662 21.068 61.0352 21.136 60.1059 21.136ZM74.1633 21V15.815H68.0263V21H66.5643V9.304H68.0263V14.404H74.1633V9.304H75.6083V21H74.1633ZM78.6755 21V9.304H80.1375V21H78.6755ZM83.1997 9.304H88.3337C89.2744 9.304 89.9884 9.457 90.4757 9.763C90.9631 10.069 91.2861 10.4827 91.4447 11.004C91.6034 11.5253 91.6827 12.1997 91.6827 13.027C91.6827 13.8203 91.6034 14.4833 91.4447 15.016C91.2861 15.5373 90.9574 15.9567 90.4587 16.274C89.9714 16.5913 89.2517 16.75 88.2997 16.75H84.6617V21H83.1997V9.304ZM87.8067 15.39C88.5434 15.39 89.0817 15.3163 89.4217 15.169C89.7617 15.0103 89.9827 14.7723 90.0847 14.455C90.1867 14.1377 90.2377 13.6617 90.2377 13.027C90.2377 12.3923 90.1867 11.9163 90.0847 11.599C89.9941 11.2817 89.7787 11.0493 89.4387 10.902C89.1101 10.7433 88.5774 10.664 87.8407 10.664H84.6617V15.39H87.8067Z" fill="#D8E8FF"/>
<rect y="30" width="216" height="1" fill="#D8E8FF"/>
<rect x="217" y="30" width="38" height="0.999998" transform="rotate(90 217 30)" fill="#D8E8FF"/>
<defs>
<filter id="filter0_d" x="199" y="75" width="22" height="22" filterUnits="userSpaceOnUse" color-interpolation-filters="sRGB">
<feFlood flood-opacity="0" result="BackgroundImageFix"/>
<feColorMatrix in="SourceAlpha" type="matrix" values="0 0 0 0 0 0 0 0 0 0 0 0 0 0 0 0 0 0 127 0" result="hardAlpha"/>
<feOffset dy="2"/>
<feGaussianBlur stdDeviation="1.5"/>
<feColorMatrix type="matrix" values="0 0 0 0 0 0 0 0 0 0 0 0 0 0 0 0 0 0 0.8 0"/>
<feBlend mode="normal" in2="BackgroundImageFix" result="effect1_dropShadow"/>
<feBlend mode="normal" in="SourceGraphic" in2="effect1_dropShadow" result="shape"/>
</filter>
</defs>
</svg>
