<svg width="250" height="84" viewBox="0 0 250 84" fill="none" xmlns="http://www.w3.org/2000/svg">
<g filter="url(#filter0_d)">
<circle cx="232" cy="66" r="8" fill="#F1C2C7"/>
<circle cx="232" cy="66" r="6.5" stroke="#D8E8FF" stroke-width="3"/>
</g>
<circle opacity="0.85" cx="232" cy="66" r="14.5" stroke="#D8E8FF"/>
<circle opacity="0.5" cx="232" cy="66" r="17.5" stroke="#D8E8FF"/>
<path d="M4.216 21V10.715H0.51V9.304H9.367V10.715H5.678V21H4.216ZM16.3375 21.136C14.7849 21.136 13.6855 20.983 13.0395 20.677C12.3935 20.371 11.9799 19.8383 11.7985 19.079C11.6285 18.3083 11.5435 16.9993 11.5435 15.152C11.5435 13.3047 11.6285 12.0013 11.7985 11.242C11.9799 10.4713 12.3935 9.933 13.0395 9.627C13.6855 9.321 14.7849 9.168 16.3375 9.168C17.8789 9.168 18.9725 9.321 19.6185 9.627C20.2759 9.933 20.6895 10.4713 20.8595 11.242C21.0409 12.0013 21.1315 13.3047 21.1315 15.152C21.1315 16.9993 21.0409 18.3083 20.8595 19.079C20.6895 19.8383 20.2759 20.371 19.6185 20.677C18.9725 20.983 17.8789 21.136 16.3375 21.136ZM16.3375 19.776C17.4935 19.776 18.2755 19.7023 18.6835 19.555C19.0915 19.4077 19.3579 19.0393 19.4825 18.45C19.6072 17.8607 19.6695 16.7613 19.6695 15.152C19.6695 13.5427 19.6072 12.4433 19.4825 11.854C19.3579 11.2647 19.0915 10.8963 18.6835 10.749C18.2755 10.6017 17.4935 10.528 16.3375 10.528C15.1815 10.528 14.3939 10.6017 13.9745 10.749C13.5665 10.8963 13.3002 11.2647 13.1755 11.854C13.0509 12.4433 12.9885 13.5427 12.9885 15.152C12.9885 16.7613 13.0509 17.8607 13.1755 18.45C13.3002 19.0393 13.5665 19.4077 13.9745 19.555C14.3939 19.7023 15.1815 19.776 16.3375 19.776ZM32.0247 21L28.0467 15.73H25.9387V21H24.4767V9.304H25.9387V14.37H28.0467L32.0417 9.304H33.6737L29.2197 14.965L33.7247 21H32.0247ZM36.222 21V9.304H43.838V10.664H37.684V14.421H43.022V15.781H37.684V19.64H43.838V21H36.222ZM54.4717 21L48.3007 12.058H48.2327V21H46.8217V9.304H48.3177L54.4037 18.042H54.4717V9.304H55.8657V21H54.4717ZM63.5059 21.136C62.8826 21.136 62.1856 21.1133 61.4149 21.068C60.6556 21.0227 59.9812 20.966 59.3919 20.898V19.555C60.8652 19.7023 62.0949 19.776 63.0809 19.776C63.6929 19.776 64.1746 19.7533 64.5259 19.708C64.8886 19.6513 65.1946 19.555 65.4439 19.419C65.6706 19.283 65.8179 19.0847 65.8859 18.824C65.9539 18.552 65.9879 18.195 65.9879 17.753C65.9879 17.2203 65.9596 16.8463 65.9029 16.631C65.8462 16.4043 65.7102 16.24 65.4949 16.138C65.2909 16.036 64.9339 15.9623 64.4239 15.917L61.5339 15.594C60.8312 15.5147 60.2986 15.3503 59.9359 15.101C59.5846 14.8403 59.3466 14.506 59.2219 14.098C59.1086 13.6787 59.0519 13.1347 59.0519 12.466C59.0519 11.5367 59.2106 10.834 59.5279 10.358C59.8566 9.882 60.3099 9.56467 60.8879 9.406C61.4772 9.24733 62.2649 9.168 63.2509 9.168C63.9082 9.168 64.5769 9.19633 65.2569 9.253C65.9369 9.30967 66.4752 9.37767 66.8719 9.457V10.749C66.4412 10.681 65.9086 10.63 65.2739 10.596C64.6392 10.5507 64.0499 10.528 63.5059 10.528C62.8712 10.528 62.3612 10.5563 61.9759 10.613C61.5906 10.6697 61.2902 10.766 61.0749 10.902C60.8369 11.038 60.6839 11.2193 60.6159 11.446C60.5479 11.6727 60.5139 11.9957 60.5139 12.415C60.5139 12.8797 60.5479 13.2197 60.6159 13.435C60.6839 13.639 60.8142 13.792 61.0069 13.894C61.1996 13.9847 61.5169 14.0527 61.9589 14.098L64.8149 14.421C65.4949 14.489 66.0219 14.608 66.3959 14.778C66.7699 14.948 67.0419 15.254 67.2119 15.696C67.3706 16.104 67.4499 16.7557 67.4499 17.651C67.4499 18.6823 67.2912 19.453 66.9739 19.963C66.6566 20.4617 66.2316 20.7847 65.6989 20.932C65.1662 21.068 64.4352 21.136 63.5059 21.136ZM78.2433 21V15.815H72.1063V21H70.6443V9.304H72.1063V14.404H78.2433V9.304H79.6883V21H78.2433ZM83.4355 21V9.304H84.8975V21H83.4355ZM88.6397 9.304H93.7737C94.7144 9.304 95.4284 9.457 95.9157 9.763C96.4031 10.069 96.7261 10.4827 96.8847 11.004C97.0434 11.5253 97.1227 12.1997 97.1227 13.027C97.1227 13.8203 97.0434 14.4833 96.8847 15.016C96.7261 15.5373 96.3974 15.9567 95.8987 16.274C95.4114 16.5913 94.6917 16.75 93.7397 16.75H90.1017V21H88.6397V9.304ZM93.2467 15.39C93.9834 15.39 94.5217 15.3163 94.8617 15.169C95.2017 15.0103 95.4227 14.7723 95.5247 14.455C95.6267 14.1377 95.6777 13.6617 95.6777 13.027C95.6777 12.3923 95.6267 11.9163 95.5247 11.599C95.4341 11.2817 95.2187 11.0493 94.8787 10.902C94.5501 10.7433 94.0174 10.664 93.2807 10.664H90.1017V15.39H93.2467Z" fill="#D8E8FF"/>
<rect y="30" width="188" height="1" fill="#D8E8FF"/>
<rect x="187.93" y="30.0669" width="40.6976" height="1" transform="rotate(30 187.93 30.0669)" fill="#D8E8FF"/>
<defs>
<filter id="filter0_d" x="221" y="57" width="22" height="22" filterUnits="userSpaceOnUse" color-interpolation-filters="sRGB">
<feFlood flood-opacity="0" result="BackgroundImageFix"/>
<feColorMatrix in="SourceAlpha" type="matrix" values="0 0 0 0 0 0 0 0 0 0 0 0 0 0 0 0 0 0 127 0" result="hardAlpha"/>
<feOffset dy="2"/>
<feGaussianBlur stdDeviation="1.5"/>
<feColorMatrix type="matrix" values="0 0 0 0 0 0 0 0 0 0 0 0 0 0 0 0 0 0 0.8 0"/>
<feBlend mode="normal" in2="BackgroundImageFix" result="effect1_dropShadow"/>
<feBlend mode="normal" in="SourceGraphic" in2="effect1_dropShadow" result="shape"/>
</filter>
</defs>
</svg>
