<svg width="90" height="132" viewBox="0 0 90 132" fill="none" xmlns="http://www.w3.org/2000/svg">
<g filter="url(#filter0_d)">
<path d="M45 54C28.4314 54 15 67.4314 15 84C15 100.569 28.4314 114 45 114C61.5686 114 75 100.569 75 84C74.9814 67.4391 61.5609 54.0186 45 54ZM40.6 56.3489C39.9721 57.0037 39.3614 57.6731 38.767 58.3569L35.8 61.7771C33.3638 64.588 30.6343 67.1314 27.6593 69.3641C23.7928 72.2633 20.3322 75.6673 17.3691 79.4851C19.3348 67.5811 28.6886 58.266 40.6 56.3489ZM17 84C17 83.779 17.012 83.5617 17.0173 83.342L17.466 82.7051C20.6223 78.217 24.466 74.2543 28.8561 70.963C31.9463 68.646 34.7803 66.0053 37.3101 63.0872L40.2729 59.667C41.3729 58.4013 42.5399 57.1787 43.746 56.0319C44.1622 56.013 44.5798 56 45 56C49.2915 55.9963 53.5255 56.9854 57.371 58.8899L55.4814 60.1221C49.9973 63.6888 45.3218 68.3644 41.7551 73.8479C38.3404 79.0997 33.8628 83.5774 28.6112 86.992C25.1593 89.2553 22.0199 91.9628 19.2753 95.0457C17.771 91.558 16.9968 87.7984 17 84ZM73 84C72.9824 99.4569 60.4569 111.982 45 112C44.4872 112 43.9766 111.984 43.471 111.957C46.5293 107.75 50.1992 104.023 54.3588 100.9C57.4489 98.5824 60.283 95.9418 62.8128 93.0229L65.7771 89.6032C67.4066 87.7239 69.1676 85.9633 71.0468 84.334L72.9657 82.6702C72.987 83.1112 73 83.5543 73 84ZM70.1822 71.7699C71.4793 74.4324 72.3426 77.2859 72.738 80.2207L69.738 82.8213C67.7875 84.5133 65.9601 86.341 64.2683 88.292L61.3 91.713C58.8644 94.5239 56.1354 97.0678 53.1598 99.3C48.6016 102.717 44.6104 106.83 41.333 111.49L41.1638 111.731C38.4346 111.355 35.7763 110.576 33.2763 109.418L37.6997 103.074C41.8564 97.0955 47.1761 92.0181 53.3418 88.1452C59.7851 84.0979 65.3378 78.7819 69.6622 72.521L70.1822 71.7699ZM68.0183 71.3819C63.8471 77.4213 58.4907 82.5489 52.2753 86.4521C45.883 90.4678 40.367 95.7324 36.0572 101.93L31.4739 108.506C26.6806 105.848 22.766 101.849 20.2098 97C22.9657 93.7902 26.1606 90.9846 29.7 88.667C35.1859 85.1008 39.8633 80.4255 43.4309 74.941C46.8455 69.691 51.3229 65.2138 56.5731 61.8L59.3644 59.9801C63.3803 62.3926 66.7316 65.7673 69.116 69.8L68.0183 71.3819Z" fill="url(#paint0_linear)"/>
<path d="M31.121 79.8789C32.7779 79.8789 34.121 78.5358 34.121 76.8789C34.121 75.222 32.7779 73.8789 31.121 73.8789C29.4643 73.8789 28.121 75.222 28.121 76.8789C28.121 78.5358 29.4643 79.8789 31.121 79.8789ZM31.121 75.8789C31.6734 75.8789 32.121 76.3268 32.121 76.8789C32.121 77.431 31.6734 77.8789 31.121 77.8789C30.5688 77.8789 30.121 77.431 30.121 76.8789C30.121 76.3268 30.5688 75.8789 31.121 75.8789Z" fill="url(#paint1_linear)"/>
<path d="M23.121 78.8789H25.121V80.8786H23.121V78.8789Z" fill="url(#paint2_linear)"/>
<path d="M37.121 66.8789H39.121V68.8789H37.121V66.8789Z" fill="url(#paint3_linear)"/>
<path d="M50.121 74.8789H52.121V76.8789H50.121V74.8789Z" fill="url(#paint4_linear)"/>
<path d="M39.121 84.8789C36.9119 84.8789 35.121 86.6699 35.121 88.8789C35.121 91.088 36.9119 92.8792 39.121 92.8792C41.33 92.8792 43.1212 91.088 43.1212 88.8789C43.1212 86.6699 41.33 84.8789 39.121 84.8789ZM39.121 90.8789C38.0164 90.8789 37.121 89.9837 37.121 88.8789C37.121 87.7744 38.0164 86.8789 39.121 86.8789C40.2258 86.8789 41.121 87.7744 41.121 88.8789C41.121 89.9837 40.2258 90.8789 39.121 90.8789Z" fill="url(#paint5_linear)"/>
<path d="M66.121 94.8789H68.121V96.8789H66.121V94.8789Z" fill="url(#paint6_linear)"/>
<path d="M61.121 69.8792H63.121V71.8792H61.121V69.8792Z" fill="url(#paint7_linear)"/>
<path d="M53.121 105.879H55.121V107.879H53.121V105.879Z" fill="url(#paint8_linear)"/>
<path d="M30.121 100.879H32.121V102.879H30.121V100.879Z" fill="url(#paint9_linear)"/>
<path d="M54.121 90.8789H56.1207V92.8789H54.121V90.8789Z" fill="url(#paint10_linear)"/>
</g>
<circle opacity="0.3" cx="45" cy="84" r="38.5" stroke="#D8E8FF"/>
<path opacity="0.5" d="M64 50.0001L83 31L84 31L64 51L64 50.0001Z" fill="#D8E8FF"/>
<path opacity="0.5" d="M14 30H84V31H14V30Z" fill="#D8E8FF"/>
<path d="M23.639 21L22.432 17.889H17.162L15.955 21H14.476L18.896 9.304H20.732L25.152 21H23.639ZM19.831 10.885H19.746L17.604 16.512H21.973L19.831 10.885ZM27.6611 9.304H32.7951C33.7358 9.304 34.4498 9.457 34.9371 9.763C35.4244 10.069 35.7474 10.4827 35.9061 11.004C36.0648 11.5253 36.1441 12.1997 36.1441 13.027C36.1441 13.8203 36.0648 14.4833 35.9061 15.016C35.7474 15.5373 35.4188 15.9567 34.9201 16.274C34.4328 16.5913 33.7131 16.75 32.7611 16.75H29.1231V21H27.6611V9.304ZM32.2681 15.39C33.0048 15.39 33.5431 15.3163 33.8831 15.169C34.2231 15.0103 34.4441 14.7723 34.5461 14.455C34.6481 14.1377 34.6991 13.6617 34.6991 13.027C34.6991 12.3923 34.6481 11.9163 34.5461 11.599C34.4554 11.2817 34.2401 11.0493 33.9001 10.902C33.5714 10.7433 33.0388 10.664 32.3021 10.664H29.1231V15.39H32.2681ZM46.3329 21L44.5139 16.41H44.2249H40.5529V21H39.0909V9.304H44.4629C45.3923 9.304 46.0949 9.45133 46.5709 9.746C47.0469 10.0407 47.3586 10.4373 47.5059 10.936C47.6533 11.4347 47.7269 12.075 47.7269 12.857C47.7269 13.6617 47.6079 14.3643 47.3699 14.965C47.1319 15.5543 46.6446 15.9567 45.9079 16.172L47.8969 21H46.3329ZM43.8509 15.05C44.5763 15.05 45.1089 14.9763 45.4489 14.829C45.8003 14.6703 46.0213 14.4437 46.1119 14.149C46.2139 13.8543 46.2649 13.4237 46.2649 12.857C46.2649 12.279 46.2196 11.8427 46.1289 11.548C46.0383 11.2533 45.8286 11.0323 45.4999 10.885C45.1826 10.7377 44.6726 10.664 43.9699 10.664H40.5529V15.05H43.8509ZM51.0188 21V9.304H52.4808V21H51.0188ZM56.2231 21V9.304H57.6851V19.589H63.1421V21H56.2231Z" fill="#D8E8FF"/>
<defs>
<filter id="filter0_d" x="0" y="42" width="90" height="90" filterUnits="userSpaceOnUse" color-interpolation-filters="sRGB">
<feFlood flood-opacity="0" result="BackgroundImageFix"/>
<feColorMatrix in="SourceAlpha" type="matrix" values="0 0 0 0 0 0 0 0 0 0 0 0 0 0 0 0 0 0 127 0"/>
<feOffset dy="3"/>
<feGaussianBlur stdDeviation="7.5"/>
<feColorMatrix type="matrix" values="0 0 0 0 0.447059 0 0 0 0 0.760784 0 0 0 0 0.964706 0 0 0 1 0"/>
<feBlend mode="normal" in2="BackgroundImageFix" result="effect1_dropShadow"/>
<feBlend mode="normal" in="SourceGraphic" in2="effect1_dropShadow" result="shape"/>
</filter>
<linearGradient id="paint0_linear" x1="45" y1="54" x2="45" y2="114" gradientUnits="userSpaceOnUse">
<stop stop-color="#E86633"/>
<stop offset="1" stop-color="#D8E8FF"/>
</linearGradient>
<linearGradient id="paint1_linear" x1="31.121" y1="73.8789" x2="31.121" y2="79.8789" gradientUnits="userSpaceOnUse">
<stop stop-color="#E86633"/>
<stop offset="1" stop-color="#D8E8FF"/>
</linearGradient>
<linearGradient id="paint2_linear" x1="24.121" y1="78.8789" x2="24.121" y2="80.8786" gradientUnits="userSpaceOnUse">
<stop stop-color="#E86633"/>
<stop offset="1" stop-color="#D8E8FF"/>
</linearGradient>
<linearGradient id="paint3_linear" x1="38.121" y1="66.8789" x2="38.121" y2="68.8789" gradientUnits="userSpaceOnUse">
<stop stop-color="#E86633"/>
<stop offset="1" stop-color="#D8E8FF"/>
</linearGradient>
<linearGradient id="paint4_linear" x1="51.121" y1="74.8789" x2="51.121" y2="76.8789" gradientUnits="userSpaceOnUse">
<stop stop-color="#E86633"/>
<stop offset="1" stop-color="#D8E8FF"/>
</linearGradient>
<linearGradient id="paint5_linear" x1="39.1211" y1="84.8789" x2="39.1211" y2="92.8792" gradientUnits="userSpaceOnUse">
<stop stop-color="#E86633"/>
<stop offset="1" stop-color="#D8E8FF"/>
</linearGradient>
<linearGradient id="paint6_linear" x1="67.121" y1="94.8789" x2="67.121" y2="96.8789" gradientUnits="userSpaceOnUse">
<stop stop-color="#E86633"/>
<stop offset="1" stop-color="#D8E8FF"/>
</linearGradient>
<linearGradient id="paint7_linear" x1="62.121" y1="69.8792" x2="62.121" y2="71.8792" gradientUnits="userSpaceOnUse">
<stop stop-color="#E86633"/>
<stop offset="1" stop-color="#D8E8FF"/>
</linearGradient>
<linearGradient id="paint8_linear" x1="54.121" y1="105.879" x2="54.121" y2="107.879" gradientUnits="userSpaceOnUse">
<stop stop-color="#E86633"/>
<stop offset="1" stop-color="#D8E8FF"/>
</linearGradient>
<linearGradient id="paint9_linear" x1="31.121" y1="100.879" x2="31.121" y2="102.879" gradientUnits="userSpaceOnUse">
<stop stop-color="#E86633"/>
<stop offset="1" stop-color="#D8E8FF"/>
</linearGradient>
<linearGradient id="paint10_linear" x1="55.1208" y1="90.8789" x2="55.1208" y2="92.8789" gradientUnits="userSpaceOnUse">
<stop stop-color="#E86633"/>
<stop offset="1" stop-color="#D8E8FF"/>
</linearGradient>
</defs>
</svg>
