<svg width="106" height="153" viewBox="0 0 106 153" fill="none" xmlns="http://www.w3.org/2000/svg">
<g clipPath="url(#clip0)" filter="url(#filter0_d)">
<path d="M52.986 59C39.4151 59.0101 26.8792 66.2525 20.0915 78.004H20.046V78.0837C9.60239 96.2835 15.8897 119.504 34.0895 129.947C52.2897 140.391 75.5093 134.103 85.9526 115.904C96.3969 97.7044 90.1092 74.4841 71.9094 64.0408C66.1503 60.7354 59.6258 58.998 52.986 59ZM52.986 61.5342C60.2085 61.5278 67.2582 63.7389 73.1833 67.8685H32.7887C38.7137 63.7389 45.7638 61.5278 52.986 61.5342ZM52.986 132.482C44.356 132.487 36.0226 129.332 29.5595 123.613H49.051C51.5215 123.612 53.9761 124.011 56.3191 124.793C61.5589 126.528 67.2181 126.528 72.4573 124.793C73.637 124.4 74.8468 124.104 76.0744 123.906C69.6572 129.443 61.4621 132.487 52.986 132.482ZM78.9831 121.108C76.491 121.175 74.0219 121.606 71.6554 122.389C66.9364 123.952 61.8399 123.952 57.121 122.389C54.5193 121.521 51.7937 121.079 49.051 121.079H26.9598C25.5088 119.51 24.2026 117.814 23.0549 116.012H49.1853C51.1676 116.052 53.101 115.391 54.6427 114.144L56.1797 112.958C58.4168 111.54 61.0323 110.837 63.6785 110.944C68.4346 110.944 71.9893 112.876 71.9893 114.604C71.9893 115.019 71.4536 115.687 70.258 116.251C66.8062 117.87 62.571 117.476 61.1723 116.495C61.0434 116.41 60.9334 116.301 60.8481 116.174C62.1284 115.389 63.7123 115.279 65.0887 115.88L66.2212 113.612C64.1957 112.687 61.8568 112.752 59.887 113.789C59.0388 114.149 58.4377 114.921 58.2963 115.832C58.2251 116.937 58.7727 117.991 59.7183 118.57C61.3201 119.514 63.163 119.97 65.0215 119.882C67.1965 119.891 69.3488 119.435 71.3332 118.545C73.3604 117.593 74.5232 116.157 74.5232 114.606C74.5232 111.07 69.861 108.41 63.6785 108.41C60.4719 108.292 57.3089 109.181 54.6326 110.951L53.0943 112.138C51.9965 113.044 50.6069 113.52 49.1846 113.478H21.5816C20.5166 111.455 19.6503 109.333 18.9958 107.143H49.051C51.7937 107.144 54.5193 106.701 57.121 105.833C61.8399 104.271 66.9364 104.271 71.6554 105.833C74.2571 106.701 76.9822 107.144 79.7256 107.143H86.9761C85.4169 112.349 82.6822 117.127 78.9831 121.108ZM87.6316 104.609H79.7256C77.2548 104.61 74.8009 104.212 72.4569 103.43C67.2181 101.695 61.5586 101.695 56.3191 103.43C53.9761 104.212 51.5215 104.61 49.0507 104.609H18.3406C17.8852 102.526 17.6187 100.406 17.5441 98.2745H88.4278C88.3536 100.406 88.0867 102.526 87.6316 104.609ZM88.4281 95.741H17.5441C17.6227 93.4918 17.9166 91.2555 18.4203 89.0616L19.0211 88.9601C22.2159 88.4284 25.4771 88.4284 28.6726 88.9601L33.8082 89.8166C37.2789 90.3976 40.8208 90.3976 44.2912 89.8166L49.4272 88.9601C52.6226 88.4284 55.8832 88.4284 59.0786 88.9601L64.2143 89.8166C67.685 90.3962 71.2269 90.3962 74.6973 89.8166L79.8333 88.9601C82.3577 88.5462 84.926 88.4642 87.4717 88.7158C88.0243 91.0197 88.3451 93.3731 88.4281 95.741ZM86.7393 86.1121C84.2938 85.9495 81.8368 86.0679 79.4176 86.4657L74.282 87.3222C71.0869 87.8546 67.8253 87.8546 64.6306 87.3222L59.4943 86.4657C56.0242 85.8851 52.4823 85.8851 49.0115 86.4657L43.8759 87.3222C40.6802 87.8546 37.4192 87.8546 34.2241 87.3222L29.0882 86.4657C25.7942 85.9202 22.4355 85.8982 19.1351 86.3999C19.7724 84.3764 20.5915 82.4143 21.5816 80.5376H84.3906C85.3318 82.3253 86.1172 84.1905 86.7393 86.1121ZM23.0549 78.004C24.856 75.1777 27.0455 72.6185 29.5595 70.4027H76.4128C78.9268 72.6185 81.1162 75.1777 82.917 78.004H23.0549Z" fill="url(#paint0_linear)"/>
</g>
<circle opacity="0.3" cx="53" cy="97" r="46.5" stroke="#D8E8FF"/>
<path opacity="0.5" d="M54 50L74 31L75 31L55 50.5L54 50Z" fill="#D8E8FF"/>
<path opacity="0.5" d="M5 30H75V31H5V30Z" fill="#D8E8FF"/>
<path d="M14.639 21L13.432 17.889H8.162L6.955 21H5.476L9.896 9.304H11.732L16.152 21H14.639ZM10.831 10.885H10.746L8.604 16.512H12.973L10.831 10.885ZM27.4501 9.304V15.883C27.4501 17.4017 27.3538 18.518 27.1611 19.232C26.9684 19.9347 26.5661 20.4277 25.9541 20.711C25.3421 20.9943 24.3561 21.136 22.9961 21.136C21.6361 21.136 20.6501 20.9943 20.0381 20.711C19.4261 20.4163 19.0181 19.9177 18.8141 19.215C18.6214 18.5123 18.5251 17.4017 18.5251 15.883V9.304H19.9701V16.444C19.9701 17.464 20.0268 18.1893 20.1401 18.62C20.2534 19.0507 20.5141 19.351 20.9221 19.521C21.3301 19.691 22.0214 19.776 22.9961 19.776C23.9708 19.776 24.6564 19.691 25.0531 19.521C25.4611 19.351 25.7161 19.0563 25.8181 18.637C25.9314 18.2063 25.9881 17.4753 25.9881 16.444V9.304H27.4501ZM35.3038 16.002V14.659H39.3498V20.796C38.7945 20.898 38.1655 20.9773 37.4628 21.034C36.7715 21.102 36.1595 21.136 35.6268 21.136C34.1988 21.136 33.1392 20.983 32.4478 20.677C31.7678 20.3597 31.2975 19.793 31.0368 18.977C30.7875 18.1497 30.6628 16.8747 30.6628 15.152C30.6628 13.4407 30.7932 12.1713 31.0538 11.344C31.3145 10.5167 31.7848 9.95 32.4648 9.644C33.1562 9.32667 34.2102 9.168 35.6268 9.168C36.1822 9.168 36.7998 9.202 37.4798 9.27C38.1712 9.338 38.7775 9.41733 39.2988 9.508V10.8C38.0068 10.6187 37.0208 10.528 36.3408 10.528C34.9922 10.528 34.0515 10.6017 33.5188 10.749C32.9975 10.8963 32.6292 11.2817 32.4138 11.905C32.2098 12.5283 32.1078 13.6107 32.1078 15.152C32.1078 16.58 32.1872 17.6057 32.3458 18.229C32.5045 18.8523 32.8218 19.2717 33.2978 19.487C33.7738 19.7023 34.5558 19.81 35.6438 19.81C35.9838 19.81 36.3805 19.7987 36.8338 19.776C37.2872 19.742 37.6555 19.708 37.9388 19.674V16.002H35.3038ZM51.6877 9.304V15.883C51.6877 17.4017 51.5914 18.518 51.3987 19.232C51.206 19.9347 50.8037 20.4277 50.1917 20.711C49.5797 20.9943 48.5937 21.136 47.2337 21.136C45.8737 21.136 44.8877 20.9943 44.2757 20.711C43.6637 20.4163 43.2557 19.9177 43.0517 19.215C42.859 18.5123 42.7627 17.4017 42.7627 15.883V9.304H44.2077V16.444C44.2077 17.464 44.2644 18.1893 44.3777 18.62C44.491 19.0507 44.7517 19.351 45.1597 19.521C45.5677 19.691 46.259 19.776 47.2337 19.776C48.2084 19.776 48.894 19.691 49.2907 19.521C49.6987 19.351 49.9537 19.0563 50.0557 18.637C50.169 18.2063 50.2257 17.4753 50.2257 16.444V9.304H51.6877ZM59.1844 21.136C58.5611 21.136 57.8641 21.1133 57.0934 21.068C56.3341 21.0227 55.6598 20.966 55.0704 20.898V19.555C56.5438 19.7023 57.7734 19.776 58.7594 19.776C59.3714 19.776 59.8531 19.7533 60.2044 19.708C60.5671 19.6513 60.8731 19.555 61.1224 19.419C61.3491 19.283 61.4964 19.0847 61.5644 18.824C61.6324 18.552 61.6664 18.195 61.6664 17.753C61.6664 17.2203 61.6381 16.8463 61.5814 16.631C61.5248 16.4043 61.3888 16.24 61.1734 16.138C60.9694 16.036 60.6124 15.9623 60.1024 15.917L57.2124 15.594C56.5098 15.5147 55.9771 15.3503 55.6144 15.101C55.2631 14.8403 55.0251 14.506 54.9004 14.098C54.7871 13.6787 54.7304 13.1347 54.7304 12.466C54.7304 11.5367 54.8891 10.834 55.2064 10.358C55.5351 9.882 55.9884 9.56467 56.5664 9.406C57.1558 9.24733 57.9434 9.168 58.9294 9.168C59.5868 9.168 60.2554 9.19633 60.9354 9.253C61.6154 9.30967 62.1538 9.37767 62.5504 9.457V10.749C62.1198 10.681 61.5871 10.63 60.9524 10.596C60.3178 10.5507 59.7284 10.528 59.1844 10.528C58.5498 10.528 58.0398 10.5563 57.6544 10.613C57.2691 10.6697 56.9688 10.766 56.7534 10.902C56.5154 11.038 56.3624 11.2193 56.2944 11.446C56.2264 11.6727 56.1924 11.9957 56.1924 12.415C56.1924 12.8797 56.2264 13.2197 56.2944 13.435C56.3624 13.639 56.4928 13.792 56.6854 13.894C56.8781 13.9847 57.1954 14.0527 57.6374 14.098L60.4934 14.421C61.1734 14.489 61.7004 14.608 62.0744 14.778C62.4484 14.948 62.7204 15.254 62.8904 15.696C63.0491 16.104 63.1284 16.7557 63.1284 17.651C63.1284 18.6823 62.9698 19.453 62.6524 19.963C62.3351 20.4617 61.9101 20.7847 61.3774 20.932C60.8448 21.068 60.1138 21.136 59.1844 21.136ZM68.8389 21V10.715H65.1329V9.304H73.9899V10.715H70.3009V21H68.8389Z" fill="#D8E8FF"/>
<defs>
<filter id="filter0_d" x="0" y="47" width="106" height="106" filterUnits="userSpaceOnUse" color-interpolation-filters="sRGB">
<feFlood flood-opacity="0" result="BackgroundImageFix"/>
<feColorMatrix in="SourceAlpha" type="matrix" values="0 0 0 0 0 0 0 0 0 0 0 0 0 0 0 0 0 0 127 0"/>
<feOffset dy="3"/>
<feGaussianBlur stdDeviation="7.5"/>
<feColorMatrix type="matrix" values="0 0 0 0 0.847059 0 0 0 0 0.909804 0 0 0 0 1 0 0 0 0.91 0"/>
<feBlend mode="normal" in2="BackgroundImageFix" result="effect1_dropShadow"/>
<feBlend mode="normal" in="SourceGraphic" in2="effect1_dropShadow" result="shape"/>
</filter>
<linearGradient id="paint0_linear" x1="52.9995" y1="59" x2="52.9995" y2="134.994" gradientUnits="userSpaceOnUse">
<stop stop-color="#FFD451"/>
<stop offset="1" stop-color="#D8E8FF"/>
</linearGradient>
<clipPath id="clip0">
<rect width="76" height="76" fill="white" transform="translate(15 59)"/>
</clipPath>
</defs>
</svg>
