<svg width="91" height="91" viewBox="0 0 91 91" fill="none" xmlns="http://www.w3.org/2000/svg">
<g clipPath="url(#clip0)" filter="url(#filter0_d)">
<path d="M68.6254 52.2704C68.8 52.4445 69.0285 52.532 69.2574 52.532C69.4859 52.532 69.7145 52.4445 69.889 52.2704C70.238 51.9214 70.238 51.3554 69.889 51.0069L41.5032 22.6207C41.1542 22.2716 40.5883 22.2716 40.2397 22.6207C39.8906 22.9697 39.8906 23.5352 40.2397 23.8842L68.6254 52.2704Z" fill="url(#paint0_linear)"/>
<path d="M72.5421 53.6598C72.1931 53.3107 71.6272 53.3107 71.2786 53.6598C70.9296 54.0088 70.9296 54.5742 71.2786 54.9233C73.0941 56.7388 74.0938 59.1528 74.0938 61.7199C74.0938 64.2875 73.0941 66.7015 71.2786 68.517C67.5308 72.2643 61.4327 72.2648 57.6854 68.517L33.3314 44.1634C32.9823 43.8144 32.4169 43.8144 32.0678 44.1634C31.7188 44.512 31.7188 45.0779 32.0678 45.4269L56.4214 69.7805C58.6436 72.0028 61.5626 73.1141 64.482 73.1141C67.4009 73.1141 70.3199 72.0028 72.5421 69.7805C74.6951 67.6276 75.8809 64.765 75.8809 61.7204C75.8809 58.6753 74.6951 55.8127 72.5421 53.6598Z" fill="url(#paint1_linear)"/>
<path d="M64.482 69.2992C68.6608 69.2992 72.0609 65.8991 72.0609 61.7203C72.0609 57.5411 68.6608 54.1414 64.482 54.1414C60.3028 54.1414 56.9031 57.5411 56.9031 61.7203C56.9031 65.8991 60.3028 69.2992 64.482 69.2992ZM62.4659 56.291L63.4572 57.7947C63.6289 58.0553 63.9138 58.1968 64.2042 58.1968C64.3731 58.1968 64.5434 58.1489 64.6952 58.0493C65.107 57.7775 65.2211 57.2232 64.9493 56.8113L64.3694 55.9313C64.4071 55.9308 64.4443 55.9285 64.482 55.9285C66.278 55.9285 67.8859 56.7504 68.9489 58.0376C68.7413 57.9883 68.5249 57.9618 68.302 57.9618C67.8086 57.9618 67.4084 58.3615 67.4084 58.8553C67.4084 59.3486 67.8086 59.7489 68.302 59.7489C68.8628 59.7489 69.3184 60.2045 69.3184 60.7653C69.3184 61.3256 68.8623 61.7817 68.302 61.7817C67.8924 61.7817 67.5247 61.5379 67.3651 61.1604C67.1729 60.7062 66.6484 60.4935 66.1942 60.6857C65.7395 60.8779 65.5268 61.4024 65.719 61.8566C66.1593 62.8968 67.1729 63.5688 68.3024 63.5688C69.0145 63.5688 69.6651 63.3012 70.1603 62.8624C69.6283 65.5105 67.2846 67.5121 64.482 67.5121C61.2885 67.5121 58.6902 64.9138 58.6902 61.7203C58.6902 59.2351 60.2632 57.111 62.4659 56.291Z" fill="url(#paint2_linear)"/>
<path d="M42.9939 41.1258C43.2229 41.1258 43.4514 41.0388 43.6259 40.8643C43.9749 40.5152 43.9749 39.9498 43.6259 39.6007L16.4064 12.3808C16.0574 12.0322 15.4915 12.0322 15.1424 12.3808C14.7938 12.7299 14.7938 13.2958 15.1424 13.6444L42.3623 40.8643C42.5369 41.0388 42.7654 41.1258 42.9939 41.1258Z" fill="url(#paint3_linear)"/>
<path d="M57.4732 53.4478L46.4904 42.4646C46.1414 42.116 45.5755 42.116 45.2269 42.4646C44.8778 42.8136 44.8778 43.3795 45.2269 43.7286L56.2097 54.7114C56.3842 54.8859 56.6127 54.9729 56.8417 54.9729C57.0702 54.9729 57.2987 54.8859 57.4732 54.7114C57.8223 54.3628 57.8223 53.7969 57.4732 53.4478Z" fill="url(#paint4_linear)"/>
<path d="M60.7179 61.5449L62.0708 62.4603C62.2244 62.5641 62.3985 62.6139 62.5707 62.6139C62.8574 62.6139 63.1394 62.4761 63.3116 62.2206C63.5885 61.812 63.481 61.2563 63.0724 60.9799L61.7195 60.0649C61.3104 59.7885 60.7552 59.8955 60.4787 60.3041C60.2023 60.7132 60.3093 61.2684 60.7179 61.5449Z" fill="url(#paint5_linear)"/>
<path d="M63.5084 66.0052C63.6611 66.1071 63.8333 66.1555 64.0036 66.1555C64.2921 66.1555 64.5756 66.0154 64.7478 65.7576L65.2252 65.0413C65.4989 64.6304 65.3881 64.0756 64.9772 63.802C64.5672 63.5283 64.012 63.6391 63.7383 64.0501L63.2608 64.7663C62.9872 65.1768 63.0979 65.7315 63.5084 66.0052Z" fill="url(#paint6_linear)"/>
<path d="M45.3809 51.153C45.6094 51.153 45.8384 51.066 46.0129 50.8915C46.3615 50.5424 46.3615 49.9765 46.0129 49.6279L27.8668 31.4818C27.5177 31.1327 26.9523 31.1327 26.6032 31.4818C26.2542 31.8308 26.2542 32.3963 26.6032 32.7453L44.7494 50.8915C44.9234 51.066 45.1524 51.153 45.3809 51.153Z" fill="url(#paint7_linear)"/>
<path d="M54.7772 45.6387C54.9513 45.8132 55.1802 45.9002 55.4087 45.9002C55.6372 45.9002 55.8662 45.8132 56.0407 45.6387C56.3898 45.2897 56.3898 44.7237 56.0407 44.3752L29.7767 18.1111C29.4282 17.7621 28.8622 17.7621 28.5132 18.1111C28.1641 18.4602 28.1641 19.0256 28.5132 19.3747L54.7772 45.6387Z" fill="url(#paint8_linear)"/>
</g>
<defs>
<filter id="filter0_d" x="0" y="0" width="91" height="91" filterUnits="userSpaceOnUse" color-interpolation-filters="sRGB">
<feFlood flood-opacity="0" result="BackgroundImageFix"/>
<feColorMatrix in="SourceAlpha" type="matrix" values="0 0 0 0 0 0 0 0 0 0 0 0 0 0 0 0 0 0 127 0"/>
<feOffset dy="3"/>
<feGaussianBlur stdDeviation="7.5"/>
<feColorMatrix type="matrix" values="0 0 0 0 0.847059 0 0 0 0 0.909804 0 0 0 0 1 0 0 0 0.7 0"/>
<feBlend mode="normal" in2="BackgroundImageFix" result="effect1_dropShadow"/>
<feBlend mode="normal" in="SourceGraphic" in2="effect1_dropShadow" result="shape"/>
</filter>
<linearGradient id="paint0_linear" x1="55.0643" y1="22.3589" x2="55.0643" y2="52.532" gradientUnits="userSpaceOnUse">
<stop stop-color="#E60025"/>
<stop offset="0.372917" stop-color="#D8E8FF"/>
</linearGradient>
<linearGradient id="paint1_linear" x1="53.8435" y1="43.9016" x2="53.8435" y2="73.1141" gradientUnits="userSpaceOnUse">
<stop stop-color="#E60025"/>
<stop offset="0.372917" stop-color="#D8E8FF"/>
</linearGradient>
<linearGradient id="paint2_linear" x1="64.482" y1="54.1414" x2="64.482" y2="69.2992" gradientUnits="userSpaceOnUse">
<stop stop-color="#E60025"/>
<stop offset="0.372917" stop-color="#D8E8FF"/>
</linearGradient>
<linearGradient id="paint3_linear" x1="29.3843" y1="12.1194" x2="29.3843" y2="41.1258" gradientUnits="userSpaceOnUse">
<stop stop-color="#E60025"/>
<stop offset="0.372917" stop-color="#D8E8FF"/>
</linearGradient>
<linearGradient id="paint4_linear" x1="51.3501" y1="42.2031" x2="51.3501" y2="54.9729" gradientUnits="userSpaceOnUse">
<stop stop-color="#E60025"/>
<stop offset="0.372917" stop-color="#D8E8FF"/>
</linearGradient>
<linearGradient id="paint5_linear" x1="61.8953" y1="59.9114" x2="61.8953" y2="62.6139" gradientUnits="userSpaceOnUse">
<stop stop-color="#E60025"/>
<stop offset="0.372917" stop-color="#D8E8FF"/>
</linearGradient>
<linearGradient id="paint6_linear" x1="64.243" y1="63.6519" x2="64.243" y2="66.1555" gradientUnits="userSpaceOnUse">
<stop stop-color="#E60025"/>
<stop offset="0.372917" stop-color="#D8E8FF"/>
</linearGradient>
<linearGradient id="paint7_linear" x1="36.3079" y1="31.22" x2="36.3079" y2="51.153" gradientUnits="userSpaceOnUse">
<stop stop-color="#E60025"/>
<stop offset="0.372917" stop-color="#D8E8FF"/>
</linearGradient>
<linearGradient id="paint8_linear" x1="42.277" y1="17.8494" x2="42.277" y2="45.9002" gradientUnits="userSpaceOnUse">
<stop stop-color="#E60025"/>
<stop offset="0.372917" stop-color="#D8E8FF"/>
</linearGradient>
<clipPath id="clip0">
<rect width="61" height="61" fill="white" transform="translate(15 12)"/>
</clipPath>
</defs>
</svg>
