<svg width="173" height="162" viewBox="0 0 173 162" fill="none" xmlns="http://www.w3.org/2000/svg">
<g filter="url(#filter0_d)">
<path d="M93.999 50.4131C66.387 50.4131 44 72.7979 44 100.41C44 113.364 48.9255 125.168 57.0082 134.051C51.5144 126.848 48.2167 117.914 48.2167 108.193C48.2167 84.4664 67.622 65.2363 91.5661 65.2363C115.504 65.2363 134.913 84.4664 134.913 108.193C134.913 127.987 121.381 144.611 103 149.587C126.316 145.344 144 124.95 144 100.41C144 72.7979 121.612 50.4131 93.999 50.4131Z" fill="url(#paint0_linear)"/>
<path d="M103.68 119.19C112.585 114.563 117.191 104.094 114.125 94.1662C110.675 82.9938 98.8199 76.7323 87.6438 80.1862C76.4724 83.6327 70.2121 95.4926 73.6625 106.665C75.2806 111.906 78.7479 116.065 83.1292 118.65C80.0045 116.425 77.5574 113.22 76.3415 109.284C73.3765 99.6889 78.8234 89.4786 88.5123 86.4872C98.2 83.4946 108.45 88.8514 111.42 98.4489C113.894 106.458 110.497 114.878 103.68 119.19Z" fill="url(#paint1_linear)"/>
<path d="M128.719 119.986C134.933 103.253 126.408 84.6516 109.675 78.437C108.82 78.1162 107.955 77.8483 107.09 77.6021C120.5 83.8959 127.037 99.6132 121.742 113.873C116.16 128.895 99.572 136.588 84.6825 131.057C74.041 127.102 67.1838 117.456 66.1578 106.788C65.3241 120.62 73.5101 133.95 87.1718 139.025C103.899 145.243 122.501 136.72 128.719 119.986Z" fill="url(#paint2_linear)"/>
<path d="M56.2969 100.956C55.6471 108.623 58.4473 115.776 63.4029 120.908C61.7533 116.04 61.1191 110.507 61.7739 104.762C63.2887 91.4812 71.2309 80.9116 81.0951 77.519C68.2298 77.8686 57.4095 87.8351 56.2969 100.956Z" fill="url(#paint3_linear)"/>
<path d="M93.999 95.9346C98.8681 95.9346 102.813 99.8811 102.813 104.75C102.813 109.62 98.8681 113.566 93.999 113.566C89.1311 113.566 85.1835 109.62 85.1835 104.75C85.1833 99.8809 89.1311 95.9346 93.999 95.9346Z" fill="url(#paint4_linear)"/>
</g>
<circle opacity="0.3" cx="94" cy="100" r="58.5" stroke="#D8E8FF"/>
<path opacity="0.5" d="M62 51L43 31L43 30L62.5 50L62 51Z" fill="#D8E8FF"/>
<path opacity="0.5" d="M1 30H173V31H1V30Z" fill="#D8E8FF"/>
<path d="M0.578 19.708C1.43933 19.6853 2.01733 19.623 2.312 19.521C2.618 19.4077 2.81067 19.1697 2.89 18.807C2.96933 18.4443 3.009 17.736 3.009 16.682V9.304H4.471V16.172C4.471 17.8493 4.403 18.9883 4.267 19.589C4.131 20.1897 3.81933 20.575 3.332 20.745C2.856 20.9037 1.938 20.9887 0.578 21V19.708ZM16.022 21L14.815 17.889H9.54497L8.33797 21H6.85897L11.279 9.304H13.115L17.535 21H16.022ZM12.214 10.885H12.129L9.98697 16.512H14.356L12.214 10.885ZM27.6941 21L21.5231 12.058H21.4551V21H20.0441V9.304H21.5401L27.6261 18.042H27.6941V9.304H29.0881V21H27.6941ZM41.6242 9.304V15.883C41.6242 17.4017 41.5279 18.518 41.3352 19.232C41.1426 19.9347 40.7402 20.4277 40.1282 20.711C39.5162 20.9943 38.5302 21.136 37.1702 21.136C35.8102 21.136 34.8242 20.9943 34.2122 20.711C33.6002 20.4163 33.1922 19.9177 32.9882 19.215C32.7956 18.5123 32.6992 17.4017 32.6992 15.883V9.304H34.1442V16.444C34.1442 17.464 34.2009 18.1893 34.3142 18.62C34.4276 19.0507 34.6882 19.351 35.0962 19.521C35.5042 19.691 36.1956 19.776 37.1702 19.776C38.1449 19.776 38.8306 19.691 39.2272 19.521C39.6352 19.351 39.8902 19.0563 39.9922 18.637C40.1056 18.2063 40.1622 17.4753 40.1622 16.444V9.304H41.6242ZM53.167 21L51.96 17.889H46.69L45.483 21H44.004L48.424 9.304H50.26L54.68 21H53.167ZM49.359 10.885H49.274L47.132 16.512H51.501L49.359 10.885ZM64.4311 21L62.6121 16.41H62.3231H58.6511V21H57.1891V9.304H62.5611C63.4904 9.304 64.1931 9.45133 64.6691 9.746C65.1451 10.0407 65.4567 10.4373 65.6041 10.936C65.7514 11.4347 65.8251 12.075 65.8251 12.857C65.8251 13.6617 65.7061 14.3643 65.4681 14.965C65.2301 15.5543 64.7427 15.9567 64.0061 16.172L65.9951 21H64.4311ZM61.9491 15.05C62.6744 15.05 63.2071 14.9763 63.5471 14.829C63.8984 14.6703 64.1194 14.4437 64.2101 14.149C64.3121 13.8543 64.3631 13.4237 64.3631 12.857C64.3631 12.279 64.3177 11.8427 64.2271 11.548C64.1364 11.2533 63.9267 11.0323 63.5981 10.885C63.2807 10.7377 62.7707 10.664 62.0681 10.664H58.6511V15.05H61.9491ZM71.5717 21V16.58L67.3387 9.304H68.9027L72.2857 14.999H72.4047L75.7707 9.304H77.3007L73.0337 16.58V21H71.5717ZM84.5437 19.623H91.1057V21H83.1327V19.606C83.1327 18.6313 83.1667 17.923 83.2347 17.481C83.314 17.0277 83.4897 16.6593 83.7617 16.376C84.0337 16.0813 84.487 15.798 85.1217 15.526C86.3457 15.016 87.377 14.591 88.2157 14.251C88.635 14.081 88.941 13.9223 89.1337 13.775C89.3377 13.6163 89.4737 13.4293 89.5417 13.214C89.621 12.9987 89.6607 12.704 89.6607 12.33C89.6607 11.7973 89.5757 11.4063 89.4057 11.157C89.247 10.9077 88.9693 10.7433 88.5727 10.664C88.1873 10.5733 87.5867 10.528 86.7707 10.528C85.8753 10.528 84.742 10.6017 83.3707 10.749V9.474C83.8467 9.38333 84.4473 9.30967 85.1727 9.253C85.898 9.19633 86.578 9.168 87.2127 9.168C88.0627 9.168 88.7597 9.236 89.3037 9.372C89.8477 9.49667 90.284 9.78 90.6127 10.222C90.9413 10.6527 91.1057 11.3043 91.1057 12.177C91.1057 12.8457 91.0377 13.384 90.9017 13.792C90.7657 14.2 90.5447 14.5287 90.2387 14.778C89.944 15.016 89.5303 15.2483 88.9977 15.475L85.4787 16.92C85.082 17.0673 84.827 17.2657 84.7137 17.515C84.6457 17.6737 84.6003 17.855 84.5777 18.059C84.555 18.263 84.5437 18.535 84.5437 18.875V19.623ZM98.3706 21.136C96.9313 21.136 95.9113 20.9887 95.3106 20.694C94.7213 20.388 94.3473 19.8553 94.1886 19.096C94.0413 18.3367 93.9676 17.022 93.9676 15.152C93.9676 13.282 94.0413 11.9673 94.1886 11.208C94.3473 10.4487 94.7213 9.92167 95.3106 9.627C95.9113 9.321 96.9313 9.168 98.3706 9.168C99.81 9.168 100.824 9.321 101.414 9.627C102.014 9.92167 102.388 10.4543 102.536 11.225C102.694 11.9843 102.774 13.2933 102.774 15.152C102.774 17.022 102.694 18.3367 102.536 19.096C102.388 19.8553 102.014 20.388 101.414 20.694C100.824 20.9887 99.81 21.136 98.3706 21.136ZM98.3706 19.776C99.4133 19.776 100.11 19.7023 100.462 19.555C100.824 19.3963 101.057 19.0337 101.159 18.467C101.261 17.9003 101.312 16.7953 101.312 15.152C101.312 13.5087 101.261 12.4037 101.159 11.837C101.057 11.2703 100.824 10.9133 100.462 10.766C100.11 10.6073 99.4133 10.528 98.3706 10.528C97.328 10.528 96.6253 10.6073 96.2626 10.766C95.9 10.9133 95.6676 11.2703 95.5656 11.837C95.4636 12.4037 95.4126 13.5087 95.4126 15.152C95.4126 16.7953 95.4636 17.9003 95.5656 18.467C95.6676 19.0337 95.9 19.3963 96.2626 19.555C96.6253 19.7023 97.328 19.776 98.3706 19.776ZM107.022 19.623H113.584V21H105.611V19.606C105.611 18.6313 105.645 17.923 105.713 17.481C105.792 17.0277 105.968 16.6593 106.24 16.376C106.512 16.0813 106.965 15.798 107.6 15.526C108.824 15.016 109.855 14.591 110.694 14.251C111.113 14.081 111.419 13.9223 111.612 13.775C111.816 13.6163 111.952 13.4293 112.02 13.214C112.099 12.9987 112.139 12.704 112.139 12.33C112.139 11.7973 112.054 11.4063 111.884 11.157C111.725 10.9077 111.447 10.7433 111.051 10.664C110.665 10.5733 110.065 10.528 109.249 10.528C108.353 10.528 107.22 10.6017 105.849 10.749V9.474C106.325 9.38333 106.925 9.30967 107.651 9.253C108.376 9.19633 109.056 9.168 109.691 9.168C110.541 9.168 111.238 9.236 111.782 9.372C112.326 9.49667 112.762 9.78 113.091 10.222C113.419 10.6527 113.584 11.3043 113.584 12.177C113.584 12.8457 113.516 13.384 113.38 13.792C113.244 14.2 113.023 14.5287 112.717 14.778C112.422 15.016 112.008 15.2483 111.476 15.475L107.957 16.92C107.56 17.0673 107.305 17.2657 107.192 17.515C107.124 17.6737 107.078 17.855 107.056 18.059C107.033 18.263 107.022 18.535 107.022 18.875V19.623ZM118.196 21V11.106L115.782 12.262V10.851L118.621 9.304H119.658V21H118.196ZM122.888 16.818V15.475H127.036V16.818H122.888ZM130.985 19.623H137.547V21H129.574V19.606C129.574 18.6313 129.608 17.923 129.676 17.481C129.755 17.0277 129.931 16.6593 130.203 16.376C130.475 16.0813 130.928 15.798 131.563 15.526C132.787 15.016 133.818 14.591 134.657 14.251C135.076 14.081 135.382 13.9223 135.575 13.775C135.779 13.6163 135.915 13.4293 135.983 13.214C136.062 12.9987 136.102 12.704 136.102 12.33C136.102 11.7973 136.017 11.4063 135.847 11.157C135.688 10.9077 135.411 10.7433 135.014 10.664C134.629 10.5733 134.028 10.528 133.212 10.528C132.317 10.528 131.183 10.6017 129.812 10.749V9.474C130.288 9.38333 130.889 9.30967 131.614 9.253C132.339 9.19633 133.019 9.168 133.654 9.168C134.504 9.168 135.201 9.236 135.745 9.372C136.289 9.49667 136.725 9.78 137.054 10.222C137.383 10.6527 137.547 11.3043 137.547 12.177C137.547 12.8457 137.479 13.384 137.343 13.792C137.207 14.2 136.986 14.5287 136.68 14.778C136.385 15.016 135.972 15.2483 135.439 15.475L131.92 16.92C131.523 17.0673 131.268 17.2657 131.155 17.515C131.087 17.6737 131.042 17.855 131.019 18.059C130.996 18.263 130.985 18.535 130.985 18.875V19.623ZM144.812 21.136C143.373 21.136 142.353 20.9887 141.752 20.694C141.163 20.388 140.789 19.8553 140.63 19.096C140.483 18.3367 140.409 17.022 140.409 15.152C140.409 13.282 140.483 11.9673 140.63 11.208C140.789 10.4487 141.163 9.92167 141.752 9.627C142.353 9.321 143.373 9.168 144.812 9.168C146.251 9.168 147.266 9.321 147.855 9.627C148.456 9.92167 148.83 10.4543 148.977 11.225C149.136 11.9843 149.215 13.2933 149.215 15.152C149.215 17.022 149.136 18.3367 148.977 19.096C148.83 19.8553 148.456 20.388 147.855 20.694C147.266 20.9887 146.251 21.136 144.812 21.136ZM144.812 19.776C145.855 19.776 146.552 19.7023 146.903 19.555C147.266 19.3963 147.498 19.0337 147.6 18.467C147.702 17.9003 147.753 16.7953 147.753 15.152C147.753 13.5087 147.702 12.4037 147.6 11.837C147.498 11.2703 147.266 10.9133 146.903 10.766C146.552 10.6073 145.855 10.528 144.812 10.528C143.769 10.528 143.067 10.6073 142.704 10.766C142.341 10.9133 142.109 11.2703 142.007 11.837C141.905 12.4037 141.854 13.5087 141.854 15.152C141.854 16.7953 141.905 17.9003 142.007 18.467C142.109 19.0337 142.341 19.3963 142.704 19.555C143.067 19.7023 143.769 19.776 144.812 19.776ZM153.463 19.623H160.025V21H152.052V19.606C152.052 18.6313 152.086 17.923 152.154 17.481C152.233 17.0277 152.409 16.6593 152.681 16.376C152.953 16.0813 153.406 15.798 154.041 15.526C155.265 15.016 156.296 14.591 157.135 14.251C157.554 14.081 157.86 13.9223 158.053 13.775C158.257 13.6163 158.393 13.4293 158.461 13.214C158.54 12.9987 158.58 12.704 158.58 12.33C158.58 11.7973 158.495 11.4063 158.325 11.157C158.166 10.9077 157.888 10.7433 157.492 10.664C157.106 10.5733 156.506 10.528 155.69 10.528C154.794 10.528 153.661 10.6017 152.29 10.749V9.474C152.766 9.38333 153.366 9.30967 154.092 9.253C154.817 9.19633 155.497 9.168 156.132 9.168C156.982 9.168 157.679 9.236 158.223 9.372C158.767 9.49667 159.203 9.78 159.532 10.222C159.86 10.6527 160.025 11.3043 160.025 12.177C160.025 12.8457 159.957 13.384 159.821 13.792C159.685 14.2 159.464 14.5287 159.158 14.778C158.863 15.016 158.449 15.2483 157.917 15.475L154.398 16.92C154.001 17.0673 153.746 17.2657 153.633 17.515C153.565 17.6737 153.519 17.855 153.497 18.059C153.474 18.263 153.463 18.535 153.463 18.875V19.623ZM164.179 19.623H170.741V21H162.768V19.606C162.768 18.6313 162.802 17.923 162.87 17.481C162.949 17.0277 163.125 16.6593 163.397 16.376C163.669 16.0813 164.122 15.798 164.757 15.526C165.981 15.016 167.012 14.591 167.851 14.251C168.27 14.081 168.576 13.9223 168.769 13.775C168.973 13.6163 169.109 13.4293 169.177 13.214C169.256 12.9987 169.296 12.704 169.296 12.33C169.296 11.7973 169.211 11.4063 169.041 11.157C168.882 10.9077 168.604 10.7433 168.208 10.664C167.822 10.5733 167.222 10.528 166.406 10.528C165.51 10.528 164.377 10.6017 163.006 10.749V9.474C163.482 9.38333 164.082 9.30967 164.808 9.253C165.533 9.19633 166.213 9.168 166.848 9.168C167.698 9.168 168.395 9.236 168.939 9.372C169.483 9.49667 169.919 9.78 170.248 10.222C170.576 10.6527 170.741 11.3043 170.741 12.177C170.741 12.8457 170.673 13.384 170.537 13.792C170.401 14.2 170.18 14.5287 169.874 14.778C169.579 15.016 169.165 15.2483 168.633 15.475L165.114 16.92C164.717 17.0673 164.462 17.2657 164.349 17.515C164.281 17.6737 164.235 17.855 164.213 18.059C164.19 18.263 164.179 18.535 164.179 18.875V19.623Z" fill="#D8E8FF"/>
<defs>
<filter id="filter0_d" x="34" y="42" width="120" height="120" filterUnits="userSpaceOnUse" color-interpolation-filters="sRGB">
<feFlood flood-opacity="0" result="BackgroundImageFix"/>
<feColorMatrix in="SourceAlpha" type="matrix" values="0 0 0 0 0 0 0 0 0 0 0 0 0 0 0 0 0 0 127 0"/>
<feOffset dy="2"/>
<feGaussianBlur stdDeviation="5"/>
<feColorMatrix type="matrix" values="0 0 0 0 0 0 0 0 0 0.785256 0 0 0 0 1 0 0 0 1 0"/>
<feBlend mode="normal" in2="BackgroundImageFix" result="effect1_dropShadow"/>
<feBlend mode="normal" in="SourceGraphic" in2="effect1_dropShadow" result="shape"/>
</filter>
<linearGradient id="paint0_linear" x1="94" y1="50.4131" x2="94" y2="149.587" gradientUnits="userSpaceOnUse">
<stop stop-color="#FFF600"/>
<stop offset="0.482292" stop-color="#D8E8FF"/>
</linearGradient>
<linearGradient id="paint1_linear" x1="93.8934" y1="79.2363" x2="93.8934" y2="119.19" gradientUnits="userSpaceOnUse">
<stop stop-color="#FFF600"/>
<stop offset="0.482292" stop-color="#D8E8FF"/>
</linearGradient>
<linearGradient id="paint2_linear" x1="98.4247" y1="77.6021" x2="98.4247" y2="141.058" gradientUnits="userSpaceOnUse">
<stop stop-color="#FFF600"/>
<stop offset="0.482292" stop-color="#D8E8FF"/>
</linearGradient>
<linearGradient id="paint3_linear" x1="68.6495" y1="77.519" x2="68.6495" y2="120.908" gradientUnits="userSpaceOnUse">
<stop stop-color="#FFF600"/>
<stop offset="0.482292" stop-color="#D8E8FF"/>
</linearGradient>
<linearGradient id="paint4_linear" x1="93.9984" y1="95.9346" x2="93.9984" y2="113.566" gradientUnits="userSpaceOnUse">
<stop stop-color="#FFF600"/>
<stop offset="0.482292" stop-color="#D8E8FF"/>
</linearGradient>
</defs>
</svg>
