<svg width="93" height="130" viewBox="0 0 93 130" fill="none" xmlns="http://www.w3.org/2000/svg">
<g filter="url(#filter0_d)">
<path d="M37.8867 76.1934C34.8334 76.1934 32.3496 78.6772 32.3496 81.7305C32.3496 84.7838 34.8334 87.2676 37.8867 87.2676C40.94 87.2676 43.4238 84.7838 43.4238 81.7305C43.4238 78.6772 40.94 76.1934 37.8867 76.1934ZM37.8867 83.5762C36.869 83.5762 36.041 82.7483 36.041 81.7305C36.041 80.7126 36.869 79.8848 37.8867 79.8848C38.9044 79.8848 39.7324 80.7126 39.7324 81.7305C39.7324 82.7483 38.9044 83.5762 37.8867 83.5762Z" fill="url(#paint0_linear)"/>
<path d="M45.2695 90.959C46.2889 90.959 47.1152 90.1326 47.1152 89.1133C47.1152 88.0939 46.2889 87.2676 45.2695 87.2676C44.2502 87.2676 43.4238 88.0939 43.4238 89.1133C43.4238 90.1326 44.2502 90.959 45.2695 90.959Z" fill="url(#paint1_linear)"/>
<path d="M25.582 83.5762C26.6014 83.5762 27.4277 82.7498 27.4277 81.7305C27.4277 80.7111 26.6014 79.8848 25.582 79.8848C24.5627 79.8848 23.7363 80.7111 23.7363 81.7305C23.7363 82.7498 24.5627 83.5762 25.582 83.5762Z" fill="url(#paint2_linear)"/>
<path d="M68.7739 58.2261C62.8243 52.2766 54.9139 49 46.5 49C38.0861 49 30.1757 52.2766 24.2261 58.2261C18.2766 64.1757 15 72.0861 15 80.5C15 88.9139 18.2766 96.8243 24.2261 102.774C30.1757 108.723 38.0861 112 46.5 112C54.9139 112 62.8243 108.723 68.7739 102.774C74.7234 96.8243 78 88.9139 78 80.5C78 72.0861 74.7234 64.1757 68.7739 58.2261ZM74.2877 79.4726C71.2234 80.7201 65.4669 82.3611 56.3847 82.3611C53.816 82.3611 52.4314 81.8472 51.7221 81.4162C51.1052 81.0412 50.7924 80.6061 50.7924 80.1227C50.7924 78.2598 54.7257 74.932 62.5627 74.932C67.3577 74.932 70.6333 73.3643 72.8245 71.5325C73.6806 74.0384 74.1865 76.7047 74.2877 79.4726ZM46.5 52.6914C50.3711 52.6914 54.0595 53.4875 57.4114 54.9229C55.2059 56.3055 52.8342 56.7899 50.3325 56.3628C47.5358 55.8857 44.5757 56.5131 41.9976 58.1302C38.0862 60.5836 32.609 62.7277 27.6818 60.0452C32.6375 55.4825 39.2486 52.6914 46.5 52.6914ZM25.0753 62.7908C27.3631 64.2478 29.9054 64.9768 32.6208 64.9768C36.1675 64.9767 40.0088 63.7354 43.9591 61.2573C45.7674 60.1228 47.8097 59.6769 49.7113 60.0015C53.775 60.6956 57.6765 59.5983 61.0722 56.825C62.8729 57.9375 64.5378 59.2492 66.0359 60.7298C63.2831 63.1116 59.303 65.2539 54.3476 64.3751C50.6811 63.7251 46.9692 64.5122 43.8967 66.592C39.7649 69.389 32.4025 72.291 20.4397 70.7954C21.5358 67.862 23.1125 65.1612 25.0753 62.7908ZM46.5 108.309C40.8956 108.309 35.6742 106.641 31.3032 103.777C35.3059 102.803 40.0931 104.094 42.2619 104.811C43.216 105.127 44.2025 105.285 45.1756 105.285C46.1578 105.285 47.1261 105.124 48.0324 104.803C52.5528 103.199 57.3968 103.476 61.1076 104.153C56.8596 106.786 51.8546 108.309 46.5 108.309ZM64.9944 101.248C60.7621 100.114 53.5587 98.9247 46.7978 101.324C45.763 101.691 44.5639 101.685 43.4216 101.307C39.752 100.092 33.0934 98.5634 27.8466 101.107C25.0519 98.5746 22.7734 95.4834 21.1882 92.0115C28.7745 90.2133 33.3831 93.8706 33.4221 93.9047C34.3848 94.8059 36.4751 96.4475 39.6563 97.3148C41.0768 97.7022 42.548 97.8956 44.064 97.8956C46.6313 97.8956 49.327 97.3409 52.1219 96.2341C60.5379 92.9014 67.226 92.5614 71.3973 92.8767C69.8077 96.0615 67.6252 98.9002 64.9944 101.248ZM72.8781 89.3082C68.4201 88.8124 60.6386 88.8912 50.763 92.802C42.4435 96.0966 37.6287 92.786 35.9447 91.2098C35.3191 90.6242 33.3582 89.3036 30.4146 88.4969C27.1009 87.589 23.4908 87.6068 19.8767 88.5354C19.1071 85.9903 18.6914 83.2929 18.6914 80.5C18.6914 78.3975 18.9274 76.3493 19.3716 74.379C22.0052 74.7346 24.4456 74.8932 26.7025 74.8931C35.9762 74.893 42.1585 72.2261 45.966 69.6489C48.239 68.1102 50.9864 67.5279 53.7032 68.0098C60.0841 69.1411 65.0859 66.454 68.4864 63.4936C69.5536 64.8702 70.4953 66.3486 71.2926 67.9127C69.698 69.5822 66.9984 71.2406 62.5628 71.2406C52.8845 71.2406 47.1011 75.7567 47.1011 80.1227C47.1011 81.9313 48.0613 83.5108 49.8049 84.5705C51.4227 85.5538 53.6366 86.0524 56.3848 86.0524C64.5543 86.0524 70.3053 84.8198 74.1495 83.4735C73.934 85.4902 73.5025 87.4429 72.8781 89.3082Z" fill="url(#paint3_linear)"/>
</g>
<circle opacity="0.3" cx="46.5" cy="80.5" r="40" stroke="#D8E8FF"/>
<path opacity="0.5" d="M72 50L92 31L93 31L73 50.5L72 50Z" fill="#D8E8FF"/>
<path opacity="0.5" d="M23 30H93V31H23V30Z" fill="#D8E8FF"/>
<path d="M23.578 19.708C24.4393 19.6853 25.0173 19.623 25.312 19.521C25.618 19.4077 25.8107 19.1697 25.89 18.807C25.9693 18.4443 26.009 17.736 26.009 16.682V9.304H27.471V16.172C27.471 17.8493 27.403 18.9883 27.267 19.589C27.131 20.1897 26.8193 20.575 26.332 20.745C25.856 20.9037 24.938 20.9887 23.578 21V19.708ZM39.872 9.304V15.883C39.872 17.4017 39.7756 18.518 39.583 19.232C39.3903 19.9347 38.988 20.4277 38.376 20.711C37.764 20.9943 36.778 21.136 35.418 21.136C34.058 21.136 33.072 20.9943 32.46 20.711C31.848 20.4163 31.44 19.9177 31.236 19.215C31.0433 18.5123 30.947 17.4017 30.947 15.883V9.304H32.392V16.444C32.392 17.464 32.4486 18.1893 32.562 18.62C32.6753 19.0507 32.936 19.351 33.344 19.521C33.752 19.691 34.4433 19.776 35.418 19.776C36.3926 19.776 37.0783 19.691 37.475 19.521C37.883 19.351 38.138 19.0563 38.24 18.637C38.3533 18.2063 38.41 17.4753 38.41 16.444V9.304H39.872ZM43.4757 21V9.304H44.9377V19.589H50.3947V21H43.4757ZM54.3388 21V16.58L50.1058 9.304H51.6698L55.0528 14.999H55.1718L58.5378 9.304H60.0678L55.8008 16.58V21H54.3388Z" fill="#D8E8FF"/>
<defs>
<filter id="filter0_d" x="0" y="37" width="93" height="93" filterUnits="userSpaceOnUse" color-interpolation-filters="sRGB">
<feFlood flood-opacity="0" result="BackgroundImageFix"/>
<feColorMatrix in="SourceAlpha" type="matrix" values="0 0 0 0 0 0 0 0 0 0 0 0 0 0 0 0 0 0 127 0"/>
<feOffset dy="3"/>
<feGaussianBlur stdDeviation="7.5"/>
<feColorMatrix type="matrix" values="0 0 0 0 0.521568 0 0 0 0 0.447059 0 0 0 0 0.964706 0 0 0 0.7 0"/>
<feBlend mode="normal" in2="BackgroundImageFix" result="effect1_dropShadow"/>
<feBlend mode="normal" in="SourceGraphic" in2="effect1_dropShadow" result="shape"/>
</filter>
<linearGradient id="paint0_linear" x1="37.8867" y1="76.1934" x2="37.8867" y2="87.2676" gradientUnits="userSpaceOnUse">
<stop offset="0.00312487" stop-color="#FF2929"/>
<stop offset="1" stop-color="#D8E8FF"/>
</linearGradient>
<linearGradient id="paint1_linear" x1="45.2695" y1="87.2676" x2="45.2695" y2="90.959" gradientUnits="userSpaceOnUse">
<stop offset="0.00312487" stop-color="#FF2929"/>
<stop offset="1" stop-color="#D8E8FF"/>
</linearGradient>
<linearGradient id="paint2_linear" x1="25.582" y1="79.8848" x2="25.582" y2="83.5762" gradientUnits="userSpaceOnUse">
<stop offset="0.00312487" stop-color="#FF2929"/>
<stop offset="1" stop-color="#D8E8FF"/>
</linearGradient>
<linearGradient id="paint3_linear" x1="46.5" y1="49" x2="46.5" y2="112" gradientUnits="userSpaceOnUse">
<stop offset="0.00312487" stop-color="#FF2929"/>
<stop offset="1" stop-color="#D8E8FF"/>
</linearGradient>
</defs>
</svg>
