<svg width="99" height="137" viewBox="0 0 99 137" fill="none" xmlns="http://www.w3.org/2000/svg">
<g filter="url(#filter0_d)">
<path d="M49.5 119C30.4765 119 15 103.524 15 84.5C15 65.4765 30.4765 50 49.5 50C68.5235 50 84 65.4765 84 84.5C84 103.524 68.5235 119 49.5 119ZM49.5 52.3C31.7452 52.3 17.3 66.7452 17.3 84.5C17.3 102.255 31.7452 116.7 49.5 116.7C67.2548 116.7 81.7 102.255 81.7 84.5C81.7 66.7452 67.2548 52.3 49.5 52.3Z" fill="url(#paint0_linear)"/>
<path d="M53.4056 109.117C51.8426 109.117 50.3718 108.176 49.7622 106.651L48.5019 103.5C48.4361 103.338 48.3824 103.169 48.3387 102.997L46.1582 94.2737C46.1293 94.1589 46.0877 94.0483 46.0351 93.9425L44.8643 91.6026C44.5226 90.9182 43.7672 90.5755 43.0234 90.755L41.91 91.033C40.7292 91.3278 39.4584 91.0514 38.5092 90.2912L34.8695 87.3806C33.9346 86.631 33.3987 85.5155 33.3987 84.3194V83.0876C33.3987 82.2653 33.6519 81.4788 34.1294 80.8108L38.5345 74.6432C39.2694 73.614 40.4623 73.0012 41.7247 73.0012H44.132C44.8448 73.0012 45.5429 73.1955 46.1498 73.5613L50.3212 76.0635C50.6671 76.273 51.0767 76.344 51.472 76.2635L53.9668 75.7634C55.7756 75.4012 57.6133 76.3693 58.3387 78.0644L60.5503 83.2245C60.684 83.535 60.9161 83.8019 61.2046 83.973L63.4704 85.3339C64.4395 85.9156 65.1112 86.8884 65.3113 88.0007C65.5113 89.1152 65.2207 90.2602 64.5143 91.1435L62.5017 93.6598C62.2733 93.9462 62.1464 94.3063 62.1464 94.6716V98.3024C62.1464 99.3347 61.7279 100.346 60.9977 101.075L59.7511 102.322C59.6569 102.416 59.5753 102.521 59.5074 102.633L56.76 107.213C56.2794 108.013 55.526 108.618 54.6395 108.913C54.2337 109.053 53.8162 109.117 53.4056 109.117ZM43.4324 88.404C44.8885 88.404 46.243 89.2152 46.9226 90.5744L48.0934 92.9144C48.2213 93.1697 48.3213 93.4403 48.3903 93.7172L50.5708 102.44C50.5881 102.51 50.6108 102.578 50.6376 102.645L51.8989 105.799C52.2174 106.593 53.1008 107.003 53.9162 106.734C54.2816 106.611 54.5932 106.362 54.7932 106.029L57.5396 101.451C57.7039 101.178 57.9018 100.925 58.1287 100.698L59.3763 99.449C59.6785 99.1473 59.8512 98.7299 59.8512 98.3035V94.6727C59.8512 93.7862 60.156 92.9181 60.7103 92.2248L62.7239 89.7085C63.0208 89.3379 63.1366 88.8767 63.054 88.4098C62.9697 87.9428 62.6997 87.5512 62.2927 87.3069L60.028 85.9477C59.319 85.5234 58.7704 84.8953 58.4424 84.132L56.2299 78.9709C55.9298 78.2702 55.1707 77.8728 54.4232 78.0197L51.9279 78.5198C50.9687 78.7145 49.9796 78.5398 49.141 78.037L44.968 75.5333C44.7158 75.3817 44.4284 75.3022 44.1341 75.3022H41.7273C41.2051 75.3022 40.7129 75.5565 40.4091 75.9808L36.0034 82.1484C35.806 82.4243 35.7013 82.7496 35.7013 83.0892V84.3205C35.7013 84.8153 35.9229 85.2765 36.3093 85.5865L39.948 88.4961C40.3402 88.8104 40.8671 88.9273 41.3546 88.8035L42.4664 88.5261C42.7886 88.4435 43.1129 88.404 43.4324 88.404Z" fill="url(#paint1_linear)"/>
<path d="M66.75 107.5C66.4462 107.5 66.1541 107.38 65.9372 107.163L63.6367 104.863C63.3656 104.592 63.2471 104.202 63.323 103.825L64.4732 98.0746C64.5179 97.853 64.6269 97.6482 64.7869 97.4871L68.2372 94.0369C68.5372 93.7368 68.9789 93.6252 69.3837 93.7494C69.7896 93.8716 70.0944 94.2085 70.177 94.6249L71.3268 100.375C71.3831 100.655 71.3326 100.946 71.1857 101.193L67.7355 106.942C67.5539 107.246 67.2412 107.448 66.8906 107.492C66.8432 107.497 66.7958 107.5 66.75 107.5ZM65.6977 103.672L66.521 104.496L68.9847 100.391L68.343 97.1833L66.6579 98.8684L65.6977 103.672Z" fill="url(#paint2_linear)"/>
<path d="M79.3953 81.9494C77.5886 81.9494 75.972 80.7097 75.514 78.8962C75.2439 77.8243 74.9059 76.9052 74.5111 76.1624C74.2606 75.6907 73.8099 75.3896 73.273 75.3343C72.685 75.2759 72.1122 75.5149 71.7316 75.975C69.4169 78.773 67.1617 80.0669 65.0228 79.8253C62.4307 79.5284 61.1725 77.07 61.1199 76.9652C55.7903 66.3056 46.2698 67.2268 46.1756 67.2442C46.133 67.2489 46.0914 67.251 46.0487 67.251C45.4097 67.251 44.7 67.4053 43.942 67.7075C41.4004 68.7245 38.5924 67.9617 36.9536 65.8113C35.348 63.7024 35.3575 60.9607 36.9779 58.8287L37.111 58.655C37.9186 57.6174 39.1536 56.9573 40.4965 56.8483C44.8322 56.4961 48.0555 54.4104 50.0785 50.6475C50.2875 50.2574 50.7039 50.0195 51.1456 50.0437C67.9334 50.8328 81.6332 63.5055 83.7205 80.177C83.7952 80.7776 83.393 81.334 82.7982 81.4478C81.868 81.6283 80.8993 81.7862 79.9197 81.9157C79.7438 81.9379 79.568 81.9494 79.3953 81.9494ZM73.0956 73.0254C73.2324 73.0254 73.3693 73.0333 73.5062 73.047C74.8196 73.1807 75.9256 73.9235 76.5421 75.0827C77.0243 75.9887 77.4291 77.0826 77.7439 78.3324C77.9603 79.1883 78.7641 79.7495 79.6148 79.6353C80.1776 79.5605 80.7361 79.4758 81.2847 79.3836C78.9321 64.5889 66.7237 53.4049 51.7389 52.3805C49.9727 55.329 46.6731 58.6524 40.6839 59.1404C39.9817 59.1977 39.341 59.5357 38.9256 60.0695L38.8119 60.2164C37.6227 61.7804 38.0197 63.4113 38.7846 64.4173C39.5595 65.4354 41.1509 66.3498 43.0886 65.5723C44.0983 65.1685 45.0748 64.9605 45.9914 64.9511C46.4562 64.9084 49.0699 64.7463 52.3195 65.8781C55.5376 66.9984 60.0338 69.651 63.1771 75.9371C63.1803 75.945 63.9462 77.3974 65.2976 77.5427C66.5958 77.7048 68.2035 76.6341 69.9596 74.51C70.743 73.5634 71.8916 73.0254 73.0956 73.0254Z" fill="url(#paint3_linear)"/>
<path d="M19.1283 82.2H16.3271C16.0018 82.2 15.6912 82.0621 15.4738 81.8204C15.2564 81.5788 15.1506 81.2571 15.1843 80.9329C15.8486 74.4683 18.3328 68.3381 22.3705 63.2017C22.7074 62.7732 23.2997 62.6395 23.7882 62.8848L28.1054 65.0432C29.9095 65.946 31.1861 67.6732 31.5172 69.6636L31.6062 70.1895C32.0647 72.9469 30.6939 75.6402 28.1939 76.8904L25.9444 78.0149C25.319 78.3281 24.7831 78.8019 24.3941 79.3836C23.2181 81.1466 21.2503 82.2 19.1283 82.2ZM17.6264 79.9H19.1283C20.4785 79.9 21.732 79.2293 22.4805 78.1059C23.0902 77.1905 23.933 76.4477 24.9163 75.9555L27.1658 74.8305C28.7577 74.0361 29.6305 72.3205 29.3383 70.5654L29.2499 70.04C29.2499 70.0384 29.2499 70.0384 29.2499 70.0384C29.0383 68.7713 28.226 67.6732 27.0773 67.0983L23.6113 65.3653C20.4317 69.6594 18.3797 74.6431 17.6264 79.9Z" fill="url(#paint4_linear)"/>
<path d="M29.0667 111.997C28.8151 111.997 28.5666 111.916 28.3608 111.756C20.826 105.902 16.0097 97.1211 15.1495 87.6638C15.1037 87.1669 15.3843 86.6989 15.8418 86.502L17.0457 85.9856C19.4552 84.9532 22.2095 85.4844 24.063 87.338L26.194 89.4689C26.7646 90.0396 27.4843 90.4249 28.2755 90.5834C31.2451 91.1783 33.3987 93.8057 33.3987 96.8337V97.1522C33.3987 98.8852 32.8917 100.562 31.9305 102.002C31.3609 102.855 31.0013 103.846 30.8871 104.864L30.2085 110.975C30.1627 111.388 29.8969 111.746 29.5142 111.908C29.3705 111.968 29.2188 111.997 29.0667 111.997ZM17.5263 88.2824C18.4465 96.1014 22.261 103.367 28.1597 108.6L28.6024 104.609C28.7561 103.227 29.2452 101.883 30.0169 100.724C30.725 99.6627 31.0987 98.4277 31.0987 97.1511V96.8326C31.0987 94.8969 29.7221 93.2171 27.8238 92.8376C26.5851 92.5901 25.458 91.9874 24.5668 91.094L22.4358 88.963C21.2503 87.7796 19.491 87.4396 17.9512 88.0981L17.5263 88.2824Z" fill="url(#paint5_linear)"/>
</g>
<circle opacity="0.3" cx="49.5" cy="84.5" r="43" stroke="#D8E8FF"/>
<path opacity="0.5" d="M76 50.0001L95 31L96 31L76 51L76 50.0001Z" fill="#D8E8FF"/>
<path opacity="0.5" d="M26 30H96V31H26V30Z" fill="#D8E8FF"/>
<path d="M26.578 19.708C27.4393 19.6853 28.0173 19.623 28.312 19.521C28.618 19.4077 28.8107 19.1697 28.89 18.807C28.9693 18.4443 29.009 17.736 29.009 16.682V9.304H30.471V16.172C30.471 17.8493 30.403 18.9883 30.267 19.589C30.131 20.1897 29.8193 20.575 29.332 20.745C28.856 20.9037 27.938 20.9887 26.578 21V19.708ZM42.872 9.304V15.883C42.872 17.4017 42.7756 18.518 42.583 19.232C42.3903 19.9347 41.988 20.4277 41.376 20.711C40.764 20.9943 39.778 21.136 38.418 21.136C37.058 21.136 36.072 20.9943 35.46 20.711C34.848 20.4163 34.44 19.9177 34.236 19.215C34.0433 18.5123 33.947 17.4017 33.947 15.883V9.304H35.392V16.444C35.392 17.464 35.4486 18.1893 35.562 18.62C35.6753 19.0507 35.936 19.351 36.344 19.521C36.752 19.691 37.4433 19.776 38.418 19.776C39.3926 19.776 40.0783 19.691 40.475 19.521C40.883 19.351 41.138 19.0563 41.24 18.637C41.3533 18.2063 41.41 17.4753 41.41 16.444V9.304H42.872ZM54.1257 21L47.9547 12.058H47.8867V21H46.4757V9.304H47.9717L54.0577 18.042H54.1257V9.304H55.5197V21H54.1257ZM59.2669 21V9.304H66.8829V10.664H60.7289V14.421H66.0669V15.781H60.7289V19.64H66.8829V21H59.2669Z" fill="#D8E8FF"/>
<defs>
<filter id="filter0_d" x="0" y="38" width="99" height="99" filterUnits="userSpaceOnUse" color-interpolation-filters="sRGB">
<feFlood flood-opacity="0" result="BackgroundImageFix"/>
<feColorMatrix in="SourceAlpha" type="matrix" values="0 0 0 0 0 0 0 0 0 0 0 0 0 0 0 0 0 0 127 0"/>
<feOffset dy="3"/>
<feGaussianBlur stdDeviation="7.5"/>
<feColorMatrix type="matrix" values="0 0 0 0 0.447059 0 0 0 0 0.760784 0 0 0 0 0.964706 0 0 0 1 0"/>
<feBlend mode="normal" in2="BackgroundImageFix" result="effect1_dropShadow"/>
<feBlend mode="normal" in="SourceGraphic" in2="effect1_dropShadow" result="shape"/>
</filter>
<linearGradient id="paint0_linear" x1="49.5" y1="50" x2="49.5" y2="119" gradientUnits="userSpaceOnUse">
<stop stop-color="#45DD2F"/>
<stop offset="1" stop-color="#D8E8FF"/>
</linearGradient>
<linearGradient id="paint1_linear" x1="49.3859" y1="73.0012" x2="49.3859" y2="109.117" gradientUnits="userSpaceOnUse">
<stop stop-color="#45DD2F"/>
<stop offset="1" stop-color="#D8E8FF"/>
</linearGradient>
<linearGradient id="paint2_linear" x1="67.3248" y1="93.6995" x2="67.3248" y2="107.5" gradientUnits="userSpaceOnUse">
<stop stop-color="#45DD2F"/>
<stop offset="1" stop-color="#D8E8FF"/>
</linearGradient>
<linearGradient id="paint3_linear" x1="59.7427" y1="50.042" x2="59.7427" y2="81.9494" gradientUnits="userSpaceOnUse">
<stop stop-color="#45DD2F"/>
<stop offset="1" stop-color="#D8E8FF"/>
</linearGradient>
<linearGradient id="paint4_linear" x1="23.436" y1="62.7627" x2="23.436" y2="82.2" gradientUnits="userSpaceOnUse">
<stop stop-color="#45DD2F"/>
<stop offset="1" stop-color="#D8E8FF"/>
</linearGradient>
<linearGradient id="paint5_linear" x1="24.2717" y1="85.4653" x2="24.2717" y2="111.997" gradientUnits="userSpaceOnUse">
<stop stop-color="#45DD2F"/>
<stop offset="1" stop-color="#D8E8FF"/>
</linearGradient>
</defs>
</svg>
