<svg width="98" height="138" viewBox="0 0 98 138" fill="none" xmlns="http://www.w3.org/2000/svg">
<g clipPath="url(#clip0)" filter="url(#filter0_d)">
<path d="M49.0002 52C36.8615 52.0091 25.6479 58.487 19.5768 68.9985H19.5358V69.07C10.9609 83.9484 14.8538 102.887 28.602 113.177V113.195H28.6253C40.6958 122.261 57.3046 122.261 69.3746 113.195H69.3987V113.177C84.4165 101.918 87.4639 80.6178 76.2057 65.5994C69.7851 57.0351 59.7046 51.9958 49.0002 52ZM48.3564 54.2823C47.7249 54.7136 47.1197 55.1824 46.5435 55.6852C43.4677 58.4221 39.4945 59.9334 35.3776 59.9328H30.9341C36.0549 56.3677 42.1181 54.4015 48.3564 54.2823ZM49.0002 117.728C43.2488 117.733 37.6058 116.166 32.6815 113.195H65.3301C60.4025 116.168 54.7552 117.735 49.0002 117.728ZM80.4025 90.5301H58.4269C54.3127 90.538 50.5765 92.9292 48.8457 96.6612C46.4167 101.897 41.1733 105.252 35.4014 105.262V107.529C42.0571 107.516 48.1031 103.648 50.904 97.6096C52.2626 94.6796 55.1965 92.8024 58.4269 92.7967H79.9896C78.404 99.9776 74.3759 106.386 68.5931 110.928H29.4077C23.9011 106.604 19.9768 100.582 18.2427 93.7988C20.8567 93.7822 23.2944 92.4788 24.7601 90.3149L26.3976 87.8875C28.1662 85.2792 31.1161 83.7208 34.268 83.7307C39.237 83.702 43.2926 87.7006 43.3343 92.6696C43.3077 94.5386 42.4918 96.3084 41.0888 97.5429C39.3997 99.2988 36.8781 99.9776 34.5354 99.3069C32.7011 98.6878 31.3467 97.1224 30.9963 95.2187C30.6911 93.4242 31.5671 91.6361 33.1723 90.7773C34.1968 90.1329 35.4908 90.0952 36.5518 90.6789C37.4697 91.2114 38.0381 92.1888 38.0462 93.2498H40.3131C40.3043 91.3813 39.3079 89.6572 37.6931 88.7169C35.9387 87.7151 33.7787 87.7474 32.0561 88.8023C29.6093 90.1293 28.2854 92.8727 28.7696 95.6141C29.2655 98.3283 31.1925 100.561 33.8056 101.448C34.6109 101.723 35.4567 101.864 36.3079 101.863C38.6632 101.796 40.9089 100.853 42.6065 99.2188C44.4849 97.5565 45.5722 95.1777 45.6002 92.6696C45.558 86.4492 40.4888 81.4367 34.268 81.4645C30.3639 81.4548 26.711 83.3869 24.5217 86.6191L22.8823 89.0456C21.8223 90.6104 20.0534 91.5443 18.1633 91.5386H17.7636C16.9631 87.0628 17.1367 82.4672 18.2734 78.0645H34.9484C39.3867 78.0702 43.6926 79.5806 47.162 82.3495C51.0326 85.4365 55.8346 87.122 60.7855 87.1304H80.7026C80.6633 88.2684 80.5631 89.403 80.4025 90.5301ZM68.2562 73.8151C69.3758 72.2165 71.205 71.2648 73.1564 71.2651H77.091C79.3047 75.4677 80.5393 80.1167 80.7026 84.8639H60.7855C56.3475 84.8581 52.0413 83.3477 48.5719 80.5791C44.7013 77.4916 39.8986 75.8063 34.9484 75.7985H18.9601C19.4905 74.2386 20.1425 72.723 20.9089 71.2651H36.9502C41.3315 71.2765 45.475 69.275 48.1898 65.8357C50.5753 62.8143 54.2164 61.0557 58.0659 61.0663V58.7994C53.5246 58.7876 49.2293 60.8625 46.4152 64.4273C44.129 67.3226 40.6397 69.0085 36.9502 68.9985H22.2273C23.8383 66.4705 25.7967 64.1813 28.0451 62.1991H35.3776C40.0505 62.2006 44.5613 60.4855 48.0542 57.3807C49.4156 56.1709 50.9658 55.1917 52.6438 54.4818C62.1462 55.5911 70.6426 60.9232 75.7734 68.9991H73.1564C70.4304 68.9979 67.8804 70.345 66.3446 72.5968C66.315 72.6391 66.2888 72.6831 66.2664 72.7296C64.2957 76.7046 60.2368 79.2133 55.7996 79.1982V81.4645C61.0662 81.4823 65.89 78.5205 68.2562 73.8151Z" fill="url(#paint0_linear)"/>
<path d="M62.5988 70.1316C62.5988 67.0024 60.0623 64.4653 56.9328 64.4653C53.8036 64.4653 51.2662 67.0024 51.2662 70.1316C51.2662 73.2611 53.8036 75.7985 56.9328 75.7985C60.0602 75.7945 62.5951 73.2596 62.5988 70.1316ZM53.5331 70.1316C53.5331 68.2544 55.055 66.7322 56.9328 66.7322C58.8103 66.7322 60.3322 68.2544 60.3322 70.1316C60.3322 72.0094 58.8103 73.5316 56.9328 73.5316C55.055 73.5316 53.5331 72.0094 53.5331 70.1316Z" fill="url(#paint1_linear)"/>
<path d="M58.0656 105.263C60.5691 105.263 62.5987 103.233 62.5987 100.729C62.5987 98.2259 60.5691 96.1963 58.0656 96.1963C55.5621 96.1963 53.5325 98.2262 53.5325 100.729C53.5325 103.233 55.5624 105.263 58.0656 105.263ZM58.0656 98.4632C59.3177 98.4632 60.3322 99.4777 60.3322 100.729C60.3322 101.981 59.3177 102.996 58.0656 102.996C56.8138 102.996 55.7993 101.981 55.7993 100.729C55.7993 99.4777 56.8141 98.4632 58.0656 98.4632Z" fill="url(#paint2_linear)"/>
</g>
<circle opacity="0.3" cx="49" cy="86" r="42.5" stroke="#D8E8FF"/>
<path opacity="0.5" d="M73 50.0001L92 31L93 31L73 51L73 50.0001Z" fill="#D8E8FF"/>
<path opacity="0.5" d="M23 30H93V31H23V30Z" fill="#D8E8FF"/>
<path d="M35.291 21V11.803H35.223L31.211 21H30.14L26.145 11.803H26.077V21H24.7V9.304H26.672L30.667 18.399H30.752L34.747 9.304H36.719V21H35.291ZM48.4019 21L47.1949 17.889H41.9249L40.7179 21H39.2389L43.6589 9.304H45.4949L49.9149 21H48.4019ZM44.5939 10.885H44.5089L42.3669 16.512H46.7359L44.5939 10.885ZM53.9656 21V16.58L49.7326 9.304H51.2966L54.6796 14.999H54.7986L58.1646 9.304H59.6946L55.4276 16.58V21H53.9656Z" fill="#D8E8FF"/>
<defs>
<filter id="filter0_d" x="0" y="40" width="98" height="98" filterUnits="userSpaceOnUse" color-interpolation-filters="sRGB">
<feFlood flood-opacity="0" result="BackgroundImageFix"/>
<feColorMatrix in="SourceAlpha" type="matrix" values="0 0 0 0 0 0 0 0 0 0 0 0 0 0 0 0 0 0 127 0"/>
<feOffset dy="3"/>
<feGaussianBlur stdDeviation="7.5"/>
<feColorMatrix type="matrix" values="0 0 0 0 0.447059 0 0 0 0 0.760784 0 0 0 0 0.964706 0 0 0 1 0"/>
<feBlend mode="normal" in2="BackgroundImageFix" result="effect1_dropShadow"/>
<feBlend mode="normal" in="SourceGraphic" in2="effect1_dropShadow" result="shape"/>
</filter>
<linearGradient id="paint0_linear" x1="49.0003" y1="52" x2="49.0003" y2="119.994" gradientUnits="userSpaceOnUse">
<stop stop-color="#E2E833"/>
<stop offset="0.930208" stop-color="#D8E8FF"/>
</linearGradient>
<linearGradient id="paint1_linear" x1="56.9325" y1="64.4653" x2="56.9325" y2="75.7985" gradientUnits="userSpaceOnUse">
<stop stop-color="#E2E833"/>
<stop offset="0.930208" stop-color="#D8E8FF"/>
</linearGradient>
<linearGradient id="paint2_linear" x1="58.0656" y1="96.1963" x2="58.0656" y2="105.263" gradientUnits="userSpaceOnUse">
<stop stop-color="#E2E833"/>
<stop offset="0.930208" stop-color="#D8E8FF"/>
</linearGradient>
<clipPath id="clip0">
<rect width="68" height="68" fill="white" transform="translate(15 52)"/>
</clipPath>
</defs>
</svg>
