<svg width="100" height="146" viewBox="0 0 100 146" fill="none" xmlns="http://www.w3.org/2000/svg">
<g filter="url(#filter0_d)">
<path d="M74.7488 68.2512C68.1381 61.6407 59.3488 58 50 58C40.6512 58 31.8619 61.6407 25.2512 68.2512C18.6407 74.8619 15 83.6512 15 93C15 102.349 18.6407 111.138 25.2512 117.749C31.8619 124.359 40.6512 128 50 128C59.3488 128 68.1381 124.359 74.7488 117.749C81.3593 111.138 85 102.349 85 93C85 83.6512 81.3593 74.8619 74.7488 68.2512ZM42.7635 62.9595C40.1858 67.5025 36.1363 71.1209 31.3272 73.1669C29.303 74.0284 27.1862 74.5937 25.001 74.863C29.2585 69.0109 35.5171 64.7051 42.7635 62.9595ZM22.3877 79.1446C26.0577 79.0975 29.5998 78.3593 32.9331 76.9412C38.6776 74.4969 43.4983 70.1384 46.5081 64.6687C46.5096 64.666 46.5109 64.6635 46.5123 64.6609C46.9736 63.8219 47.5016 62.9845 48.0859 62.1625C48.7192 62.1236 49.357 62.1016 50 62.1016C53.9488 62.1016 57.7265 62.8474 61.2011 64.2036C58.579 66.1483 56.2333 68.4128 54.203 70.9693C49.7776 76.5414 43.8144 80.4941 36.9588 82.4001C36.9563 82.4007 36.9539 82.4014 36.9513 82.4021C31.5789 83.8945 26.0471 84.3892 20.4757 83.8795C20.9838 82.2387 21.6259 80.6566 22.3877 79.1446ZM19.5236 87.9075C21.2568 88.0859 22.9871 88.176 24.7113 88.176C29.2145 88.176 33.6759 87.5682 38.0427 86.3557C38.0452 86.3551 38.0474 86.3545 38.0498 86.3538C45.749 84.215 52.4455 79.7771 57.4151 73.5199C59.6749 70.6746 62.3743 68.2337 65.4484 66.2487C69.3875 68.5323 72.7775 71.6612 75.3708 75.3849C70.5702 77.4544 66.2247 80.3184 62.4283 83.9247C53.4011 92.5007 40.7558 96.0095 28.6004 93.3132C28.5949 93.3119 28.5894 93.3106 28.584 93.3095C25.6355 92.6544 22.6091 92.3222 19.5887 92.3222H19.1103C19.1426 90.8221 19.2837 89.3484 19.5236 87.9075ZM50 123.898C41.0537 123.898 32.9848 120.075 27.3371 113.978C29.187 114.383 31.0007 114.925 32.7626 115.602C32.7685 115.604 32.7745 115.606 32.7804 115.608C37.5885 117.453 42.6937 118.38 47.8042 118.38C52.0286 118.38 56.2564 117.746 60.319 116.474L70.8873 113.163C71.932 112.836 73.0032 112.557 74.0928 112.322C68.4249 119.375 59.7315 123.898 50 123.898ZM77.1998 107.648C74.6066 107.956 72.0756 108.493 69.6614 109.249L59.093 112.56C50.9893 115.098 42.1611 114.818 34.2347 111.773C34.2285 111.771 34.2224 111.769 34.2161 111.766C30.8576 110.478 27.3331 109.63 23.7253 109.24C22.623 107.463 21.6944 105.568 20.9667 103.576C23.8941 103.978 26.7235 104.811 29.4097 106.064C29.413 106.066 29.4173 106.068 29.4214 106.07C33.8634 108.141 38.7755 109.228 43.6777 109.227C43.9416 109.227 44.2059 109.224 44.4695 109.218C49.6302 109.095 54.7727 107.76 59.3421 105.358C59.3473 105.355 59.3525 105.352 59.3577 105.35C65.7746 101.972 72.9461 99.9197 80.2397 99.3556C79.6231 102.294 78.5883 105.08 77.1998 107.648ZM57.4633 101.712C57.4579 101.715 57.4523 101.717 57.4468 101.72C49.3111 106.002 39.4799 106.238 31.1484 102.35C31.1453 102.348 31.1413 102.346 31.1372 102.344C27.5381 100.666 23.7149 99.6511 19.7521 99.3183C19.554 98.3687 19.4007 97.4029 19.2923 96.4238H19.5886C22.306 96.4238 25.029 96.7223 27.682 97.3107C27.6872 97.312 27.6926 97.3132 27.6979 97.3143C30.695 97.9804 33.7169 98.3062 36.718 98.3062C47.2283 98.3062 57.4572 94.3044 65.2532 86.8985C68.8308 83.5 72.9474 80.8278 77.5075 78.9348C79.6745 83.1558 80.8984 87.9376 80.8984 93C80.8984 93.741 80.8705 94.4757 80.819 95.2039C72.6688 95.7073 64.6307 97.9422 57.4633 101.712Z" fill="url(#paint0_linear)"/>
<path d="M73.9258 90.2656C75.0584 90.2656 75.9766 89.3475 75.9766 88.2148C75.9766 87.0822 75.0584 86.1641 73.9258 86.1641C72.7932 86.1641 71.875 87.0822 71.875 88.2148C71.875 89.3475 72.7932 90.2656 73.9258 90.2656Z" fill="url(#paint1_linear)"/>
<path d="M56.1523 84.7969C57.285 84.7969 58.2031 83.8787 58.2031 82.7461C58.2031 81.6135 57.285 80.6953 56.1523 80.6953C55.0197 80.6953 54.1016 81.6135 54.1016 82.7461C54.1016 83.8787 55.0197 84.7969 56.1523 84.7969Z" fill="url(#paint2_linear)"/>
<path d="M50.6836 69.7578C51.8162 69.7578 52.7344 68.8396 52.7344 67.707C52.7344 66.5744 51.8162 65.6562 50.6836 65.6562C49.551 65.6562 48.6328 66.5744 48.6328 67.707C48.6328 68.8396 49.551 69.7578 50.6836 69.7578Z" fill="url(#paint3_linear)"/>
</g>
<circle opacity="0.3" cx="50" cy="93" r="43.5" stroke="#D8E8FF"/>
<path opacity="0.5" d="M71.8776 55.1226L97 31L98 31.0001L72.9416 55.5585L71.8776 55.1226Z" fill="#D8E8FF"/>
<path opacity="0.5" d="M2 30H98V31H2V30Z" fill="#D8E8FF"/>
<path d="M10.35 21L4.179 12.058H4.111V21H2.7V9.304H4.196L10.282 18.042H10.35V9.304H11.744V21H10.35ZM19.8942 21.136C18.3415 21.136 17.2422 20.983 16.5962 20.677C15.9502 20.371 15.5365 19.8383 15.3552 19.079C15.1852 18.3083 15.1002 16.9993 15.1002 15.152C15.1002 13.3047 15.1852 12.0013 15.3552 11.242C15.5365 10.4713 15.9502 9.933 16.5962 9.627C17.2422 9.321 18.3415 9.168 19.8942 9.168C21.4355 9.168 22.5292 9.321 23.1752 9.627C23.8325 9.933 24.2462 10.4713 24.4162 11.242C24.5975 12.0013 24.6882 13.3047 24.6882 15.152C24.6882 16.9993 24.5975 18.3083 24.4162 19.079C24.2462 19.8383 23.8325 20.371 23.1752 20.677C22.5292 20.983 21.4355 21.136 19.8942 21.136ZM19.8942 19.776C21.0502 19.776 21.8322 19.7023 22.2402 19.555C22.6482 19.4077 22.9145 19.0393 23.0392 18.45C23.1638 17.8607 23.2262 16.7613 23.2262 15.152C23.2262 13.5427 23.1638 12.4433 23.0392 11.854C22.9145 11.2647 22.6482 10.8963 22.2402 10.749C21.8322 10.6017 21.0502 10.528 19.8942 10.528C18.7382 10.528 17.9505 10.6017 17.5312 10.749C17.1232 10.8963 16.8568 11.2647 16.7322 11.854C16.6075 12.4433 16.5452 13.5427 16.5452 15.152C16.5452 16.7613 16.6075 17.8607 16.7322 18.45C16.8568 19.0393 17.1232 19.4077 17.5312 19.555C17.9505 19.7023 18.7382 19.776 19.8942 19.776ZM30.8933 21L26.6603 9.304H28.1903L31.7773 19.198H31.8623L35.4663 9.304H36.9453L32.7293 21H30.8933ZM39.4964 21V9.304H47.1124V10.664H40.9584V14.421H46.2964V15.781H40.9584V19.64H47.1124V21H39.4964ZM60.6871 21V11.803H60.6191L56.6071 21H55.5361L51.5411 11.803H51.4731V21H50.0961V9.304H52.0681L56.0631 18.399H56.1481L60.1431 9.304H62.1151V21H60.6871ZM65.859 9.304H71.299C72.4097 9.304 73.203 9.55333 73.679 10.052C74.1663 10.5507 74.41 11.2817 74.41 12.245C74.41 13.027 74.2513 13.6503 73.934 14.115C73.6167 14.5683 73.1067 14.863 72.404 14.999V15.067C73.2087 15.2143 73.764 15.526 74.07 16.002C74.376 16.478 74.529 17.1183 74.529 17.923C74.529 18.875 74.291 19.6287 73.815 20.184C73.3503 20.728 72.4947 21 71.248 21H65.859V9.304ZM70.823 14.404C71.5483 14.404 72.081 14.251 72.421 13.945C72.7723 13.639 72.948 13.1687 72.948 12.534C72.948 12.058 72.8857 11.6897 72.761 11.429C72.6363 11.1683 72.421 10.9757 72.115 10.851C71.8203 10.7263 71.3897 10.664 70.823 10.664H67.321V14.404H70.823ZM70.891 19.64C71.4577 19.64 71.894 19.5777 72.2 19.453C72.5173 19.3283 72.7383 19.13 72.863 18.858C72.999 18.5747 73.067 18.1893 73.067 17.702C73.067 16.9993 72.9027 16.5007 72.574 16.206C72.2453 15.9113 71.6843 15.764 70.891 15.764H67.321V19.64H70.891ZM77.7869 21V9.304H85.4029V10.664H79.2489V14.421H84.5869V15.781H79.2489V19.64H85.4029V21H77.7869ZM95.6286 21L93.8096 16.41H93.5206H89.8486V21H88.3866V9.304H93.7586C94.688 9.304 95.3906 9.45133 95.8666 9.746C96.3426 10.0407 96.6543 10.4373 96.8016 10.936C96.949 11.4347 97.0226 12.075 97.0226 12.857C97.0226 13.6617 96.9036 14.3643 96.6656 14.965C96.4276 15.5543 95.9403 15.9567 95.2036 16.172L97.1926 21H95.6286ZM93.1466 15.05C93.872 15.05 94.4046 14.9763 94.7446 14.829C95.096 14.6703 95.317 14.4437 95.4076 14.149C95.5096 13.8543 95.5606 13.4237 95.5606 12.857C95.5606 12.279 95.5153 11.8427 95.4246 11.548C95.334 11.2533 95.1243 11.0323 94.7956 10.885C94.4783 10.7377 93.9683 10.664 93.2656 10.664H89.8486V15.05H93.1466Z" fill="#D8E8FF"/>
<defs>
<filter id="filter0_d" x="0" y="46" width="100" height="100" filterUnits="userSpaceOnUse" color-interpolation-filters="sRGB">
<feFlood flood-opacity="0" result="BackgroundImageFix"/>
<feColorMatrix in="SourceAlpha" type="matrix" values="0 0 0 0 0 0 0 0 0 0 0 0 0 0 0 0 0 0 127 0"/>
<feOffset dy="3"/>
<feGaussianBlur stdDeviation="7.5"/>
<feColorMatrix type="matrix" values="0 0 0 0 0.847059 0 0 0 0 0.909804 0 0 0 0 1 0 0 0 0.55 0"/>
<feBlend mode="normal" in2="BackgroundImageFix" result="effect1_dropShadow"/>
<feBlend mode="normal" in="SourceGraphic" in2="effect1_dropShadow" result="shape"/>
</filter>
<linearGradient id="paint0_linear" x1="50" y1="58" x2="50" y2="128" gradientUnits="userSpaceOnUse">
<stop stop-color="#00C8FF"/>
<stop offset="1" stop-color="#D8E8FF"/>
</linearGradient>
<linearGradient id="paint1_linear" x1="73.9258" y1="86.1641" x2="73.9258" y2="90.2656" gradientUnits="userSpaceOnUse">
<stop stop-color="#00C8FF"/>
<stop offset="1" stop-color="#D8E8FF"/>
</linearGradient>
<linearGradient id="paint2_linear" x1="56.1523" y1="80.6953" x2="56.1523" y2="84.7969" gradientUnits="userSpaceOnUse">
<stop stop-color="#00C8FF"/>
<stop offset="1" stop-color="#D8E8FF"/>
</linearGradient>
<linearGradient id="paint3_linear" x1="50.6836" y1="65.6562" x2="50.6836" y2="69.7578" gradientUnits="userSpaceOnUse">
<stop stop-color="#00C8FF"/>
<stop offset="1" stop-color="#D8E8FF"/>
</linearGradient>
</defs>
</svg>
