<svg width="98" height="137" viewBox="0 0 98 137" fill="none" xmlns="http://www.w3.org/2000/svg">
<g clipPath="url(#clip0)" filter="url(#filter0_d)">
<path d="M83 84.9891C83.0032 75.9071 79.4696 67.3699 73.0497 60.9502C66.6327 54.5332 58.101 51 49.0235 51H49.0108C43.7074 51.0019 38.5892 52.2098 33.9691 54.4936C25.9958 50.4738 20.1651 49.9787 17.072 53.0719C13.978 56.1659 14.4733 61.9955 18.4936 69.9692C16.2098 74.5894 15.0019 79.7076 15 85.0109C14.9968 94.0929 18.5304 102.63 24.9502 109.05C31.3672 115.467 39.8989 119 48.9765 119H48.9891C54.2923 118.998 59.4106 117.79 64.0307 115.506C68.5547 117.787 72.3879 118.934 75.4235 118.933C77.738 118.933 79.5894 118.267 80.9279 116.928C84.022 113.834 83.5265 108.004 79.5061 100.031C81.7901 95.4108 82.998 90.2924 83 84.9891ZM79.0156 84.9876C79.0148 86.9705 78.8232 88.9242 78.4492 90.8275L67.9084 80.2867C66.6046 78.9828 66.6046 76.8611 67.9084 75.557C68.54 74.9254 69.3798 74.5775 70.2732 74.5775C71.1667 74.5775 72.0064 74.9254 72.6381 75.557L78.8471 81.766C78.9593 82.8289 79.016 83.9039 79.0156 84.9876ZM49.0231 54.9983C56.7049 54.9983 64.3867 57.9218 70.2323 63.7674C73.298 66.8331 75.6182 70.4459 77.1017 74.3859L75.4553 72.7395C74.0712 71.3554 72.2308 70.593 70.2731 70.593C68.3155 70.593 66.4751 71.3554 65.0909 72.7395C62.2334 75.597 62.2334 80.2464 65.0909 83.104L77.2245 95.2376C75.7451 99.3165 73.3757 103.056 70.2159 106.216C68.3176 108.114 66.2267 109.705 64.0057 110.988C56.8463 107.041 48.7232 100.681 41.0212 92.9784C32.4833 84.4405 26.5466 76.421 23.0152 69.989C23.9777 68.3235 25.1131 66.7314 26.4215 65.2387L43.7366 82.554C45.1208 83.9382 46.9612 84.7006 48.9189 84.7006C50.8764 84.7006 52.7169 83.9383 54.1011 82.554C56.9585 79.6965 56.9585 75.0472 54.1011 72.1896L51.4805 69.569L52.1313 68.9183C53.5156 67.5341 54.278 65.6936 54.278 63.7361C54.278 61.7784 53.5156 59.938 52.1313 58.5538L48.5794 55.0019C48.7272 54.9996 48.8752 54.9983 49.0231 54.9983ZM30.4098 94.5784C27.6623 91.8308 23.3412 91.5921 20.3201 93.8624C18.3709 87.503 18.5778 80.6173 20.9404 74.3662C25.0858 81.2117 31.1033 88.695 38.2041 95.7959C45.3052 102.897 52.7886 108.915 59.6342 113.06C56.7782 114.139 53.7899 114.769 50.7794 114.948L30.4098 94.5784ZM51.2836 75.0069C52.5874 76.3109 52.5874 78.4326 51.2836 79.7366C50.6519 80.3683 49.812 80.7161 48.9187 80.7161C48.0254 80.7161 47.1855 80.3682 46.5539 79.7366L29.2388 62.4215C33.3957 58.7774 38.3247 56.4751 43.4573 55.5144L49.3138 61.3712C49.9455 62.0029 50.2935 62.8428 50.2935 63.7361C50.2935 64.6294 49.9455 65.4691 49.3138 66.1009L45.8457 69.5692L51.2836 75.0069ZM19.8892 55.8892C21.0504 54.728 24.2277 54.5271 29.8047 56.9382C28.0896 58.1173 26.4701 59.4629 24.9664 60.9665C23.4667 62.4662 22.1242 64.0812 20.9472 65.7915C18.8079 60.8231 18.4999 57.2786 19.8892 55.8892ZM21.8611 97.8477L22.3131 97.3958C23.7685 95.9403 26.1371 95.9403 27.5926 97.3958L44.9256 114.729C38.6446 113.88 32.583 111.048 27.7675 106.232C25.2615 103.726 23.2928 100.883 21.8611 97.8477ZM78.1106 114.111C76.9477 115.274 73.7701 115.473 68.195 113.062C69.9103 111.883 71.5298 110.537 73.0335 109.033C74.5372 107.53 75.8827 105.91 77.062 104.195C79.4726 109.77 79.2736 112.948 78.1106 114.111Z" fill="url(#paint0_linear)"/>
<path d="M66.1249 95.3035H70.1093V99.2878H66.1249V95.3035Z" fill="url(#paint1_linear)"/>
<path d="M58.3293 62.6663H62.3137V66.6506H58.3293V62.6663Z" fill="url(#paint2_linear)"/>
<path d="M53.6144 93.5369H57.5988V97.5212H53.6144V93.5369Z" fill="url(#paint3_linear)"/>
</g>
<circle opacity="0.3" cx="49" cy="85" r="42.5" stroke="#D8E8FF"/>
<path opacity="0.5" d="M73 50L93 31L94 31L74 50.5L73 50Z" fill="#D8E8FF"/>
<path opacity="0.5" d="M15 30H94V31H15V30Z" fill="#D8E8FF"/>
<path d="M21.103 21.136C19.5503 21.136 18.451 20.983 17.805 20.677C17.159 20.371 16.7453 19.8383 16.564 19.079C16.394 18.3083 16.309 16.9993 16.309 15.152C16.309 13.3047 16.394 12.0013 16.564 11.242C16.7453 10.4713 17.159 9.933 17.805 9.627C18.451 9.321 19.5503 9.168 21.103 9.168C22.6443 9.168 23.738 9.321 24.384 9.627C25.0413 9.933 25.455 10.4713 25.625 11.242C25.8063 12.0013 25.897 13.3047 25.897 15.152C25.897 16.9993 25.8063 18.3083 25.625 19.079C25.455 19.8383 25.0413 20.371 24.384 20.677C23.738 20.983 22.6443 21.136 21.103 21.136ZM21.103 19.776C22.259 19.776 23.041 19.7023 23.449 19.555C23.857 19.4077 24.1233 19.0393 24.248 18.45C24.3727 17.8607 24.435 16.7613 24.435 15.152C24.435 13.5427 24.3727 12.4433 24.248 11.854C24.1233 11.2647 23.857 10.8963 23.449 10.749C23.041 10.6017 22.259 10.528 21.103 10.528C19.947 10.528 19.1593 10.6017 18.74 10.749C18.332 10.8963 18.0657 11.2647 17.941 11.854C17.8163 12.4433 17.754 13.5427 17.754 15.152C17.754 16.7613 17.8163 17.8607 17.941 18.45C18.0657 19.0393 18.332 19.4077 18.74 19.555C19.1593 19.7023 19.947 19.776 21.103 19.776ZM36.3481 20.915C35.9968 20.983 35.5548 21.034 35.0221 21.068C34.5008 21.1133 34.0135 21.136 33.5601 21.136C32.1548 21.136 31.1291 20.983 30.4831 20.677C29.8371 20.371 29.4008 19.8157 29.1741 19.011C28.9588 18.195 28.8511 16.9087 28.8511 15.152C28.8511 13.4067 28.9588 12.126 29.1741 11.31C29.4008 10.494 29.8371 9.933 30.4831 9.627C31.1291 9.321 32.1548 9.168 33.5601 9.168C34.0248 9.168 34.5121 9.19067 35.0221 9.236C35.5321 9.28133 35.9515 9.34367 36.2801 9.423V10.698C35.4301 10.5847 34.6481 10.528 33.9341 10.528C32.7441 10.528 31.9111 10.6187 31.4351 10.8C30.9705 10.9813 30.6645 11.3723 30.5171 11.973C30.3698 12.5737 30.2961 13.6333 30.2961 15.152C30.2961 16.6707 30.3698 17.7303 30.5171 18.331C30.6645 18.9317 30.9705 19.3227 31.4351 19.504C31.9111 19.6853 32.7441 19.776 33.9341 19.776C34.8068 19.776 35.6115 19.7193 36.3481 19.606V20.915ZM41.8765 21V10.715H38.1705V9.304H47.0275V10.715H43.3385V21H41.8765ZM53.998 21.136C52.4453 21.136 51.346 20.983 50.7 20.677C50.054 20.371 49.6403 19.8383 49.459 19.079C49.289 18.3083 49.204 16.9993 49.204 15.152C49.204 13.3047 49.289 12.0013 49.459 11.242C49.6403 10.4713 50.054 9.933 50.7 9.627C51.346 9.321 52.4453 9.168 53.998 9.168C55.5393 9.168 56.633 9.321 57.279 9.627C57.9363 9.933 58.35 10.4713 58.52 11.242C58.7013 12.0013 58.792 13.3047 58.792 15.152C58.792 16.9993 58.7013 18.3083 58.52 19.079C58.35 19.8383 57.9363 20.371 57.279 20.677C56.633 20.983 55.5393 21.136 53.998 21.136ZM53.998 19.776C55.154 19.776 55.936 19.7023 56.344 19.555C56.752 19.4077 57.0183 19.0393 57.143 18.45C57.2677 17.8607 57.33 16.7613 57.33 15.152C57.33 13.5427 57.2677 12.4433 57.143 11.854C57.0183 11.2647 56.752 10.8963 56.344 10.749C55.936 10.6017 55.154 10.528 53.998 10.528C52.842 10.528 52.0543 10.6017 51.635 10.749C51.227 10.8963 50.9607 11.2647 50.836 11.854C50.7113 12.4433 50.649 13.5427 50.649 15.152C50.649 16.7613 50.7113 17.8607 50.836 18.45C50.9607 19.0393 51.227 19.4077 51.635 19.555C52.0543 19.7023 52.842 19.776 53.998 19.776ZM62.1371 9.304H67.5771C68.6878 9.304 69.4811 9.55333 69.9571 10.052C70.4445 10.5507 70.6881 11.2817 70.6881 12.245C70.6881 13.027 70.5295 13.6503 70.2121 14.115C69.8948 14.5683 69.3848 14.863 68.6821 14.999V15.067C69.4868 15.2143 70.0421 15.526 70.3481 16.002C70.6541 16.478 70.8071 17.1183 70.8071 17.923C70.8071 18.875 70.5691 19.6287 70.0931 20.184C69.6285 20.728 68.7728 21 67.5261 21H62.1371V9.304ZM67.1011 14.404C67.8265 14.404 68.3591 14.251 68.6991 13.945C69.0505 13.639 69.2261 13.1687 69.2261 12.534C69.2261 12.058 69.1638 11.6897 69.0391 11.429C68.9145 11.1683 68.6991 10.9757 68.3931 10.851C68.0985 10.7263 67.6678 10.664 67.1011 10.664H63.5991V14.404H67.1011ZM67.1691 19.64C67.7358 19.64 68.1721 19.5777 68.4781 19.453C68.7955 19.3283 69.0165 19.13 69.1411 18.858C69.2771 18.5747 69.3451 18.1893 69.3451 17.702C69.3451 16.9993 69.1808 16.5007 68.8521 16.206C68.5235 15.9113 67.9625 15.764 67.1691 15.764H63.5991V19.64H67.1691ZM74.065 21V9.304H81.681V10.664H75.527V14.421H80.865V15.781H75.527V19.64H81.681V21H74.065ZM91.9068 21L90.0878 16.41H89.7988H86.1268V21H84.6648V9.304H90.0368C90.9661 9.304 91.6688 9.45133 92.1448 9.746C92.6208 10.0407 92.9325 10.4373 93.0798 10.936C93.2271 11.4347 93.3008 12.075 93.3008 12.857C93.3008 13.6617 93.1818 14.3643 92.9438 14.965C92.7058 15.5543 92.2185 15.9567 91.4818 16.172L93.4708 21H91.9068ZM89.4248 15.05C90.1501 15.05 90.6828 14.9763 91.0228 14.829C91.3741 14.6703 91.5951 14.4437 91.6858 14.149C91.7878 13.8543 91.8388 13.4237 91.8388 12.857C91.8388 12.279 91.7935 11.8427 91.7028 11.548C91.6121 11.2533 91.4025 11.0323 91.0738 10.885C90.7565 10.7377 90.2465 10.664 89.5438 10.664H86.1268V15.05H89.4248Z" fill="#D8E8FF"/>
<defs>
<filter id="filter0_d" x="0" y="39" width="98" height="98" filterUnits="userSpaceOnUse" color-interpolation-filters="sRGB">
<feFlood flood-opacity="0" result="BackgroundImageFix"/>
<feColorMatrix in="SourceAlpha" type="matrix" values="0 0 0 0 0 0 0 0 0 0 0 0 0 0 0 0 0 0 127 0"/>
<feOffset dy="3"/>
<feGaussianBlur stdDeviation="7.5"/>
<feColorMatrix type="matrix" values="0 0 0 0 0.847059 0 0 0 0 0.909804 0 0 0 0 1 0 0 0 0.7 0"/>
<feBlend mode="normal" in2="BackgroundImageFix" result="effect1_dropShadow"/>
<feBlend mode="normal" in="SourceGraphic" in2="effect1_dropShadow" result="shape"/>
</filter>
<linearGradient id="paint0_linear" x1="49" y1="51" x2="49" y2="119" gradientUnits="userSpaceOnUse">
<stop stop-color="#009FFF"/>
<stop offset="1" stop-color="#D8E8FF"/>
</linearGradient>
<linearGradient id="paint1_linear" x1="68.1171" y1="95.3035" x2="68.1171" y2="99.2878" gradientUnits="userSpaceOnUse">
<stop stop-color="#009FFF"/>
<stop offset="1" stop-color="#D8E8FF"/>
</linearGradient>
<linearGradient id="paint2_linear" x1="60.3215" y1="62.6663" x2="60.3215" y2="66.6506" gradientUnits="userSpaceOnUse">
<stop stop-color="#009FFF"/>
<stop offset="1" stop-color="#D8E8FF"/>
</linearGradient>
<linearGradient id="paint3_linear" x1="55.6066" y1="93.5369" x2="55.6066" y2="97.5212" gradientUnits="userSpaceOnUse">
<stop stop-color="#009FFF"/>
<stop offset="1" stop-color="#D8E8FF"/>
</linearGradient>
<clipPath id="clip0">
<rect width="68" height="68" fill="white" transform="translate(15 51)"/>
</clipPath>
</defs>
</svg>
