<svg width="1710" height="15" viewBox="0 0 1710 15" fill="none" xmlns="http://www.w3.org/2000/svg">
<rect y="11" width="1710" height="1" fill="#D8E8FF"/>
<rect width="1" height="15" fill="#D8E8FF"/>
<rect x="37" y="4" width="1" height="7" fill="#D8E8FF"/>
<rect x="228" y="4" width="1" height="7" fill="#D8E8FF"/>
<rect x="418" y="4" width="1" height="7" fill="#D8E8FF"/>
<rect x="608" y="4" width="1" height="7" fill="#D8E8FF"/>
<rect x="798" y="4" width="1" height="7" fill="#D8E8FF"/>
<rect x="988" y="4" width="1" height="7" fill="#D8E8FF"/>
<rect x="1177" y="4" width="1" height="7" fill="#D8E8FF"/>
<rect x="1366" y="4" width="1" height="7" fill="#D8E8FF"/>
<rect x="1556" y="4" width="1" height="7" fill="#D8E8FF"/>
<rect x="76" y="4" width="1" height="7" fill="#D8E8FF"/>
<rect x="267" y="4" width="1" height="7" fill="#D8E8FF"/>
<rect x="457" y="4" width="1" height="7" fill="#D8E8FF"/>
<rect x="647" y="4" width="1" height="7" fill="#D8E8FF"/>
<rect x="837" y="4" width="1" height="7" fill="#D8E8FF"/>
<rect x="1027" y="4" width="1" height="7" fill="#D8E8FF"/>
<rect x="1216" y="4" width="1" height="7" fill="#D8E8FF"/>
<rect x="1405" y="4" width="1" height="7" fill="#D8E8FF"/>
<rect x="1595" y="4" width="1" height="7" fill="#D8E8FF"/>
<rect x="115" y="4" width="1" height="7" fill="#D8E8FF"/>
<rect x="306" y="4" width="1" height="7" fill="#D8E8FF"/>
<rect x="496" y="4" width="1" height="7" fill="#D8E8FF"/>
<rect x="686" y="4" width="1" height="7" fill="#D8E8FF"/>
<rect x="876" y="4" width="1" height="7" fill="#D8E8FF"/>
<rect x="1066" y="4" width="1" height="7" fill="#D8E8FF"/>
<rect x="1255" y="4" width="1" height="7" fill="#D8E8FF"/>
<rect x="1444" y="4" width="1" height="7" fill="#D8E8FF"/>
<rect x="1634" y="4" width="1" height="7" fill="#D8E8FF"/>
<rect x="154" y="4" width="1" height="7" fill="#D8E8FF"/>
<rect x="345" y="4" width="1" height="7" fill="#D8E8FF"/>
<rect x="535" y="4" width="1" height="7" fill="#D8E8FF"/>
<rect x="725" y="4" width="1" height="7" fill="#D8E8FF"/>
<rect x="915" y="4" width="1" height="7" fill="#D8E8FF"/>
<rect x="1105" y="4" width="1" height="7" fill="#D8E8FF"/>
<rect x="1294" y="4" width="1" height="7" fill="#D8E8FF"/>
<rect x="1483" y="4" width="1" height="7" fill="#D8E8FF"/>
<rect x="1673" y="4" width="1" height="7" fill="#D8E8FF"/>
<rect x="191" width="1" height="15" fill="#D8E8FF"/>
<rect x="381" width="1" height="15" fill="#D8E8FF"/>
<rect x="571" width="1" height="15" fill="#D8E8FF"/>
<rect x="761" width="1" height="15" fill="#D8E8FF"/>
<rect x="951" width="1" height="15" fill="#D8E8FF"/>
<rect x="1141" width="1" height="15" fill="#D8E8FF"/>
<rect x="1330" width="1" height="15" fill="#D8E8FF"/>
<rect x="1520" width="1" height="15" fill="#D8E8FF"/>
<rect x="1709" width="1" height="15" fill="#D8E8FF"/>
</svg>
