<svg width="111" height="144" viewBox="0 0 111 144" fill="none" xmlns="http://www.w3.org/2000/svg">
<g clipPath="url(#clip0)" filter="url(#filter0_d)">
<path d="M49.3173 120.347C74.4729 128.124 98.1183 104.472 90.3538 79.315C91.3845 77.4511 92.2946 75.6152 93.0695 73.8224C93.3069 73.273 93.054 72.6349 92.5045 72.3975C91.9551 72.1603 91.3172 72.413 91.0796 72.9624C90.2863 74.7979 89.346 76.6814 88.2747 78.5957C88.2611 78.6164 88.2459 78.6357 88.2336 78.6576C72.3875 106.818 35.5537 131.199 26.1755 121.822C22.7914 118.438 23.7294 110.903 28.6364 101.431C28.9574 102.216 29.3658 103.104 29.7239 103.813C26.6777 110.089 26.2891 114.621 28.605 116.937C36.6886 125.021 69.6147 98.8506 83.2717 76.3675C86.1731 71.5912 90.8857 62.5431 86.9423 58.5998C84.6263 56.2838 80.0945 56.6724 73.8181 59.7187C73.0861 59.3484 72.1629 58.9282 71.4362 58.6312C80.9084 53.7241 88.4432 52.786 91.8272 56.1703C94.7356 59.0787 93.9526 64.3843 92.7835 68.3232C92.6132 68.8971 92.9404 69.5003 93.5143 69.6707C94.0882 69.841 94.6915 69.5141 94.8618 68.9401C96.7784 62.4823 96.2591 57.5366 93.3601 54.6376C88.9896 50.2671 80.0121 51.3674 68.6886 57.6457C43.8555 49.976 19.766 73.1173 27.6509 98.6837C21.3728 110.007 20.2723 118.984 24.6428 123.355C30.3823 129.095 42.214 124.28 49.3173 120.347ZM88.8299 81.9446C89.7415 85.7326 89.925 89.5415 89.4223 93.2273L79.8279 102.821C77.7653 104.884 75.0238 106.078 72.1088 106.184L68.3877 106.318C76.0159 99.3301 83.4924 90.7556 88.8299 81.9446ZM65.8507 108.579L72.1869 108.35C75.6515 108.225 78.9095 106.806 81.3608 104.354L88.5966 97.1184C84.4815 111.977 68.9344 122.916 51.9443 118.824C56.7867 115.889 61.5146 112.336 65.8507 108.579ZM30.1379 115.404C28.7205 113.987 29.0571 110.664 31.0318 106.151C33.1306 109.564 35.8094 112.492 38.7253 114.791C34.5746 116.497 31.4844 116.75 30.1379 115.404ZM31.1349 101.743L38.8889 93.9893C40.1312 92.747 41.682 91.8395 43.3737 91.3649C45.3298 90.8163 47.1312 92.6167 46.5822 94.5733C46.1076 96.2652 45.2001 97.816 43.9577 99.0584L34.9917 108.024C33.4422 106.076 32.1711 104.013 31.1349 101.743ZM85.4096 60.1327C86.7558 61.4789 86.5027 64.5693 84.7957 68.7201C82.4516 65.7456 79.5303 63.1014 76.1567 61.0264C80.6693 59.0517 83.992 58.7151 85.4096 60.1327ZM76.0226 66.6609L76.8715 64.1062C78.3076 65.1414 79.6493 66.2847 80.9437 67.6137L77.6538 68.426C77.1615 68.5474 76.6615 68.3978 76.3171 68.0251C75.9726 67.6524 75.8626 67.1424 76.0226 66.6609ZM75.0011 62.8603L73.9655 65.9773C73.5528 67.2196 73.8366 68.535 74.7251 69.4963C75.6136 70.4576 76.9027 70.8442 78.1734 70.5305L82.5886 69.4404C83.0009 69.9364 83.3993 70.4442 83.7799 70.9658C83.2998 71.9433 82.833 72.8127 82.3134 73.7249L70.0673 77.1397C67.7669 77.7812 65.6583 79.0128 63.9699 80.7013L62.5382 82.1332C62.1149 82.5565 62.1149 83.2428 62.5384 83.666C62.9615 84.0894 63.6478 84.0893 64.0711 83.666L65.5028 82.2341C66.9279 80.8089 68.7078 79.7692 70.6496 79.2278L80.6818 76.4304C72.2208 89.7596 55.3256 106.424 41.7097 113.404L51.4297 103.684C53.1573 101.957 54.4032 99.7957 55.0328 97.435L55.9408 94.0299C56.4724 92.037 57.524 90.2129 58.9822 88.7547L60.4765 87.2604C60.8998 86.8371 60.8998 86.1508 60.4764 85.7277C60.0532 85.3042 59.3669 85.3044 58.9436 85.7277L57.4493 87.222C55.7219 88.9494 54.476 91.1104 53.8462 93.4713L52.9382 96.8765C52.4068 98.8691 51.3553 100.693 49.8968 102.152L39.4563 112.592C38.3743 111.693 37.3543 110.717 36.4036 109.679L45.4909 100.591C46.9956 99.0866 48.0948 97.2081 48.6697 95.159C49.6753 91.5737 46.3748 88.2716 42.7886 89.2779C40.7395 89.8526 38.861 90.9518 37.3561 92.4567L30.2411 99.5713C29.6831 98.0514 29.2642 96.5737 28.9381 94.9688L34.5735 89.3337C37.389 86.518 41.1291 84.8434 45.1049 84.6182C49.613 84.3631 53.8541 82.4642 57.047 79.2713L66.0157 70.3026C68.6211 67.6971 70.3571 64.4284 71.0554 60.8226C72.4851 61.4347 73.7567 62.0967 75.0011 62.8603ZM63.0297 58.5989C62.282 60.5135 61.137 62.2694 59.6755 63.7309L51.5117 71.8947C48.9624 74.444 45.5984 75.9808 42.0392 76.2222C37.9572 76.499 34.1009 78.2596 31.1808 81.1795L28.7949 83.5654C31.6 68.1203 46.367 56.2859 63.0297 58.5989ZM28.3549 87.0714L32.7138 82.7124C35.2631 80.1631 38.627 78.6263 42.1861 78.385C46.2683 78.1081 50.1246 76.3476 53.0447 73.4275L61.2085 65.2637C62.9856 63.4865 64.3535 61.328 65.2027 58.9754C66.6308 59.2782 67.8316 59.6279 68.9958 60.0289C68.4314 63.3591 66.872 66.3809 64.483 68.7698L55.5142 77.7386C52.6986 80.5542 48.9583 82.2289 44.9826 82.4539C40.4744 82.7091 36.2334 84.6081 33.0407 87.8008L28.5111 92.3302C28.3054 90.5667 28.2544 88.8089 28.3549 87.0714Z" fill="url(#paint0_linear)"/>
</g>
<circle opacity="0.3" cx="59" cy="89" r="45.5" stroke="#D8E8FF"/>
<path opacity="0.5" d="M82 50L102 31L103 31L83 50.5L82 50Z" fill="#D8E8FF"/>
<path opacity="0.5" d="M0 30H103V31H0V30Z" fill="#D8E8FF"/>
<path d="M5.593 21.136C4.96967 21.136 4.27267 21.1133 3.502 21.068C2.74267 21.0227 2.06833 20.966 1.479 20.898V19.555C2.95233 19.7023 4.182 19.776 5.168 19.776C5.78 19.776 6.26167 19.7533 6.613 19.708C6.97567 19.6513 7.28167 19.555 7.531 19.419C7.75767 19.283 7.905 19.0847 7.973 18.824C8.041 18.552 8.075 18.195 8.075 17.753C8.075 17.2203 8.04667 16.8463 7.99 16.631C7.93333 16.4043 7.79733 16.24 7.582 16.138C7.378 16.036 7.021 15.9623 6.511 15.917L3.621 15.594C2.91833 15.5147 2.38567 15.3503 2.023 15.101C1.67167 14.8403 1.43367 14.506 1.309 14.098C1.19567 13.6787 1.139 13.1347 1.139 12.466C1.139 11.5367 1.29767 10.834 1.615 10.358C1.94367 9.882 2.397 9.56467 2.975 9.406C3.56433 9.24733 4.352 9.168 5.338 9.168C5.99533 9.168 6.664 9.19633 7.344 9.253C8.024 9.30967 8.56233 9.37767 8.959 9.457V10.749C8.52833 10.681 7.99567 10.63 7.361 10.596C6.72633 10.5507 6.137 10.528 5.593 10.528C4.95833 10.528 4.44833 10.5563 4.063 10.613C3.67767 10.6697 3.37733 10.766 3.162 10.902C2.924 11.038 2.771 11.2193 2.703 11.446C2.635 11.6727 2.601 11.9957 2.601 12.415C2.601 12.8797 2.635 13.2197 2.703 13.435C2.771 13.639 2.90133 13.792 3.094 13.894C3.28667 13.9847 3.604 14.0527 4.046 14.098L6.902 14.421C7.582 14.489 8.109 14.608 8.483 14.778C8.857 14.948 9.129 15.254 9.299 15.696C9.45767 16.104 9.537 16.7557 9.537 17.651C9.537 18.6823 9.37833 19.453 9.061 19.963C8.74367 20.4617 8.31867 20.7847 7.786 20.932C7.25333 21.068 6.52233 21.136 5.593 21.136ZM12.7314 21V9.304H20.3474V10.664H14.1934V14.421H19.5314V15.781H14.1934V19.64H20.3474V21H12.7314ZM23.3312 9.304H28.4652C29.4058 9.304 30.1198 9.457 30.6072 9.763C31.0945 10.069 31.4175 10.4827 31.5762 11.004C31.7348 11.5253 31.8142 12.1997 31.8142 13.027C31.8142 13.8203 31.7348 14.4833 31.5762 15.016C31.4175 15.5373 31.0888 15.9567 30.5902 16.274C30.1028 16.5913 29.3832 16.75 28.4312 16.75H24.7932V21H23.3312V9.304ZM27.9382 15.39C28.6748 15.39 29.2132 15.3163 29.5532 15.169C29.8932 15.0103 30.1142 14.7723 30.2162 14.455C30.3182 14.1377 30.3692 13.6617 30.3692 13.027C30.3692 12.3923 30.3182 11.9163 30.2162 11.599C30.1255 11.2817 29.9102 11.0493 29.5702 10.902C29.2415 10.7433 28.7088 10.664 27.9722 10.664H24.7932V15.39H27.9382ZM37.277 21V10.715H33.571V9.304H42.428V10.715H38.739V21H37.277ZM44.9955 21V9.304H52.6115V10.664H46.4575V14.421H51.7955V15.781H46.4575V19.64H52.6115V21H44.9955ZM66.1863 21V11.803H66.1183L62.1063 21H61.0353L57.0403 11.803H56.9723V21H55.5953V9.304H57.5673L61.5623 18.399H61.6473L65.6423 9.304H67.6143V21H66.1863ZM71.3582 9.304H76.7982C77.9088 9.304 78.7022 9.55333 79.1782 10.052C79.6655 10.5507 79.9092 11.2817 79.9092 12.245C79.9092 13.027 79.7505 13.6503 79.4332 14.115C79.1158 14.5683 78.6058 14.863 77.9032 14.999V15.067C78.7078 15.2143 79.2632 15.526 79.5692 16.002C79.8752 16.478 80.0282 17.1183 80.0282 17.923C80.0282 18.875 79.7902 19.6287 79.3142 20.184C78.8495 20.728 77.9938 21 76.7472 21H71.3582V9.304ZM76.3222 14.404C77.0475 14.404 77.5802 14.251 77.9202 13.945C78.2715 13.639 78.4472 13.1687 78.4472 12.534C78.4472 12.058 78.3848 11.6897 78.2602 11.429C78.1355 11.1683 77.9202 10.9757 77.6142 10.851C77.3195 10.7263 76.8888 10.664 76.3222 10.664H72.8202V14.404H76.3222ZM76.3902 19.64C76.9568 19.64 77.3932 19.5777 77.6992 19.453C78.0165 19.3283 78.2375 19.13 78.3622 18.858C78.4982 18.5747 78.5662 18.1893 78.5662 17.702C78.5662 16.9993 78.4018 16.5007 78.0732 16.206C77.7445 15.9113 77.1835 15.764 76.3902 15.764H72.8202V19.64H76.3902ZM83.2861 21V9.304H90.9021V10.664H84.7481V14.421H90.0861V15.781H84.7481V19.64H90.9021V21H83.2861ZM101.128 21L99.3088 16.41H99.0198H95.3478V21H93.8858V9.304H99.2578C100.187 9.304 100.89 9.45133 101.366 9.746C101.842 10.0407 102.153 10.4373 102.301 10.936C102.448 11.4347 102.522 12.075 102.522 12.857C102.522 13.6617 102.403 14.3643 102.165 14.965C101.927 15.5543 101.439 15.9567 100.703 16.172L102.692 21H101.128ZM98.6458 15.05C99.3712 15.05 99.9038 14.9763 100.244 14.829C100.595 14.6703 100.816 14.4437 100.907 14.149C101.009 13.8543 101.06 13.4237 101.06 12.857C101.06 12.279 101.014 11.8427 100.924 11.548C100.833 11.2533 100.623 11.0323 100.295 10.885C99.9775 10.7377 99.4675 10.664 98.7648 10.664H95.3478V15.05H98.6458Z" fill="#D8E8FF"/>
<defs>
<filter id="filter0_d" x="7" y="40" width="104" height="104" filterUnits="userSpaceOnUse" color-interpolation-filters="sRGB">
<feFlood flood-opacity="0" result="BackgroundImageFix"/>
<feColorMatrix in="SourceAlpha" type="matrix" values="0 0 0 0 0 0 0 0 0 0 0 0 0 0 0 0 0 0 127 0"/>
<feOffset dy="3"/>
<feGaussianBlur stdDeviation="7.5"/>
<feColorMatrix type="matrix" values="0 0 0 0 0.847059 0 0 0 0 0.909804 0 0 0 0 1 0 0 0 0.95 0"/>
<feBlend mode="normal" in2="BackgroundImageFix" result="effect1_dropShadow"/>
<feBlend mode="normal" in="SourceGraphic" in2="effect1_dropShadow" result="shape"/>
</filter>
<linearGradient id="paint0_linear" x1="59.0007" y1="52" x2="59.0007" y2="126" gradientUnits="userSpaceOnUse">
<stop stop-color="#E52EFF"/>
<stop offset="1" stop-color="#D8E8FF"/>
</linearGradient>
<clipPath id="clip0">
<rect width="74" height="74" fill="white" transform="translate(22 52)"/>
</clipPath>
</defs>
</svg>
