<svg width="20" height="20" viewBox="0 0 20 20" fill="none" xmlns="http://www.w3.org/2000/svg">
<path d="M19.9998 10.1347C20.0028 10.343 19.9772 10.551 19.9232 10.7521C19.8691 10.9532 19.7873 11.1459 19.68 11.3238C19.573 11.5018 19.4416 11.6637 19.29 11.8047C19.1383 11.9458 18.9679 12.0644 18.7836 12.1572C18.7877 12.2127 18.7911 12.2685 18.793 12.3244C18.7975 12.4359 18.7975 12.5475 18.793 12.659C18.7911 12.7148 18.7877 12.7707 18.7836 12.8262C18.7836 16.2324 14.8649 19 10.0303 19C5.19573 19 1.27702 16.2324 1.27702 12.8262C1.27289 12.7707 1.26951 12.7148 1.26764 12.659C1.26312 12.5475 1.26312 12.4359 1.26764 12.3244C1.26951 12.2685 1.27289 12.2127 1.27702 12.1572C0.98828 12.0227 0.731826 11.8264 0.525405 11.5817C0.318984 11.337 0.167526 11.0498 0.0815122 10.7399C-0.00435787 10.43 -0.0226494 10.1048 0.0279054 9.78693C0.0784602 9.46909 0.196652 9.16618 0.37429 8.8992C0.551772 8.63226 0.784473 8.40763 1.05625 8.24089C1.32802 8.07415 1.63237 7.96929 1.94816 7.9336C2.26399 7.89774 2.58374 7.93187 2.88525 8.03362C3.18677 8.13537 3.46283 8.3023 3.69431 8.52284C4.12403 8.22785 4.57426 7.96473 5.04146 7.73553C5.50878 7.50668 5.99186 7.31204 6.48696 7.15389C6.98205 6.99574 7.48803 6.87447 8.00039 6.79046C8.51275 6.70644 9.03074 6.66044 9.54986 6.65246L10.6609 1.37587C10.6733 1.31466 10.6977 1.25688 10.7326 1.20518C10.7671 1.15385 10.8118 1.10976 10.8632 1.07592C10.915 1.04209 10.9728 1.0189 11.0336 1.00749C11.0941 0.996469 11.1564 0.997609 11.2164 1.01091L14.8949 1.75602C15.2662 1.11014 16.0454 0.833381 16.7334 1.10253C17.4214 1.37168 17.8148 2.10729 17.6609 2.83795C17.5074 3.56862 16.852 4.07803 16.1156 4.03963C15.3788 4.00124 14.7786 3.42644 14.6997 2.68361L11.4867 1.99933L10.5108 6.7437C11.0235 6.75472 11.5351 6.80338 12.0411 6.88892C13.0544 7.05998 14.0379 7.37829 14.9614 7.83399C15.4226 8.06133 15.867 8.32203 16.2913 8.61408C16.5963 8.31748 16.9795 8.11666 17.3948 8.03586C17.8101 7.95477 18.2396 7.99715 18.6316 8.15789C19.0236 8.31854 19.3614 8.59065 19.6041 8.94139C19.847 9.29216 19.9844 9.7066 19.9998 10.1347ZM5.09964 12.2374C5.17547 12.4217 5.28582 12.5894 5.42545 12.7304C5.56471 12.8718 5.73024 12.9836 5.91229 13.0604C6.09451 13.1367 6.28977 13.176 6.48696 13.176C7.09428 13.176 7.64155 12.8053 7.87427 12.2374C8.10662 11.669 7.97787 11.0152 7.54846 10.5803C7.11906 10.1454 6.47344 10.015 5.91229 10.2503C5.35151 10.486 4.98553 11.0402 4.98553 11.6553C4.98553 11.8549 5.0242 12.0526 5.09964 12.2374ZM13.699 15.8876C13.776 15.8116 13.8199 15.7078 13.8214 15.5991C13.8229 15.49 13.7812 15.3851 13.7062 15.3071C13.6311 15.2292 13.5286 15.1847 13.4213 15.1832C13.3136 15.1817 13.21 15.2239 13.1232 15.2897C12.8975 15.4537 12.6584 15.598 12.4086 15.7211C12.1587 15.8443 11.8991 15.9459 11.6323 16.0249C11.3658 16.1036 11.0929 16.1595 10.8171 16.1918C10.5408 16.2241 10.2627 16.2324 9.98527 16.2172C9.70826 16.2298 9.4305 16.2184 9.15536 16.1834C8.88016 16.1488 8.60841 16.0903 8.34309 16.0085C8.07734 15.9272 7.81947 15.823 7.57136 15.6976C7.32325 15.5721 7.08603 15.4254 6.86231 15.2592C6.78462 15.1946 6.6859 15.1615 6.5853 15.1665C6.48471 15.1714 6.38974 15.2144 6.31842 15.2862C6.24748 15.3585 6.20507 15.4546 6.20019 15.5565C6.19531 15.6584 6.22796 15.7584 6.29177 15.8371C6.55565 16.0386 6.83604 16.2165 7.12994 16.3693C7.42385 16.5221 7.73051 16.6487 8.04581 16.7483C8.36111 16.8479 8.68429 16.9198 9.01198 16.9635C9.33966 17.0068 9.67035 17.0217 10.0003 17.008C10.3302 17.0217 10.6609 17.0068 10.9886 16.9635C11.6449 16.8761 12.2815 16.6751 12.8706 16.3693C13.1645 16.2165 13.4449 16.0386 13.7088 15.8371L13.699 15.8876ZM13.4235 13.2976C13.627 13.2999 13.8289 13.26 14.017 13.1809C14.205 13.1015 14.3751 12.9844 14.5169 12.8365C14.6588 12.6886 14.7692 12.513 14.842 12.3202C14.9149 12.1277 14.9482 11.9222 14.94 11.7162C14.94 11.1011 14.574 10.5468 14.0132 10.3111C13.4521 10.0758 12.8064 10.2062 12.377 10.6411C11.9476 11.076 11.8189 11.7299 12.0512 12.2982C12.284 12.8661 12.8312 13.2368 13.4385 13.2368L13.4235 13.2976Z" fill="#CCE1FF"/>
</svg>
