<svg width="20" height="20" viewBox="0 0 20 20" fill="none" xmlns="http://www.w3.org/2000/svg">
<path d="M7.51965 16.8342C6.92203 16.8342 7.02929 16.6122 6.81476 16.0647L5.06787 10.5007L15.917 3.96005L17.1888 4.2856L16.1315 7.0676L7.51965 16.8342Z" fill="#AAABD0"/>
<path d="M7.52002 16.8342C7.97973 16.8342 8.17893 16.627 8.43943 16.3902C8.83785 16.0203 13.9559 11.211 13.9559 11.211L10.8146 10.4711L7.90311 12.2468L7.52002 16.6862V16.8342Z" fill="#60618A"/>
<path d="M7.82631 12.306L15.2429 17.5889C16.0857 18.0328 16.6987 17.8108 16.9132 16.8342L19.9319 3.10178C20.2384 1.90315 19.4569 1.37043 18.6448 1.72558L0.930694 8.32542C-0.27987 8.79895 -0.264547 9.45006 0.716163 9.73122L5.26727 11.1074L15.7946 4.69995C16.2849 4.40399 16.7446 4.56677 16.3769 4.89232L7.82631 12.306Z" fill="#CCE1FF"/>
</svg>
