<svg width="20" height="20" viewBox="0 0 20 20" fill="none" xmlns="http://www.w3.org/2000/svg">
<path d="M6.0038 16.1569C5.9965 16.1569 5.98864 16.1569 5.98134 16.1569C5.93643 16.1531 5.89151 16.1498 5.84659 16.1459C5.8247 16.1448 5.8028 16.1432 5.7809 16.1421C5.77248 16.1405 5.76406 16.1383 5.75564 16.1366C5.71184 16.135 5.66749 16.1333 5.6237 16.1311C5.61864 16.1295 5.61359 16.1278 5.6091 16.1262C5.55913 16.1218 5.50916 16.1185 5.45919 16.1135C5.15938 16.0833 4.86293 16.0345 4.57042 15.9642C4.08364 15.8472 3.61763 15.6764 3.17577 15.4435C2.66317 15.1727 2.20502 14.8339 1.81089 14.4132C1.68063 14.2742 1.55879 14.1292 1.45212 13.9716C1.44145 13.9557 1.42517 13.9425 1.41113 13.9282C1.41113 13.7893 1.41113 13.6503 1.41113 13.5108C1.41562 13.4916 1.42236 13.4724 1.42348 13.4532C1.42573 13.4114 1.42573 13.3691 1.42629 13.3274C1.43191 13.2329 1.43696 13.1379 1.44314 13.0434C1.4538 12.8814 1.46335 12.7194 1.47682 12.5574C1.4931 12.3701 1.50995 12.1828 1.53297 11.9961C1.56497 11.7369 1.59641 11.4776 1.6402 11.22C1.69691 10.8867 1.76092 10.5544 1.82997 10.2232C1.91868 9.79704 2.02873 9.37524 2.14944 8.95674C2.2578 8.58218 2.3729 8.20926 2.5054 7.84238C2.59804 7.5859 2.69124 7.32887 2.79062 7.07458C2.92256 6.73627 3.06348 6.4018 3.21957 6.07337C3.32119 5.85972 3.42842 5.64828 3.53229 5.43518C3.56205 5.37422 3.60416 5.32589 3.66199 5.28854C3.7973 5.20012 3.92924 5.10675 4.06511 5.01998C4.49855 4.74262 4.95557 4.51085 5.43561 4.32083C5.93979 4.12146 6.45914 3.97208 6.99588 3.8842C7.14298 3.86004 7.29177 3.84521 7.43943 3.82598C7.44392 3.82489 7.44841 3.82379 7.4529 3.82269C7.46694 3.82269 7.48098 3.82269 7.49501 3.82269C7.4995 3.82104 7.50456 3.81939 7.50905 3.81775C7.53431 3.81665 7.56014 3.815 7.58541 3.8139C7.62358 3.81335 7.66232 3.82598 7.69882 3.80511C7.73251 3.80511 7.76619 3.80511 7.79988 3.80511C7.84929 3.86059 7.89982 3.91551 7.94642 3.97922C7.92901 3.98581 7.91891 3.98965 7.9088 3.99295C7.65615 4.07313 7.40237 4.14892 7.1514 4.2335C6.70393 4.38399 6.26768 4.56248 5.84154 4.76459C5.50804 4.92222 5.18296 5.09467 4.86855 5.28689C4.60354 5.44891 4.3464 5.62191 4.10553 5.81688C4.08476 5.83391 4.06511 5.85203 4.0449 5.86906C4.04714 5.87181 4.04883 5.8751 4.05107 5.87785C4.06904 5.87016 4.08757 5.86247 4.10497 5.85423C4.36043 5.73231 4.61252 5.60324 4.87135 5.48955C5.30142 5.30062 5.74216 5.13806 6.19189 4.99856C6.67193 4.84972 7.15814 4.7267 7.65446 4.64157C7.78865 4.6185 7.9234 4.60038 8.05815 4.58225C8.14854 4.57017 8.23893 4.56138 8.32933 4.55095C8.39221 4.54381 8.45509 4.53557 8.51854 4.52843C8.53033 4.52678 8.54268 4.52458 8.55447 4.52294C8.61174 4.51744 8.669 4.51195 8.72627 4.50701C8.77231 4.50262 8.81835 4.49987 8.86495 4.49493C8.92952 4.48834 8.99352 4.48065 9.05809 4.47351C9.06258 4.47186 9.06764 4.47021 9.07213 4.46856C9.11255 4.46637 9.15241 4.46472 9.19284 4.46252C9.19733 4.46088 9.20238 4.45923 9.20688 4.45758C9.2546 4.45538 9.30176 4.45319 9.34948 4.45099C9.35454 4.44934 9.35903 4.44824 9.36408 4.4466C9.4191 4.44495 9.47469 4.44275 9.52971 4.4411C9.53476 4.43946 9.53925 4.43726 9.54431 4.43561C9.57687 4.43616 9.60887 4.43726 9.64144 4.43781C9.64593 4.43616 9.65098 4.43451 9.65547 4.43287C9.70713 4.43177 9.75878 4.43012 9.81043 4.42902C9.81886 4.42792 9.82672 4.42737 9.83514 4.42628C9.90869 4.42628 9.9828 4.42682 10.0563 4.42682C10.0608 4.42518 10.0659 4.42353 10.0704 4.42188C10.1518 4.42243 10.2332 4.42298 10.3141 4.42353C10.3191 4.42463 10.3242 4.42573 10.3292 4.42682C10.4106 4.42628 10.492 4.42628 10.5729 4.42573C10.5774 4.42682 10.5819 4.42792 10.5869 4.42847C10.6425 4.42957 10.6975 4.43122 10.7531 4.43232C10.7576 4.43396 10.7627 4.43561 10.7671 4.43726C10.7963 4.43726 10.825 4.43726 10.8542 4.43726C10.8587 4.43836 10.8632 4.43946 10.8676 4.44055C10.9008 4.44165 10.9339 4.4422 10.967 4.4433C10.9715 4.44495 10.9766 4.4466 10.9811 4.44824C11.0024 4.44824 11.0237 4.44824 11.0456 4.44824C11.0501 4.44934 11.0546 4.45044 11.0585 4.45154C11.0844 4.45264 11.1096 4.45374 11.1355 4.45429C11.1399 4.45593 11.145 4.45758 11.1495 4.45923C11.1635 4.45923 11.177 4.45868 11.191 4.45868C11.1955 4.45978 11.2006 4.46033 11.2051 4.46143C11.2455 4.46362 11.2854 4.46582 11.3258 4.46802C11.3308 4.46966 11.3353 4.47076 11.3404 4.47241C11.3752 4.4768 11.41 4.48175 11.4454 4.48504C11.5066 4.49108 11.5678 4.49438 11.6284 4.50152C11.7188 4.5125 11.8092 4.52678 11.8996 4.53941C11.995 4.55259 12.0916 4.56193 12.1865 4.57841C12.3779 4.61136 12.5694 4.64486 12.7597 4.68386C13.3375 4.80139 13.9023 4.96286 14.4553 5.16332C14.9943 5.35884 15.517 5.58896 16.0223 5.85698C16.0369 5.86467 16.0526 5.87071 16.0684 5.8773C16.0667 5.86192 16.0605 5.85533 16.0538 5.84984C15.8449 5.67409 15.6203 5.52031 15.3896 5.37312C14.9657 5.10291 14.521 4.87059 14.0617 4.66354C13.5553 4.43506 13.0348 4.24119 12.5026 4.07862C12.4639 4.06709 12.4262 4.05391 12.3808 4.03908C12.4526 3.95725 12.5189 3.88146 12.5857 3.80566C12.6194 3.80566 12.6531 3.80566 12.6867 3.80566C12.7232 3.82653 12.762 3.8139 12.8002 3.81445C12.844 3.81665 12.8883 3.81885 12.9321 3.82104C12.9372 3.82269 12.9416 3.82379 12.9467 3.82544C12.9742 3.82983 13.0017 3.83477 13.0292 3.83807C13.1202 3.84905 13.2111 3.85674 13.3015 3.86992C13.6743 3.92374 14.0387 4.01162 14.3975 4.12366C14.8691 4.2714 15.3222 4.46088 15.7579 4.69045C16.1138 4.87828 16.4541 5.09137 16.7792 5.32644C16.7994 5.34127 16.8173 5.36214 16.8286 5.3841C16.9162 5.55381 17.0065 5.72242 17.0868 5.89542C17.221 6.18486 17.3535 6.47594 17.4776 6.76977C17.6668 7.21738 17.8352 7.67323 17.9868 8.13457C18.052 8.33283 18.1188 8.5311 18.1761 8.73156C18.2732 9.07317 18.3669 9.41588 18.4557 9.75914C18.5112 9.97498 18.5595 10.1936 18.6028 10.4122C18.6583 10.6901 18.7083 10.9691 18.756 11.2481C18.788 11.437 18.8144 11.627 18.8391 11.817C18.8588 11.9675 18.8739 12.118 18.8891 12.269C18.9076 12.458 18.9256 12.6469 18.9402 12.8358C18.9492 12.9539 18.9503 13.0731 18.9553 13.1917C18.9582 13.2395 18.943 13.2884 18.9654 13.3351C18.9654 13.5366 18.9654 13.7376 18.9654 13.9392C18.9149 14.0073 18.8666 14.0765 18.8144 14.143C18.6538 14.3456 18.4736 14.5307 18.2805 14.7037C18.0755 14.8871 17.8566 15.0514 17.6253 15.2007C17.3878 15.3545 17.1385 15.4874 16.8791 15.6028C16.6562 15.7022 16.4277 15.7879 16.1936 15.8593C15.8752 15.9559 15.5513 16.029 15.2211 16.0762C15.074 16.0971 14.9275 16.1212 14.7782 16.1251C14.7697 16.1267 14.7613 16.1289 14.7529 16.1306C14.7125 16.1322 14.672 16.1344 14.6322 16.1361C14.6204 16.1377 14.608 16.1399 14.5962 16.1416C14.5743 16.1427 14.5524 16.1443 14.53 16.1454C14.4851 16.1492 14.4402 16.1531 14.3952 16.1564C14.3879 16.1564 14.3801 16.1564 14.3728 16.1564C14.3672 16.1454 14.3627 16.1328 14.3548 16.1234C14.2661 16.0174 14.1757 15.9125 14.0876 15.8065C13.8647 15.5385 13.6429 15.27 13.4206 15.0019C13.4116 14.991 13.4043 14.9783 13.3931 14.9618C13.4133 14.9553 13.4284 14.9498 13.4441 14.9448C13.5699 14.9042 13.6968 14.8663 13.822 14.8223C14.2352 14.6768 14.626 14.4868 14.9921 14.249C15.3127 14.0408 15.6046 13.7992 15.8617 13.5191C15.9342 13.4405 15.9976 13.3543 16.065 13.2714C16.0712 13.2631 16.0729 13.2516 16.0768 13.2412C16.0246 13.2626 15.9808 13.2895 15.9364 13.3169C15.6276 13.507 15.3087 13.6789 14.9786 13.831C14.6827 13.9678 14.3762 14.0804 14.0718 14.1968C13.6221 14.3692 13.1617 14.5082 12.6907 14.6131C12.3735 14.6834 12.0534 14.7389 11.7317 14.7839C11.6363 14.7971 11.5403 14.8075 11.4443 14.8174C11.3943 14.8229 11.3443 14.8245 11.2943 14.8289C11.2169 14.8361 11.1394 14.8438 11.0619 14.8514C11.0535 14.8531 11.0451 14.8553 11.0366 14.8569C10.9889 14.8586 10.9412 14.8608 10.8935 14.8624C10.8817 14.8641 10.8693 14.8663 10.8575 14.8679C10.7801 14.8701 10.7026 14.8723 10.6245 14.8745C10.6088 14.8762 10.5925 14.8778 10.5768 14.8795C10.4056 14.8795 10.2343 14.8795 10.0631 14.8795C10.0434 14.8778 10.0238 14.8762 10.0041 14.8751C9.92272 14.8729 9.84131 14.8707 9.76047 14.869C9.75204 14.8674 9.74362 14.8652 9.7352 14.8635C9.68355 14.8619 9.63189 14.8597 9.58024 14.858C9.57182 14.8564 9.5634 14.8542 9.55554 14.8525C9.51511 14.8509 9.47469 14.8487 9.43426 14.8471C9.42584 14.8454 9.41742 14.8432 9.40956 14.8416C9.37306 14.8399 9.33657 14.8377 9.30008 14.8361C9.29502 14.8344 9.29053 14.8322 9.28548 14.8306C9.17263 14.819 9.05921 14.8103 8.94636 14.7954C8.66283 14.7581 8.38098 14.7136 8.10082 14.6554C7.67075 14.5664 7.24629 14.4555 6.82857 14.3209C6.59613 14.2462 6.3665 14.1633 6.13686 14.0793C5.84266 13.9711 5.55464 13.8486 5.27504 13.708C5.10379 13.6218 4.93199 13.5377 4.77198 13.4317C4.65913 13.357 4.53897 13.2933 4.42163 13.2247C4.41658 13.2219 4.40984 13.2208 4.40423 13.2192C4.43005 13.2697 4.46037 13.3131 4.49294 13.3543C4.64733 13.5482 4.82251 13.7228 5.01172 13.8837C5.32501 14.1501 5.66974 14.372 6.03973 14.556C6.33393 14.7021 6.63936 14.8212 6.95434 14.9163C6.97062 14.9212 6.98634 14.9289 7.00543 14.9366C6.99195 14.9547 6.98297 14.9662 6.97399 14.9778C6.66631 15.3507 6.35864 15.7231 6.05096 16.096C6.03131 16.1135 6.0184 16.1361 6.0038 16.1569ZM14.4025 10.8318C14.3913 10.745 14.3857 10.6571 14.3683 10.572C14.2981 10.2271 14.137 9.9283 13.8748 9.68555C13.6261 9.45543 13.3302 9.32471 12.9888 9.29396C12.9096 9.27803 12.8305 9.27803 12.7508 9.29396C12.6851 9.30384 12.6177 9.30988 12.5531 9.32471C12.2359 9.39501 11.9731 9.55483 11.7604 9.79319C11.3376 10.2666 11.218 10.9509 11.4566 11.5479C11.6166 11.9478 11.8906 12.2482 12.2926 12.43C12.4341 12.4937 12.5834 12.5327 12.7395 12.5459C12.8299 12.5634 12.9197 12.5623 13.0101 12.5453C13.1258 12.5371 13.2375 12.5107 13.3459 12.4717C13.7754 12.3179 14.0696 12.0246 14.2549 11.6215C14.3672 11.3777 14.4059 11.1195 14.402 10.8543C14.4031 10.8466 14.4031 10.8394 14.4025 10.8318ZM7.49838 9.29286C7.42258 9.27693 7.34735 9.27693 7.27155 9.29286C7.20193 9.30329 7.13119 9.30933 7.06213 9.32526C6.70224 9.40655 6.4159 9.59932 6.19638 9.88601C5.94036 10.2216 5.83143 10.6022 5.85389 11.0196C5.87074 11.326 5.96337 11.6089 6.13686 11.8648C6.35414 12.185 6.64778 12.4058 7.03013 12.5063C7.09807 12.5239 7.16881 12.5321 7.23843 12.5448C7.33612 12.5629 7.43325 12.5618 7.53094 12.5453C7.55453 12.542 7.57867 12.5387 7.60225 12.5349C7.99414 12.4728 8.30799 12.2817 8.55054 11.9791C8.81723 11.6457 8.92671 11.2623 8.91492 10.8422C8.90762 10.5742 8.84249 10.3199 8.70775 10.087C8.44162 9.62458 8.04523 9.34778 7.49838 9.29286Z" fill="#CCE1FF"/>
</svg>
