<svg width="20" height="20" viewBox="0 0 20 20" fill="none" xmlns="http://www.w3.org/2000/svg">
<path d="M14.999 0.00416134L12.4055 0C9.49173 0 7.60874 1.9319 7.60874 4.92203V7.19141H5.00107C4.77573 7.19141 4.59326 7.37409 4.59326 7.59943V10.8875C4.59326 11.1128 4.77594 11.2953 5.00107 11.2953H7.60874V19.5922C7.60874 19.8175 7.79122 20 8.01655 20H11.4188C11.6442 20 11.8266 19.8173 11.8266 19.5922V11.2953H14.8756C15.1009 11.2953 15.2834 11.1128 15.2834 10.8875L15.2847 7.59943C15.2847 7.49123 15.2416 7.38762 15.1652 7.31105C15.0889 7.23448 14.9848 7.19141 14.8766 7.19141H11.8266V5.26763C11.8266 4.34298 12.047 3.87358 13.2515 3.87358L14.9986 3.87295C15.2237 3.87295 15.4062 3.69027 15.4062 3.46514V0.411972C15.4062 0.187052 15.2239 0.00457747 14.999 0.00416134Z" fill="#CCE1FF"/>
</svg>
