<svg width="20" height="20" viewBox="0 0 20 20" fill="none" xmlns="http://www.w3.org/2000/svg">
<path d="M20 12.1615V19.5556H15.7134V12.6567C15.7134 10.9236 15.0933 9.74089 13.5417 9.74089C12.3572 9.74089 11.6524 10.538 11.3423 11.309C11.2292 11.5847 11.2001 11.9683 11.2001 12.3542V19.5556H6.91198C6.91198 19.5556 6.96973 7.87112 6.91198 6.66052H11.1997V8.48835C11.191 8.50202 11.1797 8.51676 11.1715 8.53001H11.1997V8.48835C11.7693 7.61096 12.7867 6.35758 15.0638 6.35758C17.885 6.35753 20 8.20061 20 12.1615ZM2.42646 0.444443C0.959506 0.444443 0 1.40665 0 2.67198C0 3.90973 0.931746 4.90114 2.36954 4.90114H2.39818C3.89355 4.90114 4.82352 3.90992 4.82352 2.67198C4.79535 1.40665 3.89355 0.444443 2.42646 0.444443ZM0.254675 19.5556H4.54114V6.66052H0.254675V19.5556Z" fill="#CCE1FF"/>
</svg>
