<svg width="32" height="17" viewBox="0 0 32 17" fill="none" xmlns="http://www.w3.org/2000/svg">
<rect opacity="0.7" y="7" width="21" height="1" fill="#F1C2C7"/>
<path d="M0.9 6V3.09L0.19 3.43V3.015L1.025 2.56H1.33V6H0.9ZM2.64977 5.595H4.57977V6H2.23477V5.59C2.23477 5.30333 2.24477 5.095 2.26477 4.965C2.2881 4.83167 2.33977 4.72333 2.41977 4.64C2.49977 4.55333 2.6331 4.47 2.81977 4.39C3.17977 4.24 3.4831 4.115 3.72977 4.015C3.8531 3.965 3.9431 3.91833 3.99977 3.875C4.05977 3.82833 4.09977 3.77333 4.11977 3.71C4.1431 3.64667 4.15477 3.56 4.15477 3.45C4.15477 3.29333 4.12977 3.17833 4.07977 3.105C4.0331 3.03167 3.95143 2.98333 3.83477 2.96C3.72143 2.93333 3.54477 2.92 3.30477 2.92C3.04143 2.92 2.7081 2.94167 2.30477 2.985V2.61C2.44477 2.58333 2.62143 2.56167 2.83477 2.545C3.0481 2.52833 3.2481 2.52 3.43477 2.52C3.68477 2.52 3.88977 2.54 4.04977 2.58C4.20977 2.61667 4.3381 2.7 4.43477 2.83C4.53143 2.95667 4.57977 3.14833 4.57977 3.405C4.57977 3.60167 4.55977 3.76 4.51977 3.88C4.47977 4 4.41477 4.09667 4.32477 4.17C4.2381 4.24 4.11643 4.30833 3.95977 4.375L2.92477 4.8C2.8081 4.84333 2.7331 4.90167 2.69977 4.975C2.67977 5.02167 2.66643 5.075 2.65977 5.135C2.6531 5.195 2.64977 5.275 2.64977 5.375V5.595ZM5.25652 6V5.49H5.73152V6H5.25652ZM7.7298 6.04C7.30647 6.04 7.00647 5.99667 6.8298 5.91C6.65647 5.82 6.54647 5.66333 6.4998 5.44C6.45647 5.21667 6.4348 4.83 6.4348 4.28C6.4348 3.73 6.45647 3.34333 6.4998 3.12C6.54647 2.89667 6.65647 2.74167 6.8298 2.655C7.00647 2.565 7.30647 2.52 7.7298 2.52C8.15314 2.52 8.45147 2.565 8.6248 2.655C8.80147 2.74167 8.91147 2.89833 8.9548 3.125C9.00147 3.34833 9.0248 3.73333 9.0248 4.28C9.0248 4.83 9.00147 5.21667 8.9548 5.44C8.91147 5.66333 8.80147 5.82 8.6248 5.91C8.45147 5.99667 8.15314 6.04 7.7298 6.04ZM7.7298 5.64C8.03647 5.64 8.24147 5.61833 8.3448 5.575C8.45147 5.52833 8.5198 5.42167 8.5498 5.255C8.5798 5.08833 8.5948 4.76333 8.5948 4.28C8.5948 3.79667 8.5798 3.47167 8.5498 3.305C8.5198 3.13833 8.45147 3.03333 8.3448 2.99C8.24147 2.94333 8.03647 2.92 7.7298 2.92C7.42314 2.92 7.21647 2.94333 7.1098 2.99C7.00314 3.03333 6.9348 3.13833 6.9048 3.305C6.8748 3.47167 6.8598 3.79667 6.8598 4.28C6.8598 4.76333 6.8748 5.08833 6.9048 5.255C6.9348 5.42167 7.00314 5.52833 7.1098 5.575C7.21647 5.61833 7.42314 5.64 7.7298 5.64ZM10.1742 5.595H12.1042V6H9.75918V5.59C9.75918 5.30333 9.76918 5.095 9.78918 4.965C9.81251 4.83167 9.86418 4.72333 9.94418 4.64C10.0242 4.55333 10.1575 4.47 10.3442 4.39C10.7042 4.24 11.0075 4.115 11.2542 4.015C11.3775 3.965 11.4675 3.91833 11.5242 3.875C11.5842 3.82833 11.6242 3.77333 11.6442 3.71C11.6675 3.64667 11.6792 3.56 11.6792 3.45C11.6792 3.29333 11.6542 3.17833 11.6042 3.105C11.5575 3.03167 11.4758 2.98333 11.3592 2.96C11.2458 2.93333 11.0692 2.92 10.8292 2.92C10.5658 2.92 10.2325 2.94167 9.82918 2.985V2.61C9.96918 2.58333 10.1458 2.56167 10.3592 2.545C10.5725 2.52833 10.7725 2.52 10.9592 2.52C11.2092 2.52 11.4142 2.54 11.5742 2.58C11.7342 2.61667 11.8625 2.7 11.9592 2.83C12.0558 2.95667 12.1042 3.14833 12.1042 3.405C12.1042 3.60167 12.0842 3.76 12.0442 3.88C12.0042 4 11.9392 4.09667 11.8492 4.17C11.7625 4.24 11.6408 4.30833 11.4842 4.375L10.4492 4.8C10.3325 4.84333 10.2575 4.90167 10.2242 4.975C10.2042 5.02167 10.1908 5.075 10.1842 5.135C10.1775 5.195 10.1742 5.275 10.1742 5.375V5.595ZM12.7809 6V5.49H13.2559V6H12.7809ZM14.4742 6V3.09L13.7642 3.43V3.015L14.5992 2.56H14.9042V6H14.4742ZM16.359 6V3.09L15.649 3.43V3.015L16.484 2.56H16.789V6H16.359Z" fill="#D8E8FF"/>
<rect opacity="0.7" y="9" width="1" height="6" fill="#5CE1E6"/>
<rect opacity="0.7" x="3" y="9" width="1" height="4" fill="#5CE1E6"/>
<rect opacity="0.7" x="6" y="9" width="1" height="5" fill="#5CE1E6"/>
<rect opacity="0.7" x="9" y="9" width="1" height="2" fill="#5CE1E6"/>
<g filter="url(#filter0_d)">
<circle cx="24" cy="7" r="5" fill="#5CE1E6"/>
<circle cx="24" cy="7" r="4" stroke="#D8E8FF" stroke-width="2"/>
</g>
<defs>
<filter id="filter0_d" x="16" y="1" width="16" height="16" filterUnits="userSpaceOnUse" color-interpolation-filters="sRGB">
<feFlood flood-opacity="0" result="BackgroundImageFix"/>
<feColorMatrix in="SourceAlpha" type="matrix" values="0 0 0 0 0 0 0 0 0 0 0 0 0 0 0 0 0 0 127 0"/>
<feOffset dy="2"/>
<feGaussianBlur stdDeviation="1.5"/>
<feColorMatrix type="matrix" values="0 0 0 0 0 0 0 0 0 0 0 0 0 0 0 0 0 0 0.8 0"/>
<feBlend mode="normal" in2="BackgroundImageFix" result="effect1_dropShadow"/>
<feBlend mode="normal" in="SourceGraphic" in2="effect1_dropShadow" result="shape"/>
</filter>
</defs>
</svg>
