<svg width="33" height="17" viewBox="0 0 33 17" fill="none" xmlns="http://www.w3.org/2000/svg">
<rect opacity="0.7" y="7" width="22" height="1" fill="#F1C2C7"/>
<path d="M0.765 5.595H2.695V6H0.35V5.59C0.35 5.30333 0.36 5.095 0.38 4.965C0.403333 4.83167 0.455 4.72333 0.535 4.64C0.615 4.55333 0.748333 4.47 0.935 4.39C1.295 4.24 1.59833 4.115 1.845 4.015C1.96833 3.965 2.05833 3.91833 2.115 3.875C2.175 3.82833 2.215 3.77333 2.235 3.71C2.25833 3.64667 2.27 3.56 2.27 3.45C2.27 3.29333 2.245 3.17833 2.195 3.105C2.14833 3.03167 2.06667 2.98333 1.95 2.96C1.83667 2.93333 1.66 2.92 1.42 2.92C1.15667 2.92 0.823333 2.94167 0.42 2.985V2.61C0.56 2.58333 0.736667 2.56167 0.95 2.545C1.16333 2.52833 1.36333 2.52 1.55 2.52C1.8 2.52 2.005 2.54 2.165 2.58C2.325 2.61667 2.45333 2.7 2.55 2.83C2.64667 2.95667 2.695 3.14833 2.695 3.405C2.695 3.60167 2.675 3.76 2.635 3.88C2.595 4 2.53 4.09667 2.44 4.17C2.35333 4.24 2.23167 4.30833 2.075 4.375L1.04 4.8C0.923333 4.84333 0.848333 4.90167 0.815 4.975C0.795 5.02167 0.781667 5.075 0.775 5.135C0.768333 5.195 0.765 5.275 0.765 5.375V5.595ZM4.73176 6.04C4.30842 6.04 4.00842 5.99667 3.83176 5.91C3.65842 5.82 3.54842 5.66333 3.50176 5.44C3.45842 5.21667 3.43676 4.83 3.43676 4.28C3.43676 3.73 3.45842 3.34333 3.50176 3.12C3.54842 2.89667 3.65842 2.74167 3.83176 2.655C4.00842 2.565 4.30842 2.52 4.73176 2.52C5.15509 2.52 5.45342 2.565 5.62676 2.655C5.80342 2.74167 5.91342 2.89833 5.95676 3.125C6.00342 3.34833 6.02676 3.73333 6.02676 4.28C6.02676 4.83 6.00342 5.21667 5.95676 5.44C5.91342 5.66333 5.80342 5.82 5.62676 5.91C5.45342 5.99667 5.15509 6.04 4.73176 6.04ZM4.73176 5.64C5.03842 5.64 5.24342 5.61833 5.34676 5.575C5.45342 5.52833 5.52176 5.42167 5.55176 5.255C5.58176 5.08833 5.59676 4.76333 5.59676 4.28C5.59676 3.79667 5.58176 3.47167 5.55176 3.305C5.52176 3.13833 5.45342 3.03333 5.34676 2.99C5.24342 2.94333 5.03842 2.92 4.73176 2.92C4.42509 2.92 4.21842 2.94333 4.11176 2.99C4.00509 3.03333 3.93676 3.13833 3.90676 3.305C3.87676 3.47167 3.86176 3.79667 3.86176 4.28C3.86176 4.76333 3.87676 5.08833 3.90676 5.255C3.93676 5.42167 4.00509 5.52833 4.11176 5.575C4.21842 5.61833 4.42509 5.64 4.73176 5.64ZM6.73113 6V5.49H7.20613V6H6.73113ZM8.28941 5.595H10.2194V6H7.87441V5.59C7.87441 5.30333 7.88441 5.095 7.90441 4.965C7.92775 4.83167 7.97941 4.72333 8.05941 4.64C8.13941 4.55333 8.27275 4.47 8.45941 4.39C8.81941 4.24 9.12275 4.115 9.36941 4.015C9.49275 3.965 9.58275 3.91833 9.63941 3.875C9.69941 3.82833 9.73941 3.77333 9.75941 3.71C9.78275 3.64667 9.79441 3.56 9.79441 3.45C9.79441 3.29333 9.76941 3.17833 9.71941 3.105C9.67275 3.03167 9.59108 2.98333 9.47441 2.96C9.36108 2.93333 9.18441 2.92 8.94441 2.92C8.68108 2.92 8.34775 2.94167 7.94441 2.985V2.61C8.08441 2.58333 8.26108 2.56167 8.47441 2.545C8.68775 2.52833 8.88775 2.52 9.07441 2.52C9.32441 2.52 9.52941 2.54 9.68941 2.58C9.84941 2.61667 9.97775 2.7 10.0744 2.83C10.1711 2.95667 10.2194 3.14833 10.2194 3.405C10.2194 3.60167 10.1994 3.76 10.1594 3.88C10.1194 4 10.0544 4.09667 9.96441 4.17C9.87775 4.24 9.75608 4.30833 9.59941 4.375L8.56441 4.8C8.44775 4.84333 8.37275 4.90167 8.33941 4.975C8.31941 5.02167 8.30608 5.075 8.29941 5.135C8.29275 5.195 8.28941 5.275 8.28941 5.375V5.595ZM11.3412 5.595H13.2712V6H10.9262V5.59C10.9262 5.30333 10.9362 5.095 10.9562 4.965C10.9795 4.83167 11.0312 4.72333 11.1112 4.64C11.1912 4.55333 11.3245 4.47 11.5112 4.39C11.8712 4.24 12.1745 4.115 12.4212 4.015C12.5445 3.965 12.6345 3.91833 12.6912 3.875C12.7512 3.82833 12.7912 3.77333 12.8112 3.71C12.8345 3.64667 12.8462 3.56 12.8462 3.45C12.8462 3.29333 12.8212 3.17833 12.7712 3.105C12.7245 3.03167 12.6428 2.98333 12.5262 2.96C12.4128 2.93333 12.2362 2.92 11.9962 2.92C11.7328 2.92 11.3995 2.94167 10.9962 2.985V2.61C11.1362 2.58333 11.3128 2.56167 11.5262 2.545C11.7395 2.52833 11.9395 2.52 12.1262 2.52C12.3762 2.52 12.5812 2.54 12.7412 2.58C12.9012 2.61667 13.0295 2.7 13.1262 2.83C13.2228 2.95667 13.2712 3.14833 13.2712 3.405C13.2712 3.60167 13.2512 3.76 13.2112 3.88C13.1712 4 13.1062 4.09667 13.0162 4.17C12.9295 4.24 12.8078 4.30833 12.6512 4.375L11.6162 4.8C11.4995 4.84333 11.4245 4.90167 11.3912 4.975C11.3712 5.02167 11.3578 5.075 11.3512 5.135C11.3445 5.195 11.3412 5.275 11.3412 5.375V5.595ZM13.9479 6V5.49H14.4229V6H13.9479ZM16.0612 6.04C15.9079 6.04 15.7345 6.03167 15.5412 6.015C15.3479 5.99833 15.1812 5.97667 15.0412 5.95V5.58C15.4345 5.62 15.7645 5.64 16.0312 5.64C16.2579 5.64 16.4329 5.62833 16.5562 5.605C16.6795 5.57833 16.7745 5.52333 16.8412 5.44C16.9079 5.35667 16.9412 5.23 16.9412 5.06C16.9412 4.83667 16.8912 4.68167 16.7912 4.595C16.6945 4.505 16.5245 4.46 16.2812 4.46H15.6362V4.06H16.2812C16.4779 4.06 16.6312 4.02 16.7412 3.94C16.8512 3.86 16.9062 3.71167 16.9062 3.495C16.9062 3.32167 16.8762 3.195 16.8162 3.115C16.7562 3.035 16.6629 2.98333 16.5362 2.96C16.4129 2.93333 16.2279 2.92 15.9812 2.92C15.8479 2.92 15.6945 2.92667 15.5212 2.94C15.3512 2.95333 15.1979 2.96833 15.0612 2.985V2.61C15.1945 2.58333 15.3562 2.56167 15.5462 2.545C15.7362 2.52833 15.9095 2.52 16.0662 2.52C16.3895 2.52 16.6429 2.55333 16.8262 2.62C17.0129 2.68333 17.1445 2.78167 17.2212 2.915C17.3012 3.045 17.3412 3.215 17.3412 3.425C17.3412 3.665 17.2912 3.85 17.1912 3.98C17.0945 4.10667 16.9479 4.19167 16.7512 4.235V4.255C16.9579 4.29167 17.1129 4.37167 17.2162 4.495C17.3229 4.61833 17.3762 4.81333 17.3762 5.08C17.3762 5.29333 17.3412 5.46833 17.2712 5.605C17.2012 5.74167 17.0695 5.84833 16.8762 5.925C16.6862 6.00167 16.4145 6.04 16.0612 6.04ZM18.649 6V3.09L17.939 3.43V3.015L18.774 2.56H19.079V6H18.649Z" fill="#D8E8FF"/>
<rect opacity="0.7" y="9" width="1" height="2" fill="#5CE1E6"/>
<rect opacity="0.7" x="3" y="9" width="1" height="4" fill="#5CE1E6"/>
<rect opacity="0.7" x="6" y="9" width="1" height="5" fill="#5CE1E6"/>
<rect opacity="0.7" x="9" y="9" width="1" height="2" fill="#5CE1E6"/>
<g filter="url(#filter0_d)">
<circle cx="25" cy="7" r="5" fill="#5CE1E6"/>
<circle cx="25" cy="7" r="4" stroke="#CCE1FF" stroke-width="2"/>
</g>
<defs>
<filter id="filter0_d" x="17" y="1" width="16" height="16" filterUnits="userSpaceOnUse" color-interpolation-filters="sRGB">
<feFlood flood-opacity="0" result="BackgroundImageFix"/>
<feColorMatrix in="SourceAlpha" type="matrix" values="0 0 0 0 0 0 0 0 0 0 0 0 0 0 0 0 0 0 127 0"/>
<feOffset dy="2"/>
<feGaussianBlur stdDeviation="1.5"/>
<feColorMatrix type="matrix" values="0 0 0 0 0 0 0 0 0 0 0 0 0 0 0 0 0 0 0.8 0"/>
<feBlend mode="normal" in2="BackgroundImageFix" result="effect1_dropShadow"/>
<feBlend mode="normal" in="SourceGraphic" in2="effect1_dropShadow" result="shape"/>
</filter>
</defs>
</svg>
