<svg width="33" height="17" viewBox="0 0 33 17" fill="none" xmlns="http://www.w3.org/2000/svg">
<rect opacity="0.7" y="7" width="22" height="1" fill="#F1C2C7"/>
<path d="M1.735 6.04C1.48167 6.04 1.27833 6.02833 1.125 6.005C0.971667 5.98167 0.843333 5.935 0.74 5.865C0.636667 5.795 0.558333 5.68833 0.505 5.545C0.458333 5.43167 0.426667 5.27833 0.41 5.085C0.393333 4.89167 0.385 4.635 0.385 4.315C0.385 4.01833 0.393333 3.77333 0.41 3.58C0.43 3.38667 0.463333 3.22667 0.51 3.1C0.593333 2.87667 0.73 2.725 0.92 2.645C1.11 2.56167 1.39333 2.52 1.77 2.52C1.89667 2.52 2.055 2.52833 2.245 2.545C2.435 2.56167 2.61833 2.58333 2.795 2.61V2.985C2.39833 2.94167 2.08667 2.92 1.86 2.92C1.53667 2.92 1.30333 2.95167 1.16 3.015C1.02 3.075 0.926667 3.19 0.88 3.36C0.836667 3.52667 0.815 3.80167 0.815 4.185H0.845C0.911667 4.11167 1.01667 4.05167 1.16 4.005C1.30667 3.95833 1.525 3.935 1.815 3.935C2.11833 3.935 2.35 3.96 2.51 4.01C2.67333 4.05667 2.79333 4.14833 2.87 4.285C2.94667 4.42167 2.985 4.62833 2.985 4.905C2.985 5.21167 2.95167 5.445 2.885 5.605C2.82167 5.76167 2.70167 5.87333 2.525 5.94C2.35167 6.00667 2.08833 6.04 1.735 6.04ZM1.695 5.64C1.94833 5.64 2.13167 5.62667 2.245 5.6C2.36167 5.57333 2.44333 5.51667 2.49 5.43C2.53667 5.34 2.56 5.19667 2.56 5C2.56 4.79 2.53833 4.64 2.495 4.55C2.45167 4.46 2.37333 4.40167 2.26 4.375C2.14667 4.34833 1.95833 4.335 1.695 4.335C1.435 4.335 1.24333 4.35167 1.12 4.385C1 4.41833 0.921667 4.47167 0.885 4.545C0.848333 4.61833 0.83 4.72667 0.83 4.87C0.83 5.10667 0.855 5.27833 0.905 5.385C0.955 5.49167 1.03667 5.56167 1.15 5.595C1.26667 5.625 1.44833 5.64 1.695 5.64ZM4.18613 6V3.09L3.47613 3.43V3.015L4.31113 2.56H4.61613V6H4.18613ZM5.4909 6V5.49H5.9659V6H5.4909ZM7.18418 6V3.09L6.47418 3.43V3.015L7.30918 2.56H7.61418V6H7.18418ZM9.06895 6V3.09L8.35895 3.43V3.015L9.19395 2.56H9.49895V6H9.06895ZM10.3737 6V5.49H10.8487V6H10.3737ZM12.847 6.04C12.4237 6.04 12.1237 5.99667 11.947 5.91C11.7737 5.82 11.6637 5.66333 11.617 5.44C11.5737 5.21667 11.552 4.83 11.552 4.28C11.552 3.73 11.5737 3.34333 11.617 3.12C11.6637 2.89667 11.7737 2.74167 11.947 2.655C12.1237 2.565 12.4237 2.52 12.847 2.52C13.2703 2.52 13.5687 2.565 13.742 2.655C13.9187 2.74167 14.0287 2.89833 14.072 3.125C14.1187 3.34833 14.142 3.73333 14.142 4.28C14.142 4.83 14.1187 5.21667 14.072 5.44C14.0287 5.66333 13.9187 5.82 13.742 5.91C13.5687 5.99667 13.2703 6.04 12.847 6.04ZM12.847 5.64C13.1537 5.64 13.3587 5.61833 13.462 5.575C13.5687 5.52833 13.637 5.42167 13.667 5.255C13.697 5.08833 13.712 4.76333 13.712 4.28C13.712 3.79667 13.697 3.47167 13.667 3.305C13.637 3.13833 13.5687 3.03333 13.462 2.99C13.3587 2.94333 13.1537 2.92 12.847 2.92C12.5403 2.92 12.3337 2.94333 12.227 2.99C12.1203 3.03333 12.052 3.13833 12.022 3.305C11.992 3.47167 11.977 3.79667 11.977 4.28C11.977 4.76333 11.992 5.08833 12.022 5.255C12.052 5.42167 12.1203 5.52833 12.227 5.575C12.3337 5.61833 12.5403 5.64 12.847 5.64ZM14.9364 5.58C15.343 5.62 15.6747 5.64 15.9314 5.64C16.1847 5.64 16.3747 5.62167 16.5014 5.585C16.6314 5.545 16.7197 5.47833 16.7664 5.385C16.8164 5.29167 16.8414 5.15667 16.8414 4.98C16.8414 4.78667 16.8147 4.64667 16.7614 4.56C16.7114 4.47333 16.6197 4.41667 16.4864 4.39C16.3564 4.36 16.1497 4.345 15.8664 4.345C15.6264 4.345 15.3297 4.36667 14.9764 4.41V2.56H17.0214V2.965H15.3714V3.99C15.6114 3.96 15.8664 3.945 16.1364 3.945C16.453 3.945 16.693 3.98167 16.8564 4.055C17.0197 4.125 17.1297 4.23 17.1864 4.37C17.2464 4.50667 17.2764 4.69333 17.2764 4.93C17.2764 5.21333 17.2397 5.43333 17.1664 5.59C17.0964 5.74667 16.968 5.86167 16.7814 5.935C16.5947 6.005 16.323 6.04 15.9664 6.04C15.8064 6.04 15.628 6.03167 15.4314 6.015C15.238 5.99833 15.073 5.97667 14.9364 5.95V5.58Z" fill="#D8E8FF"/>
<rect opacity="0.7" y="9" width="1" height="2" fill="#5CE1E6"/>
<rect opacity="0.7" x="3" y="9" width="1" height="4" fill="#5CE1E6"/>
<rect opacity="0.7" x="6" y="9" width="1" height="5" fill="#5CE1E6"/>
<rect opacity="0.7" x="9" y="9" width="1" height="2" fill="#5CE1E6"/>
<g filter="url(#filter0_d)">
<circle cx="25" cy="7" r="5" fill="#5CE1E6"/>
<circle cx="25" cy="7" r="4" stroke="#CCE1FF" stroke-width="2"/>
</g>
<defs>
<filter id="filter0_d" x="17" y="1" width="16" height="16" filterUnits="userSpaceOnUse" color-interpolation-filters="sRGB">
<feFlood flood-opacity="0" result="BackgroundImageFix"/>
<feColorMatrix in="SourceAlpha" type="matrix" values="0 0 0 0 0 0 0 0 0 0 0 0 0 0 0 0 0 0 127 0"/>
<feOffset dy="2"/>
<feGaussianBlur stdDeviation="1.5"/>
<feColorMatrix type="matrix" values="0 0 0 0 0 0 0 0 0 0 0 0 0 0 0 0 0 0 0.8 0"/>
<feBlend mode="normal" in2="BackgroundImageFix" result="effect1_dropShadow"/>
<feBlend mode="normal" in="SourceGraphic" in2="effect1_dropShadow" result="shape"/>
</filter>
</defs>
</svg>
