<svg width="33" height="17" viewBox="0 0 33 17" fill="none" xmlns="http://www.w3.org/2000/svg">
<rect opacity="0.7" y="7" width="22" height="1" fill="#F1C2C7"/>
<path d="M0.41 5.58C0.816667 5.62 1.14833 5.64 1.405 5.64C1.65833 5.64 1.84833 5.62167 1.975 5.585C2.105 5.545 2.19333 5.47833 2.24 5.385C2.29 5.29167 2.315 5.15667 2.315 4.98C2.315 4.78667 2.28833 4.64667 2.235 4.56C2.185 4.47333 2.09333 4.41667 1.96 4.39C1.83 4.36 1.62333 4.345 1.34 4.345C1.1 4.345 0.803333 4.36667 0.45 4.41V2.56H2.495V2.965H0.845V3.99C1.085 3.96 1.34 3.945 1.61 3.945C1.92667 3.945 2.16667 3.98167 2.33 4.055C2.49333 4.125 2.60333 4.23 2.66 4.37C2.72 4.50667 2.75 4.69333 2.75 4.93C2.75 5.21333 2.71333 5.43333 2.64 5.59C2.57 5.74667 2.44167 5.86167 2.255 5.935C2.06833 6.005 1.79667 6.04 1.44 6.04C1.28 6.04 1.10167 6.03167 0.905 6.015C0.711667 5.99833 0.546667 5.97667 0.41 5.95V5.58ZM3.51059 5.58C3.91725 5.62 4.24892 5.64 4.50559 5.64C4.75892 5.64 4.94892 5.62167 5.07559 5.585C5.20559 5.545 5.29392 5.47833 5.34059 5.385C5.39059 5.29167 5.41559 5.15667 5.41559 4.98C5.41559 4.78667 5.38892 4.64667 5.33559 4.56C5.28559 4.47333 5.19392 4.41667 5.06059 4.39C4.93059 4.36 4.72392 4.345 4.44059 4.345C4.20059 4.345 3.90392 4.36667 3.55059 4.41V2.56H5.59559V2.965H3.94559V3.99C4.18559 3.96 4.44059 3.945 4.71059 3.945C5.02725 3.945 5.26725 3.98167 5.43059 4.055C5.59392 4.125 5.70392 4.23 5.76059 4.37C5.82059 4.50667 5.85059 4.69333 5.85059 4.93C5.85059 5.21333 5.81392 5.43333 5.74059 5.59C5.67059 5.74667 5.54225 5.86167 5.35559 5.935C5.16892 6.005 4.89725 6.04 4.54059 6.04C4.38059 6.04 4.20225 6.03167 4.00559 6.015C3.81225 5.99833 3.64725 5.97667 3.51059 5.95V5.58ZM6.52117 6V5.49H6.99617V6H6.52117ZM8.99445 6.04C8.57112 6.04 8.27112 5.99667 8.09445 5.91C7.92112 5.82 7.81112 5.66333 7.76445 5.44C7.72112 5.21667 7.69945 4.83 7.69945 4.28C7.69945 3.73 7.72112 3.34333 7.76445 3.12C7.81112 2.89667 7.92112 2.74167 8.09445 2.655C8.27112 2.565 8.57112 2.52 8.99445 2.52C9.41779 2.52 9.71612 2.565 9.88945 2.655C10.0661 2.74167 10.1761 2.89833 10.2195 3.125C10.2661 3.34833 10.2895 3.73333 10.2895 4.28C10.2895 4.83 10.2661 5.21667 10.2195 5.44C10.1761 5.66333 10.0661 5.82 9.88945 5.91C9.71612 5.99667 9.41779 6.04 8.99445 6.04ZM8.99445 5.64C9.30112 5.64 9.50612 5.61833 9.60945 5.575C9.71612 5.52833 9.78445 5.42167 9.81445 5.255C9.84445 5.08833 9.85945 4.76333 9.85945 4.28C9.85945 3.79667 9.84445 3.47167 9.81445 3.305C9.78445 3.13833 9.71612 3.03333 9.60945 2.99C9.50612 2.94333 9.30112 2.92 8.99445 2.92C8.68779 2.92 8.48112 2.94333 8.37445 2.99C8.26779 3.03333 8.19945 3.13833 8.16945 3.305C8.13945 3.47167 8.12445 3.79667 8.12445 4.28C8.12445 4.76333 8.13945 5.08833 8.16945 5.255C8.19945 5.42167 8.26779 5.52833 8.37445 5.575C8.48112 5.61833 8.68779 5.64 8.99445 5.64ZM11.4388 5.595H13.3688V6H11.0238V5.59C11.0238 5.30333 11.0338 5.095 11.0538 4.965C11.0772 4.83167 11.1288 4.72333 11.2088 4.64C11.2888 4.55333 11.4222 4.47 11.6088 4.39C11.9688 4.24 12.2722 4.115 12.5188 4.015C12.6422 3.965 12.7322 3.91833 12.7888 3.875C12.8488 3.82833 12.8888 3.77333 12.9088 3.71C12.9322 3.64667 12.9438 3.56 12.9438 3.45C12.9438 3.29333 12.9188 3.17833 12.8688 3.105C12.8222 3.03167 12.7405 2.98333 12.6238 2.96C12.5105 2.93333 12.3338 2.92 12.0938 2.92C11.8305 2.92 11.4972 2.94167 11.0938 2.985V2.61C11.2338 2.58333 11.4105 2.56167 11.6238 2.545C11.8372 2.52833 12.0372 2.52 12.2238 2.52C12.4738 2.52 12.6788 2.54 12.8388 2.58C12.9988 2.61667 13.1272 2.7 13.2238 2.83C13.3205 2.95667 13.3688 3.14833 13.3688 3.405C13.3688 3.60167 13.3488 3.76 13.3088 3.88C13.2688 4 13.2038 4.09667 13.1138 4.17C13.0272 4.24 12.9055 4.30833 12.7488 4.375L11.7138 4.8C11.5972 4.84333 11.5222 4.90167 11.4888 4.975C11.4688 5.02167 11.4555 5.075 11.4488 5.135C11.4422 5.195 11.4388 5.275 11.4388 5.375V5.595ZM14.0456 6V5.49H14.5206V6H14.0456ZM16.8889 6V5.205H15.0689V4.85L16.4139 2.56H16.8889L15.5489 4.805H16.8889L16.9789 3.62H17.3189V4.805H17.8239V5.205H17.3189V6H16.8889ZM18.9518 6V3.09L18.2418 3.43V3.015L19.0768 2.56H19.3818V6H18.9518Z" fill="#D8E8FF"/>
<rect opacity="0.7" y="9" width="1" height="2" fill="#5CE1E6"/>
<rect opacity="0.7" x="6" y="9" width="1" height="4" fill="#5CE1E6"/>
<rect opacity="0.7" x="3" y="9" width="1" height="5" fill="#5CE1E6"/>
<rect opacity="0.7" x="9" y="9" width="1" height="2" fill="#5CE1E6"/>
<g filter="url(#filter0_d)">
<circle cx="25" cy="7" r="5" fill="#5CE1E6"/>
<circle cx="25" cy="7" r="4" stroke="#CCE1FF" stroke-width="2"/>
</g>
<defs>
<filter id="filter0_d" x="17" y="1" width="16" height="16" filterUnits="userSpaceOnUse" color-interpolation-filters="sRGB">
<feFlood flood-opacity="0" result="BackgroundImageFix"/>
<feColorMatrix in="SourceAlpha" type="matrix" values="0 0 0 0 0 0 0 0 0 0 0 0 0 0 0 0 0 0 127 0"/>
<feOffset dy="2"/>
<feGaussianBlur stdDeviation="1.5"/>
<feColorMatrix type="matrix" values="0 0 0 0 0 0 0 0 0 0 0 0 0 0 0 0 0 0 0.8 0"/>
<feBlend mode="normal" in2="BackgroundImageFix" result="effect1_dropShadow"/>
<feBlend mode="normal" in="SourceGraphic" in2="effect1_dropShadow" result="shape"/>
</filter>
</defs>
</svg>
