<svg width="90" height="102" viewBox="0 0 90 102" fill="none" xmlns="http://www.w3.org/2000/svg">
<g filter="url(#filter0_d)">
<path d="M45 24C28.4314 24 15 37.4314 15 54C15 70.5686 28.4314 84 45 84C61.5686 84 75 70.5686 75 54C74.9814 37.4391 61.5609 24.0186 45 24ZM40.6 26.3489C39.9721 27.0037 39.3614 27.6731 38.767 28.3569L35.8 31.7771C33.3638 34.588 30.6343 37.1314 27.6593 39.3641C23.7928 42.2633 20.3322 45.6673 17.3691 49.4851C19.3348 37.5811 28.6886 28.266 40.6 26.3489ZM17 54C17 53.779 17.012 53.5617 17.0173 53.342L17.466 52.7051C20.6223 48.217 24.466 44.2543 28.8561 40.963C31.9463 38.646 34.7803 36.0053 37.3101 33.0872L40.2729 29.667C41.3729 28.4013 42.5399 27.1787 43.746 26.0319C44.1622 26.013 44.5798 26 45 26C49.2915 25.9963 53.5255 26.9854 57.371 28.8899L55.4814 30.1221C49.9973 33.6888 45.3218 38.3644 41.7551 43.8479C38.3404 49.0997 33.8628 53.5774 28.6112 56.992C25.1593 59.2553 22.0199 61.9628 19.2753 65.0457C17.771 61.558 16.9968 57.7984 17 54ZM73 54C72.9824 69.4569 60.4569 81.9824 45 82C44.4872 82 43.9766 81.984 43.471 81.9572C46.5293 77.7497 50.1992 74.0229 54.3588 70.9C57.4489 68.5824 60.283 65.9418 62.8128 63.0229L65.7771 59.6032C67.4066 57.7239 69.1676 55.9633 71.0468 54.334L72.9657 52.6702C72.987 53.1112 73 53.5543 73 54ZM70.1822 41.7699C71.4793 44.4324 72.3426 47.2859 72.738 50.2207L69.738 52.8213C67.7875 54.5133 65.9601 56.341 64.2683 58.292L61.3 61.713C58.8644 64.5239 56.1354 67.0678 53.1598 69.3C48.6016 72.7168 44.6104 76.8303 41.333 81.4899L41.1638 81.7311C38.4346 81.3553 35.7763 80.5758 33.2763 79.4181L37.6997 73.0742C41.8564 67.0955 47.1761 62.0181 53.3418 58.1452C59.7851 54.0979 65.3378 48.7819 69.6622 42.521L70.1822 41.7699ZM68.0183 41.3819C63.8471 47.4213 58.4907 52.5489 52.2753 56.4521C45.883 60.4678 40.367 65.7324 36.0572 71.9303L31.4739 78.5058C26.6806 75.8479 22.766 71.8489 20.2098 67C22.9657 63.7902 26.1606 60.9846 29.7 58.667C35.1859 55.1008 39.8633 50.4255 43.4309 44.941C46.8455 39.691 51.3229 35.2138 56.5731 31.8L59.3644 29.9801C63.3803 32.3926 66.7316 35.7673 69.116 39.8L68.0183 41.3819Z" fill="url(#paint0_linear)"/>
<path d="M31.121 49.8789C32.7779 49.8789 34.121 48.5358 34.121 46.8789C34.121 45.222 32.7779 43.8789 31.121 43.8789C29.4644 43.8789 28.121 45.222 28.121 46.8789C28.121 48.5358 29.4644 49.8789 31.121 49.8789ZM31.121 45.8789C31.6734 45.8789 32.121 46.3268 32.121 46.8789C32.121 47.431 31.6734 47.8789 31.121 47.8789C30.5689 47.8789 30.121 47.431 30.121 46.8789C30.121 46.3268 30.5689 45.8789 31.121 45.8789Z" fill="url(#paint1_linear)"/>
<path d="M23.121 48.8789H25.121V50.8786H23.121V48.8789Z" fill="url(#paint2_linear)"/>
<path d="M37.121 36.8789H39.121V38.8789H37.121V36.8789Z" fill="url(#paint3_linear)"/>
<path d="M50.121 44.8789H52.121V46.8789H50.121V44.8789Z" fill="url(#paint4_linear)"/>
<path d="M39.121 54.8789C36.912 54.8789 35.121 56.6699 35.121 58.8789C35.121 61.088 36.912 62.8792 39.121 62.8792C41.3301 62.8792 43.1213 61.088 43.1213 58.8789C43.1213 56.6699 41.3301 54.8789 39.121 54.8789ZM39.121 60.8789C38.0165 60.8789 37.121 59.9837 37.121 58.8789C37.121 57.7744 38.0165 56.8789 39.121 56.8789C40.2258 56.8789 41.121 57.7744 41.121 58.8789C41.121 59.9837 40.2258 60.8789 39.121 60.8789Z" fill="url(#paint5_linear)"/>
<path d="M66.121 64.8789H68.121V66.8789H66.121V64.8789Z" fill="url(#paint6_linear)"/>
<path d="M61.121 39.8792H63.121V41.8792H61.121V39.8792Z" fill="url(#paint7_linear)"/>
<path d="M53.121 75.8792H55.121V77.8792H53.121V75.8792Z" fill="url(#paint8_linear)"/>
<path d="M30.121 70.8792H32.121V72.8792H30.121V70.8792Z" fill="url(#paint9_linear)"/>
<path d="M54.121 60.8789H56.1207V62.8789H54.121V60.8789Z" fill="url(#paint10_linear)"/>
</g>
<circle opacity="0.3" cx="45" cy="54" r="38.5" stroke="#D8E8FF"/>
<path opacity="0.5" d="M64 20.0001L83 0.999991L84 0.999992L64 21L64 20.0001Z" fill="#D8E8FF"/>
<path opacity="0.5" d="M14 0H84V1H14V0Z" fill="#D8E8FF"/>
<defs>
<filter id="filter0_d" x="0" y="12" width="90" height="90" filterUnits="userSpaceOnUse" color-interpolation-filters="sRGB">
<feFlood flood-opacity="0" result="BackgroundImageFix"/>
<feColorMatrix in="SourceAlpha" type="matrix" values="0 0 0 0 0 0 0 0 0 0 0 0 0 0 0 0 0 0 127 0"/>
<feOffset dy="3"/>
<feGaussianBlur stdDeviation="7.5"/>
<feColorMatrix type="matrix" values="0 0 0 0 0.447059 0 0 0 0 0.760784 0 0 0 0 0.964706 0 0 0 1 0"/>
<feBlend mode="normal" in2="BackgroundImageFix" result="effect1_dropShadow"/>
<feBlend mode="normal" in="SourceGraphic" in2="effect1_dropShadow" result="shape"/>
</filter>
<linearGradient id="paint0_linear" x1="45" y1="24" x2="45" y2="84" gradientUnits="userSpaceOnUse">
<stop stop-color="#E86633"/>
<stop offset="1" stop-color="#D8E8FF"/>
</linearGradient>
<linearGradient id="paint1_linear" x1="31.121" y1="43.8789" x2="31.121" y2="49.8789" gradientUnits="userSpaceOnUse">
<stop stop-color="#E86633"/>
<stop offset="1" stop-color="#D8E8FF"/>
</linearGradient>
<linearGradient id="paint2_linear" x1="24.121" y1="48.8789" x2="24.121" y2="50.8786" gradientUnits="userSpaceOnUse">
<stop stop-color="#E86633"/>
<stop offset="1" stop-color="#D8E8FF"/>
</linearGradient>
<linearGradient id="paint3_linear" x1="38.121" y1="36.8789" x2="38.121" y2="38.8789" gradientUnits="userSpaceOnUse">
<stop stop-color="#E86633"/>
<stop offset="1" stop-color="#D8E8FF"/>
</linearGradient>
<linearGradient id="paint4_linear" x1="51.121" y1="44.8789" x2="51.121" y2="46.8789" gradientUnits="userSpaceOnUse">
<stop stop-color="#E86633"/>
<stop offset="1" stop-color="#D8E8FF"/>
</linearGradient>
<linearGradient id="paint5_linear" x1="39.1211" y1="54.8789" x2="39.1211" y2="62.8792" gradientUnits="userSpaceOnUse">
<stop stop-color="#E86633"/>
<stop offset="1" stop-color="#D8E8FF"/>
</linearGradient>
<linearGradient id="paint6_linear" x1="67.121" y1="64.8789" x2="67.121" y2="66.8789" gradientUnits="userSpaceOnUse">
<stop stop-color="#E86633"/>
<stop offset="1" stop-color="#D8E8FF"/>
</linearGradient>
<linearGradient id="paint7_linear" x1="62.121" y1="39.8792" x2="62.121" y2="41.8792" gradientUnits="userSpaceOnUse">
<stop stop-color="#E86633"/>
<stop offset="1" stop-color="#D8E8FF"/>
</linearGradient>
<linearGradient id="paint8_linear" x1="54.121" y1="75.8792" x2="54.121" y2="77.8792" gradientUnits="userSpaceOnUse">
<stop stop-color="#E86633"/>
<stop offset="1" stop-color="#D8E8FF"/>
</linearGradient>
<linearGradient id="paint9_linear" x1="31.121" y1="70.8792" x2="31.121" y2="72.8792" gradientUnits="userSpaceOnUse">
<stop stop-color="#E86633"/>
<stop offset="1" stop-color="#D8E8FF"/>
</linearGradient>
<linearGradient id="paint10_linear" x1="55.1209" y1="60.8789" x2="55.1209" y2="62.8789" gradientUnits="userSpaceOnUse">
<stop stop-color="#E86633"/>
<stop offset="1" stop-color="#D8E8FF"/>
</linearGradient>
</defs>
</svg>
