<svg width="106" height="123" viewBox="0 0 106 123" fill="none" xmlns="http://www.w3.org/2000/svg">
<g clipPath="url(#clip0)" filter="url(#filter0_d)">
<path d="M52.9859 29C39.415 29.0101 26.8791 36.2525 20.0915 48.004H20.0459V48.0837C9.60233 66.2835 15.8897 89.5038 34.0895 99.9471C52.2896 110.391 75.5093 104.103 85.9525 85.9042C96.3968 67.7044 90.1091 44.4841 71.9093 34.0408C66.1503 30.7354 59.6258 28.998 52.9859 29ZM52.9859 31.5342C60.2084 31.5278 67.2582 33.7389 73.1832 37.8685H32.7886C38.7136 33.7389 45.7637 31.5278 52.9859 31.5342ZM52.9859 102.482C44.3559 102.487 36.0225 99.3324 29.5594 93.6135H49.051C51.5214 93.6121 53.976 94.0106 56.319 94.7929C61.5588 96.5276 67.218 96.5276 72.4572 94.7929C73.6369 94.4002 74.8467 94.1037 76.0743 93.906C69.6571 99.4427 61.462 102.487 52.9859 102.482ZM78.9831 91.1083C76.491 91.1751 74.0219 91.6062 71.6553 92.3892C66.9363 93.9519 61.8399 93.9519 57.1209 92.3892C54.5192 91.5212 51.7937 91.0789 49.051 91.0793H26.9597C25.5088 89.5102 24.2025 87.8143 23.0548 86.0121H49.1852C51.1675 86.0523 53.1009 85.3911 54.6427 84.1442L56.1797 82.958C58.4167 81.5398 61.0322 80.8371 63.6785 80.9437C68.4345 80.9437 71.9893 82.8757 71.9893 84.604C71.9893 85.0186 71.4536 85.6869 70.258 86.251C66.8061 87.87 62.5709 87.4763 61.1722 86.4946C61.0434 86.4102 60.9334 86.3013 60.848 86.1737C62.1283 85.3887 63.7122 85.2787 65.0886 85.8796L66.2211 83.6118C64.1956 82.6868 61.8567 82.7519 59.8869 83.7893C59.0388 84.1489 58.4376 84.9215 58.2963 85.832C58.2251 86.9372 58.7726 87.9914 59.7182 88.5697C61.32 89.5143 63.163 89.9704 65.0215 89.882C67.1964 89.8911 69.3488 89.4353 71.3331 88.5454C73.3603 87.5933 74.5232 86.1569 74.5232 84.6064C74.5232 81.0702 69.8609 78.4098 63.6785 78.4098C60.4719 78.2924 57.3088 79.181 54.6325 80.9514L53.0942 82.1383C51.9964 83.0441 50.6068 83.5204 49.1845 83.4776H21.5816C20.5165 81.4551 19.6502 79.3331 18.9957 77.143H49.051C51.7937 77.1437 54.5192 76.7014 57.1209 75.8327C61.8399 74.2711 66.9363 74.2711 71.6553 75.8327C74.257 76.7014 76.9822 77.1437 79.7256 77.143H86.9761C85.4168 82.3494 82.6822 87.1274 78.9831 91.1083ZM87.6316 74.6094H79.7256C77.2548 74.6098 74.8008 74.212 72.4569 73.43C67.218 71.695 61.5585 71.695 56.319 73.43C53.976 74.212 51.5214 74.6098 49.0506 74.6094H18.3406C17.8851 72.5259 17.6186 70.4056 17.5441 68.2745H88.4277C88.3535 70.4056 88.0867 72.5259 87.6316 74.6094ZM88.4281 65.741H17.5441C17.6227 63.4918 17.9165 61.2555 18.4202 59.0616L19.021 58.9601C22.2158 58.4284 25.477 58.4284 28.6725 58.9601L33.8081 59.8166C37.2788 60.3976 40.8208 60.3976 44.2912 59.8166L49.4271 58.9601C52.6226 58.4284 55.8831 58.4284 59.0786 58.9601L64.2142 59.8166C67.6849 60.3962 71.2269 60.3962 74.6973 59.8166L79.8332 58.9601C82.3576 58.5462 84.9259 58.4642 87.4716 58.7158C88.0242 61.0197 88.3451 63.3731 88.4281 65.741ZM86.7393 56.1121C84.2937 55.9495 81.8368 56.0679 79.4176 56.4657L74.282 57.3222C71.0868 57.8546 67.8253 57.8546 64.6305 57.3222L59.4942 56.4657C56.0241 55.8851 52.4822 55.8851 49.0115 56.4657L43.8759 57.3222C40.6801 57.8546 37.4192 57.8546 34.2241 57.3222L29.0881 56.4657C25.7942 55.9202 22.4354 55.8982 19.1351 56.3999C19.7723 54.3764 20.5914 52.4143 21.5816 50.5376H84.3906C85.3318 52.3253 86.1172 54.1905 86.7393 56.1121ZM23.0548 48.004C24.856 45.1777 27.0454 42.6185 29.5594 40.4027H76.4127C78.9267 42.6185 81.1162 45.1777 82.917 48.004H23.0548Z" fill="url(#paint0_linear)"/>
</g>
<circle opacity="0.3" cx="53" cy="67" r="46.5" stroke="#D8E8FF"/>
<path opacity="0.5" d="M54 20L74 1L75 0.999992L55 20.5L54 20Z" fill="#D8E8FF"/>
<path opacity="0.5" d="M5 0H75V1H5V0Z" fill="#D8E8FF"/>
<defs>
<filter id="filter0_d" x="0" y="17" width="106" height="106" filterUnits="userSpaceOnUse" color-interpolation-filters="sRGB">
<feFlood flood-opacity="0" result="BackgroundImageFix"/>
<feColorMatrix in="SourceAlpha" type="matrix" values="0 0 0 0 0 0 0 0 0 0 0 0 0 0 0 0 0 0 127 0"/>
<feOffset dy="3"/>
<feGaussianBlur stdDeviation="7.5"/>
<feColorMatrix type="matrix" values="0 0 0 0 0.847059 0 0 0 0 0.909804 0 0 0 0 1 0 0 0 0.91 0"/>
<feBlend mode="normal" in2="BackgroundImageFix" result="effect1_dropShadow"/>
<feBlend mode="normal" in="SourceGraphic" in2="effect1_dropShadow" result="shape"/>
</filter>
<linearGradient id="paint0_linear" x1="52.9994" y1="29" x2="52.9994" y2="104.994" gradientUnits="userSpaceOnUse">
<stop stop-color="#FFD451"/>
<stop offset="1" stop-color="#D8E8FF"/>
</linearGradient>
<clipPath id="clip0">
<rect width="76" height="76" fill="white" transform="translate(15 29)"/>
</clipPath>
</defs>
</svg>
