<svg width="176" height="47" viewBox="0 0 176 47" fill="none" xmlns="http://www.w3.org/2000/svg">
<path opacity="0.5" d="M0 45H175V46H0V45Z" fill="#D8E8FF"/>
<path opacity="0.5" d="M0 45.3552L42.6359 2.71933L43.343 3.42644L1.50164 45.215L0 45.3552Z" fill="#D8E8FF"/>
<path d="M55.806 15.915C55.4547 15.983 55.0127 16.034 54.48 16.068C53.9587 16.1133 53.4713 16.136 53.018 16.136C51.6127 16.136 50.587 15.983 49.941 15.677C49.295 15.371 48.8587 14.8157 48.632 14.011C48.4167 13.195 48.309 11.9087 48.309 10.152C48.309 8.40667 48.4167 7.126 48.632 6.31C48.8587 5.494 49.295 4.933 49.941 4.627C50.587 4.321 51.6127 4.168 53.018 4.168C53.4827 4.168 53.97 4.19067 54.48 4.236C54.99 4.28133 55.4093 4.34367 55.738 4.423V5.698C54.888 5.58467 54.106 5.528 53.392 5.528C52.202 5.528 51.369 5.61867 50.893 5.8C50.4283 5.98133 50.1223 6.37233 49.975 6.973C49.8277 7.57367 49.754 8.63333 49.754 10.152C49.754 11.6707 49.8277 12.7303 49.975 13.331C50.1223 13.9317 50.4283 14.3227 50.893 14.504C51.369 14.6853 52.202 14.776 53.392 14.776C54.2647 14.776 55.0693 14.7193 55.806 14.606V15.915ZM58.8183 16V4.304H60.2803V14.589H65.7373V16H58.8183ZM68.3058 16V4.304H69.7678V16H68.3058ZM80.616 15.915C80.2647 15.983 79.8227 16.034 79.29 16.068C78.7687 16.1133 78.2814 16.136 77.828 16.136C76.4227 16.136 75.397 15.983 74.751 15.677C74.105 15.371 73.6687 14.8157 73.442 14.011C73.2267 13.195 73.119 11.9087 73.119 10.152C73.119 8.40667 73.2267 7.126 73.442 6.31C73.6687 5.494 74.105 4.933 74.751 4.627C75.397 4.321 76.4227 4.168 77.828 4.168C78.2927 4.168 78.78 4.19067 79.29 4.236C79.8 4.28133 80.2194 4.34367 80.548 4.423V5.698C79.698 5.58467 78.916 5.528 78.202 5.528C77.012 5.528 76.179 5.61867 75.703 5.8C75.2384 5.98133 74.9324 6.37233 74.785 6.973C74.6377 7.57367 74.564 8.63333 74.564 10.152C74.564 11.6707 74.6377 12.7303 74.785 13.331C74.9324 13.9317 75.2384 14.3227 75.703 14.504C76.179 14.6853 77.012 14.776 78.202 14.776C79.0747 14.776 79.8794 14.7193 80.616 14.606V15.915ZM91.1764 16L87.1984 10.73H85.0904V16H83.6284V4.304H85.0904V9.37H87.1984L91.1934 4.304H92.8254L88.3714 9.965L92.8764 16H91.1764ZM107.314 16V10.815H101.177V16H99.7146V4.304H101.177V9.404H107.314V4.304H108.759V16H107.314ZM112.506 16V4.304H120.122V5.664H113.968V9.421H119.306V10.781H113.968V14.64H120.122V16H112.506ZM130.348 16L128.529 11.41H128.24H124.568V16H123.106V4.304H128.478C129.407 4.304 130.11 4.45133 130.586 4.746C131.062 5.04067 131.373 5.43733 131.521 5.936C131.668 6.43467 131.742 7.075 131.742 7.857C131.742 8.66167 131.623 9.36433 131.385 9.965C131.147 10.5543 130.659 10.9567 129.923 11.172L131.912 16H130.348ZM127.866 10.05C128.591 10.05 129.124 9.97633 129.464 9.829C129.815 9.67033 130.036 9.44367 130.127 9.149C130.229 8.85433 130.28 8.42367 130.28 7.857C130.28 7.279 130.234 6.84267 130.144 6.548C130.053 6.25333 129.843 6.03233 129.515 5.885C129.197 5.73767 128.687 5.664 127.985 5.664H124.568V10.05H127.866ZM135.033 16V4.304H142.649V5.664H136.495V9.421H141.833V10.781H136.495V14.64H142.649V16H135.033ZM152.49 16V5.715H148.784V4.304H157.641V5.715H153.952V16H152.49ZM164.612 16.136C163.059 16.136 161.96 15.983 161.314 15.677C160.668 15.371 160.254 14.8383 160.073 14.079C159.903 13.3083 159.818 11.9993 159.818 10.152C159.818 8.30467 159.903 7.00133 160.073 6.242C160.254 5.47133 160.668 4.933 161.314 4.627C161.96 4.321 163.059 4.168 164.612 4.168C166.153 4.168 167.247 4.321 167.893 4.627C168.55 4.933 168.964 5.47133 169.134 6.242C169.315 7.00133 169.406 8.30467 169.406 10.152C169.406 11.9993 169.315 13.3083 169.134 14.079C168.964 14.8383 168.55 15.371 167.893 15.677C167.247 15.983 166.153 16.136 164.612 16.136ZM164.612 14.776C165.768 14.776 166.55 14.7023 166.958 14.555C167.366 14.4077 167.632 14.0393 167.757 13.45C167.881 12.8607 167.944 11.7613 167.944 10.152C167.944 8.54267 167.881 7.44333 167.757 6.854C167.632 6.26467 167.366 5.89633 166.958 5.749C166.55 5.60167 165.768 5.528 164.612 5.528C163.456 5.528 162.668 5.60167 162.249 5.749C161.841 5.89633 161.574 6.26467 161.45 6.854C161.325 7.44333 161.263 8.54267 161.263 10.152C161.263 11.7613 161.325 12.8607 161.45 13.45C161.574 14.0393 161.841 14.4077 162.249 14.555C162.668 14.7023 163.456 14.776 164.612 14.776ZM52.95 31.002V29.659H56.996V35.796C56.4407 35.898 55.8117 35.9773 55.109 36.034C54.4177 36.102 53.8057 36.136 53.273 36.136C51.845 36.136 50.7853 35.983 50.094 35.677C49.414 35.3597 48.9437 34.793 48.683 33.977C48.4337 33.1497 48.309 31.8747 48.309 30.152C48.309 28.4407 48.4393 27.1713 48.7 26.344C48.9607 25.5167 49.431 24.95 50.111 24.644C50.8023 24.3267 51.8563 24.168 53.273 24.168C53.8283 24.168 54.446 24.202 55.126 24.27C55.8173 24.338 56.4237 24.4173 56.945 24.508V25.8C55.653 25.6187 54.667 25.528 53.987 25.528C52.6383 25.528 51.6977 25.6017 51.165 25.749C50.6437 25.8963 50.2753 26.2817 50.06 26.905C49.856 27.5283 49.754 28.6107 49.754 30.152C49.754 31.58 49.8333 32.6057 49.992 33.229C50.1507 33.8523 50.468 34.2717 50.944 34.487C51.42 34.7023 52.202 34.81 53.29 34.81C53.63 34.81 54.0267 34.7987 54.48 34.776C54.9333 34.742 55.3017 34.708 55.585 34.674V31.002H52.95ZM60.5449 36V24.304H68.1609V25.664H62.0069V29.421H67.3449V30.781H62.0069V34.64H68.1609V36H60.5449ZM73.6606 36V25.715H69.9546V24.304H78.8116V25.715H75.1226V36H73.6606ZM89.3641 36.136C88.7408 36.136 88.0438 36.1133 87.2731 36.068C86.5138 36.0227 85.8395 35.966 85.2501 35.898V34.555C86.7235 34.7023 87.9531 34.776 88.9391 34.776C89.5511 34.776 90.0328 34.7533 90.3841 34.708C90.7468 34.6513 91.0528 34.555 91.3021 34.419C91.5288 34.283 91.6761 34.0847 91.7441 33.824C91.8121 33.552 91.8461 33.195 91.8461 32.753C91.8461 32.2203 91.8178 31.8463 91.7611 31.631C91.7045 31.4043 91.5685 31.24 91.3531 31.138C91.1491 31.036 90.7921 30.9623 90.2821 30.917L87.3921 30.594C86.6895 30.5147 86.1568 30.3503 85.7941 30.101C85.4428 29.8403 85.2048 29.506 85.0801 29.098C84.9668 28.6787 84.9101 28.1347 84.9101 27.466C84.9101 26.5367 85.0688 25.834 85.3861 25.358C85.7148 24.882 86.1681 24.5647 86.7461 24.406C87.3355 24.2473 88.1231 24.168 89.1091 24.168C89.7665 24.168 90.4351 24.1963 91.1151 24.253C91.7951 24.3097 92.3335 24.3777 92.7301 24.457V25.749C92.2995 25.681 91.7668 25.63 91.1321 25.596C90.4975 25.5507 89.9081 25.528 89.3641 25.528C88.7295 25.528 88.2195 25.5563 87.8341 25.613C87.4488 25.6697 87.1485 25.766 86.9331 25.902C86.6951 26.038 86.5421 26.2193 86.4741 26.446C86.4061 26.6727 86.3721 26.9957 86.3721 27.415C86.3721 27.8797 86.4061 28.2197 86.4741 28.435C86.5421 28.639 86.6725 28.792 86.8651 28.894C87.0578 28.9847 87.3751 29.0527 87.8171 29.098L90.6731 29.421C91.3531 29.489 91.8801 29.608 92.2541 29.778C92.6281 29.948 92.9001 30.254 93.0701 30.696C93.2288 31.104 93.3081 31.7557 93.3081 32.651C93.3081 33.6823 93.1495 34.453 92.8321 34.963C92.5148 35.4617 92.0898 35.7847 91.5571 35.932C91.0245 36.068 90.2935 36.136 89.3641 36.136ZM99.0185 36V25.715H95.3125V24.304H104.17V25.715H100.481V36H99.0185ZM113.481 36L112.274 32.889H107.004L105.797 36H104.318L108.738 24.304H110.574L114.994 36H113.481ZM109.673 25.885H109.588L107.446 31.512H111.815L109.673 25.885ZM124.745 36L122.926 31.41H122.637H118.965V36H117.503V24.304H122.875C123.804 24.304 124.507 24.4513 124.983 24.746C125.459 25.0407 125.771 25.4373 125.918 25.936C126.065 26.4347 126.139 27.075 126.139 27.857C126.139 28.6617 126.02 29.3643 125.782 29.965C125.544 30.5543 125.057 30.9567 124.32 31.172L126.309 36H124.745ZM122.263 30.05C122.988 30.05 123.521 29.9763 123.861 29.829C124.212 29.6703 124.433 29.4437 124.524 29.149C124.626 28.8543 124.677 28.4237 124.677 27.857C124.677 27.279 124.632 26.8427 124.541 26.548C124.45 26.2533 124.241 26.0323 123.912 25.885C123.595 25.7377 123.085 25.664 122.382 25.664H118.965V30.05H122.263ZM131.947 36V25.715H128.241V24.304H137.098V25.715H133.409V36H131.947ZM139.665 36V24.304H147.281V25.664H141.127V29.421H146.465V30.781H141.127V34.64H147.281V36H139.665ZM150.265 24.304H153.988C155.609 24.304 156.753 24.4513 157.422 24.746C158.091 25.0293 158.516 25.545 158.697 26.293C158.878 27.041 158.969 28.3273 158.969 30.152C158.969 31.9767 158.878 33.263 158.697 34.011C158.516 34.759 158.091 35.2803 157.422 35.575C156.753 35.8583 155.609 36 153.988 36H150.265V24.304ZM153.75 34.64C155.076 34.64 155.966 34.572 156.419 34.436C156.884 34.2887 157.184 33.9373 157.32 33.382C157.456 32.8153 157.524 31.7387 157.524 30.152C157.524 28.5767 157.45 27.5057 157.303 26.939C157.167 26.3723 156.867 26.021 156.402 25.885C155.949 25.7377 155.065 25.664 153.75 25.664H151.727V34.64H153.75ZM162.19 31.07C162.054 28.3727 161.986 26.6613 161.986 25.936V24.304H163.584V25.936C163.584 26.7633 163.527 28.231 163.414 30.339C163.402 30.781 163.385 31.2003 163.363 31.597C163.34 31.9823 163.329 32.311 163.329 32.583H162.258L162.19 31.07ZM161.986 36V34.266H163.584V36H161.986Z" fill="#D8E8FF"/>
</svg>
