<svg width="1716" height="633" viewBox="0 0 1716 633" fill="none" xmlns="http://www.w3.org/2000/svg">
<path d="M0.502539 313.324C0.51925 314.705 1.652 315.81 3.03261 315.793C4.41323 315.777 5.51888 314.644 5.50217 313.263L0.502539 313.324ZM9.43077 348.744C9.18727 347.385 7.88813 346.481 6.52906 346.724C5.16998 346.968 4.26564 348.267 4.50914 349.626L9.43077 348.744ZM4.70017 350.682C4.94837 352.04 6.25062 352.94 7.60884 352.692C8.96706 352.444 9.86692 351.141 9.61872 349.783L4.70017 350.682ZM18.0277 384.56C17.6294 383.238 16.2348 382.489 14.9128 382.888C13.5908 383.286 12.842 384.68 13.2403 386.003L18.0277 384.56ZM13.5505 387.026C13.9531 388.347 15.3501 389.091 16.6709 388.689C17.9916 388.286 18.7359 386.889 18.3333 385.568L13.5505 387.026ZM30.5874 419.062C30.0422 417.793 28.5719 417.207 27.3034 417.752C26.0349 418.297 25.4485 419.767 25.9937 421.036L30.5874 419.062ZM26.4051 421.989C26.9543 423.256 28.4265 423.837 29.6932 423.288C30.96 422.739 31.5417 421.267 30.9924 420L26.4051 421.989ZM47.0473 451.962C46.3584 450.766 44.8299 450.354 43.6334 451.043C42.4368 451.732 42.0253 453.261 42.7143 454.457L47.0473 451.962ZM43.2398 455.367C43.9327 456.561 45.4626 456.967 46.6568 456.274C47.8511 455.581 48.2575 454.052 47.5646 452.857L43.2398 455.367ZM67.2579 482.679C66.4313 481.573 64.8646 481.347 63.7587 482.173C62.6528 483 62.4263 484.567 63.2529 485.672L67.2579 482.679ZM63.8846 486.515C64.715 487.618 66.2823 487.839 67.3855 487.009C68.4886 486.178 68.7097 484.611 67.8794 483.508L63.8846 486.515ZM90.9748 510.725C90.0217 509.726 88.4392 509.689 87.4402 510.642C86.4413 511.595 86.4042 513.178 87.3574 514.177L90.9748 510.725ZM88.0833 514.935C89.0398 515.931 90.6224 515.962 91.6182 515.006C92.6139 514.049 92.6457 512.467 91.6892 511.471L88.0833 514.935ZM117.849 535.744C116.785 534.864 115.209 535.013 114.329 536.077C113.449 537.141 113.597 538.717 114.661 539.597L117.849 535.744ZM115.464 540.259C116.531 541.136 118.106 540.982 118.983 539.915C119.86 538.849 119.706 537.273 118.639 536.397L115.464 540.259ZM147.48 557.556C146.324 556.8 144.775 557.125 144.019 558.28C143.264 559.436 143.588 560.985 144.744 561.741L147.48 557.556ZM145.602 562.3C146.76 563.053 148.308 562.724 149.061 561.566C149.813 560.408 149.484 558.86 148.326 558.108L145.602 562.3ZM179.282 576.036C178.054 575.404 176.547 575.887 175.915 577.115C175.283 578.343 175.767 579.85 176.994 580.482L179.282 576.036ZM177.93 580.962C179.159 581.59 180.665 581.103 181.294 579.873C181.922 578.644 181.435 577.138 180.205 576.509L177.93 580.962ZM212.788 591.293C211.506 590.779 210.051 591.402 209.537 592.684C209.024 593.965 209.647 595.421 210.928 595.934L212.788 591.293ZM211.876 596.312C213.159 596.823 214.613 596.196 215.123 594.913C215.633 593.63 215.007 592.177 213.724 591.666L211.876 596.312ZM247.474 603.49C246.154 603.086 244.756 603.829 244.352 605.149C243.948 606.469 244.691 607.867 246.012 608.271L247.474 603.49ZM247.005 608.573C248.326 608.974 249.722 608.228 250.123 606.907C250.524 605.586 249.778 604.19 248.457 603.789L247.005 608.573ZM283.17 612.936C281.823 612.632 280.485 613.477 280.181 614.824C279.877 616.171 280.722 617.509 282.069 617.813L283.17 612.936ZM283.096 618.044C284.443 618.345 285.78 617.498 286.081 616.15C286.383 614.803 285.535 613.466 284.187 613.165L283.096 618.044ZM319.514 619.862C318.15 619.647 316.87 620.579 316.656 621.943C316.442 623.307 317.373 624.587 318.737 624.801L319.514 619.862ZM319.787 624.965C321.151 625.177 322.429 624.243 322.641 622.879C322.853 621.514 321.919 620.237 320.555 620.025L319.787 624.965ZM356.177 624.514C354.803 624.379 353.58 625.384 353.445 626.758C353.311 628.132 354.316 629.355 355.69 629.49L356.177 624.514ZM356.689 629.587C358.063 629.72 359.285 628.713 359.418 627.339C359.55 625.964 358.544 624.743 357.169 624.61L356.689 629.587ZM393.005 627.15C391.626 627.086 390.456 628.152 390.392 629.531C390.328 630.911 391.395 632.081 392.774 632.144L393.005 627.15ZM393.777 632.19C395.156 632.252 396.325 631.184 396.387 629.805C396.449 628.426 395.381 627.257 394.002 627.195L393.777 632.19ZM429.971 628C428.59 627.999 427.47 629.118 427.469 630.498C427.468 631.879 428.587 632.999 429.968 633L429.971 628ZM431.027 633C432.408 632.999 433.527 631.879 433.526 630.498C433.525 629.118 432.405 627.999 431.024 628L431.027 633ZM466.671 627.229C465.291 627.289 464.222 628.456 464.282 629.835C464.342 631.214 465.508 632.284 466.888 632.224L466.671 627.229ZM467.882 632.18C469.261 632.118 470.33 630.95 470.268 629.571C470.206 628.191 469.038 627.123 467.658 627.185L467.882 632.18ZM503.177 624.752C501.803 624.88 500.792 626.098 500.92 627.473C501.048 628.848 502.267 629.858 503.642 629.73L503.177 624.752ZM504.633 629.637C506.007 629.507 507.016 628.287 506.886 626.912C506.756 625.538 505.536 624.529 504.161 624.659L504.633 629.637ZM539.425 620.368C538.06 620.572 537.119 621.845 537.324 623.211C537.528 624.576 538.801 625.517 540.167 625.312L539.425 620.368ZM541.208 625.155C542.574 624.948 543.512 623.673 543.305 622.308C543.098 620.943 541.823 620.004 540.458 620.212L541.208 625.155ZM575.504 613.8C574.155 614.092 573.297 615.422 573.588 616.772C573.879 618.121 575.209 618.979 576.559 618.688L575.504 613.8ZM577.581 618.466C578.93 618.173 579.785 616.841 579.491 615.492C579.198 614.143 577.866 613.287 576.517 613.581L577.581 618.466ZM611.004 604.817C609.679 605.204 608.919 606.593 609.307 607.918C609.695 609.243 611.083 610.003 612.408 609.615L611.004 604.817ZM613.398 609.325C614.722 608.934 615.479 607.544 615.089 606.219C614.698 604.895 613.308 604.138 611.984 604.529L613.398 609.325ZM645.579 593.183C644.29 593.678 643.646 595.123 644.14 596.413C644.634 597.702 646.08 598.346 647.369 597.852L645.579 593.183ZM648.316 597.488C649.604 596.991 650.245 595.543 649.747 594.255C649.25 592.967 647.803 592.326 646.515 592.824L648.316 597.488ZM678.939 578.652C677.7 579.261 677.19 580.76 677.799 581.999C678.409 583.238 679.907 583.748 681.146 583.138L678.939 578.652ZM682.084 582.675C683.321 582.062 683.827 580.562 683.214 579.325C682.602 578.088 681.102 577.582 679.864 578.195L682.084 582.675ZM710.865 560.907C709.694 561.639 709.339 563.182 710.071 564.353C710.803 565.523 712.346 565.879 713.516 565.146L710.865 560.907ZM714.38 564.605C715.548 563.869 715.899 562.326 715.163 561.157C714.428 559.989 712.884 559.638 711.716 560.373L714.38 564.605ZM740.63 539.952C739.548 540.809 739.364 542.381 740.221 543.464C741.077 544.547 742.65 544.73 743.732 543.874L740.63 539.952ZM744.544 543.229C745.624 542.369 745.803 540.796 744.943 539.716C744.082 538.636 742.51 538.458 741.43 539.318L744.544 543.229ZM767.779 515.787C766.803 516.765 766.805 518.347 767.782 519.323C768.759 520.298 770.342 520.297 771.317 519.32L767.779 515.787ZM772.055 518.579C773.027 517.598 773.02 516.015 772.039 515.043C771.059 514.071 769.476 514.078 768.504 515.058L772.055 518.579ZM791.881 488.541C791.031 489.628 791.223 491.199 792.311 492.05C793.398 492.9 794.969 492.708 795.82 491.62L791.881 488.541ZM796.462 490.796C797.309 489.706 797.111 488.135 796.02 487.288C794.93 486.442 793.359 486.639 792.513 487.73L796.462 490.796ZM812.531 458.535C811.819 459.718 812.2 461.254 813.383 461.967C814.566 462.679 816.102 462.298 816.814 461.115L812.531 458.535ZM817.352 460.218C818.06 459.033 817.674 457.498 816.489 456.79C815.304 456.081 813.769 456.468 813.06 457.653L817.352 460.218ZM829.437 426.224C828.871 427.484 829.433 428.964 830.693 429.53C831.952 430.096 833.432 429.534 833.998 428.275L829.437 426.224ZM834.42 427.331C834.982 426.07 834.415 424.592 833.154 424.03C831.893 423.468 830.415 424.035 829.853 425.296L834.42 427.331ZM842.376 392.262C841.961 393.579 842.691 394.983 844.008 395.399C845.324 395.814 846.729 395.084 847.144 393.767L842.376 392.262ZM847.45 392.794C847.861 391.476 847.126 390.074 845.808 389.662C844.49 389.251 843.088 389.986 842.677 391.304L847.45 392.794ZM851.283 356.925C851.027 358.282 851.918 359.59 853.275 359.846C854.632 360.103 855.94 359.211 856.196 357.854L851.283 356.925ZM856.393 356.803C856.645 355.445 855.748 354.141 854.39 353.889C853.033 353.637 851.728 354.534 851.477 355.891L856.393 356.803ZM855.498 320.764C855.48 322.144 856.585 323.278 857.966 323.295C859.347 323.312 860.48 322.207 860.497 320.827L855.498 320.764ZM860.502 320.237C860.519 318.856 859.413 317.723 858.033 317.707C856.652 317.69 855.519 318.795 855.503 320.176L860.502 320.237ZM859.509 283.874C859.266 285.233 860.17 286.532 861.529 286.776C862.888 287.019 864.187 286.115 864.431 284.756L859.509 283.874ZM864.619 283.717C864.867 282.359 863.967 281.056 862.609 280.808C861.251 280.56 859.948 281.46 859.7 282.818L864.619 283.717ZM868.24 247.497C867.842 248.82 868.591 250.214 869.913 250.612C871.235 251.011 872.629 250.262 873.028 248.94L868.24 247.497ZM873.333 247.932C873.736 246.611 872.992 245.214 871.671 244.811C870.35 244.409 868.953 245.153 868.551 246.474L873.333 247.932ZM880.994 212.464C880.448 213.733 881.035 215.203 882.303 215.748C883.572 216.293 885.042 215.707 885.587 214.438L880.994 212.464ZM885.992 213.5C886.542 212.233 885.96 210.761 884.693 210.212C883.426 209.663 881.954 210.244 881.405 211.511L885.992 213.5ZM897.714 179.043C897.025 180.239 897.437 181.768 898.633 182.457C899.83 183.146 901.358 182.734 902.047 181.538L897.714 179.043ZM902.565 180.643C903.257 179.448 902.851 177.919 901.657 177.226C900.463 176.533 898.933 176.939 898.24 178.133L902.565 180.643ZM918.253 147.828C917.426 148.933 917.653 150.5 918.759 151.327C919.865 152.153 921.431 151.927 922.258 150.821L918.253 147.828ZM922.879 149.992C923.71 148.889 923.489 147.322 922.385 146.491C921.282 145.661 919.715 145.882 918.885 146.985L922.879 149.992ZM942.357 119.323C941.404 120.322 941.441 121.905 942.44 122.858C943.439 123.811 945.022 123.774 945.975 122.775L942.357 119.323ZM946.689 122.029C947.646 121.033 947.614 119.451 946.618 118.494C945.622 117.538 944.04 117.569 943.083 118.565L946.689 122.029ZM969.661 93.9032C968.597 94.7834 968.449 96.3592 969.329 97.423C970.209 98.4869 971.785 98.6357 972.849 97.7555L969.661 93.9032ZM973.639 97.1034C974.706 96.2267 974.86 94.6513 973.983 93.5847C973.106 92.518 971.531 92.3641 970.464 93.2409L973.639 97.1034ZM999.744 71.7591C998.588 72.5147 998.264 74.064 999.019 75.2196C999.775 76.3752 1001.32 76.6995 1002.48 75.9439L999.744 71.7591ZM1003.33 75.3925C1004.48 74.6403 1004.81 73.0919 1004.06 71.9341C1003.31 70.7762 1001.76 70.4474 1000.6 71.1995L1003.33 75.3925ZM1031.99 53.0181C1030.77 53.6499 1030.28 55.1572 1030.92 56.3849C1031.55 57.6126 1033.05 58.0958 1034.28 57.464L1031.99 53.0181ZM1035.21 56.9906C1036.43 56.3622 1036.92 54.8562 1036.29 53.6268C1035.67 52.3973 1034.16 51.91 1032.93 52.5383L1035.21 56.9906ZM1065.93 37.5659C1064.65 38.0793 1064.02 39.5345 1064.54 40.8162C1065.05 42.0979 1066.51 42.7207 1067.79 42.2073L1065.93 37.5659ZM1068.72 41.8336C1070.01 41.3233 1070.63 39.8695 1070.12 38.5866C1069.61 37.3036 1068.16 36.6773 1066.88 37.1876L1068.72 41.8336ZM1101.01 25.2292C1099.69 25.6331 1098.95 27.0309 1099.35 28.3512C1099.76 29.6715 1101.15 30.4144 1102.47 30.0104L1101.01 25.2292ZM1103.46 29.711C1104.78 29.31 1105.52 27.9139 1105.12 26.5927C1104.72 25.2715 1103.33 24.5255 1102 24.9266L1103.46 29.711ZM1137.07 15.6868C1135.72 15.9909 1134.88 17.3292 1135.18 18.676C1135.49 20.0228 1136.82 20.8681 1138.17 20.564L1137.07 15.6868ZM1139.19 20.3354C1140.53 20.0339 1141.38 18.6973 1141.08 17.3499C1140.78 16.0025 1139.44 15.1545 1138.1 15.456L1139.19 20.3354ZM1173.74 8.69884C1172.37 8.91328 1171.44 10.1928 1171.66 11.5568C1171.87 12.9207 1173.15 13.8526 1174.51 13.6382L1173.74 8.69884ZM1175.55 13.4755C1176.92 13.2634 1177.85 11.9855 1177.64 10.6212C1177.43 9.25688 1176.15 8.32275 1174.79 8.53477L1175.55 13.4755ZM1210.69 4.01018C1209.32 4.14484 1208.31 5.36796 1208.45 6.74209C1208.58 8.11622 1209.8 9.121 1211.18 8.98634L1210.69 4.01018ZM1212.17 8.88986C1213.54 8.75722 1214.55 7.53558 1214.42 6.16126C1214.28 4.78693 1213.06 3.78035 1211.69 3.91299L1212.17 8.88986ZM1247.77 1.35561C1246.39 1.41947 1245.33 2.58933 1245.39 3.96857C1245.46 5.3478 1246.63 6.41412 1248.01 6.35026L1247.77 1.35561ZM1249 6.30476C1250.38 6.2427 1251.45 5.07423 1251.39 3.69491C1251.32 2.31559 1250.16 1.24775 1248.78 1.30982L1249 6.30476ZM1284.97 0.500164C1283.59 0.501013 1282.47 1.62099 1282.47 3.0017C1282.47 4.38241 1283.59 5.50101 1284.97 5.50016L1284.97 0.500164ZM1286.02 5.50016C1287.41 5.50098 1288.53 4.38236 1288.53 3.00164C1288.53 1.62093 1287.41 0.500979 1286.03 0.500157L1286.02 5.50016ZM1321.89 1.2761C1320.51 1.21608 1319.34 2.28565 1319.28 3.66506C1319.22 5.04446 1320.29 6.21135 1321.67 6.27137L1321.89 1.2761ZM1322.66 6.31498C1324.04 6.37674 1325.21 5.30864 1325.27 3.92931C1325.33 2.54998 1324.26 1.38174 1322.88 1.31998L1322.66 6.31498ZM1358.64 3.76987C1357.27 3.64164 1356.05 4.65214 1355.92 6.02689C1355.79 7.40163 1356.8 8.62003 1358.18 8.74826L1358.64 3.76987ZM1359.16 8.84076C1360.54 8.97095 1361.76 7.96218 1361.89 6.58762C1362.02 5.21306 1361.01 3.99322 1359.63 3.86304L1359.16 8.84076ZM1395.17 8.18781C1393.8 7.983 1392.53 8.92387 1392.32 10.2893C1392.12 11.6547 1393.06 12.9277 1394.43 13.1325L1395.17 8.18781ZM1395.46 13.2884C1396.82 13.4955 1398.1 12.5568 1398.31 11.1917C1398.51 9.82665 1397.57 8.55211 1396.21 8.34497L1395.46 13.2884ZM1431.56 14.812C1430.21 14.5208 1428.88 15.3788 1428.59 16.7284C1428.3 18.078 1429.15 19.4082 1430.5 19.6995L1431.56 14.812ZM1431.52 19.919C1432.87 20.2128 1434.2 19.3574 1434.49 18.0083C1434.79 16.6592 1433.93 15.3274 1432.58 15.0335L1431.52 19.919ZM1467.41 23.8846C1466.08 23.4968 1464.69 24.2567 1464.31 25.5818C1463.92 26.907 1464.68 28.2956 1466 28.6834L1467.41 23.8846ZM1466.98 28.9712C1468.31 29.3618 1469.7 28.605 1470.09 27.2807C1470.48 25.9564 1469.72 24.5661 1468.4 24.1755L1466.98 28.9712ZM1502.37 35.6478C1501.08 35.1536 1499.63 35.7981 1499.14 37.0873C1498.65 38.3766 1499.29 39.8223 1500.58 40.3165L1502.37 35.6478ZM1501.51 40.6765C1502.8 41.1737 1504.25 40.5327 1504.75 39.2446C1505.24 37.9566 1504.6 36.5093 1503.32 36.012L1501.51 40.6765ZM1536.15 50.3619C1534.91 49.7523 1533.41 50.2624 1532.8 51.5013C1532.19 52.7401 1532.7 54.2386 1533.94 54.8482L1536.15 50.3619ZM1534.86 55.3054C1536.1 55.9184 1537.6 55.4124 1538.21 54.1752C1538.83 52.938 1538.32 51.4382 1537.08 50.8252L1534.86 55.3054ZM1568.52 68.3536C1567.35 67.6214 1565.8 67.9768 1565.07 69.1475C1564.34 70.3181 1564.69 71.8606 1565.86 72.5927L1568.52 68.3536ZM1566.72 73.1267C1567.88 73.8623 1569.43 73.5114 1570.16 72.3429C1570.9 71.1745 1570.55 69.6309 1569.38 68.8954L1566.72 73.1267ZM1598.73 89.6265C1597.65 88.7699 1596.08 88.9533 1595.22 90.0362C1594.36 91.119 1594.55 92.6913 1595.63 93.5479L1598.73 89.6265ZM1596.43 94.1821C1597.51 95.0422 1599.08 94.8638 1599.94 93.7837C1600.8 92.7035 1600.62 91.1307 1599.54 90.2706L1596.43 94.1821ZM1626.32 114.18C1625.34 113.203 1623.76 113.202 1622.78 114.177C1621.8 115.153 1621.8 116.735 1622.78 117.713L1626.32 114.18ZM1623.5 118.442C1624.48 119.422 1626.06 119.429 1627.04 118.457C1628.02 117.485 1628.03 115.902 1627.05 114.921L1623.5 118.442ZM1650.82 141.88C1649.97 140.792 1648.4 140.6 1647.31 141.45C1646.22 142.301 1646.03 143.872 1646.88 144.959L1650.82 141.88ZM1647.51 145.77C1648.36 146.861 1649.93 147.058 1651.02 146.212C1652.11 145.365 1652.31 143.794 1651.46 142.704L1647.51 145.77ZM1671.81 172.385C1671.1 171.202 1669.57 170.821 1668.38 171.533C1667.2 172.246 1666.82 173.782 1667.53 174.965L1671.81 172.385ZM1668.06 175.847C1668.77 177.032 1670.3 177.419 1671.49 176.71C1672.67 176.002 1673.06 174.467 1672.35 173.282L1668.06 175.847ZM1689 205.225C1688.43 203.966 1686.95 203.404 1685.69 203.97C1684.43 204.536 1683.87 206.016 1684.44 207.276L1689 205.225ZM1684.85 208.204C1685.41 209.465 1686.89 210.032 1688.15 209.47C1689.42 208.908 1689.98 207.43 1689.42 206.169L1684.85 208.204ZM1702.14 239.733C1701.73 238.416 1700.32 237.686 1699.01 238.101C1697.69 238.517 1696.96 239.921 1697.38 241.238L1702.14 239.733ZM1697.68 242.196C1698.09 243.514 1699.49 244.249 1700.81 243.838C1702.13 243.426 1702.86 242.024 1702.45 240.706L1697.68 242.196ZM1711.2 275.646C1710.94 274.289 1709.63 273.397 1708.28 273.654C1706.92 273.91 1706.03 275.218 1706.28 276.575L1711.2 275.646ZM1706.48 277.609C1706.73 278.966 1708.03 279.863 1709.39 279.611C1710.75 279.359 1711.64 278.055 1711.39 276.697L1706.48 277.609ZM1715.5 312.673C1715.48 311.293 1714.35 310.188 1712.97 310.205C1711.59 310.222 1710.48 311.356 1710.5 312.736L1715.5 312.673ZM3 313C0.5 313 0.5 313 0.5 313C0.5 313 0.5 313 0.5 313C0.5 313 0.5 313 0.5 313C0.5 313 0.5 313 0.5 313.001C0.5 313.001 0.5 313.001 0.5 313.001C0.5 313.002 0.500001 313.002 0.500001 313.003C0.500002 313.004 0.500004 313.006 0.500007 313.008C0.500014 313.013 0.500026 313.019 0.500048 313.026C0.500092 313.041 0.500177 313.062 0.500339 313.089C0.500664 313.143 0.501299 313.221 0.502539 313.324L5.50217 313.263C5.50106 313.171 5.50051 313.103 5.50025 313.059C5.50012 313.037 5.50006 313.021 5.50003 313.011C5.50001 313.006 5.5 313.003 5.5 313.001C5.5 313 5.5 312.999 5.5 312.999C5.5 312.999 5.5 312.999 5.5 312.999C5.5 312.999 5.5 313 5.5 313C5.5 313 5.5 313 5.5 313C5.5 313 5.5 313 5.5 313C5.5 313 5.5 313 5.5 313C5.5 313 5.5 313 3 313ZM4.50914 349.626C4.57183 349.976 4.6355 350.328 4.70017 350.682L9.61872 349.783C9.55509 349.435 9.49245 349.089 9.43077 348.744L4.50914 349.626ZM13.2403 386.003C13.3429 386.343 13.4463 386.684 13.5505 387.026L18.3333 385.568C18.2306 385.231 18.1288 384.895 18.0277 384.56L13.2403 386.003ZM25.9937 421.036C26.1301 421.353 26.2672 421.671 26.4051 421.989L30.9924 420C30.8567 419.687 30.7217 419.374 30.5874 419.062L25.9937 421.036ZM42.7143 454.457C42.8887 454.76 43.0639 455.063 43.2398 455.367L47.5646 452.857C47.3915 452.559 47.219 452.261 47.0473 451.962L42.7143 454.457ZM63.2529 485.672C63.4628 485.953 63.6733 486.234 63.8846 486.515L67.8794 483.508C67.6715 483.231 67.4643 482.955 67.2579 482.679L63.2529 485.672ZM87.3574 514.177C87.5987 514.429 87.8407 514.682 88.0833 514.935L91.6892 511.471C91.4504 511.222 91.2123 510.974 90.9748 510.725L87.3574 514.177ZM114.661 539.597C114.928 539.818 115.196 540.039 115.464 540.259L118.639 536.397C118.375 536.179 118.112 535.962 117.849 535.744L114.661 539.597ZM144.744 561.741C145.029 561.928 145.315 562.114 145.602 562.3L148.326 558.108C148.043 557.924 147.761 557.74 147.48 557.556L144.744 561.741ZM176.994 580.482C177.306 580.642 177.617 580.802 177.93 580.962L180.205 576.509C179.897 576.352 179.589 576.194 179.282 576.036L176.994 580.482ZM210.928 595.934C211.244 596.06 211.56 596.187 211.876 596.312L213.724 591.666C213.411 591.542 213.099 591.418 212.788 591.293L210.928 595.934ZM246.012 608.271C246.342 608.372 246.673 608.473 247.005 608.573L248.457 603.789C248.129 603.689 247.801 603.59 247.474 603.49L246.012 608.271ZM282.069 617.813C282.411 617.89 282.753 617.967 283.096 618.044L284.187 613.165C283.848 613.089 283.509 613.012 283.17 612.936L282.069 617.813ZM318.737 624.801C319.087 624.856 319.437 624.911 319.787 624.965L320.555 620.025C320.207 619.971 319.86 619.916 319.514 619.862L318.737 624.801ZM355.69 629.49C356.022 629.522 356.356 629.555 356.689 629.587L357.169 624.61C356.838 624.578 356.508 624.546 356.177 624.514L355.69 629.49ZM392.774 632.144C393.108 632.16 393.442 632.175 393.777 632.19L394.002 627.195C393.669 627.18 393.337 627.165 393.005 627.15L392.774 632.144ZM429.968 633C430.145 633 430.323 633 430.5 633V628C430.324 628 430.147 628 429.971 628L429.968 633ZM430.5 633C430.676 633 430.852 633 431.027 633L431.024 628C430.85 628 430.675 628 430.5 628V633ZM466.888 632.224C467.22 632.209 467.551 632.195 467.882 632.18L467.658 627.185C467.329 627.2 467 627.214 466.671 627.229L466.888 632.224ZM503.642 629.73C503.972 629.699 504.303 629.668 504.633 629.637L504.161 624.659C503.834 624.69 503.506 624.721 503.177 624.752L503.642 629.73ZM540.167 625.312C540.514 625.26 540.862 625.208 541.208 625.155L540.458 620.212C540.114 620.264 539.77 620.316 539.425 620.368L540.167 625.312ZM576.559 618.688C576.9 618.614 577.241 618.541 577.581 618.466L576.517 613.581C576.18 613.654 575.842 613.728 575.504 613.8L576.559 618.688ZM612.408 609.615C612.739 609.519 613.069 609.422 613.398 609.325L611.984 604.529C611.657 604.625 611.331 604.721 611.004 604.817L612.408 609.615ZM647.369 597.852C647.685 597.731 648.001 597.61 648.316 597.488L646.515 592.824C646.203 592.944 645.892 593.064 645.579 593.183L647.369 597.852ZM681.146 583.138C681.459 582.984 681.772 582.83 682.084 582.675L679.864 578.195C679.556 578.347 679.248 578.5 678.939 578.652L681.146 583.138ZM713.516 565.146C713.805 564.966 714.092 564.785 714.38 564.605L711.716 560.373C711.433 560.552 711.149 560.73 710.865 560.907L713.516 565.146ZM743.732 543.874C744.004 543.659 744.274 543.444 744.544 543.229L741.43 539.318C741.164 539.53 740.897 539.741 740.63 539.952L743.732 543.874ZM771.317 519.32C771.564 519.073 771.81 518.826 772.055 518.579L768.504 515.058C768.263 515.302 768.021 515.545 767.779 515.787L771.317 519.32ZM795.82 491.62C796.035 491.346 796.249 491.071 796.462 490.796L792.513 487.73C792.303 488 792.092 488.27 791.881 488.541L795.82 491.62ZM816.814 461.115C816.994 460.816 817.174 460.517 817.352 460.218L813.06 457.653C812.885 457.947 812.708 458.241 812.531 458.535L816.814 461.115ZM833.998 428.275C834.139 427.96 834.28 427.646 834.42 427.331L829.853 425.296C829.715 425.605 829.577 425.915 829.437 426.224L833.998 428.275ZM847.144 393.767C847.247 393.442 847.349 393.117 847.45 392.794L842.677 391.304C842.577 391.623 842.477 391.942 842.376 392.262L847.144 393.767ZM856.196 357.854C856.263 357.502 856.328 357.151 856.393 356.803L851.477 355.891C851.413 356.234 851.349 356.579 851.283 356.925L856.196 357.854ZM860.497 320.827C860.499 320.723 860.499 320.644 860.5 320.59C860.5 320.563 860.5 320.541 860.5 320.526C860.5 320.519 860.5 320.513 860.5 320.509C860.5 320.506 860.5 320.505 860.5 320.503C860.5 320.502 860.5 320.502 860.5 320.501C860.5 320.501 860.5 320.501 860.5 320.501C860.5 320.5 860.5 320.5 860.5 320.5C860.5 320.5 860.5 320.5 860.5 320.5C860.5 320.5 860.5 320.5 860.5 320.5C860.5 320.5 860.5 320.5 858 320.5C855.5 320.5 855.5 320.5 855.5 320.5C855.5 320.5 855.5 320.5 855.5 320.5C855.5 320.5 855.5 320.5 855.5 320.5C855.5 320.5 855.5 320.5 855.5 320.5C855.5 320.499 855.5 320.499 855.5 320.499C855.5 320.499 855.5 320.499 855.5 320.499C855.5 320.499 855.5 320.5 855.5 320.501C855.5 320.503 855.5 320.506 855.5 320.511C855.5 320.521 855.5 320.537 855.5 320.559C855.499 320.603 855.499 320.671 855.498 320.764L860.497 320.827ZM858 320.5C860.5 320.5 860.5 320.5 860.5 320.5C860.5 320.5 860.5 320.5 860.5 320.5C860.5 320.5 860.5 320.5 860.5 320.5C860.5 320.5 860.5 320.5 860.5 320.5C860.5 320.5 860.5 320.501 860.5 320.501C860.5 320.501 860.5 320.501 860.5 320.501C860.5 320.501 860.5 320.5 860.5 320.499C860.5 320.497 860.5 320.494 860.5 320.489C860.5 320.479 860.5 320.463 860.5 320.441C860.501 320.397 860.501 320.329 860.502 320.237L855.503 320.176C855.501 320.279 855.501 320.357 855.5 320.411C855.5 320.438 855.5 320.459 855.5 320.474C855.5 320.481 855.5 320.487 855.5 320.492C855.5 320.494 855.5 320.496 855.5 320.497C855.5 320.498 855.5 320.498 855.5 320.499C855.5 320.499 855.5 320.499 855.5 320.499C855.5 320.5 855.5 320.5 855.5 320.5C855.5 320.5 855.5 320.5 855.5 320.5C855.5 320.5 855.5 320.5 855.5 320.5C855.5 320.5 855.5 320.5 858 320.5ZM864.431 284.756C864.492 284.411 864.555 284.065 864.619 283.717L859.7 282.818C859.636 283.172 859.572 283.524 859.509 283.874L864.431 284.756ZM873.028 248.94C873.129 248.605 873.231 248.269 873.333 247.932L868.551 246.474C868.446 246.816 868.343 247.157 868.24 247.497L873.028 248.94ZM885.587 214.438C885.722 214.126 885.857 213.813 885.992 213.5L881.405 211.511C881.267 211.829 881.13 212.147 880.994 212.464L885.587 214.438ZM902.047 181.538C902.219 181.239 902.391 180.941 902.565 180.643L898.24 178.133C898.064 178.437 897.889 178.74 897.714 179.043L902.047 181.538ZM922.258 150.821C922.464 150.545 922.672 150.269 922.879 149.992L918.885 146.985C918.673 147.266 918.463 147.547 918.253 147.828L922.258 150.821ZM945.975 122.775C946.212 122.526 946.45 122.278 946.689 122.029L943.083 118.565C942.841 118.818 942.599 119.071 942.357 119.323L945.975 122.775ZM972.849 97.7555C973.112 97.538 973.375 97.3206 973.639 97.1034L970.464 93.2409C970.196 93.4614 969.928 93.6822 969.661 93.9032L972.849 97.7555ZM1002.48 75.9439C1002.76 75.7599 1003.04 75.576 1003.33 75.3925L1000.6 71.1995C1000.32 71.3858 1000.03 71.5723 999.744 71.7591L1002.48 75.9439ZM1034.28 57.464C1034.59 57.3059 1034.9 57.1481 1035.21 56.9906L1032.93 52.5383C1032.62 52.698 1032.31 52.8579 1031.99 53.0181L1034.28 57.464ZM1067.79 42.2073C1068.1 42.0825 1068.41 41.9579 1068.72 41.8336L1066.88 37.1876C1066.56 37.3134 1066.24 37.4395 1065.93 37.5659L1067.79 42.2073ZM1102.47 30.0104C1102.8 29.9104 1103.13 29.8106 1103.46 29.711L1102 24.9266C1101.67 25.0272 1101.34 25.128 1101.01 25.2292L1102.47 30.0104ZM1138.17 20.564C1138.51 20.4875 1138.85 20.4113 1139.19 20.3354L1138.1 15.456C1137.75 15.5326 1137.41 15.6096 1137.07 15.6868L1138.17 20.564ZM1174.51 13.6382C1174.86 13.5837 1175.21 13.5294 1175.55 13.4755L1174.79 8.53477C1174.44 8.58921 1174.09 8.6439 1173.74 8.69884L1174.51 13.6382ZM1211.18 8.98634C1211.51 8.95397 1211.84 8.92181 1212.17 8.88986L1211.69 3.91299C1211.36 3.94517 1211.02 3.97756 1210.69 4.01018L1211.18 8.98634ZM1248.01 6.35026C1248.34 6.33489 1248.67 6.31972 1249 6.30476L1248.78 1.30982C1248.44 1.32487 1248.11 1.34014 1247.77 1.35561L1248.01 6.35026ZM1284.97 5.50016C1285.15 5.50005 1285.32 5.5 1285.5 5.5V0.5C1285.32 0.5 1285.15 0.500055 1284.97 0.500164L1284.97 5.50016ZM1285.5 5.5C1285.67 5.5 1285.85 5.50005 1286.02 5.50016L1286.03 0.500157C1285.85 0.500052 1285.68 0.5 1285.5 0.5V5.5ZM1321.67 6.27137C1322 6.28571 1322.33 6.30025 1322.66 6.31498L1322.88 1.31998C1322.55 1.30516 1322.22 1.29053 1321.89 1.2761L1321.67 6.27137ZM1358.18 8.74826C1358.51 8.77889 1358.83 8.80972 1359.16 8.84076L1359.63 3.86304C1359.3 3.83177 1358.97 3.80072 1358.64 3.76987L1358.18 8.74826ZM1394.43 13.1325C1394.77 13.1842 1395.11 13.2362 1395.46 13.2884L1396.21 8.34497C1395.86 8.29234 1395.51 8.23995 1395.17 8.18781L1394.43 13.1325ZM1430.5 19.6995C1430.84 19.7724 1431.18 19.8456 1431.52 19.919L1432.58 15.0335C1432.24 14.9594 1431.9 14.8856 1431.56 14.812L1430.5 19.6995ZM1466 28.6834C1466.33 28.7791 1466.66 28.875 1466.98 28.9712L1468.4 24.1755C1468.07 24.0783 1467.74 23.9813 1467.41 23.8846L1466 28.6834ZM1500.58 40.3165C1500.89 40.4363 1501.2 40.5562 1501.51 40.6765L1503.32 36.012C1503 35.8904 1502.68 35.769 1502.37 35.6478L1500.58 40.3165ZM1533.94 54.8482C1534.25 55.0003 1534.56 55.1528 1534.86 55.3054L1537.08 50.8252C1536.77 50.6705 1536.46 50.5161 1536.15 50.3619L1533.94 54.8482ZM1565.86 72.5927C1566.15 72.7705 1566.43 72.9485 1566.72 73.1267L1569.38 68.8954C1569.09 68.7145 1568.8 68.5339 1568.52 68.3536L1565.86 72.5927ZM1595.63 93.5479C1595.9 93.7591 1596.16 93.9705 1596.43 94.1821L1599.54 90.2706C1599.27 90.0557 1599 89.841 1598.73 89.6265L1595.63 93.5479ZM1622.78 117.713C1623.02 117.955 1623.26 118.198 1623.5 118.442L1627.05 114.921C1626.81 114.674 1626.56 114.427 1626.32 114.18L1622.78 117.713ZM1646.88 144.959C1647.09 145.23 1647.3 145.5 1647.51 145.77L1651.46 142.704C1651.25 142.429 1651.03 142.154 1650.82 141.88L1646.88 144.959ZM1667.53 174.965C1667.71 175.259 1667.88 175.553 1668.06 175.847L1672.35 173.282C1672.17 172.983 1671.99 172.684 1671.81 172.385L1667.53 174.965ZM1684.44 207.276C1684.58 207.585 1684.72 207.895 1684.85 208.204L1689.42 206.169C1689.28 205.854 1689.14 205.54 1689 205.225L1684.44 207.276ZM1697.38 241.238C1697.48 241.558 1697.58 241.877 1697.68 242.196L1702.45 240.706C1702.35 240.383 1702.25 240.058 1702.14 239.733L1697.38 241.238ZM1706.28 276.575C1706.35 276.921 1706.41 277.266 1706.48 277.609L1711.39 276.697C1711.33 276.349 1711.26 275.998 1711.2 275.646L1706.28 276.575ZM1710.5 312.736C1710.5 312.829 1710.5 312.897 1710.5 312.941C1710.5 312.963 1710.5 312.979 1710.5 312.989C1710.5 312.994 1710.5 312.997 1710.5 312.999C1710.5 313 1710.5 313.001 1710.5 313.001C1710.5 313.001 1710.5 313.001 1710.5 313.001C1710.5 313.001 1710.5 313.001 1710.5 313C1710.5 313 1710.5 313 1710.5 313C1710.5 313 1710.5 313 1710.5 313C1710.5 313 1710.5 313 1710.5 313C1710.5 313 1710.5 313 1713 313C1715.5 313 1715.5 313 1715.5 313C1715.5 313 1715.5 313 1715.5 313C1715.5 313 1715.5 313 1715.5 313C1715.5 313 1715.5 313 1715.5 312.999C1715.5 312.999 1715.5 312.999 1715.5 312.999C1715.5 312.998 1715.5 312.998 1715.5 312.997C1715.5 312.995 1715.5 312.994 1715.5 312.991C1715.5 312.987 1715.5 312.981 1715.5 312.974C1715.5 312.959 1715.5 312.937 1715.5 312.91C1715.5 312.856 1715.5 312.777 1715.5 312.673L1710.5 312.736Z" fill="#D8E8FF"/>
</svg>
