<svg width="93" height="100" viewBox="0 0 93 100" fill="none" xmlns="http://www.w3.org/2000/svg">
<g filter="url(#filter0_d)">
<path d="M37.8867 46.1934C34.8334 46.1934 32.3496 48.6772 32.3496 51.7305C32.3496 54.7838 34.8334 57.2676 37.8867 57.2676C40.94 57.2676 43.4238 54.7838 43.4238 51.7305C43.4238 48.6772 40.94 46.1934 37.8867 46.1934ZM37.8867 53.5762C36.869 53.5762 36.041 52.7483 36.041 51.7305C36.041 50.7126 36.869 49.8848 37.8867 49.8848C38.9044 49.8848 39.7324 50.7126 39.7324 51.7305C39.7324 52.7483 38.9044 53.5762 37.8867 53.5762Z" fill="url(#paint0_linear)"/>
<path d="M45.2695 60.959C46.2889 60.959 47.1152 60.1326 47.1152 59.1133C47.1152 58.0939 46.2889 57.2676 45.2695 57.2676C44.2502 57.2676 43.4238 58.0939 43.4238 59.1133C43.4238 60.1326 44.2502 60.959 45.2695 60.959Z" fill="url(#paint1_linear)"/>
<path d="M25.582 53.5762C26.6014 53.5762 27.4277 52.7498 27.4277 51.7305C27.4277 50.7111 26.6014 49.8848 25.582 49.8848C24.5627 49.8848 23.7363 50.7111 23.7363 51.7305C23.7363 52.7498 24.5627 53.5762 25.582 53.5762Z" fill="url(#paint2_linear)"/>
<path d="M68.7739 28.2261C62.8243 22.2766 54.9139 19 46.5 19C38.0861 19 30.1757 22.2766 24.2261 28.2261C18.2766 34.1757 15 42.0861 15 50.5C15 58.9139 18.2766 66.8243 24.2261 72.7739C30.1757 78.7234 38.0861 82 46.5 82C54.9139 82 62.8243 78.7234 68.7739 72.7739C74.7234 66.8243 78 58.9139 78 50.5C78 42.0861 74.7234 34.1757 68.7739 28.2261ZM74.2877 49.4726C71.2234 50.7201 65.4669 52.3611 56.3847 52.3611C53.816 52.3611 52.4314 51.8472 51.7221 51.4162C51.1052 51.0412 50.7924 50.6061 50.7924 50.1227C50.7924 48.2598 54.7257 44.932 62.5627 44.932C67.3577 44.932 70.6333 43.3643 72.8245 41.5325C73.6806 44.0384 74.1865 46.7047 74.2877 49.4726ZM46.5 22.6914C50.3711 22.6914 54.0595 23.4875 57.4114 24.9229C55.2059 26.3055 52.8342 26.7899 50.3325 26.3628C47.5358 25.8857 44.5757 26.5131 41.9976 28.1302C38.0862 30.5836 32.609 32.7277 27.6818 30.0452C32.6375 25.4825 39.2486 22.6914 46.5 22.6914ZM25.0753 32.7908C27.3631 34.2478 29.9054 34.9768 32.6208 34.9768C36.1675 34.9767 40.0088 33.7354 43.9591 31.2573C45.7674 30.1228 47.8097 29.6769 49.7113 30.0015C53.775 30.6956 57.6765 29.5983 61.0722 26.825C62.8729 27.9375 64.5378 29.2492 66.0359 30.7298C63.2831 33.1116 59.303 35.2539 54.3476 34.3751C50.6811 33.7251 46.9692 34.5122 43.8967 36.592C39.7649 39.389 32.4025 42.291 20.4397 40.7954C21.5358 37.862 23.1125 35.1612 25.0753 32.7908ZM46.5 78.3086C40.8956 78.3086 35.6742 76.6406 31.3032 73.7771C35.3059 72.8029 40.0931 74.0935 42.2619 74.8114C43.216 75.1271 44.2025 75.285 45.1756 75.285C46.1578 75.285 47.1261 75.124 48.0324 74.8026C52.5528 73.1986 57.3968 73.4761 61.1076 74.1529C56.8596 76.7859 51.8546 78.3086 46.5 78.3086ZM64.9944 71.2477C60.7621 70.1137 53.5587 68.9247 46.7978 71.3236C45.763 71.6908 44.5639 71.6851 43.4216 71.3069C39.752 70.0923 33.0934 68.5634 27.8466 71.1067C25.0519 68.5746 22.7734 65.4834 21.1882 62.0115C28.7745 60.2133 33.3831 63.8706 33.4221 63.9047C34.3848 64.8059 36.4751 66.4475 39.6563 67.3148C41.0768 67.7022 42.548 67.8956 44.064 67.8956C46.6313 67.8956 49.327 67.3409 52.1219 66.2341C60.5379 62.9014 67.226 62.5614 71.3973 62.8767C69.8077 66.0615 67.6252 68.9002 64.9944 71.2477ZM72.8781 59.3082C68.4201 58.8124 60.6386 58.8912 50.763 62.802C42.4435 66.0966 37.6287 62.786 35.9447 61.2098C35.3191 60.6242 33.3582 59.3036 30.4146 58.4969C27.1009 57.589 23.4908 57.6068 19.8767 58.5354C19.1071 55.9903 18.6914 53.2929 18.6914 50.5C18.6914 48.3975 18.9274 46.3493 19.3716 44.379C22.0052 44.7346 24.4456 44.8932 26.7025 44.8931C35.9762 44.893 42.1585 42.2261 45.966 39.6489C48.239 38.1102 50.9864 37.5279 53.7032 38.0098C60.0841 39.1411 65.0859 36.454 68.4864 33.4936C69.5536 34.8702 70.4953 36.3486 71.2926 37.9127C69.698 39.5822 66.9984 41.2406 62.5628 41.2406C52.8845 41.2406 47.1011 45.7567 47.1011 50.1227C47.1011 51.9313 48.0613 53.5108 49.8049 54.5705C51.4227 55.5538 53.6366 56.0524 56.3848 56.0524C64.5543 56.0524 70.3053 54.8198 74.1495 53.4735C73.934 55.4902 73.5025 57.4429 72.8781 59.3082Z" fill="url(#paint3_linear)"/>
</g>
<circle opacity="0.3" cx="46.5" cy="50.5" r="40" stroke="#D8E8FF"/>
<path opacity="0.5" d="M72 20L92 1L93 0.999992L73 20.5L72 20Z" fill="#D8E8FF"/>
<path opacity="0.5" d="M23 0H93V1H23V0Z" fill="#D8E8FF"/>
<defs>
<filter id="filter0_d" x="0" y="7" width="93" height="93" filterUnits="userSpaceOnUse" color-interpolation-filters="sRGB">
<feFlood flood-opacity="0" result="BackgroundImageFix"/>
<feColorMatrix in="SourceAlpha" type="matrix" values="0 0 0 0 0 0 0 0 0 0 0 0 0 0 0 0 0 0 127 0"/>
<feOffset dy="3"/>
<feGaussianBlur stdDeviation="7.5"/>
<feColorMatrix type="matrix" values="0 0 0 0 0.521568 0 0 0 0 0.447059 0 0 0 0 0.964706 0 0 0 0.7 0"/>
<feBlend mode="normal" in2="BackgroundImageFix" result="effect1_dropShadow"/>
<feBlend mode="normal" in="SourceGraphic" in2="effect1_dropShadow" result="shape"/>
</filter>
<linearGradient id="paint0_linear" x1="37.8867" y1="46.1934" x2="37.8867" y2="57.2676" gradientUnits="userSpaceOnUse">
<stop offset="0.00312487" stop-color="#FF2929"/>
<stop offset="1" stop-color="#D8E8FF"/>
</linearGradient>
<linearGradient id="paint1_linear" x1="45.2695" y1="57.2676" x2="45.2695" y2="60.959" gradientUnits="userSpaceOnUse">
<stop offset="0.00312487" stop-color="#FF2929"/>
<stop offset="1" stop-color="#D8E8FF"/>
</linearGradient>
<linearGradient id="paint2_linear" x1="25.582" y1="49.8848" x2="25.582" y2="53.5762" gradientUnits="userSpaceOnUse">
<stop offset="0.00312487" stop-color="#FF2929"/>
<stop offset="1" stop-color="#D8E8FF"/>
</linearGradient>
<linearGradient id="paint3_linear" x1="46.5" y1="19" x2="46.5" y2="82" gradientUnits="userSpaceOnUse">
<stop offset="0.00312487" stop-color="#FF2929"/>
<stop offset="1" stop-color="#D8E8FF"/>
</linearGradient>
</defs>
</svg>
