<svg width="99" height="107" viewBox="0 0 99 107" fill="none" xmlns="http://www.w3.org/2000/svg">
<g filter="url(#filter0_d)">
<path d="M49.5 89C30.4765 89 15 73.5235 15 54.5C15 35.4765 30.4765 20 49.5 20C68.5235 20 84 35.4765 84 54.5C84 73.5235 68.5235 89 49.5 89ZM49.5 22.3C31.7452 22.3 17.3 36.7452 17.3 54.5C17.3 72.2548 31.7452 86.7 49.5 86.7C67.2548 86.7 81.7 72.2548 81.7 54.5C81.7 36.7452 67.2548 22.3 49.5 22.3Z" fill="url(#paint0_linear)"/>
<path d="M53.4056 79.1168C51.8426 79.1168 50.3718 78.1761 49.7622 76.651L48.5019 73.5004C48.4361 73.3382 48.3824 73.1692 48.3387 72.9966L46.1582 64.2737C46.1293 64.1589 46.0877 64.0483 46.0351 63.9425L44.8643 61.6026C44.5226 60.9182 43.7672 60.5755 43.0234 60.755L41.91 61.033C40.7292 61.3278 39.4584 61.0514 38.5092 60.2912L34.8695 57.3806C33.9346 56.631 33.3987 55.5155 33.3987 54.3194V53.0876C33.3987 52.2653 33.6519 51.4788 34.1294 50.8108L38.5345 44.6432C39.2694 43.614 40.4623 43.0012 41.7247 43.0012H44.132C44.8448 43.0012 45.5429 43.1955 46.1498 43.5613L50.3212 46.0635C50.6671 46.273 51.0767 46.344 51.472 46.2635L53.9668 45.7634C55.7756 45.4012 57.6133 46.3693 58.3387 48.0644L60.5503 53.2245C60.684 53.535 60.9161 53.8019 61.2046 53.973L63.4704 55.3339C64.4395 55.9156 65.1112 56.8884 65.3113 58.0007C65.5113 59.1152 65.2207 60.2602 64.5143 61.1435L62.5017 63.6598C62.2733 63.9462 62.1464 64.3063 62.1464 64.6716V68.3024C62.1464 69.3347 61.7279 70.346 60.9977 71.0751L59.7511 72.3217C59.6569 72.4159 59.5753 72.5207 59.5074 72.6333L56.76 77.2127C56.2794 78.0129 55.526 78.6178 54.6395 78.9131C54.2337 79.0526 53.8162 79.1168 53.4056 79.1168ZM43.4324 58.404C44.8885 58.404 46.243 59.2152 46.9226 60.5744L48.0934 62.9144C48.2213 63.1697 48.3213 63.4403 48.3903 63.7172L50.5708 72.4401C50.5881 72.5102 50.6108 72.5781 50.6376 72.6449L51.8989 75.7993C52.2174 76.5926 53.1008 77.0032 53.9162 76.7342C54.2816 76.611 54.5932 76.3615 54.7932 76.0293L57.5396 71.451C57.7039 71.1783 57.9018 70.9246 58.1287 70.6977L59.3763 69.449C59.6785 69.1473 59.8512 68.7299 59.8512 68.3035V64.6727C59.8512 63.7862 60.156 62.9181 60.7103 62.2248L62.7239 59.7085C63.0208 59.3379 63.1366 58.8767 63.054 58.4098C62.9697 57.9428 62.6997 57.5512 62.2927 57.3069L60.028 55.9477C59.319 55.5234 58.7704 54.8953 58.4424 54.132L56.2299 48.9709C55.9298 48.2702 55.1707 47.8728 54.4232 48.0197L51.9279 48.5198C50.9687 48.7145 49.9796 48.5398 49.141 48.037L44.968 45.5333C44.7158 45.3817 44.4284 45.3022 44.1341 45.3022H41.7273C41.2051 45.3022 40.7129 45.5565 40.4091 45.9808L36.0034 52.1484C35.806 52.4243 35.7013 52.7496 35.7013 53.0892V54.3205C35.7013 54.8153 35.9229 55.2765 36.3093 55.5865L39.948 58.4961C40.3402 58.8104 40.8671 58.9273 41.3546 58.8035L42.4664 58.5261C42.7886 58.4435 43.1129 58.404 43.4324 58.404Z" fill="url(#paint1_linear)"/>
<path d="M66.75 77.5003C66.4462 77.5003 66.1541 77.3803 65.9372 77.1634L63.6367 74.8634C63.3656 74.5918 63.2471 74.2017 63.323 73.8248L64.4732 68.0746C64.5179 67.853 64.6269 67.6482 64.7869 67.4871L68.2372 64.0369C68.5372 63.7368 68.9789 63.6252 69.3837 63.7494C69.7896 63.8716 70.0944 64.2085 70.177 64.6249L71.3268 70.3746C71.3831 70.6551 71.3326 70.9463 71.1857 71.1926L67.7355 76.9423C67.5539 77.246 67.2412 77.4482 66.8906 77.4919C66.8432 77.4966 66.7958 77.5003 66.75 77.5003ZM65.6977 73.6716L66.521 74.4965L68.9847 70.3909L68.343 67.1833L66.6579 68.8684L65.6977 73.6716Z" fill="url(#paint2_linear)"/>
<path d="M79.3953 51.9494C77.5886 51.9494 75.972 50.7097 75.514 48.8962C75.2439 47.8243 74.9059 46.9052 74.5111 46.1624C74.2606 45.6907 73.8099 45.3896 73.273 45.3343C72.685 45.2759 72.1122 45.5149 71.7316 45.975C69.4169 48.773 67.1617 50.0669 65.0228 49.8253C62.4307 49.5284 61.1725 47.07 61.1199 46.9652C55.7903 36.3056 46.2698 37.2268 46.1756 37.2442C46.133 37.2489 46.0914 37.251 46.0487 37.251C45.4097 37.251 44.7 37.4053 43.942 37.7075C41.4004 38.7245 38.5924 37.9617 36.9536 35.8113C35.348 33.7024 35.3575 30.9607 36.9779 28.8287L37.111 28.655C37.9186 27.6174 39.1536 26.9573 40.4965 26.8483C44.8322 26.4961 48.0555 24.4104 50.0785 20.6475C50.2875 20.2574 50.7039 20.0195 51.1456 20.0437C67.9334 20.8328 81.6332 33.5055 83.7205 50.177C83.7952 50.7776 83.393 51.334 82.7982 51.4478C81.868 51.6283 80.8993 51.7862 79.9197 51.9157C79.7438 51.9379 79.568 51.9494 79.3953 51.9494ZM73.0956 43.0254C73.2324 43.0254 73.3693 43.0333 73.5062 43.047C74.8196 43.1807 75.9256 43.9235 76.5421 45.0827C77.0243 45.9887 77.4291 47.0826 77.7439 48.3324C77.9603 49.1883 78.7641 49.7495 79.6148 49.6353C80.1776 49.5605 80.7361 49.4758 81.2847 49.3836C78.9321 34.5889 66.7237 23.4049 51.7389 22.3805C49.9727 25.329 46.6731 28.6524 40.6839 29.1404C39.9817 29.1977 39.341 29.5357 38.9256 30.0695L38.8119 30.2164C37.6227 31.7804 38.0197 33.4113 38.7846 34.4173C39.5595 35.4354 41.1509 36.3498 43.0886 35.5723C44.0983 35.1685 45.0748 34.9605 45.9914 34.9511C46.4562 34.9084 49.0699 34.7463 52.3195 35.8781C55.5376 36.9984 60.0338 39.651 63.1771 45.9371C63.1803 45.945 63.9462 47.3974 65.2976 47.5427C66.5958 47.7048 68.2035 46.6341 69.9596 44.51C70.743 43.5634 71.8916 43.0254 73.0956 43.0254Z" fill="url(#paint3_linear)"/>
<path d="M19.1283 52.2H16.3271C16.0018 52.2 15.6912 52.0621 15.4738 51.8204C15.2564 51.5788 15.1506 51.2571 15.1843 50.9329C15.8486 44.4683 18.3328 38.3381 22.3705 33.2017C22.7074 32.7732 23.2997 32.6395 23.7882 32.8848L28.1054 35.0432C29.9095 35.946 31.1861 37.6732 31.5172 39.6636L31.6062 40.1895C32.0647 42.9469 30.6939 45.6402 28.1939 46.8904L25.9444 48.0149C25.319 48.3281 24.7831 48.8019 24.3941 49.3836C23.2181 51.1466 21.2503 52.2 19.1283 52.2ZM17.6264 49.9H19.1283C20.4785 49.9 21.732 49.2293 22.4805 48.1059C23.0902 47.1905 23.933 46.4477 24.9163 45.9555L27.1658 44.8305C28.7577 44.0361 29.6305 42.3205 29.3383 40.5654L29.2499 40.04C29.2499 40.0384 29.2499 40.0384 29.2499 40.0384C29.0383 38.7713 28.226 37.6732 27.0773 37.0983L23.6113 35.3653C20.4317 39.6594 18.3797 44.6431 17.6264 49.9Z" fill="url(#paint4_linear)"/>
<path d="M29.0667 81.9974C28.8151 81.9974 28.5666 81.9158 28.3608 81.7563C20.826 75.9024 16.0097 67.1211 15.1495 57.6638C15.1037 57.1669 15.3843 56.6989 15.8418 56.502L17.0457 55.9856C19.4552 54.9532 22.2095 55.4844 24.063 57.338L26.194 59.4689C26.7646 60.0396 27.4843 60.4249 28.2755 60.5834C31.2451 61.1783 33.3987 63.8057 33.3987 66.8337V67.1522C33.3987 68.8852 32.8917 70.5618 31.9305 72.0016C31.3609 72.855 31.0013 73.8462 30.8871 74.8643L30.2085 80.9751C30.1627 81.3884 29.8969 81.7458 29.5142 81.9079C29.3705 81.9679 29.2188 81.9974 29.0667 81.9974ZM17.5263 58.2824C18.4465 66.1014 22.261 73.3666 28.1597 78.6004L28.6024 74.609C28.7561 73.2266 29.2452 71.8832 30.0169 70.724C30.725 69.6627 31.0987 68.4277 31.0987 67.1511V66.8326C31.0987 64.8969 29.7221 63.2171 27.8238 62.8376C26.5851 62.5901 25.458 61.9874 24.5668 61.094L22.4358 58.963C21.2503 57.7796 19.491 57.4396 17.9512 58.0981L17.5263 58.2824Z" fill="url(#paint5_linear)"/>
</g>
<circle opacity="0.3" cx="49.5" cy="54.5" r="43" stroke="#D8E8FF"/>
<path opacity="0.5" d="M76 20.0001L95 0.999991L96 0.999992L76 21L76 20.0001Z" fill="#D8E8FF"/>
<path opacity="0.5" d="M26 0H96V1H26V0Z" fill="#D8E8FF"/>
<defs>
<filter id="filter0_d" x="0" y="8" width="99" height="99" filterUnits="userSpaceOnUse" color-interpolation-filters="sRGB">
<feFlood flood-opacity="0" result="BackgroundImageFix"/>
<feColorMatrix in="SourceAlpha" type="matrix" values="0 0 0 0 0 0 0 0 0 0 0 0 0 0 0 0 0 0 127 0"/>
<feOffset dy="3"/>
<feGaussianBlur stdDeviation="7.5"/>
<feColorMatrix type="matrix" values="0 0 0 0 0.447059 0 0 0 0 0.760784 0 0 0 0 0.964706 0 0 0 1 0"/>
<feBlend mode="normal" in2="BackgroundImageFix" result="effect1_dropShadow"/>
<feBlend mode="normal" in="SourceGraphic" in2="effect1_dropShadow" result="shape"/>
</filter>
<linearGradient id="paint0_linear" x1="49.5" y1="20" x2="49.5" y2="89" gradientUnits="userSpaceOnUse">
<stop stop-color="#45DD2F"/>
<stop offset="1" stop-color="#D8E8FF"/>
</linearGradient>
<linearGradient id="paint1_linear" x1="49.3859" y1="43.0012" x2="49.3859" y2="79.1168" gradientUnits="userSpaceOnUse">
<stop stop-color="#45DD2F"/>
<stop offset="1" stop-color="#D8E8FF"/>
</linearGradient>
<linearGradient id="paint2_linear" x1="67.3248" y1="63.6995" x2="67.3248" y2="77.5003" gradientUnits="userSpaceOnUse">
<stop stop-color="#45DD2F"/>
<stop offset="1" stop-color="#D8E8FF"/>
</linearGradient>
<linearGradient id="paint3_linear" x1="59.7427" y1="20.042" x2="59.7427" y2="51.9494" gradientUnits="userSpaceOnUse">
<stop stop-color="#45DD2F"/>
<stop offset="1" stop-color="#D8E8FF"/>
</linearGradient>
<linearGradient id="paint4_linear" x1="23.436" y1="32.7627" x2="23.436" y2="52.2" gradientUnits="userSpaceOnUse">
<stop stop-color="#45DD2F"/>
<stop offset="1" stop-color="#D8E8FF"/>
</linearGradient>
<linearGradient id="paint5_linear" x1="24.2717" y1="55.4653" x2="24.2717" y2="81.9974" gradientUnits="userSpaceOnUse">
<stop stop-color="#45DD2F"/>
<stop offset="1" stop-color="#D8E8FF"/>
</linearGradient>
</defs>
</svg>
