<svg width="98" height="108" viewBox="0 0 98 108" fill="none" xmlns="http://www.w3.org/2000/svg">
<g clipPath="url(#clip0)" filter="url(#filter0_d)">
<path d="M49.0003 22C36.8615 22.0091 25.6479 28.487 19.5769 38.9985H19.5358V39.07C10.9609 53.9484 14.8539 72.8871 28.6021 83.1771V83.1952H28.6253C40.6959 92.2608 57.3047 92.2608 69.3746 83.1952H69.3987V83.1771C84.4165 71.9185 87.464 50.6178 76.2057 35.5994C69.7851 27.0351 59.7046 21.9958 49.0003 22ZM48.3564 24.2823C47.725 24.7136 47.1198 25.1824 46.5435 25.6852C43.4677 28.4221 39.4945 29.9334 35.3776 29.9328H30.9341C36.055 26.3677 42.1182 24.4015 48.3564 24.2823ZM49.0003 87.7277C43.2489 87.7334 37.6058 86.1656 32.6815 83.1949H65.3302C60.4025 86.1678 54.7553 87.7353 49.0003 87.7277ZM80.4026 60.5301H58.4269C54.3128 60.538 50.5765 62.9292 48.8457 66.6612C46.4167 71.8974 41.1734 75.2518 35.4015 75.2623V77.5292C42.0572 77.5159 48.1032 73.6481 50.904 67.6096C52.2626 64.6796 55.1966 62.8024 58.4269 62.7967H79.9896C78.404 69.9776 74.3759 76.3861 68.5931 80.9283H29.4077C23.9011 76.6041 19.9768 70.5822 18.2427 63.7988C20.8567 63.7822 23.2944 62.4788 24.7602 60.3149L26.3977 57.8875C28.1662 55.2792 31.1161 53.7208 34.268 53.7307C39.237 53.702 43.2926 57.7006 43.3343 62.6696C43.3077 64.5386 42.4918 66.3084 41.0889 67.5429C39.3997 69.2988 36.8781 69.9776 34.5355 69.3069C32.7011 68.6878 31.3468 67.1224 30.9963 65.2187C30.6911 63.4242 31.5671 61.6361 33.1723 60.7773C34.1968 60.1329 35.4908 60.0952 36.5518 60.6789C37.4697 61.2114 38.0381 62.1888 38.0462 63.2498H40.3131C40.3044 61.3813 39.308 59.6572 37.6931 58.7169C35.9387 57.7151 33.7787 57.7474 32.0561 58.8023C29.6093 60.1293 28.2854 62.8727 28.7696 65.6141C29.2655 68.3283 31.1925 70.5611 33.8056 71.4479C34.6109 71.7235 35.4567 71.8639 36.3079 71.8629C38.6632 71.7962 40.909 70.853 42.6065 69.2188C44.4849 67.5565 45.5722 65.1777 45.6003 62.6696C45.558 56.4492 40.4888 51.4367 34.268 51.4645C30.3639 51.4548 26.711 53.3869 24.5217 56.6191L22.8824 59.0456C21.8223 60.6104 20.0535 61.5443 18.1633 61.5386H17.7637C16.9632 57.0628 17.1367 52.4672 18.2735 48.0645H34.9484C39.3867 48.0702 43.6926 49.5806 47.162 52.3495C51.0326 55.4365 55.8347 57.122 60.7855 57.1304H80.7026C80.6634 58.2684 80.5631 59.403 80.4026 60.5301ZM68.2563 43.8151C69.3758 42.2165 71.205 41.2648 73.1564 41.2651H77.091C79.3047 45.4677 80.5393 50.1167 80.7026 54.8639H60.7855C56.3475 54.8581 52.0414 53.3477 48.5719 50.5791C44.7014 47.4916 39.8987 45.8063 34.9484 45.7985H18.9602C19.4905 44.2386 20.1425 42.723 20.9089 41.2651H36.9502C41.3315 41.2765 45.475 39.275 48.1898 35.8357C50.5753 32.8143 54.2165 31.0557 58.0659 31.0663V28.7994C53.5246 28.7876 49.2294 30.8625 46.4152 34.4273C44.1291 37.3226 40.6397 39.0085 36.9502 38.9985H22.2274C23.8383 36.4705 25.7967 34.1813 28.0452 32.1991H35.3776C40.0505 32.2006 44.5613 30.4855 48.0543 27.3807C49.4156 26.1709 50.9659 25.1917 52.6438 24.4818C62.1463 25.5911 70.6427 30.9232 75.7734 38.9991H73.1564C70.4305 38.9979 67.8805 40.345 66.3447 42.5968C66.3151 42.6391 66.2888 42.6831 66.2665 42.7296C64.2957 46.7046 60.2368 49.2133 55.7996 49.1982V51.4645C61.0663 51.4823 65.8901 48.5205 68.2563 43.8151Z" fill="url(#paint0_linear)"/>
<path d="M62.5988 40.1316C62.5988 37.0024 60.0623 34.4653 56.9328 34.4653C53.8036 34.4653 51.2662 37.0024 51.2662 40.1316C51.2662 43.2611 53.8036 45.7985 56.9328 45.7985C60.0602 45.7945 62.5951 43.2596 62.5988 40.1316ZM53.5331 40.1316C53.5331 38.2544 55.055 36.7322 56.9328 36.7322C58.8103 36.7322 60.3322 38.2544 60.3322 40.1316C60.3322 42.0094 58.8103 43.5316 56.9328 43.5316C55.055 43.5316 53.5331 42.0094 53.5331 40.1316Z" fill="url(#paint1_linear)"/>
<path d="M58.0657 75.2626C60.5692 75.2626 62.5988 73.2332 62.5988 70.7294C62.5988 68.2259 60.5692 66.1963 58.0657 66.1963C55.5622 66.1963 53.5325 68.2262 53.5325 70.7294C53.5325 73.2332 55.5625 75.2626 58.0657 75.2626ZM58.0657 68.4632C59.3177 68.4632 60.3322 69.4777 60.3322 70.7294C60.3322 71.9812 59.3177 72.9957 58.0657 72.9957C56.8139 72.9957 55.7994 71.9812 55.7994 70.7294C55.7994 69.4777 56.8142 68.4632 58.0657 68.4632Z" fill="url(#paint2_linear)"/>
</g>
<circle opacity="0.3" cx="49" cy="56" r="42.5" stroke="#D8E8FF"/>
<path opacity="0.5" d="M73 20.0001L92 0.999991L93 0.999992L73 21L73 20.0001Z" fill="#D8E8FF"/>
<path opacity="0.5" d="M23 0H93V1H23V0Z" fill="#D8E8FF"/>
<defs>
<filter id="filter0_d" x="0" y="10" width="98" height="98" filterUnits="userSpaceOnUse" color-interpolation-filters="sRGB">
<feFlood flood-opacity="0" result="BackgroundImageFix"/>
<feColorMatrix in="SourceAlpha" type="matrix" values="0 0 0 0 0 0 0 0 0 0 0 0 0 0 0 0 0 0 127 0"/>
<feOffset dy="3"/>
<feGaussianBlur stdDeviation="7.5"/>
<feColorMatrix type="matrix" values="0 0 0 0 0.447059 0 0 0 0 0.760784 0 0 0 0 0.964706 0 0 0 1 0"/>
<feBlend mode="normal" in2="BackgroundImageFix" result="effect1_dropShadow"/>
<feBlend mode="normal" in="SourceGraphic" in2="effect1_dropShadow" result="shape"/>
</filter>
<linearGradient id="paint0_linear" x1="49.0003" y1="22" x2="49.0003" y2="89.9944" gradientUnits="userSpaceOnUse">
<stop stop-color="#E2E833"/>
<stop offset="0.930208" stop-color="#D8E8FF"/>
</linearGradient>
<linearGradient id="paint1_linear" x1="56.9325" y1="34.4653" x2="56.9325" y2="45.7985" gradientUnits="userSpaceOnUse">
<stop stop-color="#E2E833"/>
<stop offset="0.930208" stop-color="#D8E8FF"/>
</linearGradient>
<linearGradient id="paint2_linear" x1="58.0657" y1="66.1963" x2="58.0657" y2="75.2626" gradientUnits="userSpaceOnUse">
<stop stop-color="#E2E833"/>
<stop offset="0.930208" stop-color="#D8E8FF"/>
</linearGradient>
<clipPath id="clip0">
<rect width="68" height="68" fill="white" transform="translate(15 22)"/>
</clipPath>
</defs>
</svg>
