<svg width="100" height="116" viewBox="0 0 100 116" fill="none" xmlns="http://www.w3.org/2000/svg">
<g filter="url(#filter0_d)">
<path d="M74.7488 38.2512C68.1381 31.6407 59.3488 28 50 28C40.6512 28 31.8619 31.6407 25.2512 38.2512C18.6407 44.8619 15 53.6512 15 63C15 72.3488 18.6407 81.1381 25.2512 87.7488C31.8619 94.3593 40.6512 98 50 98C59.3488 98 68.1381 94.3593 74.7488 87.7488C81.3593 81.1381 85 72.3488 85 63C85 53.6512 81.3593 44.8619 74.7488 38.2512ZM42.7635 32.9595C40.1858 37.5025 36.1363 41.1209 31.3272 43.1669C29.303 44.0284 27.1862 44.5937 25.001 44.863C29.2585 39.0109 35.5171 34.7051 42.7635 32.9595ZM22.3877 49.1446C26.0577 49.0975 29.5998 48.3593 32.9331 46.9412C38.6776 44.4969 43.4983 40.1384 46.5081 34.6687C46.5096 34.666 46.5109 34.6635 46.5123 34.6609C46.9736 33.8219 47.5016 32.9845 48.0859 32.1625C48.7192 32.1236 49.357 32.1016 50 32.1016C53.9488 32.1016 57.7265 32.8474 61.2011 34.2036C58.579 36.1483 56.2333 38.4128 54.203 40.9693C49.7776 46.5414 43.8144 50.4941 36.9588 52.4001C36.9563 52.4007 36.9539 52.4014 36.9513 52.4021C31.5789 53.8945 26.0471 54.3892 20.4757 53.8795C20.9838 52.2387 21.6259 50.6566 22.3877 49.1446ZM19.5236 57.9075C21.2568 58.0859 22.9871 58.176 24.7113 58.176C29.2145 58.176 33.6759 57.5682 38.0427 56.3557C38.0452 56.3551 38.0474 56.3545 38.0498 56.3538C45.749 54.215 52.4455 49.7771 57.4151 43.5199C59.6749 40.6746 62.3743 38.2337 65.4484 36.2487C69.3875 38.5323 72.7775 41.6612 75.3708 45.3849C70.5702 47.4544 66.2247 50.3184 62.4283 53.9247C53.4011 62.5007 40.7558 66.0095 28.6004 63.3132C28.5949 63.3119 28.5894 63.3106 28.584 63.3095C25.6355 62.6544 22.6091 62.3222 19.5887 62.3222H19.1103C19.1426 60.8221 19.2837 59.3484 19.5236 57.9075ZM50 93.8984C41.0537 93.8984 32.9848 90.0752 27.3371 83.9784C29.187 84.3835 31.0007 84.9246 32.7626 85.6017C32.7685 85.604 32.7745 85.6062 32.7804 85.6084C37.5885 87.4534 42.6937 88.3801 47.8042 88.3801C52.0286 88.3801 56.2564 87.7462 60.319 86.4738L70.8873 83.1634C71.932 82.8361 73.0032 82.5572 74.0928 82.3218C68.4249 89.375 59.7315 93.8984 50 93.8984ZM77.1998 77.6476C74.6066 77.9558 72.0756 78.4931 69.6614 79.2493L59.093 82.5597C50.9893 85.098 42.1611 84.8184 34.2347 81.7733C34.2285 81.7708 34.2224 81.7686 34.2161 81.7662C30.8576 80.4776 27.3331 79.6305 23.7253 79.2403C22.623 77.4633 21.6944 75.568 20.9667 73.5764C23.8941 73.978 26.7235 74.8107 29.4097 76.0644C29.413 76.0659 29.4173 76.0677 29.4214 76.0698C33.8634 78.1413 38.7755 79.2276 43.6777 79.2274C43.9416 79.2274 44.2059 79.2243 44.4695 79.218C49.6302 79.0945 54.7727 77.7596 59.3421 75.3577C59.3473 75.355 59.3525 75.3524 59.3577 75.3495C65.7746 71.9723 72.9461 69.9197 80.2397 69.3556C79.6231 72.2937 78.5883 75.0795 77.1998 77.6476ZM57.4633 71.7117C57.4579 71.7146 57.4523 71.7175 57.4468 71.7203C49.3111 76.0022 39.4799 76.2377 31.1484 72.3496C31.1453 72.3481 31.1413 72.3464 31.1372 72.3445C27.5381 70.6658 23.7149 69.6511 19.7521 69.3183C19.554 68.3687 19.4007 67.4029 19.2923 66.4238H19.5886C22.306 66.4238 25.029 66.7223 27.682 67.3107C27.6872 67.312 27.6926 67.3132 27.6979 67.3143C30.695 67.9804 33.7169 68.3062 36.718 68.3062C47.2283 68.3062 57.4572 64.3044 65.2532 56.8985C68.8308 53.5 72.9474 50.8278 77.5075 48.9348C79.6745 53.1558 80.8984 57.9376 80.8984 63C80.8984 63.741 80.8705 64.4757 80.819 65.2039C72.6688 65.7073 64.6307 67.9422 57.4633 71.7117Z" fill="url(#paint0_linear)"/>
<path d="M73.9258 60.2656C75.0584 60.2656 75.9766 59.3475 75.9766 58.2148C75.9766 57.0822 75.0584 56.1641 73.9258 56.1641C72.7932 56.1641 71.875 57.0822 71.875 58.2148C71.875 59.3475 72.7932 60.2656 73.9258 60.2656Z" fill="url(#paint1_linear)"/>
<path d="M56.1523 54.7969C57.285 54.7969 58.2031 53.8787 58.2031 52.7461C58.2031 51.6135 57.285 50.6953 56.1523 50.6953C55.0197 50.6953 54.1016 51.6135 54.1016 52.7461C54.1016 53.8787 55.0197 54.7969 56.1523 54.7969Z" fill="url(#paint2_linear)"/>
<path d="M50.6836 39.7578C51.8162 39.7578 52.7344 38.8396 52.7344 37.707C52.7344 36.5744 51.8162 35.6562 50.6836 35.6562C49.551 35.6562 48.6328 36.5744 48.6328 37.707C48.6328 38.8396 49.551 39.7578 50.6836 39.7578Z" fill="url(#paint3_linear)"/>
</g>
<circle opacity="0.3" cx="50" cy="63" r="43.5" stroke="#D8E8FF"/>
<path opacity="0.5" d="M71.8776 25.1226L97 0.999999L98 1.00011L72.9416 25.5585L71.8776 25.1226Z" fill="#D8E8FF"/>
<path opacity="0.5" d="M2 0H98V1H2V0Z" fill="#D8E8FF"/>
<defs>
<filter id="filter0_d" x="0" y="16" width="100" height="100" filterUnits="userSpaceOnUse" color-interpolation-filters="sRGB">
<feFlood flood-opacity="0" result="BackgroundImageFix"/>
<feColorMatrix in="SourceAlpha" type="matrix" values="0 0 0 0 0 0 0 0 0 0 0 0 0 0 0 0 0 0 127 0"/>
<feOffset dy="3"/>
<feGaussianBlur stdDeviation="7.5"/>
<feColorMatrix type="matrix" values="0 0 0 0 0.847059 0 0 0 0 0.909804 0 0 0 0 1 0 0 0 0.55 0"/>
<feBlend mode="normal" in2="BackgroundImageFix" result="effect1_dropShadow"/>
<feBlend mode="normal" in="SourceGraphic" in2="effect1_dropShadow" result="shape"/>
</filter>
<linearGradient id="paint0_linear" x1="50" y1="28" x2="50" y2="98" gradientUnits="userSpaceOnUse">
<stop stop-color="#00C8FF"/>
<stop offset="1" stop-color="#D8E8FF"/>
</linearGradient>
<linearGradient id="paint1_linear" x1="73.9258" y1="56.1641" x2="73.9258" y2="60.2656" gradientUnits="userSpaceOnUse">
<stop stop-color="#00C8FF"/>
<stop offset="1" stop-color="#D8E8FF"/>
</linearGradient>
<linearGradient id="paint2_linear" x1="56.1523" y1="50.6953" x2="56.1523" y2="54.7969" gradientUnits="userSpaceOnUse">
<stop stop-color="#00C8FF"/>
<stop offset="1" stop-color="#D8E8FF"/>
</linearGradient>
<linearGradient id="paint3_linear" x1="50.6836" y1="35.6562" x2="50.6836" y2="39.7578" gradientUnits="userSpaceOnUse">
<stop stop-color="#00C8FF"/>
<stop offset="1" stop-color="#D8E8FF"/>
</linearGradient>
</defs>
</svg>
