<svg width="98" height="107" viewBox="0 0 98 107" fill="none" xmlns="http://www.w3.org/2000/svg">
<g clipPath="url(#clip0)" filter="url(#filter0_d)">
<path d="M83 54.9891C83.0032 45.9071 79.4696 37.3699 73.0497 30.9502C66.6327 24.5332 58.101 21 49.0235 21H49.0108C43.7074 21.0019 38.5892 22.2098 33.9691 24.4936C25.9958 20.4738 20.1651 19.9787 17.072 23.0719C13.978 26.1659 14.4733 31.9955 18.4936 39.9692C16.2098 44.5894 15.0019 49.7076 15 55.0109C14.9968 64.0929 18.5304 72.6301 24.9502 79.0498C31.3672 85.4668 39.8989 89 48.9765 89H48.9891C54.2923 88.9981 59.4106 87.7902 64.0307 85.5064C68.5547 87.7874 72.3879 88.9339 75.4235 88.9335C77.738 88.9333 79.5894 88.2666 80.9279 86.9281C84.022 83.8341 83.5265 78.0045 79.5061 70.0308C81.7901 65.4108 82.998 60.2924 83 54.9891ZM79.0156 54.9876C79.0148 56.9705 78.8232 58.9242 78.4492 60.8275L67.9084 50.2867C66.6046 48.9828 66.6046 46.8611 67.9084 45.557C68.54 44.9254 69.3798 44.5775 70.2732 44.5775C71.1667 44.5775 72.0064 44.9254 72.6381 45.557L78.8471 51.766C78.9593 52.8289 79.016 53.9039 79.0156 54.9876ZM49.0231 24.9983C56.7049 24.9983 64.3867 27.9218 70.2323 33.7674C73.298 36.8331 75.6182 40.4459 77.1017 44.3859L75.4553 42.7395C74.0712 41.3554 72.2308 40.593 70.2731 40.593C68.3155 40.593 66.4751 41.3554 65.0909 42.7395C62.2334 45.597 62.2334 50.2464 65.0909 53.104L77.2245 65.2376C75.7451 69.3165 73.3757 73.0561 70.2159 76.216C68.3176 78.1143 66.2267 79.7049 64.0057 80.9878C56.8463 77.0412 48.7232 70.6805 41.0212 62.9784C32.4833 54.4405 26.5466 46.421 23.0152 39.989C23.9777 38.3235 25.1131 36.7314 26.4215 35.2387L43.7366 52.554C45.1208 53.9382 46.9612 54.7006 48.9189 54.7006C50.8764 54.7006 52.7169 53.9383 54.1011 52.554C56.9585 49.6965 56.9585 45.0472 54.1011 42.1896L51.4805 39.569L52.1313 38.9183C53.5156 37.5341 54.278 35.6936 54.278 33.7361C54.278 31.7784 53.5156 29.938 52.1313 28.5538L48.5794 25.0019C48.7272 24.9996 48.8752 24.9983 49.0231 24.9983ZM30.4098 64.5784C27.6623 61.8308 23.3412 61.5921 20.3201 63.8624C18.3709 57.503 18.5778 50.6173 20.9404 44.3662C25.0858 51.2117 31.1033 58.695 38.2041 65.7959C45.3052 72.897 52.7886 78.9146 59.6342 83.0598C56.7782 84.1393 53.7899 84.7687 50.7794 84.948L30.4098 64.5784ZM51.2836 45.0069C52.5874 46.3109 52.5874 48.4326 51.2836 49.7366C50.6519 50.3683 49.812 50.7161 48.9187 50.7161C48.0254 50.7161 47.1855 50.3682 46.5539 49.7366L29.2388 32.4215C33.3957 28.7774 38.3247 26.4751 43.4573 25.5144L49.3138 31.3712C49.9455 32.0029 50.2935 32.8428 50.2935 33.7361C50.2935 34.6294 49.9455 35.4691 49.3138 36.1009L45.8457 39.5692L51.2836 45.0069ZM19.8892 25.8892C21.0504 24.728 24.2277 24.5271 29.8047 26.9382C28.0896 28.1173 26.4701 29.4629 24.9664 30.9665C23.4667 32.4662 22.1242 34.0812 20.9472 35.7915C18.8079 30.8231 18.4999 27.2786 19.8892 25.8892ZM21.8611 67.8477L22.3131 67.3958C23.7685 65.9403 26.1371 65.9403 27.5926 67.3958L44.9256 84.7287C38.6446 83.8798 32.583 81.0479 27.7675 76.2323C25.2615 73.7264 23.2928 70.8834 21.8611 67.8477ZM78.1106 84.1108C76.9477 85.2738 73.7701 85.4728 68.195 83.062C69.9103 81.8827 71.5298 80.5372 73.0335 79.0335C74.5372 77.5298 75.8827 75.9103 77.062 74.195C79.4726 79.7702 79.2736 82.9477 78.1106 84.1108Z" fill="url(#paint0_linear)"/>
<path d="M66.1249 65.3035H70.1093V69.2878H66.1249V65.3035Z" fill="url(#paint1_linear)"/>
<path d="M58.3293 32.6663H62.3137V36.6506H58.3293V32.6663Z" fill="url(#paint2_linear)"/>
<path d="M53.6144 63.5369H57.5988V67.5212H53.6144V63.5369Z" fill="url(#paint3_linear)"/>
</g>
<circle opacity="0.3" cx="49" cy="55" r="42.5" stroke="#D8E8FF"/>
<path opacity="0.5" d="M73 20L93 1L94 0.999992L74 20.5L73 20Z" fill="#D8E8FF"/>
<path opacity="0.5" d="M15 0H94V1H15V0Z" fill="#D8E8FF"/>
<defs>
<filter id="filter0_d" x="0" y="9" width="98" height="98" filterUnits="userSpaceOnUse" color-interpolation-filters="sRGB">
<feFlood flood-opacity="0" result="BackgroundImageFix"/>
<feColorMatrix in="SourceAlpha" type="matrix" values="0 0 0 0 0 0 0 0 0 0 0 0 0 0 0 0 0 0 127 0"/>
<feOffset dy="3"/>
<feGaussianBlur stdDeviation="7.5"/>
<feColorMatrix type="matrix" values="0 0 0 0 0.847059 0 0 0 0 0.909804 0 0 0 0 1 0 0 0 0.7 0"/>
<feBlend mode="normal" in2="BackgroundImageFix" result="effect1_dropShadow"/>
<feBlend mode="normal" in="SourceGraphic" in2="effect1_dropShadow" result="shape"/>
</filter>
<linearGradient id="paint0_linear" x1="49" y1="21" x2="49" y2="89" gradientUnits="userSpaceOnUse">
<stop stop-color="#009FFF"/>
<stop offset="1" stop-color="#D8E8FF"/>
</linearGradient>
<linearGradient id="paint1_linear" x1="68.1171" y1="65.3035" x2="68.1171" y2="69.2878" gradientUnits="userSpaceOnUse">
<stop stop-color="#009FFF"/>
<stop offset="1" stop-color="#D8E8FF"/>
</linearGradient>
<linearGradient id="paint2_linear" x1="60.3215" y1="32.6663" x2="60.3215" y2="36.6506" gradientUnits="userSpaceOnUse">
<stop stop-color="#009FFF"/>
<stop offset="1" stop-color="#D8E8FF"/>
</linearGradient>
<linearGradient id="paint3_linear" x1="55.6066" y1="63.5369" x2="55.6066" y2="67.5212" gradientUnits="userSpaceOnUse">
<stop stop-color="#009FFF"/>
<stop offset="1" stop-color="#D8E8FF"/>
</linearGradient>
<clipPath id="clip0">
<rect width="68" height="68" fill="white" transform="translate(15 21)"/>
</clipPath>
</defs>
</svg>
