<svg width="111" height="114" viewBox="0 0 111 114" fill="none" xmlns="http://www.w3.org/2000/svg">
<g clipPath="url(#clip0)" filter="url(#filter0_d)">
<path d="M49.3173 90.3473C74.4729 98.1239 98.1183 74.4717 90.3538 49.315C91.3845 47.4511 92.2946 45.6152 93.0695 43.8224C93.3069 43.273 93.054 42.6349 92.5045 42.3975C91.9551 42.1603 91.3172 42.413 91.0796 42.9624C90.2863 44.7979 89.346 46.6814 88.2747 48.5957C88.2611 48.6164 88.2459 48.6357 88.2336 48.6576C72.3875 76.8177 35.5537 101.199 26.1755 91.8221C22.7914 88.4379 23.7294 80.9034 28.6364 71.4309C28.9574 72.2157 29.3658 73.1045 29.7239 73.8127C26.6777 80.0894 26.2891 84.6214 28.605 86.9371C36.6886 95.0207 69.6147 68.8506 83.2717 46.3675C86.1731 41.5912 90.8857 32.5431 86.9423 28.5998C84.6263 26.2838 80.0945 26.6724 73.8181 29.7187C73.0861 29.3484 72.1629 28.9282 71.4362 28.6312C80.9084 23.7241 88.4432 22.786 91.8272 26.1703C94.7356 29.0787 93.9526 34.3843 92.7835 38.3232C92.6132 38.8971 92.9404 39.5003 93.5143 39.6707C94.0882 39.841 94.6915 39.5141 94.8618 38.9401C96.7784 32.4823 96.2591 27.5366 93.3601 24.6376C88.9896 20.2671 80.0121 21.3674 68.6886 27.6457C43.8555 19.976 19.766 43.1173 27.6509 68.6837C21.3728 80.0069 20.2723 88.9845 24.6428 93.3549C30.3823 99.0945 42.214 94.2796 49.3173 90.3473ZM88.8299 51.9446C89.7415 55.7326 89.925 59.5415 89.4223 63.2273L79.8279 72.8215C77.7653 74.8842 75.0238 76.0782 72.1088 76.1836L68.3877 76.3181C76.0159 69.3301 83.4924 60.7556 88.8299 51.9446ZM65.8507 78.5789L72.1869 78.3499C75.6515 78.2247 78.9095 76.8057 81.3608 74.3543L88.5966 67.1184C84.4815 81.9765 68.9344 92.9163 51.9443 88.8235C56.7867 85.8885 61.5146 82.3363 65.8507 78.5789ZM30.1379 85.4044C28.7205 83.9869 29.0571 80.664 31.0318 76.1515C33.1306 79.5638 35.8094 82.4925 38.7253 84.7906C34.5746 86.4975 31.4844 86.7504 30.1379 85.4044ZM31.1349 71.7431L38.8889 63.9893C40.1312 62.747 41.682 61.8395 43.3737 61.3649C45.3298 60.8163 47.1312 62.6167 46.5822 64.5733C46.1076 66.2652 45.2001 67.816 43.9577 69.0584L34.9917 78.0244C33.4422 76.0757 32.1711 74.0132 31.1349 71.7431ZM85.4096 30.1327C86.7558 31.4789 86.5027 34.5693 84.7957 38.7201C82.4516 35.7456 79.5303 33.1014 76.1567 31.0264C80.6693 29.0517 83.992 28.7151 85.4096 30.1327ZM76.0226 36.6609L76.8715 34.1062C78.3076 35.1414 79.6493 36.2847 80.9437 37.6137L77.6538 38.426C77.1615 38.5474 76.6615 38.3978 76.3171 38.0251C75.9726 37.6524 75.8626 37.1424 76.0226 36.6609ZM75.0011 32.8603L73.9655 35.9773C73.5528 37.2196 73.8366 38.535 74.7251 39.4963C75.6136 40.4576 76.9027 40.8442 78.1734 40.5305L82.5886 39.4404C83.0009 39.9364 83.3993 40.4442 83.7799 40.9658C83.2998 41.9433 82.833 42.8127 82.3134 43.7249L70.0673 47.1397C67.7669 47.7812 65.6583 49.0128 63.9699 50.7013L62.5382 52.1332C62.1149 52.5565 62.1149 53.2428 62.5384 53.666C62.9615 54.0894 63.6478 54.0893 64.0711 53.666L65.5028 52.2341C66.9279 50.8089 68.7078 49.7692 70.6496 49.2278L80.6818 46.4304C72.2208 59.7596 55.3256 76.4237 41.7097 83.4044L51.4297 73.6844C53.1573 71.9567 54.4032 69.7957 55.0328 67.435L55.9408 64.0299C56.4724 62.037 57.524 60.2129 58.9822 58.7547L60.4765 57.2604C60.8998 56.8371 60.8998 56.1508 60.4764 55.7277C60.0532 55.3042 59.3669 55.3044 58.9436 55.7277L57.4493 57.222C55.7219 58.9494 54.476 61.1104 53.8462 63.4713L52.9382 66.8765C52.4068 68.8691 51.3553 70.6932 49.8968 72.1515L39.4563 82.592C38.3743 81.6933 37.3543 80.7171 36.4036 79.6787L45.4909 70.5913C46.9956 69.0866 48.0948 67.2081 48.6697 65.159C49.6753 61.5737 46.3748 58.2716 42.7886 59.2779C40.7395 59.8526 38.861 60.9518 37.3561 62.4567L30.2411 69.5713C29.6831 68.0514 29.2642 66.5737 28.9381 64.9688L34.5735 59.3337C37.389 56.518 41.1291 54.8434 45.1049 54.6182C49.613 54.3631 53.8541 52.4642 57.047 49.2713L66.0157 40.3026C68.6211 37.6971 70.3571 34.4284 71.0554 30.8226C72.4851 31.4347 73.7567 32.0967 75.0011 32.8603ZM63.0297 28.5989C62.282 30.5135 61.137 32.2694 59.6755 33.7309L51.5117 41.8947C48.9624 44.444 45.5984 45.9808 42.0392 46.2222C37.9572 46.499 34.1009 48.2596 31.1808 51.1795L28.7949 53.5654C31.6 38.1203 46.367 26.2859 63.0297 28.5989ZM28.3549 57.0714L32.7138 52.7124C35.2631 50.1631 38.627 48.6263 42.1861 48.385C46.2683 48.1081 50.1246 46.3476 53.0447 43.4275L61.2085 35.2637C62.9856 33.4865 64.3535 31.328 65.2027 28.9754C66.6308 29.2782 67.8316 29.6279 68.9958 30.0289C68.4314 33.3591 66.872 36.3809 64.483 38.7698L55.5142 47.7386C52.6986 50.5542 48.9583 52.2289 44.9826 52.4539C40.4744 52.7091 36.2334 54.6081 33.0407 57.8008L28.5111 62.3302C28.3054 60.5667 28.2544 58.8089 28.3549 57.0714Z" fill="url(#paint0_linear)"/>
</g>
<circle opacity="0.3" cx="59" cy="59" r="45.5" stroke="#D8E8FF"/>
<path opacity="0.5" d="M82 20L102 1L103 0.999992L83 20.5L82 20Z" fill="#D8E8FF"/>
<path opacity="0.5" d="M0 0H103V1H0V0Z" fill="#D8E8FF"/>
<defs>
<filter id="filter0_d" x="7" y="10" width="104" height="104" filterUnits="userSpaceOnUse" color-interpolation-filters="sRGB">
<feFlood flood-opacity="0" result="BackgroundImageFix"/>
<feColorMatrix in="SourceAlpha" type="matrix" values="0 0 0 0 0 0 0 0 0 0 0 0 0 0 0 0 0 0 127 0"/>
<feOffset dy="3"/>
<feGaussianBlur stdDeviation="7.5"/>
<feColorMatrix type="matrix" values="0 0 0 0 0.847059 0 0 0 0 0.909804 0 0 0 0 1 0 0 0 0.95 0"/>
<feBlend mode="normal" in2="BackgroundImageFix" result="effect1_dropShadow"/>
<feBlend mode="normal" in="SourceGraphic" in2="effect1_dropShadow" result="shape"/>
</filter>
<linearGradient id="paint0_linear" x1="59.0007" y1="22" x2="59.0007" y2="96" gradientUnits="userSpaceOnUse">
<stop stop-color="#E52EFF"/>
<stop offset="1" stop-color="#D8E8FF"/>
</linearGradient>
<clipPath id="clip0">
<rect width="74" height="74" fill="white" transform="translate(22 22)"/>
</clipPath>
</defs>
</svg>
