<svg width="118" height="129" viewBox="0 0 118 129" fill="none" xmlns="http://www.w3.org/2000/svg">
<g clipPath="url(#clip0)">
<path d="M78.8101 69.4636C78.8101 62.7031 73.3091 57.2029 66.5471 57.2029C59.7852 57.2029 54.2841 62.7031 54.2841 69.4636C54.2841 76.2242 59.7852 81.7242 66.5471 81.7242C73.3091 81.7242 78.8101 76.2242 78.8101 69.4636ZM57.7999 69.4636C57.7999 64.6416 61.7239 60.7185 66.5473 60.7185C71.3707 60.7185 75.2947 64.6414 75.2947 69.4636C75.2947 74.2857 71.3707 78.2086 66.5473 78.2086C61.7239 78.2086 57.7999 74.2857 57.7999 69.4636Z" fill="url(#paint0_linear)"/>
<path d="M50.6346 69.4638C50.6346 65.3176 47.2611 61.9446 43.1142 61.9446C38.9675 61.9446 35.5937 65.3176 35.5937 69.4638C35.5937 73.61 38.9673 76.9828 43.1142 76.9828C47.2611 76.983 50.6346 73.61 50.6346 69.4638ZM39.1094 69.4638C39.1094 67.2562 40.9059 65.4602 43.1142 65.4602C45.3224 65.4602 47.119 67.2562 47.119 69.4638C47.119 71.6714 45.3224 73.4672 43.1142 73.4672C40.9059 73.4674 39.1094 71.6714 39.1094 69.4638Z" fill="url(#paint1_linear)"/>
<path d="M46.6756 97.6963C50.5859 96.3439 53.9445 93.8636 56.3882 90.5239L57.1931 89.4239L65.4213 90.4032C65.4272 90.4039 65.4334 90.4046 65.4395 90.4053C81.7661 92.1754 97.5955 84.1167 105.767 69.8746C106.078 69.3328 106.078 68.6668 105.767 68.1251C97.5953 53.8831 81.7661 45.8243 65.4395 47.5942L65.4213 47.5963L57.193 48.5756L56.3882 47.4759C53.9445 44.1361 50.5859 41.656 46.6758 40.3035C42.7731 38.9537 38.609 38.8269 34.632 39.9367L17.3288 44.2911C16.6693 44.457 16.1645 44.9888 16.0332 45.6562C16.0108 45.7696 15.9999 45.8833 15.9999 45.996C15.9999 46.5474 16.2601 47.0755 16.7145 47.4105L26.2835 54.4672L26.2835 62.6203L16.9514 67.4379C16.3671 67.7396 15.9999 68.3423 15.9999 68.9999C15.9999 69.6575 16.367 70.2603 16.9514 70.5619L26.2835 75.3795L26.2835 83.5328L16.7145 90.5893C16.2599 90.9244 15.9999 91.4522 15.9999 92.0038C15.9999 92.1167 16.0108 92.2304 16.0332 92.3438C16.1646 93.0111 16.6693 93.5426 17.3288 93.7087L34.6318 98.0634C38.6087 99.1727 42.7729 99.046 46.6756 97.6963ZM102.2 68.9999C98.3883 75.2505 92.9345 80.1283 86.606 83.2424L86.606 54.7573C92.9345 57.8716 98.3883 62.7493 102.2 68.9999ZM21.7986 46.7916L35.5121 43.3405C35.5273 43.3366 35.5425 43.3326 35.5577 43.3283C42.0268 41.515 49.0232 43.8126 53.1721 49.0542L28.8003 51.955L21.7986 46.7916ZM21.5898 68.9999L26.2835 66.5768L26.2835 71.4231L21.5898 68.9999ZM29.7991 55.3765L65.8271 51.0885C71.7935 50.4431 77.6871 51.232 83.0902 53.2427L83.0902 84.7571C77.6869 86.7678 71.7933 87.5568 65.827 86.9113L29.7991 82.6231L29.7991 55.3765ZM35.5575 94.6715C35.5424 94.6673 35.5273 94.6632 35.512 94.6595L21.7984 91.2082L28.8001 86.0447L53.172 88.9454C49.0234 94.1869 42.0268 96.4847 35.5575 94.6715Z" fill="url(#paint2_linear)"/>
</g>
<circle opacity="0.3" cx="59" cy="70" r="58.5" stroke="#D8E8FF"/>
<path opacity="0.5" d="M91 20L111 1L112 0.999992L92 20.5L91 20Z" fill="#D8E8FF"/>
<path opacity="0.5" d="M13 0H112V1H13V0Z" fill="#D8E8FF"/>
<defs>
<linearGradient id="paint0_linear" x1="78.8101" y1="69.4635" x2="54.2841" y2="69.4635" gradientUnits="userSpaceOnUse">
<stop offset="0.607292" stop-color="#D8E8FF"/>
<stop offset="1" stop-color="#DC1E3C"/>
</linearGradient>
<linearGradient id="paint1_linear" x1="50.6346" y1="69.4637" x2="35.5937" y2="69.4637" gradientUnits="userSpaceOnUse">
<stop offset="0.607292" stop-color="#D8E8FF"/>
<stop offset="1" stop-color="#DC1E3C"/>
</linearGradient>
<linearGradient id="paint2_linear" x1="106" y1="68.9999" x2="15.9999" y2="68.9999" gradientUnits="userSpaceOnUse">
<stop offset="0.607292" stop-color="#D8E8FF"/>
<stop offset="1" stop-color="#DC1E3C"/>
</linearGradient>
<clipPath id="clip0">
<rect width="90" height="90" fill="white" transform="translate(106 24) rotate(90)"/>
</clipPath>
</defs>
</svg>
