<svg width="118" height="160" viewBox="0 0 118 160" fill="none" xmlns="http://www.w3.org/2000/svg">
<g clipPath="url(#clip0)">
<path d="M58.4639 81.1897C51.7033 81.1897 46.2031 86.6908 46.2031 93.4527C46.2031 100.215 51.7033 105.716 58.4639 105.716C65.2244 105.716 70.7244 100.215 70.7244 93.4527C70.7244 86.6908 65.2244 81.1897 58.4639 81.1897ZM58.4639 102.2C53.6418 102.2 49.7188 98.276 49.7188 93.4525C49.7188 88.6291 53.6417 84.7051 58.4639 84.7051C63.2859 84.7051 67.2088 88.6291 67.2088 93.4525C67.2088 98.276 63.2859 102.2 58.4639 102.2Z" fill="url(#paint0_linear)"/>
<path d="M58.4636 109.365C54.3174 109.365 50.9443 112.739 50.9443 116.886C50.9443 121.032 54.3174 124.406 58.4636 124.406C62.6097 124.406 65.9826 121.033 65.9826 116.886C65.9828 112.739 62.6097 109.365 58.4636 109.365ZM58.4636 120.891C56.2559 120.891 54.46 119.094 54.46 116.886C54.46 114.678 56.2559 112.881 58.4636 112.881C60.6712 112.881 62.467 114.678 62.467 116.886C62.4671 119.094 60.6712 120.891 58.4636 120.891Z" fill="url(#paint1_linear)"/>
<path d="M86.6963 113.324C85.3439 109.414 82.8636 106.055 79.5239 103.612L78.4239 102.807L79.4032 94.5786C79.4039 94.5726 79.4046 94.5665 79.4053 94.5603C81.1754 78.2338 73.1167 62.4044 58.8746 54.2332C58.3328 53.9223 57.6668 53.9223 57.1251 54.2332C42.8831 62.4046 34.8243 78.2338 36.5942 94.5603L36.5963 94.5786L37.5756 102.807L36.4759 103.612C33.1361 106.055 30.656 109.414 29.3035 113.324C27.9537 117.227 27.827 121.391 28.9367 125.368L33.2911 142.671C33.457 143.331 33.9888 143.835 34.6562 143.967C34.7696 143.989 34.8833 144 34.996 144C35.5474 144 36.0755 143.74 36.4105 143.285L43.4672 133.716H51.6203L56.4379 143.048C56.7396 143.633 57.3423 144 57.9999 144C58.6575 144 59.2603 143.633 59.5619 143.048L64.3795 133.716H72.5328L79.5893 143.285C79.9244 143.74 80.4522 144 81.0038 144C81.1167 144 81.2304 143.989 81.3438 143.967C82.0111 143.835 82.5426 143.331 82.7087 142.671L87.0634 125.368C88.1727 121.391 88.046 117.227 86.6963 113.324ZM57.9999 57.8C64.2505 61.6116 69.1283 67.0654 72.2424 73.3939H43.7573C46.8716 67.0654 51.7493 61.6116 57.9999 57.8ZM35.7916 138.201L32.3405 124.488C32.3366 124.473 32.3326 124.457 32.3283 124.442C30.515 117.973 32.8126 110.977 38.0542 106.828L40.955 131.2L35.7916 138.201ZM57.9999 138.41L55.5768 133.716H60.4231L57.9999 138.41ZM44.3765 130.201L40.0885 94.1727C39.4431 88.2064 40.232 82.3128 42.2427 76.9097H73.7571C75.7678 82.313 76.5568 88.2066 75.9113 94.1729L71.6231 130.201H44.3765ZM83.6715 124.442C83.6673 124.458 83.6632 124.473 83.6595 124.488L80.2083 138.201L75.0447 131.2L77.9454 106.828C83.1869 110.977 85.4847 117.973 83.6715 124.442Z" fill="url(#paint2_linear)"/>
</g>
<circle opacity="0.3" cx="59" cy="101" r="58.5" transform="rotate(-90 59 101)" stroke="#D8E8FF"/>
<path opacity="0.5" d="M88 50L108 31L109 31L89 50.5L88 50Z" fill="#D8E8FF"/>
<path opacity="0.5" d="M10 30H109V31H10V30Z" fill="#D8E8FF"/>
<path d="M14.216 21V10.715H10.51V9.304H19.367V10.715H15.678V21H14.216ZM26.3375 21.136C24.7849 21.136 23.6855 20.983 23.0395 20.677C22.3935 20.371 21.9799 19.8383 21.7985 19.079C21.6285 18.3083 21.5435 16.9993 21.5435 15.152C21.5435 13.3047 21.6285 12.0013 21.7985 11.242C21.9799 10.4713 22.3935 9.933 23.0395 9.627C23.6855 9.321 24.7849 9.168 26.3375 9.168C27.8789 9.168 28.9725 9.321 29.6185 9.627C30.2759 9.933 30.6895 10.4713 30.8595 11.242C31.0409 12.0013 31.1315 13.3047 31.1315 15.152C31.1315 16.9993 31.0409 18.3083 30.8595 19.079C30.6895 19.8383 30.2759 20.371 29.6185 20.677C28.9725 20.983 27.8789 21.136 26.3375 21.136ZM26.3375 19.776C27.4935 19.776 28.2755 19.7023 28.6835 19.555C29.0915 19.4077 29.3579 19.0393 29.4825 18.45C29.6072 17.8607 29.6695 16.7613 29.6695 15.152C29.6695 13.5427 29.6072 12.4433 29.4825 11.854C29.3579 11.2647 29.0915 10.8963 28.6835 10.749C28.2755 10.6017 27.4935 10.528 26.3375 10.528C25.1815 10.528 24.3939 10.6017 23.9745 10.749C23.5665 10.8963 23.3002 11.2647 23.1755 11.854C23.0509 12.4433 22.9885 13.5427 22.9885 15.152C22.9885 16.7613 23.0509 17.8607 23.1755 18.45C23.3002 19.0393 23.5665 19.4077 23.9745 19.555C24.3939 19.7023 25.1815 19.776 26.3375 19.776ZM42.0247 21L38.0467 15.73H35.9387V21H34.4767V9.304H35.9387V14.37H38.0467L42.0417 9.304H43.6737L39.2197 14.965L43.7247 21H42.0247ZM46.222 21V9.304H53.838V10.664H47.684V14.421H53.022V15.781H47.684V19.64H53.838V21H46.222ZM64.4717 21L58.3007 12.058H58.2327V21H56.8217V9.304H58.3177L64.4037 18.042H64.4717V9.304H65.8657V21H64.4717ZM73.5059 21.136C72.8826 21.136 72.1856 21.1133 71.4149 21.068C70.6556 21.0227 69.9812 20.966 69.3919 20.898V19.555C70.8652 19.7023 72.0949 19.776 73.0809 19.776C73.6929 19.776 74.1746 19.7533 74.5259 19.708C74.8886 19.6513 75.1946 19.555 75.4439 19.419C75.6706 19.283 75.8179 19.0847 75.8859 18.824C75.9539 18.552 75.9879 18.195 75.9879 17.753C75.9879 17.2203 75.9596 16.8463 75.9029 16.631C75.8462 16.4043 75.7102 16.24 75.4949 16.138C75.2909 16.036 74.9339 15.9623 74.4239 15.917L71.5339 15.594C70.8312 15.5147 70.2986 15.3503 69.9359 15.101C69.5846 14.8403 69.3466 14.506 69.2219 14.098C69.1086 13.6787 69.0519 13.1347 69.0519 12.466C69.0519 11.5367 69.2106 10.834 69.5279 10.358C69.8566 9.882 70.3099 9.56467 70.8879 9.406C71.4772 9.24733 72.2649 9.168 73.2509 9.168C73.9082 9.168 74.5769 9.19633 75.2569 9.253C75.9369 9.30967 76.4752 9.37767 76.8719 9.457V10.749C76.4412 10.681 75.9086 10.63 75.2739 10.596C74.6392 10.5507 74.0499 10.528 73.5059 10.528C72.8712 10.528 72.3612 10.5563 71.9759 10.613C71.5906 10.6697 71.2902 10.766 71.0749 10.902C70.8369 11.038 70.6839 11.2193 70.6159 11.446C70.5479 11.6727 70.5139 11.9957 70.5139 12.415C70.5139 12.8797 70.5479 13.2197 70.6159 13.435C70.6839 13.639 70.8142 13.792 71.0069 13.894C71.1996 13.9847 71.5169 14.0527 71.9589 14.098L74.8149 14.421C75.4949 14.489 76.0219 14.608 76.3959 14.778C76.7699 14.948 77.0419 15.254 77.2119 15.696C77.3706 16.104 77.4499 16.7557 77.4499 17.651C77.4499 18.6823 77.2912 19.453 76.9739 19.963C76.6566 20.4617 76.2316 20.7847 75.6989 20.932C75.1662 21.068 74.4352 21.136 73.5059 21.136ZM88.2433 21V15.815H82.1063V21H80.6443V9.304H82.1063V14.404H88.2433V9.304H89.6883V21H88.2433ZM93.4355 21V9.304H94.8975V21H93.4355ZM98.6397 9.304H103.774C104.714 9.304 105.428 9.457 105.916 9.763C106.403 10.069 106.726 10.4827 106.885 11.004C107.043 11.5253 107.123 12.1997 107.123 13.027C107.123 13.8203 107.043 14.4833 106.885 15.016C106.726 15.5373 106.397 15.9567 105.899 16.274C105.411 16.5913 104.692 16.75 103.74 16.75H100.102V21H98.6397V9.304ZM103.247 15.39C103.983 15.39 104.522 15.3163 104.862 15.169C105.202 15.0103 105.423 14.7723 105.525 14.455C105.627 14.1377 105.678 13.6617 105.678 13.027C105.678 12.3923 105.627 11.9163 105.525 11.599C105.434 11.2817 105.219 11.0493 104.879 10.902C104.55 10.7433 104.017 10.664 103.281 10.664H100.102V15.39H103.247Z" fill="#D8E8FF"/>
<defs>
<linearGradient id="paint0_linear" x1="58.4638" y1="81.1897" x2="58.4638" y2="105.716" gradientUnits="userSpaceOnUse">
<stop offset="0.607292" stop-color="#D8E8FF"/>
<stop offset="1" stop-color="#DC1E3C"/>
</linearGradient>
<linearGradient id="paint1_linear" x1="58.4635" y1="109.365" x2="58.4635" y2="124.406" gradientUnits="userSpaceOnUse">
<stop offset="0.607292" stop-color="#D8E8FF"/>
<stop offset="1" stop-color="#DC1E3C"/>
</linearGradient>
<linearGradient id="paint2_linear" x1="57.9999" y1="54" x2="57.9999" y2="144" gradientUnits="userSpaceOnUse">
<stop offset="0.607292" stop-color="#D8E8FF"/>
<stop offset="1" stop-color="#DC1E3C"/>
</linearGradient>
<clipPath id="clip0">
<rect width="90" height="90" fill="white" transform="translate(13 54)"/>
</clipPath>
</defs>
</svg>
