<svg width="10" height="14" viewBox="0 0 10 14" fill="none" xmlns="http://www.w3.org/2000/svg">
<path d="M9.41667 3.48446C9.36684 3.29769 9.26564 3.09868 9.19078 2.92444C8.29495 0.771554 6.33759 0 4.75711 0C2.64136 0 0.311108 1.4187 0 4.34298V4.94043C0 4.96536 0.00859307 5.18934 0.0207991 5.30137C0.195199 6.69501 1.29488 8.17614 2.11617 9.56978C2.99976 11.0629 3.91662 12.5318 4.82498 14C5.38509 13.0418 5.94318 12.0711 6.49054 11.1378C6.63971 10.8639 6.81287 10.5901 6.96221 10.3287C7.06175 10.1546 7.2519 9.98056 7.33878 9.81859C8.22233 8.20091 9.64452 6.57074 9.64452 4.96533V4.30581C9.64455 4.13177 9.42881 3.52199 9.41667 3.48446ZM4.79584 6.48363C4.17392 6.48363 3.49318 6.17266 3.15717 5.31384C3.10711 5.17713 3.11115 4.90316 3.11115 4.87806V4.49229C3.11115 3.39745 4.04076 2.89958 4.84949 2.89958C5.84511 2.89958 6.61513 3.69613 6.61513 4.69175C6.61513 5.68734 5.79147 6.48363 4.79584 6.48363Z" fill="#D8E8FF"/>
</svg>
