<svg width="15" height="15" viewBox="0 0 15 15" fill="none" xmlns="http://www.w3.org/2000/svg">
<g clipPath="url(#clip0)">
<path d="M1.4397 5.2401C1.62945 5.374 2.20142 5.77167 3.15564 6.43291C4.1099 7.09416 4.84092 7.6033 5.34874 7.96037C5.40453 7.99951 5.52307 8.08459 5.7044 8.21573C5.88576 8.34696 6.03646 8.453 6.15637 8.53389C6.27637 8.61475 6.42144 8.70546 6.59172 8.80588C6.76194 8.9062 6.9224 8.98167 7.07307 9.03163C7.22376 9.082 7.36326 9.10695 7.49159 9.10695H7.5H7.50844C7.63677 9.10695 7.77632 9.08197 7.92702 9.03163C8.07763 8.98167 8.23823 8.90612 8.40831 8.80588C8.57847 8.70535 8.72354 8.61472 8.84354 8.53389C8.96354 8.453 9.11412 8.34696 9.29554 8.21573C9.47684 8.08447 9.59552 7.99951 9.65132 7.96037C10.1646 7.6033 11.4705 6.69646 13.5687 5.23992C13.976 4.95545 14.3164 4.61219 14.5897 4.21038C14.8633 3.80875 15 3.38742 15 2.94662C15 2.57826 14.8674 2.26294 14.6023 2.00069C14.3372 1.73838 14.0233 1.6073 13.6607 1.6073H1.33923C0.909571 1.6073 0.578919 1.75237 0.347334 2.0425C0.115778 2.33269 0 2.69542 0 3.13065C0 3.4822 0.153511 3.86317 0.460385 4.2733C0.76723 4.68346 1.09378 5.00576 1.4397 5.2401Z" fill="#D8E8FF"/>
<path d="M14.1628 6.13556C12.3327 7.37428 10.943 8.33698 9.99446 9.02344C9.67638 9.25772 9.41835 9.44061 9.22019 9.57166C9.02203 9.7028 8.75849 9.83673 8.42918 9.97338C8.1 10.1102 7.79321 10.1785 7.50856 10.1785H7.50003H7.49161C7.20702 10.1785 6.90006 10.1102 6.57087 9.97338C6.24169 9.83673 5.97797 9.7028 5.77987 9.57166C5.58182 9.44061 5.3237 9.25772 5.00566 9.02344C4.25227 8.47102 2.86557 7.50827 0.84551 6.13556C0.527348 5.92364 0.245541 5.68074 0 5.40735V12.0534C0 12.4219 0.131082 12.737 0.393393 12.9993C0.655645 13.2617 0.970992 13.3928 1.33932 13.3928H13.6608C14.029 13.3928 14.3444 13.2617 14.6066 12.9993C14.869 12.737 15 12.4219 15 12.0534V5.40735C14.76 5.67508 14.4811 5.91799 14.1628 6.13556Z" fill="#D8E8FF"/>
</g>
<defs>
<clipPath id="clip0">
<rect width="15" height="15" fill="white"/>
</clipPath>
</defs>
</svg>
