<svg width="12" height="14" viewBox="0 0 12 14" fill="none" xmlns="http://www.w3.org/2000/svg">
<path d="M13.9933 11.0415C14.023 11.2688 13.9537 11.4664 13.7858 11.6343L11.8147 13.5906C11.7257 13.6894 11.6097 13.7735 11.4664 13.8426C11.3231 13.9118 11.1824 13.9562 11.0441 13.976C11.0342 13.976 11.0045 13.9785 10.9551 13.9834C10.9057 13.9884 10.8415 13.9909 10.7625 13.9909C10.5747 13.9909 10.2708 13.9588 9.8509 13.8945C9.43098 13.8303 8.91721 13.6722 8.30961 13.4202C7.70186 13.1683 7.01271 12.7903 6.24206 12.2865C5.4714 11.7826 4.65129 11.0909 3.7818 10.2115C3.09016 9.52978 2.51709 8.87767 2.06259 8.25522C1.60808 7.63272 1.2425 7.05718 0.965847 6.52857C0.689168 5.99996 0.481676 5.52075 0.343349 5.09095C0.205021 4.66115 0.111156 4.29063 0.0617534 3.97939C0.0123507 3.66815 -0.00741041 3.42361 0.00247014 3.24576C0.0123507 3.06791 0.0172909 2.9691 0.0172909 2.94934C0.037052 2.81101 0.0815145 2.67022 0.150678 2.52695C0.219842 2.38368 0.303827 2.26758 0.402632 2.17866L2.3738 0.207491C2.51213 0.0691638 2.67022 0 2.84807 0C2.97651 0 3.09014 0.037052 3.18894 0.111156C3.28775 0.18526 3.37173 0.276655 3.4409 0.385341L5.02673 3.39397C5.11565 3.55205 5.14035 3.72496 5.10083 3.91269C5.06131 4.10042 4.97732 4.25851 4.84888 4.38696L4.12266 5.11318C4.10289 5.13294 4.0856 5.16505 4.07078 5.20952C4.05596 5.25398 4.04855 5.29103 4.04855 5.32067C4.08807 5.52816 4.177 5.7653 4.31533 6.03207C4.43389 6.2692 4.61668 6.55821 4.8637 6.89909C5.11071 7.23997 5.46147 7.63269 5.91597 8.07732C6.3606 8.53187 6.75582 8.88505 7.10164 9.13706C7.44739 9.38891 7.73649 9.57425 7.96868 9.69281C8.20087 9.81138 8.37872 9.88301 8.50221 9.90764L8.68742 9.94472C8.70718 9.94472 8.73936 9.93728 8.78378 9.92249C8.82824 9.90764 8.86035 9.89037 8.88014 9.87059L9.7249 9.01098C9.90285 8.85292 10.1102 8.77387 10.3474 8.77387C10.5154 8.77387 10.6487 8.80349 10.7475 8.8628H10.7623L13.6227 10.5524C13.8303 10.6809 13.9538 10.8439 13.9933 11.0415Z" fill="#D8E8FF"/>
</svg>
