<svg width="74" height="24" viewBox="0 0 74 24" fill="none" xmlns="http://www.w3.org/2000/svg">
<path d="M42.205 17L41.29 14.51H36.925L36.04 17H34.33L38.035 6.68H40.24L43.945 17H42.205ZM39.145 8.39H39.07L37.42 12.995H40.795L39.145 8.39ZM45.6486 6.68H49.0386C50.4986 6.68 51.5286 6.815 52.1286 7.085C52.7386 7.355 53.1236 7.82 53.2836 8.48C53.4436 9.13 53.5236 10.25 53.5236 11.84C53.5236 13.43 53.4436 14.555 53.2836 15.215C53.1236 15.875 52.7386 16.34 52.1286 16.61C51.5286 16.87 50.4986 17 49.0386 17H45.6486V6.68ZM48.8736 15.47C49.9336 15.47 50.6386 15.415 50.9886 15.305C51.3486 15.195 51.5786 14.915 51.6786 14.465C51.7886 14.015 51.8436 13.14 51.8436 11.84C51.8436 10.56 51.7886 9.695 51.6786 9.245C51.5686 8.785 51.3336 8.5 50.9736 8.39C50.6136 8.27 49.9136 8.21 48.8736 8.21H47.3436V15.47H48.8736ZM62.1557 17L60.6257 13.1H60.5957H57.6707V17H55.9757V6.68H60.7907C61.6307 6.68 62.2657 6.81 62.6957 7.07C63.1357 7.32 63.4257 7.675 63.5657 8.135C63.7157 8.585 63.7907 9.17 63.7907 9.89C63.7907 10.58 63.6857 11.2 63.4757 11.75C63.2757 12.29 62.8707 12.665 62.2607 12.875L63.9557 17H62.1557ZM60.0857 11.585C60.6957 11.585 61.1407 11.535 61.4207 11.435C61.7107 11.325 61.8957 11.155 61.9757 10.925C62.0557 10.695 62.0957 10.35 62.0957 9.89C62.0957 9.41 62.0557 9.06 61.9757 8.84C61.9057 8.62 61.7357 8.46 61.4657 8.36C61.1957 8.26 60.7557 8.21 60.1457 8.21H57.6707V11.585H60.0857ZM68.301 17V8.255H65.166V6.68H73.131V8.255H69.996V17H68.301Z" fill="#00183C"/>
<circle cx="12" cy="12" r="12" fill="#042250"/>
<path d="M10.854 20.8887C10.5984 20.8416 10.4664 20.7921 10.194 20.6424C10.1676 20.6276 10.1148 20.6041 10.0776 20.5905C10.0392 20.5769 10.008 20.5596 10.008 20.5534C10.008 20.5459 10.0128 20.5435 10.0188 20.5484C10.0248 20.5521 10.0332 20.5497 10.0368 20.5435C10.0476 20.5274 9.96358 20.4668 9.87358 20.4247C9.80997 20.3962 9.77878 20.3715 9.73198 20.3134C9.59757 20.1513 9.47997 19.9385 9.40917 19.7343C9.37317 19.6267 9.35997 19.5314 9.38397 19.5463C9.40917 19.5624 9.41757 19.5389 9.40557 19.4906C9.39717 19.456 9.38157 19.4337 9.35877 19.4201C9.33237 19.404 9.32397 19.3892 9.32397 19.3595C9.32397 19.3298 9.32877 19.3211 9.34557 19.3223C9.36357 19.3236 9.36597 19.31 9.36117 19.1689C9.35397 18.9005 9.39717 18.6468 9.49197 18.3994C9.58077 18.1705 9.69358 17.9924 9.89038 17.7746C9.92158 17.74 9.92397 17.7325 9.90717 17.7264C9.89637 17.7226 9.88798 17.7115 9.88798 17.7041C9.88798 17.683 10.0152 17.5791 10.134 17.4999C10.2216 17.443 10.236 17.4368 10.2996 17.4368C10.4028 17.4368 10.4928 17.3898 10.434 17.3676C10.4244 17.3626 10.416 17.3552 10.416 17.3502C10.416 17.3354 10.548 17.3032 10.65 17.2946C10.7028 17.2896 10.7736 17.281 10.806 17.2735C10.8816 17.2575 11.2164 17.2599 11.352 17.2772C12.0888 17.3725 12.6732 17.9095 12.8508 18.6555C12.888 18.8114 12.9 18.9203 12.9 19.091C12.8988 19.8284 12.4848 20.4754 11.832 20.7637C11.5248 20.8986 11.1588 20.9456 10.854 20.8887Z" fill="#5CE1E6"/>
<path d="M19.3728 14.2609C19.374 14.2424 19.3548 14.2411 19.188 14.2436C18.7104 14.251 18.318 14.1026 17.952 13.7759C17.9088 13.7376 17.8668 13.6955 17.8572 13.6831C17.8404 13.6609 17.8404 13.6609 17.8236 13.6831C17.8008 13.7153 17.7816 13.7005 17.6964 13.5879C17.5752 13.427 17.544 13.3627 17.544 13.2786C17.544 13.2279 17.5356 13.1883 17.5188 13.1536C17.4948 13.1041 17.4924 13.1029 17.4756 13.1252C17.4432 13.1709 17.43 13.119 17.3916 12.8035C17.3628 12.5684 17.3712 12.2542 17.4108 12.0587C17.5536 11.3547 18.0528 10.8178 18.7188 10.652C19.3224 10.501 19.9548 10.6792 20.3928 11.1234C20.826 11.5638 21.0072 12.222 20.8668 12.8456C20.8332 12.9977 20.7888 13.119 20.706 13.286C20.6652 13.3677 20.6196 13.4666 20.6052 13.5062C20.5824 13.5644 20.5752 13.5743 20.5632 13.5582C20.5524 13.5421 20.5452 13.5458 20.5164 13.5829C20.4972 13.6077 20.4636 13.6683 20.442 13.7178C20.406 13.7982 20.3916 13.8168 20.3016 13.891C20.1252 14.037 19.9296 14.1471 19.7292 14.2127C19.6116 14.251 19.5816 14.2535 19.5864 14.2238C19.5888 14.2052 19.5816 14.2015 19.548 14.204C19.5168 14.2052 19.4976 14.2164 19.4748 14.2436C19.44 14.2869 19.3692 14.2993 19.3728 14.2609Z" fill="#5CE1E6"/>
<path d="M4.51802 12.3767C4.20962 12.3185 3.95402 12.2022 3.71402 12.0104C3.36242 11.7296 3.13082 11.3114 3.06122 10.8339C3.04442 10.7225 3.04442 10.4293 3.06002 10.3229C3.09362 10.1014 3.15002 9.92451 3.25082 9.72284C3.28922 9.64861 3.33482 9.54592 3.35402 9.49643C3.38402 9.41602 3.39002 9.40859 3.39842 9.43334L3.40922 9.46179L3.43802 9.42591C3.45482 9.40488 3.48362 9.35292 3.50402 9.30838C3.52442 9.26384 3.54482 9.2193 3.54962 9.2094C3.55562 9.1995 3.60482 9.15373 3.66002 9.10795C3.82682 8.96815 4.01042 8.86546 4.21922 8.7937C4.35842 8.74545 4.38242 8.74297 4.37762 8.7739C4.37522 8.79122 4.38242 8.79494 4.41602 8.79246C4.44722 8.79122 4.46642 8.78009 4.48922 8.75287C4.52522 8.70833 4.59482 8.6972 4.59122 8.73555C4.59002 8.75535 4.60922 8.75782 4.80602 8.75906C5.05322 8.76153 5.16362 8.77761 5.36762 8.84566C5.63162 8.9335 5.90522 9.10671 6.08402 9.29972C6.11162 9.32941 6.11522 9.33065 6.13442 9.31209C6.15482 9.29353 6.15842 9.29353 6.18122 9.3158C6.22082 9.35168 6.30722 9.47169 6.36722 9.57067C6.41402 9.64985 6.42002 9.66841 6.42002 9.7315C6.42002 9.7711 6.42842 9.82429 6.43922 9.85028C6.45602 9.89234 6.45962 9.89358 6.47282 9.87502C6.48122 9.86265 6.49442 9.85275 6.50042 9.85275C6.51482 9.85275 6.53642 9.93193 6.54482 10.0198C6.56162 10.1781 6.56762 10.2239 6.58202 10.3043C6.59162 10.3612 6.59402 10.3984 6.58562 10.4132C6.57962 10.4243 6.57842 10.4664 6.58202 10.506C6.58682 10.5444 6.58442 10.6433 6.57722 10.725C6.54002 11.1357 6.39002 11.5007 6.13682 11.7976C5.91722 12.0562 5.59802 12.2542 5.25002 12.347C5.03762 12.4051 4.73282 12.4175 4.51802 12.3767Z" fill="#5CE1E6"/>
<path d="M12.996 5.99265C12.9876 5.9877 12.9108 5.98276 12.8232 5.98276C12.504 5.98152 12.2184 5.90358 11.9448 5.74398C11.1396 5.27136 10.8276 4.21726 11.2392 3.35492C11.3808 3.05799 11.5704 2.83158 11.832 2.64971C12.0912 2.47032 12.3444 2.37753 12.678 2.34289C12.8484 2.32433 12.9372 2.33175 13.26 2.38619C13.2696 2.38743 13.2864 2.39237 13.296 2.39609C13.3056 2.3998 13.362 2.42083 13.422 2.44186C13.5156 2.47527 13.7232 2.57424 13.758 2.6027C13.7652 2.60765 13.8144 2.62992 13.8696 2.65219C13.9236 2.67322 13.968 2.69673 13.968 2.70291C13.968 2.71034 13.9632 2.71157 13.956 2.70786C13.95 2.70415 13.938 2.70415 13.9308 2.7091C13.9104 2.72147 13.9908 2.78333 14.0808 2.82169C14.1504 2.85014 14.1732 2.8687 14.2284 2.93675C14.37 3.11119 14.4864 3.32399 14.556 3.53556C14.598 3.66423 14.6028 3.71371 14.5716 3.71124C14.5368 3.70877 14.55 3.77805 14.592 3.81764C14.6316 3.85599 14.6448 3.93146 14.61 3.92404C14.5944 3.92033 14.5908 3.95621 14.5884 4.17396C14.5848 4.4548 14.5716 4.53522 14.4996 4.75544C14.4168 5.0066 14.3088 5.19465 14.1144 5.41983C14.0532 5.49158 14.0412 5.51138 14.0568 5.51757C14.0676 5.52128 14.076 5.53117 14.076 5.53984C14.076 5.55963 13.9248 5.68706 13.8228 5.7514C13.7484 5.79841 13.7256 5.80707 13.6728 5.80707C13.6068 5.80707 13.5396 5.82563 13.5132 5.85161C13.4976 5.86522 13.4988 5.86893 13.5156 5.87636C13.5768 5.89986 13.4772 5.93574 13.296 5.95554C13.2204 5.96296 13.1244 5.97781 13.0836 5.98647C13.0428 5.99389 13.0032 5.9976 12.996 5.99265Z" fill="#5CE1E6"/>
<path d="M9.90598 20.5187C9.50278 20.3406 9.23158 20.1934 8.91598 19.9793C8.54398 19.7269 8.30398 19.5253 7.96438 19.1813C7.63318 18.846 7.43398 18.5998 7.18438 18.2126C6.59878 17.3069 6.25438 16.2627 6.17878 15.1616C6.15358 14.8004 6.17518 14.2473 6.22798 13.8638C6.26998 13.5533 6.33838 13.2477 6.37438 13.2093C6.38878 13.1932 6.40198 13.1833 6.40438 13.1858C6.40678 13.1883 6.40078 13.2242 6.39118 13.265C6.21478 13.9628 6.16918 14.8696 6.26998 15.6305C6.32998 16.0833 6.46798 16.6191 6.64198 17.0719C7.15078 18.3969 8.15278 19.5574 9.37318 20.2354C9.62878 20.3777 10.02 20.5633 10.0344 20.5484C10.0368 20.546 10.0548 20.5571 10.074 20.5732C10.0944 20.5893 10.1076 20.6029 10.104 20.6029C10.1004 20.6029 10.0116 20.5658 9.90598 20.5187Z" fill="#EBBF89"/>
<path d="M9.72596 20.3566C8.84876 19.9471 8.06756 19.2976 7.48196 18.4946C7.12316 18.0022 6.82076 17.3911 6.63716 16.791C6.55676 16.5312 6.52796 16.4137 6.46316 16.0883C6.41516 15.8507 6.35396 15.2965 6.34196 14.9909C6.33476 14.7929 6.34916 14.2844 6.35996 14.3809C6.36836 14.4539 6.38636 14.4477 6.40316 14.3661L6.41756 14.3005L6.42116 14.3871C6.42356 14.4354 6.43076 14.4725 6.43796 14.4712C6.44636 14.47 6.44877 14.5776 6.44637 14.7805C6.44277 15.0775 6.45476 15.3497 6.47996 15.5377C6.53396 15.9349 6.57956 16.1749 6.65396 16.4409C6.87356 17.2253 7.23476 17.9317 7.74596 18.5751C7.88036 18.7446 7.91396 18.7804 7.92356 18.7644C7.93196 18.7507 7.84196 18.606 7.74356 18.4724C7.46156 18.0888 7.24916 17.7486 7.10036 17.443C6.98516 17.203 6.88797 16.9729 6.88077 16.9209C6.87837 16.8974 6.85796 16.8244 6.83516 16.7576C6.50636 15.7827 6.43316 14.6964 6.63116 13.6881C6.69716 13.354 6.83637 12.8443 6.88077 12.7787C6.89397 12.7589 6.90716 12.7391 6.90837 12.7367C6.91076 12.7342 6.91556 12.7342 6.91916 12.7391C6.92276 12.7429 6.89636 12.8394 6.85916 12.9544C6.72356 13.38 6.64556 13.7499 6.59156 14.2164C6.55196 14.5653 6.56756 15.4449 6.61436 15.5043C6.64197 15.5377 6.64436 15.4944 6.62756 15.2903C6.59276 14.8709 6.62276 14.2857 6.70316 13.8378C6.73676 13.646 6.81596 13.3008 6.82436 13.3083C6.82677 13.312 6.81836 13.3578 6.80516 13.411C6.79196 13.4654 6.76556 13.5978 6.74516 13.7066C6.49676 15.0799 6.74396 16.5349 7.42316 17.7103C7.66436 18.1272 8.02436 18.5615 8.44196 18.9388C8.71796 19.1887 8.82476 19.2741 8.84636 19.2605C8.86196 19.2506 8.84036 19.2271 8.71796 19.1207C8.44676 18.8844 8.05676 18.4748 8.06996 18.4402C8.07356 18.4315 8.05556 18.4006 8.03036 18.3722C7.95357 18.2868 7.71596 17.9565 7.73156 17.9565C7.73396 17.9565 7.76996 18.0022 7.80956 18.0591C7.97156 18.2868 8.19356 18.5441 8.34716 18.6802C8.39396 18.7211 8.52836 18.8448 8.64716 18.9549C8.89196 19.1838 9.06476 19.326 9.26396 19.4621L9.40316 19.5562L9.43196 19.6564C9.49676 19.8791 9.64676 20.1401 9.82556 20.3443C9.87476 20.3987 9.91196 20.4433 9.90956 20.442C9.90716 20.442 9.82556 20.4037 9.72596 20.3566Z" fill="#EBBF89"/>
<path d="M9.20515 19.3149C8.74435 18.9994 8.29555 18.5652 7.92355 18.074C7.83715 17.9602 7.72795 17.7956 7.59955 17.5853C7.52755 17.4653 7.31995 17.0657 7.31995 17.0459C7.31995 17.0397 7.36195 17.1152 7.41355 17.2141C7.51915 17.4158 7.56835 17.5012 7.70395 17.709C8.06035 18.2584 8.63395 18.8349 9.24355 19.2555C9.34195 19.3236 9.36115 19.3422 9.36715 19.3768C9.37195 19.3991 9.37315 19.4189 9.37075 19.4213C9.36835 19.4238 9.29395 19.3756 9.20515 19.3149Z" fill="#EBBF89"/>
<path d="M7.62593 17.8031C7.50593 17.6138 7.35713 17.3342 7.25993 17.1152C7.16753 16.9086 7.04033 16.5745 7.04753 16.5547C7.04993 16.5473 7.07273 16.603 7.09793 16.6772C7.20833 16.9989 7.40753 17.4195 7.60073 17.7375C7.66913 17.8513 7.72313 17.9441 7.72073 17.9441C7.71713 17.9441 7.67513 17.881 7.62593 17.8031Z" fill="#EBBF89"/>
<path d="M9.91073 17.7288C9.90833 17.7263 9.85433 17.7152 9.79193 17.7041C9.45473 17.6447 9.00833 17.4925 8.75513 17.3514C8.72153 17.3317 8.66273 17.2995 8.62553 17.2785C8.48633 17.2005 8.30513 17.0718 8.15993 16.9481C7.66193 16.5262 7.28993 15.9744 7.09793 15.3769C6.96953 14.9785 6.89753 14.4972 6.90473 14.0951C6.90833 13.9442 6.91793 13.9021 6.93953 13.9429C6.94793 13.9565 6.95153 14.0357 6.94913 14.1397C6.94193 14.5764 7.03553 15.0799 7.19873 15.482C7.28753 15.6998 7.42793 15.9683 7.53233 16.118C7.55033 16.1452 7.58753 16.1984 7.61393 16.2367C7.70393 16.3679 7.81553 16.4978 7.82753 16.4854C7.84193 16.4706 7.81433 16.4235 7.69313 16.2578C7.57433 16.0932 7.48193 15.9497 7.40513 15.8037C7.33313 15.6701 7.22873 15.4288 7.20593 15.3459C7.19753 15.315 7.17353 15.2321 7.15433 15.1604C7.08593 14.9141 7.02953 14.6197 7.03313 14.5281L7.03433 14.4984L7.04153 14.5269C7.05473 14.5739 7.07393 14.5591 7.08113 14.496L7.08833 14.4366L7.08953 14.4861C7.09313 14.5578 7.13633 14.8115 7.16993 14.9574C7.25273 15.3113 7.42193 15.7109 7.60673 15.9942C7.67393 16.0944 7.84313 16.3072 7.94273 16.4136C8.01713 16.4941 8.27393 16.7254 8.32793 16.7601C8.34713 16.7724 8.36513 16.7774 8.36873 16.7712C8.37233 16.7638 8.31233 16.7007 8.23433 16.6289C8.11793 16.5213 7.90673 16.2986 7.92233 16.2986C7.92473 16.2986 7.96313 16.3345 8.00753 16.3778C8.16593 16.5324 8.48153 16.8083 8.56913 16.8702C8.81273 17.0421 9.08993 17.1919 9.32153 17.276C9.49433 17.3391 9.79313 17.4034 9.97793 17.4195C10.0307 17.4232 10.0907 17.4282 10.1099 17.4306C10.1303 17.4331 10.1891 17.4356 10.2419 17.4356L10.3379 17.4368L10.2899 17.4628C10.2215 17.4999 10.0235 17.6385 9.96473 17.6904C9.93833 17.714 9.91313 17.7313 9.91073 17.7288Z" fill="#EBBF89"/>
<path d="M14.736 17.5395C14.3568 17.5185 14.1252 17.4925 13.86 17.4418C13.596 17.3923 13.4652 17.3564 13.4328 17.3243C13.4172 17.3094 13.4052 17.2946 13.4076 17.2933C13.4088 17.2909 13.4772 17.3057 13.5588 17.3267C14.0076 17.4368 14.4684 17.49 14.97 17.49C15.7584 17.4888 16.446 17.3527 17.2056 17.0459C17.4276 16.9568 17.904 16.7081 18.12 16.5683C19.0452 15.9695 19.7952 15.1406 20.2956 14.1644C20.406 13.9504 20.5728 13.5706 20.5644 13.5557C20.5608 13.5495 20.5716 13.5285 20.5872 13.5087L20.6172 13.4716L20.5908 13.5396C20.5776 13.5768 20.5584 13.6275 20.55 13.651C20.52 13.7376 20.3544 14.0951 20.2656 14.2646C19.7112 15.3299 18.8064 16.2565 17.784 16.8096C17.0268 17.2179 16.2624 17.448 15.414 17.5222C15.2616 17.5358 14.8476 17.547 14.736 17.5395Z" fill="#EBBF89"/>
<path d="M10.2599 17.3663C9.93951 17.3515 9.59631 17.2871 9.34311 17.1944C9.29631 17.177 9.24471 17.1585 9.22791 17.1523C9.21111 17.1473 9.15471 17.1226 9.10191 17.0991C8.68791 16.9086 8.34471 16.6537 8.03391 16.311C7.87431 16.1341 7.87911 16.1328 8.04951 16.3073C8.59671 16.8665 9.17151 17.1733 9.87591 17.2834C10.0223 17.3069 10.4531 17.3144 10.6379 17.2983L10.7339 17.2896L10.6559 17.3119C10.6127 17.3243 10.5623 17.3416 10.5419 17.3502C10.5071 17.3651 10.3943 17.3713 10.2599 17.3663Z" fill="#EBBF89"/>
<path d="M14.67 17.3502C14.6436 17.3453 14.6268 17.3403 14.6328 17.3391C14.658 17.3354 14.61 17.3008 14.5776 17.3008C14.5572 17.3008 14.5452 17.2958 14.55 17.2884C14.5536 17.2822 14.5812 17.276 14.61 17.276C14.6388 17.276 14.6664 17.2698 14.67 17.2636C14.676 17.2537 14.7444 17.2525 14.8836 17.2587C15.246 17.2735 15.762 17.2253 16.1688 17.1411C17.0928 16.9469 17.9628 16.5077 18.7296 15.8483C18.8136 15.7765 18.8388 15.748 18.8292 15.7382C18.8196 15.7283 18.81 15.7283 18.7992 15.7357C18.7896 15.7431 18.75 15.7703 18.7092 15.7975C18.6684 15.8248 18.5772 15.8916 18.5064 15.9472C18.282 16.1217 17.9712 16.3382 17.7936 16.4434C17.5464 16.5894 17.1324 16.7898 17.058 16.7997C17.0436 16.8022 16.9392 16.8343 16.824 16.8727C16.2432 17.0682 15.7524 17.156 15.156 17.1733C14.5164 17.1906 13.9104 17.0978 13.1976 16.8751C13.0644 16.8331 12.9588 16.7786 12.9816 16.7638C12.9876 16.7601 13.0728 16.7848 13.1712 16.8195C13.5648 16.9556 13.968 17.0484 14.376 17.0966C14.55 17.1176 14.9604 17.1374 15.108 17.1325C15.4656 17.1201 15.6768 17.0978 15.6696 17.0719C15.6672 17.0644 15.6144 17.062 15.528 17.0657C15.2616 17.0781 14.6472 17.0719 14.502 17.0558C14.2308 17.0261 13.7664 16.9382 13.638 16.8925L13.602 16.8801L13.638 16.8863C13.6584 16.8888 13.7388 16.9061 13.818 16.9234C14.1984 17.0075 14.4696 17.0335 14.964 17.0335C15.4044 17.0335 15.5508 17.0224 15.9036 16.9605C16.5648 16.8442 17.154 16.6302 17.7144 16.3036C17.9424 16.1699 18.0204 16.1155 18.246 15.9349C18.5808 15.6664 18.9108 15.3311 19.1604 15.0057C19.3152 14.8028 19.3248 14.7892 19.3116 14.7756C19.3044 14.7682 19.26 14.814 19.188 14.903C19.026 15.1035 18.6084 15.534 18.5796 15.5291C18.564 15.5266 18.5592 15.5315 18.5616 15.5489C18.5652 15.5662 18.5604 15.5699 18.5472 15.5649C18.5352 15.56 18.5124 15.5711 18.4884 15.5922C18.3804 15.6874 18 15.9769 17.9016 16.0376C17.8272 16.0833 17.85 16.0586 17.9328 16.0029C18.0612 15.9163 18.3636 15.6775 18.498 15.5575C18.5676 15.4957 18.66 15.4004 18.7056 15.3472C18.75 15.294 18.876 15.1468 18.9864 15.0193C19.2372 14.7311 19.3644 14.5678 19.5 14.3624L19.6056 14.2015L19.6848 14.178C19.9128 14.1112 20.1732 13.9516 20.3784 13.7524L20.46 13.6732L20.406 13.8044C20.2164 14.2708 19.8516 14.8709 19.5012 15.2903C19.0968 15.7753 18.5916 16.2108 18.0696 16.5263C17.3364 16.9692 16.5924 17.2154 15.678 17.3193C15.3228 17.3589 14.8056 17.375 14.67 17.3502Z" fill="#EBBF89"/>
<path d="M14.334 17.2129C14.214 17.1968 14.1984 17.1894 14.304 17.1981C14.4084 17.2055 14.514 17.224 14.454 17.224C14.4348 17.224 14.3808 17.2191 14.334 17.2129Z" fill="#EBBF89"/>
<path d="M14.1516 17.1807C14.1624 17.1783 14.1816 17.1783 14.1936 17.1807C14.2044 17.1845 14.1948 17.1869 14.172 17.1869C14.1492 17.1869 14.1396 17.1845 14.1516 17.1807Z" fill="#EBBF89"/>
<path d="M14.2079 16.8912C13.9667 16.8702 13.8251 16.8529 13.6979 16.8294C13.5347 16.7984 13.3775 16.7589 13.3631 16.7428C13.3571 16.7366 13.3703 16.7378 13.3931 16.744C13.5287 16.7861 13.8107 16.8368 14.0339 16.8615C14.1251 16.8714 14.4779 16.8727 14.6339 16.864C14.7239 16.8591 14.7359 16.8603 14.6819 16.8677C14.6423 16.8727 14.5655 16.8776 14.5115 16.8789C14.4575 16.8801 14.4095 16.8863 14.4059 16.8925C14.3975 16.9061 14.3735 16.9061 14.2079 16.8912Z" fill="#EBBF89"/>
<path d="M13.494 16.8553C13.4784 16.8492 13.4772 16.8442 13.488 16.8442C13.4976 16.8442 13.5168 16.8492 13.53 16.8553C13.5456 16.8615 13.5468 16.8665 13.536 16.8665C13.5264 16.8665 13.5072 16.8615 13.494 16.8553Z" fill="#EBBF89"/>
<path d="M14.7755 16.8467C14.7863 16.8442 14.8055 16.8442 14.8175 16.8467C14.8283 16.8504 14.8187 16.8529 14.7959 16.8529C14.7731 16.8529 14.7635 16.8504 14.7755 16.8467Z" fill="#EBBF89"/>
<path d="M14.9459 16.8182C14.9663 16.8133 14.9951 16.8083 15.0119 16.8083C15.0383 16.8083 15.0383 16.8096 15.0059 16.8182C14.9867 16.8232 14.9567 16.8281 14.9399 16.8281C14.9135 16.8281 14.9135 16.8269 14.9459 16.8182Z" fill="#EBBF89"/>
<path d="M7.84195 16.7168C7.78915 16.6599 7.72915 16.5943 7.70995 16.5708L7.67395 16.5275L7.71115 16.5646C7.78675 16.6426 7.94755 16.8182 7.94275 16.8182C7.94035 16.8182 7.89475 16.7725 7.84195 16.7168Z" fill="#EBBF89"/>
<path d="M16.0559 16.8059C16.0727 16.8009 16.0967 16.796 16.1099 16.796C16.1291 16.796 16.1279 16.7984 16.1039 16.8059C16.0871 16.8108 16.0631 16.8158 16.0499 16.8158C16.0307 16.8158 16.0319 16.8133 16.0559 16.8059Z" fill="#EBBF89"/>
<path d="M15.1319 16.7811C15.1727 16.7675 15.2039 16.7675 15.1739 16.7811C15.1607 16.7873 15.1391 16.791 15.1259 16.791C15.1067 16.791 15.1079 16.7886 15.1319 16.7811Z" fill="#EBBF89"/>
<path d="M16.218 16.7675C16.2648 16.7551 16.3068 16.7465 16.314 16.7477C16.3272 16.7527 16.1724 16.7935 16.1496 16.7922C16.1412 16.7922 16.1724 16.7811 16.218 16.7675Z" fill="#EBBF89"/>
<path d="M14.1395 16.765C14.1395 16.7539 14.1467 16.7428 14.1551 16.7391C14.1635 16.7354 14.2751 16.7316 14.4023 16.7304C14.5295 16.7292 14.6963 16.7205 14.7719 16.7106C15.4091 16.6314 15.9863 16.379 16.4939 15.9584C16.6163 15.8569 16.6379 15.8334 16.6211 15.8235C16.6079 15.8149 16.5503 15.8507 16.4603 15.9213C16.3691 15.9943 16.2059 16.113 16.1159 16.1712C15.9707 16.2652 15.6683 16.4248 15.5999 16.4421C15.5903 16.4446 15.5015 16.4718 15.4019 16.5028C15.1199 16.5918 14.7311 16.6698 14.6507 16.6537C14.6279 16.65 14.6291 16.6475 14.6603 16.6463C14.7455 16.6426 14.7923 16.5968 14.7143 16.5943C14.6963 16.5943 14.7479 16.5832 14.8295 16.5708C15.0935 16.5287 15.3659 16.452 15.6107 16.3481C15.7379 16.2949 15.9647 16.1774 16.0199 16.1378C16.0367 16.1254 16.0703 16.1044 16.0955 16.0895C16.1951 16.0314 16.4063 15.8507 16.5731 15.68C16.7459 15.5031 16.9115 15.3014 16.9007 15.2816C16.8911 15.2655 16.8539 15.2915 16.8167 15.3423C16.7579 15.4227 16.5335 15.6553 16.4579 15.7134L16.3859 15.7703L16.4543 15.7035C16.6391 15.5241 16.9451 15.1492 17.0723 14.9439C17.1959 14.7459 17.3327 14.4589 17.3975 14.2634C17.4695 14.0469 17.5271 13.7079 17.5391 13.4258L17.5475 13.2563L17.6015 13.3516C17.6555 13.4468 17.7779 13.6201 17.8103 13.6485C17.8259 13.6609 17.8235 13.6856 17.7947 13.839C17.7359 14.1582 17.6519 14.4391 17.5439 14.689C17.4851 14.8263 17.3903 15.0169 17.3519 15.0738C17.3411 15.0911 17.3291 15.1134 17.3243 15.1233C17.3159 15.1443 17.1731 15.3509 17.0699 15.4907C16.9223 15.6911 16.5911 16.0042 16.3499 16.1712C15.7823 16.5646 15.1679 16.7551 14.4047 16.7774C14.1671 16.7836 14.1395 16.7824 14.1395 16.765Z" fill="#EBBF89"/>
<path d="M15.2939 16.7378C15.3467 16.7205 15.3959 16.7081 15.4019 16.7081C15.4199 16.7094 15.2363 16.7687 15.2159 16.7675C15.2063 16.7675 15.2411 16.7539 15.2939 16.7378Z" fill="#EBBF89"/>
<path d="M16.464 16.7007C16.5132 16.6834 16.56 16.6698 16.566 16.671C16.5852 16.6722 16.4604 16.7156 16.4148 16.7242C16.392 16.7279 16.4148 16.7168 16.464 16.7007Z" fill="#EBBF89"/>
<path d="M14.2535 16.6611C14.3219 16.6587 14.4299 16.6587 14.4935 16.6611C14.5571 16.6624 14.5019 16.6648 14.3699 16.6648C14.2379 16.6648 14.1851 16.6624 14.2535 16.6611Z" fill="#EBBF89"/>
<path d="M16.6919 16.6252C17.1227 16.4656 17.4443 16.3097 17.8055 16.0858C17.8259 16.0722 17.8439 16.0648 17.8439 16.0685C17.8439 16.0945 17.3531 16.3629 17.0963 16.478C16.9463 16.5448 16.6163 16.6698 16.5935 16.6685C16.5851 16.6685 16.6295 16.6487 16.6919 16.6252Z" fill="#EBBF89"/>
<path d="M14.0315 16.6487C14.0495 16.6463 14.0759 16.6463 14.0915 16.6487C14.1059 16.6512 14.0915 16.6537 14.0579 16.6537C14.0255 16.6537 14.0123 16.6512 14.0315 16.6487Z" fill="#EBBF89"/>
<path d="M13.9355 16.6363C13.9463 16.6339 13.9655 16.6339 13.9775 16.6363C13.9883 16.6401 13.9787 16.6425 13.9559 16.6425C13.9331 16.6425 13.9235 16.6401 13.9355 16.6363Z" fill="#EBBF89"/>
<path d="M15.5999 16.6351C15.6095 16.629 15.6311 16.6191 15.6479 16.6153C15.6683 16.6092 15.6719 16.6104 15.6599 16.6178C15.6503 16.624 15.6287 16.6339 15.6119 16.6376C15.5915 16.6438 15.5879 16.6426 15.5999 16.6351Z" fill="#EBBF89"/>
<path d="M14.3735 16.6116C14.3879 16.6092 14.4119 16.6092 14.4275 16.6116C14.4419 16.6141 14.4299 16.6166 14.3999 16.6166C14.3699 16.6166 14.3579 16.6141 14.3735 16.6116Z" fill="#EBBF89"/>
<path d="M14.5427 16.6042C14.5475 16.598 14.5811 16.5956 14.6171 16.598L14.6819 16.6017L14.6075 16.6079C14.5667 16.6116 14.5379 16.6092 14.5427 16.6042Z" fill="#EBBF89"/>
<path d="M7.00196 16.4285C6.98396 16.3692 6.97197 16.3197 6.97437 16.316C6.97677 16.3135 6.99476 16.3593 7.01276 16.4174C7.03076 16.4756 7.04276 16.5263 7.04036 16.53C7.03676 16.5337 7.01876 16.4879 7.00196 16.4285Z" fill="#EBBF89"/>
<path d="M16.14 16.3679C16.14 16.3642 16.1568 16.353 16.176 16.3419C16.1964 16.3308 16.212 16.3258 16.212 16.3283C16.212 16.332 16.1964 16.3431 16.176 16.3543C16.1568 16.3654 16.14 16.3704 16.14 16.3679Z" fill="#EBBF89"/>
<path d="M7.52156 16.3394C7.49756 16.3085 7.46276 16.2491 7.46876 16.2491C7.47236 16.2491 7.49036 16.2739 7.51076 16.3048C7.54796 16.3617 7.55276 16.3765 7.52156 16.3394Z" fill="#EBBF89"/>
<path d="M6.93599 16.1934C6.92039 16.1353 6.91079 16.0858 6.91439 16.0821C6.91679 16.0796 6.93119 16.1242 6.94679 16.1823C6.96119 16.2417 6.97079 16.2912 6.96839 16.2937C6.96599 16.2974 6.95159 16.2516 6.93599 16.1934Z" fill="#EBBF89"/>
<path d="M17.3411 16.2565C17.3447 16.2528 17.4383 16.1947 17.5487 16.1266C18.0815 15.7975 18.5267 15.3967 18.9515 14.8597C19.1003 14.6717 19.3127 14.376 19.3583 14.2931C19.3775 14.2572 19.3919 14.2461 19.4255 14.2399C19.4495 14.2362 19.4699 14.2349 19.4723 14.2362C19.4855 14.2498 19.2227 14.6259 19.0211 14.882C18.6863 15.3064 18.1655 15.7666 17.6783 16.0673C17.4647 16.1996 17.3135 16.2838 17.3411 16.2565Z" fill="#EBBF89"/>
<path d="M7.39429 16.1538C7.38229 16.134 7.36549 16.1068 7.35709 16.092C7.33189 16.0412 7.35109 16.0623 7.38949 16.1254C7.42909 16.1922 7.43269 16.2095 7.39429 16.1538Z" fill="#EBBF89"/>
<path d="M16.5119 16.1081C16.5119 16.1056 16.5479 16.0734 16.5911 16.0388C16.6355 16.0029 16.6679 15.9794 16.6631 15.9881C16.6535 16.0042 16.5119 16.1167 16.5119 16.1081Z" fill="#EBBF89"/>
<path d="M6.88917 15.9943C6.88077 15.9572 6.87597 15.9238 6.87957 15.92C6.88197 15.9176 6.89037 15.946 6.89877 15.9844C6.90717 16.0215 6.91197 16.0549 6.90837 16.0586C6.90597 16.0611 6.89757 16.0326 6.88917 15.9943Z" fill="#EBBF89"/>
<path d="M16.8299 15.8161C16.9019 15.7419 16.9643 15.68 16.9679 15.68C16.9703 15.68 16.9139 15.7419 16.8419 15.8161C16.7699 15.8916 16.7075 15.9522 16.7039 15.9522C16.7015 15.9522 16.7579 15.8916 16.8299 15.8161Z" fill="#EBBF89"/>
<path d="M6.83512 15.7282C6.83032 15.6998 6.82912 15.6738 6.83272 15.6713C6.83512 15.6688 6.84112 15.6886 6.84592 15.7171C6.85072 15.7456 6.85192 15.7703 6.84832 15.774C6.84592 15.7777 6.83992 15.7567 6.83512 15.7282Z" fill="#EBBF89"/>
<path d="M16.434 15.6107C16.668 15.3695 16.7568 15.2594 16.9284 14.9934C17.0136 14.861 17.1468 14.6073 17.1864 14.5009C17.2944 14.2164 17.37 13.9244 17.4024 13.6695C17.4192 13.5372 17.424 13.0398 17.4096 12.9148L17.4012 12.8406L17.4288 12.9334C17.4444 12.9841 17.4624 13.0398 17.4684 13.0571C17.4804 13.088 17.4792 13.2563 17.466 13.4778C17.4444 13.8019 17.3496 14.2015 17.2176 14.5108C17.166 14.6321 17.0616 14.8375 17.0268 14.8907C17.0136 14.908 17.004 14.9265 17.004 14.9303C17.004 14.9463 16.8648 15.1443 16.7568 15.2841C16.644 15.4289 16.4508 15.6305 16.332 15.7295C16.296 15.7592 16.3416 15.706 16.434 15.6107Z" fill="#EBBF89"/>
<path d="M7.06914 15.5179C7.06194 15.4957 7.05834 15.4759 7.06074 15.4734C7.06314 15.4709 7.07154 15.4858 7.07874 15.508C7.08594 15.5303 7.08954 15.5501 7.08714 15.5526C7.08474 15.555 7.07634 15.5402 7.06914 15.5179Z" fill="#EBBF89"/>
<path d="M6.93832 15.1258C6.91672 15.0503 6.89992 14.981 6.90112 14.9723C6.90112 14.9637 6.92032 15.0206 6.94192 15.0985C6.96472 15.1765 6.98152 15.2458 6.98032 15.2519C6.97792 15.2581 6.95992 15.2012 6.93832 15.1258Z" fill="#EBBF89"/>
<path d="M6.84235 14.6531C6.84235 14.6296 6.84475 14.6197 6.84835 14.6321C6.85075 14.6432 6.85075 14.663 6.84835 14.6754C6.84475 14.6865 6.84235 14.6766 6.84235 14.6531Z" fill="#EBBF89"/>
<path d="M6.82315 14.5269C6.79195 14.1867 6.78955 14.0964 6.80995 13.8724C6.82075 13.7475 6.83995 13.5817 6.85315 13.5038C6.87475 13.3689 6.93235 13.119 6.94315 13.1079C6.95395 13.0967 6.94675 13.1326 6.91675 13.2501C6.83635 13.5681 6.79795 14.0704 6.82675 14.423C6.83395 14.517 6.83875 14.5962 6.83635 14.5999C6.83275 14.6024 6.82795 14.5702 6.82315 14.5269Z" fill="#EBBF89"/>
<path d="M7.02356 14.4304C7.02356 14.3933 7.02596 14.3772 7.02836 14.397C7.03076 14.4156 7.03076 14.4453 7.02836 14.4651C7.02596 14.4836 7.02356 14.4675 7.02356 14.4304Z" fill="#EBBF89"/>
<path d="M7.07153 14.3438C7.07153 14.2931 7.07393 14.2721 7.07633 14.2981C7.07873 14.3228 7.07873 14.3649 7.07633 14.3909C7.07393 14.4156 7.07153 14.3946 7.07153 14.3438Z" fill="#EBBF89"/>
<path d="M7.0127 14.1644C7.0127 14.0766 7.0139 14.0419 7.0163 14.0877C7.0187 14.1335 7.0187 14.2065 7.0163 14.2486C7.0139 14.2906 7.0127 14.2535 7.0127 14.1644Z" fill="#EBBF89"/>
<path d="M6.36237 14.2201C6.36237 14.1966 6.36477 14.1867 6.36837 14.1991C6.37077 14.2102 6.37077 14.23 6.36837 14.2424C6.36477 14.2535 6.36237 14.2436 6.36237 14.2201Z" fill="#EBBF89"/>
<path d="M6.48352 14.2015C6.48352 14.1681 6.48592 14.1545 6.48832 14.1743C6.49072 14.1929 6.49072 14.2201 6.48832 14.2362C6.48592 14.251 6.48352 14.2362 6.48352 14.2015Z" fill="#EBBF89"/>
<path d="M6.4931 14.0951C6.4931 14.0716 6.4979 14.0308 6.5039 14.0036C6.51229 13.9652 6.51229 13.9739 6.50749 14.0407C6.5003 14.1323 6.4919 14.1657 6.4931 14.0951Z" fill="#EBBF89"/>
<path d="M7.02356 13.8922C7.02356 13.8588 7.02596 13.8452 7.02836 13.865C7.03076 13.8836 7.03076 13.9108 7.02836 13.9269C7.02596 13.9417 7.02356 13.9269 7.02356 13.8922Z" fill="#EBBF89"/>
<path d="M7.03553 13.7685C7.03553 13.7413 7.03793 13.7314 7.04033 13.7475C7.04273 13.7623 7.04273 13.7846 7.04033 13.797C7.03673 13.8081 7.03433 13.7957 7.03553 13.7685Z" fill="#EBBF89"/>
<path d="M17.0376 10.5134C17.034 10.5097 17.0628 10.4082 17.1012 10.2882C17.2872 9.70551 17.3736 9.19578 17.3952 8.54748C17.406 8.23694 17.3724 7.75195 17.3388 7.72968C17.316 7.71608 17.3136 7.76804 17.3268 7.90784C17.3652 8.31736 17.3436 8.87534 17.2728 9.31455C17.25 9.4593 17.1864 9.76737 17.178 9.77603C17.1672 9.78716 17.172 9.75128 17.1888 9.67334C17.2116 9.57436 17.2512 9.32816 17.2764 9.12278C17.3028 8.90751 17.3064 8.10332 17.2824 7.89176C17.178 7.00221 16.9524 6.27844 16.5672 5.59302C16.446 5.37651 16.4004 5.30599 16.2768 5.14392C16.0116 4.79379 15.6972 4.4585 15.384 4.19127C15.1716 4.0094 15.1332 3.98218 15.1188 3.99702C15.1128 4.00321 15.1824 4.07497 15.3 4.17889C15.5688 4.41891 15.9132 4.78636 15.8952 4.81482C15.8916 4.82101 15.906 4.84822 15.9288 4.87421C16.044 5.01401 16.2984 5.37651 16.35 5.47301C16.3716 5.51508 16.332 5.46064 16.254 5.34311C16.0884 5.09443 15.798 4.72945 15.6972 4.64532C15.6684 4.62058 15.5904 4.55129 15.5244 4.48943C15.0852 4.07992 14.928 3.9463 14.712 3.79783C14.6376 3.74711 14.574 3.70381 14.568 3.70133C14.5632 3.69886 14.544 3.65061 14.526 3.59246C14.4408 3.32522 14.3028 3.08767 14.1144 2.88477L14.0364 2.80188L14.1672 2.86127C15.3972 3.42296 16.3944 4.39417 16.9824 5.60292C17.3436 6.34401 17.532 7.08139 17.604 8.0328C17.6172 8.2122 17.6208 8.77389 17.6088 8.80606C17.6052 8.81719 17.5968 8.82338 17.592 8.81967C17.5776 8.81101 17.5584 8.8407 17.5524 8.88153C17.5488 8.90874 17.5476 8.9038 17.5452 8.86173C17.5452 8.82956 17.5368 8.7974 17.5272 8.78997C17.5152 8.77884 17.5128 8.72811 17.5176 8.53758C17.532 7.92764 17.4408 7.24594 17.2668 6.67311C17.136 6.24503 16.9416 5.80088 16.7112 5.40126C16.5768 5.1699 16.4616 4.99916 16.2744 4.75172C16.08 4.49562 16.0608 4.47459 16.044 4.49191C16.0332 4.50181 16.0404 4.5216 16.0776 4.57233C16.104 4.60821 16.1316 4.65151 16.14 4.66883C16.1484 4.68615 16.2048 4.76657 16.266 4.84822C16.5816 5.27506 16.83 5.70314 17.0004 6.11636C17.0304 6.18812 17.0568 6.25864 17.058 6.27473C17.0604 6.29081 17.0676 6.31061 17.0748 6.31927C17.082 6.32793 17.0856 6.33782 17.082 6.34154C17.0784 6.34525 17.0952 6.40587 17.1192 6.47639C17.3472 7.14943 17.4468 7.80392 17.4324 8.53882C17.4228 9.07824 17.3784 9.39002 17.2296 9.98264C17.1552 10.2783 17.1168 10.4021 17.0796 10.4689C17.0484 10.5245 17.0472 10.5245 17.0376 10.5134Z" fill="#EBBF89"/>
<path d="M6.546 10.1225C6.5436 10.1138 6.5268 10.0594 6.5088 10.0025C6.4824 9.91709 6.4776 9.87874 6.4788 9.78595C6.4896 9.15992 6.6396 8.61308 6.9444 8.0885C7.1148 7.79528 7.4052 7.45258 7.662 7.24225L7.758 7.16431L7.662 7.25833C7.6092 7.3103 7.5624 7.35236 7.5576 7.3536C7.5396 7.35484 7.2516 7.69012 7.1592 7.81755C7.0236 8.00561 6.9564 8.11325 6.8676 8.29264C6.702 8.62792 6.5988 8.98671 6.5508 9.38881C6.534 9.53109 6.5328 9.97524 6.5496 10.073C6.5592 10.1324 6.558 10.1596 6.546 10.1225Z" fill="#EBBF89"/>
<path d="M17.0172 10.1249C17.0172 10.115 17.0268 10.0618 17.04 10.0074C17.0988 9.75996 17.1468 9.36281 17.1492 9.09186C17.1492 8.99783 17.1516 8.9867 17.1624 9.01639C17.1744 9.04856 17.1612 9.34425 17.142 9.48158C17.1396 9.4989 17.1312 9.56571 17.124 9.63005C17.1048 9.78717 17.0196 10.1831 17.0172 10.1249Z" fill="#EBBF89"/>
<path d="M17.5571 10.0309C17.8283 8.88154 17.8079 7.79032 17.4959 6.71024C17.0867 5.29116 16.1903 4.06137 14.9771 3.25348C14.6603 3.04315 14.1239 2.75612 13.9619 2.71158C13.9319 2.70292 13.8935 2.68436 13.8755 2.66828C13.8491 2.64724 13.8755 2.65467 13.9871 2.70044C14.8535 3.06047 15.6143 3.61103 16.2515 4.33975C16.6211 4.76287 16.9043 5.19342 17.1515 5.71181C17.7815 7.0282 17.9507 8.44357 17.6459 9.86017C17.6195 9.98018 17.6075 10.0136 17.5799 10.0433L17.5451 10.0792L17.5571 10.0309Z" fill="#EBBF89"/>
<path d="M17.1252 9.95792C17.1252 9.95174 17.1348 9.90967 17.148 9.86513C17.16 9.82059 17.1708 9.79585 17.1708 9.80946C17.1708 9.83544 17.1276 9.97896 17.1252 9.95792Z" fill="#EBBF89"/>
<path d="M6.36122 9.65851C6.30242 9.55582 6.18602 9.39003 6.14642 9.35292C6.12842 9.33683 6.12482 9.32446 6.13202 9.30961C6.13682 9.29848 6.14882 9.24775 6.15602 9.19703C6.19202 8.96691 6.27122 8.67988 6.36722 8.42996C6.61202 7.79156 7.02602 7.2509 7.57562 6.85499C8.14082 6.44795 8.83442 6.22896 9.58201 6.22278C9.69481 6.22278 9.79681 6.22649 9.81001 6.23144C9.86281 6.25371 9.78841 6.26484 9.53882 6.26979C8.99162 6.28093 8.57042 6.38485 8.08802 6.62982C7.99682 6.6756 7.99202 6.67807 7.86722 6.75478C7.73882 6.83148 7.60202 6.93046 7.47002 7.0381C7.34882 7.13831 7.32602 7.16182 7.34282 7.17296C7.35602 7.18162 7.41482 7.14574 7.50362 7.07522C7.66562 6.94531 7.86722 6.80798 8.01602 6.72509C8.17682 6.63724 8.39642 6.5395 8.48402 6.51847C8.49362 6.516 8.54042 6.50239 8.58602 6.48754C8.74562 6.43805 8.85121 6.41207 9.01801 6.38238C9.17281 6.35392 9.31322 6.34155 9.24242 6.36135C9.19682 6.37496 9.21122 6.39475 9.27242 6.40217C9.32522 6.40836 9.32641 6.4096 9.28561 6.41083C9.26161 6.41207 9.16321 6.42692 9.06721 6.44424C8.54041 6.53579 8.08442 6.73375 7.68602 7.04181C7.46522 7.21378 7.01642 7.70619 7.05722 7.73217C7.06442 7.73588 7.09562 7.7099 7.12562 7.67402C7.23842 7.54164 7.45562 7.31771 7.51082 7.27935L7.56602 7.23976L7.52282 7.27812C7.46882 7.32513 7.12322 7.7198 7.05122 7.81754C6.98042 7.91157 6.85922 8.09591 6.81362 8.17633C6.75242 8.28521 6.61682 8.5809 6.57842 8.68977C6.49202 8.93721 6.43442 9.25518 6.42122 9.57067L6.41402 9.75254L6.36122 9.65851Z" fill="#EBBF89"/>
<path d="M3.35154 9.50635C3.49074 9.12157 3.66954 8.75165 3.89034 8.38667C4.22274 7.83859 4.65594 7.32886 5.16354 6.89088C5.81274 6.32919 6.64314 5.88998 7.47713 5.66605C7.95713 5.53738 8.38193 5.47675 8.89793 5.46438C9.41633 5.45201 9.87713 5.50026 10.3631 5.61656C10.4699 5.6413 10.5035 5.65491 10.5287 5.68213L10.5599 5.71553L10.4495 5.68708C9.94673 5.55841 9.43433 5.50273 8.86913 5.51387C8.30393 5.525 7.85034 5.59552 7.32594 5.75265C6.35754 6.04463 5.50674 6.55807 4.78314 7.29174C4.29594 7.78539 3.90834 8.32852 3.61554 8.93104C3.52194 9.12157 3.39594 9.41603 3.39594 9.44077C3.39594 9.45067 3.38394 9.47418 3.36954 9.4915C3.35634 9.51006 3.34674 9.51624 3.35154 9.50635Z" fill="#EBBF89"/>
<path d="M16.9235 9.4321C16.9235 9.40118 16.9259 9.3888 16.9283 9.40489C16.9307 9.41973 16.9307 9.44448 16.9283 9.46056C16.9259 9.4754 16.9235 9.46303 16.9235 9.4321Z" fill="#EBBF89"/>
<path d="M16.9355 9.27127C16.9355 9.22054 16.9379 9.19951 16.9403 9.22549C16.9427 9.25023 16.9427 9.2923 16.9403 9.31828C16.9379 9.34303 16.9355 9.32199 16.9355 9.27127Z" fill="#EBBF89"/>
<path d="M17.4383 9.30838C17.4371 9.29106 17.4419 9.25518 17.4467 9.22796C17.4539 9.19579 17.4575 9.18961 17.4575 9.2094C17.4587 9.22672 17.4539 9.2626 17.4491 9.28982C17.4419 9.32199 17.4383 9.32817 17.4383 9.30838Z" fill="#EBBF89"/>
<path d="M3.50391 9.31953C3.50391 9.30221 3.59751 9.09065 3.67431 8.93105C3.88191 8.50421 4.15911 8.07119 4.45071 7.71858C4.58151 7.55898 4.92711 7.20267 5.08191 7.06781C5.81511 6.42446 6.70311 5.97783 7.64271 5.78359C8.14191 5.67966 8.73231 5.62399 9.15591 5.64131C9.28431 5.64626 9.37791 5.65368 9.36231 5.65739C9.31551 5.66976 9.32631 5.68832 9.38991 5.70317L9.44991 5.71802L9.37191 5.72173C9.32871 5.7242 9.29511 5.73162 9.29631 5.73905C9.29751 5.74647 9.16071 5.75142 8.90631 5.75142C8.66031 5.75142 8.46231 5.75761 8.37591 5.7675C8.19471 5.78854 7.86111 5.84174 7.76991 5.86277C7.51671 5.92216 7.45311 5.93948 7.30191 5.98649C6.57111 6.21661 5.93511 6.56798 5.30391 7.09008C5.13471 7.23112 5.11551 7.25092 5.13111 7.267C5.14311 7.27937 5.29791 7.17297 5.60031 6.94409C5.85591 6.75109 5.94951 6.68675 6.16191 6.56179C6.41751 6.41085 6.86751 6.19063 6.88431 6.20795C6.88791 6.21043 6.96111 6.18816 7.04751 6.15722C7.46991 6.01 7.83231 5.92339 8.24391 5.87019C8.89191 5.7873 9.52911 5.81823 10.1639 5.96298C10.2947 5.99268 10.3367 6.00381 10.5899 6.07557C10.7699 6.12629 10.9175 6.17826 10.9319 6.19805C10.9403 6.20795 10.9547 6.21537 10.9631 6.21537C10.9727 6.21537 10.9799 6.22156 10.9799 6.22775C10.9799 6.24754 10.9607 6.24259 10.7771 6.17949C10.3583 6.0335 9.93591 5.94071 9.46791 5.89122C9.13791 5.85658 8.34591 5.87638 8.29431 5.92092C8.26191 5.94937 8.30511 5.95185 8.51391 5.93453C8.87391 5.90483 9.36231 5.92463 9.75111 5.98525C9.91071 6.01 10.2167 6.07557 10.2839 6.09784C10.3487 6.12011 10.3259 6.11763 10.1255 6.07557C9.57351 5.95803 9.01431 5.92958 8.44191 5.98773C7.63911 6.06815 6.88551 6.31682 6.18831 6.73005C5.71671 7.0109 5.20671 7.47362 4.81311 7.9784C4.65951 8.17388 4.63791 8.20604 4.65231 8.22089C4.65951 8.22831 4.70391 8.18254 4.76991 8.09964C4.90191 7.93262 5.36871 7.45011 5.39151 7.45506C5.39991 7.45753 5.48871 7.39443 5.58711 7.31525C6.02871 6.96017 6.39951 6.72882 6.85071 6.52839C7.10511 6.41456 7.55511 6.2562 7.58871 6.26857C7.59591 6.27105 7.58271 6.27723 7.55991 6.28342C7.48071 6.30074 7.12191 6.42817 6.95991 6.49622C6.28911 6.77954 5.60511 7.24721 5.23311 7.67776C5.16711 7.75446 5.04831 7.89303 4.96791 7.98458C4.77591 8.20357 4.57311 8.46462 4.46151 8.63412C4.41231 8.70959 4.36911 8.7764 4.36671 8.78258C4.36431 8.79001 4.32111 8.80857 4.27191 8.82465C4.02111 8.9063 3.76191 9.06467 3.57351 9.2552C3.53511 9.29231 3.50391 9.32201 3.50391 9.31953Z" fill="#EBBF89"/>
<path d="M17.0075 9.30219C17.0039 9.29106 17.0039 9.23662 17.0063 9.18095C17.0159 9.02135 16.9955 8.69967 16.9631 8.50419C16.8995 8.12066 16.7987 7.81507 16.6187 7.45875C16.4903 7.20388 16.1651 6.74117 16.1363 6.77086C16.1231 6.78447 16.1555 6.83767 16.3031 7.04428C16.4939 7.31152 16.6499 7.6035 16.7339 7.84847C16.7879 8.00683 16.8587 8.2716 16.8791 8.39284C16.8827 8.41016 16.8875 8.43243 16.8899 8.44233C16.9007 8.48068 16.9319 8.73308 16.9307 8.76895C16.9283 8.80483 16.9283 8.8036 16.9211 8.76029C16.9103 8.6873 16.8899 8.70586 16.8839 8.79741L16.8779 8.88154L16.8683 8.77019C16.8383 8.39903 16.7243 7.98456 16.5551 7.62577C16.5059 7.52185 16.4771 7.46741 16.3859 7.30534C16.3235 7.1977 16.1303 6.95892 15.9731 6.79684C15.7811 6.60013 15.6071 6.45414 15.5927 6.47764C15.5867 6.4863 15.6155 6.51971 15.6671 6.56548C15.7835 6.67065 16.0463 6.94655 16.0367 6.95644C16.0319 6.96015 16.0259 6.95768 16.0235 6.94902C16.0175 6.93046 15.7187 6.65085 15.5651 6.51847C15.2435 6.24257 14.8307 6.0174 14.4683 5.91966C14.2379 5.8578 14.0795 5.83306 13.7603 5.81202L13.6427 5.8046L13.7591 5.73161C13.8227 5.69202 13.9127 5.62644 13.9583 5.58561C14.0279 5.52499 14.0471 5.51386 14.0687 5.52252C14.0819 5.5287 14.1323 5.53984 14.1779 5.54726C14.2871 5.56458 14.5583 5.6351 14.7035 5.68335C15.1163 5.81945 15.4895 6.03472 15.8519 6.34526C16.0343 6.50239 16.1255 6.59641 16.2731 6.78447C16.7819 7.42782 17.0279 8.1454 17.0483 9.04609C17.0543 9.29601 17.0531 9.32075 17.0351 9.32075C17.0243 9.32075 17.0123 9.31209 17.0075 9.30219Z" fill="#EBBF89"/>
<path d="M16.8887 9.06092C16.8887 8.96194 16.8911 8.92235 16.8923 8.97184C16.8947 9.02009 16.8947 9.10175 16.8923 9.15123C16.8911 9.19949 16.8887 9.1599 16.8887 9.06092Z" fill="#EBBF89"/>
<path d="M17.4611 9.10921C17.4623 9.07951 17.4671 9.03868 17.4731 9.01765C17.4791 8.99414 17.4803 9.0127 17.4755 9.06714C17.4683 9.16488 17.4587 9.1921 17.4611 9.10921Z" fill="#EBBF89"/>
<path d="M16.9355 8.90008C16.9355 8.84936 16.9379 8.82832 16.9403 8.8543C16.9427 8.87905 16.9427 8.92111 16.9403 8.9471C16.9379 8.97184 16.9355 8.95081 16.9355 8.90008Z" fill="#EBBF89"/>
<path d="M17.136 8.91122C17.136 8.87411 17.1336 8.80606 17.13 8.75781L17.1252 8.6712L17.136 8.74544C17.1492 8.84565 17.154 8.95947 17.1444 8.97061C17.1396 8.97432 17.136 8.94834 17.136 8.91122Z" fill="#EBBF89"/>
<path d="M4.49995 8.738C4.52635 8.68727 4.57435 8.61428 4.67275 8.47323C5.12635 7.82617 5.66035 7.31521 6.29275 6.92673C6.49195 6.80424 6.69595 6.69166 6.69595 6.70403C6.69595 6.7065 6.66835 6.72506 6.63355 6.74238C6.53035 6.79682 6.25675 6.96755 6.14635 7.04673C5.63515 7.41542 5.21035 7.84473 4.81195 8.399C4.72195 8.52272 4.59955 8.70459 4.57675 8.74913C4.57555 8.75161 4.55515 8.75656 4.52995 8.76027C4.48555 8.76769 4.48555 8.76769 4.49995 8.738Z" fill="#EBBF89"/>
<path d="M17.1143 8.62792C17.1143 8.60442 17.1167 8.59452 17.1203 8.60689C17.1227 8.61802 17.1227 8.63782 17.1203 8.65019C17.1167 8.66133 17.1143 8.65143 17.1143 8.62792Z" fill="#EBBF89"/>
<path d="M17.082 8.44852C17.0784 8.41636 17.0772 8.3879 17.0796 8.38543C17.0832 8.38171 17.0892 8.40522 17.094 8.43615C17.0976 8.46832 17.0987 8.49677 17.0964 8.49925C17.0928 8.50296 17.0868 8.47945 17.082 8.44852Z" fill="#EBBF89"/>
<path d="M17.034 8.21964C17.0292 8.1986 17.028 8.17757 17.0316 8.1751C17.034 8.17138 17.04 8.18747 17.0448 8.2085C17.0544 8.26047 17.0448 8.27036 17.034 8.21964Z" fill="#EBBF89"/>
<path d="M16.9572 7.95239C16.95 7.92641 16.9464 7.9029 16.95 7.90043C16.9524 7.89795 16.9596 7.91651 16.9668 7.94249C16.974 7.96847 16.9776 7.99198 16.974 7.99445C16.9716 7.99693 16.9644 7.97837 16.9572 7.95239Z" fill="#EBBF89"/>
<path d="M17.0711 7.31523C17.0591 7.25955 17.0531 7.21254 17.0555 7.21006C17.0579 7.20759 17.0699 7.24966 17.0819 7.30409C17.0927 7.35977 17.0999 7.40678 17.0975 7.41049C17.0939 7.41297 17.0831 7.3709 17.0711 7.31523Z" fill="#EBBF89"/>
<path d="M7.1099 7.19277C7.1819 7.11853 7.2443 7.05667 7.2479 7.05667C7.2503 7.05667 7.1939 7.11853 7.1219 7.19277C7.0499 7.26824 6.9875 7.32886 6.9839 7.32886C6.9815 7.32886 7.0379 7.26824 7.1099 7.19277Z" fill="#EBBF89"/>
<path d="M16.5852 7.1482C16.5708 7.12469 16.566 7.10861 16.572 7.11232C16.5852 7.12098 16.6236 7.19274 16.6152 7.19274C16.6128 7.19274 16.5996 7.17294 16.5852 7.1482Z" fill="#EBBF89"/>
<path d="M17.0171 7.08635C17.0027 7.02697 16.9931 6.97748 16.9955 6.975C16.9979 6.97129 17.0123 7.01707 17.0279 7.07521C17.0435 7.13336 17.0531 7.18285 17.0495 7.18656C17.0471 7.18904 17.0327 7.1445 17.0171 7.08635Z" fill="#EBBF89"/>
<path d="M15.9767 7.01461C15.8087 6.82531 15.5555 6.60509 15.3263 6.44796C15.1283 6.31187 14.9267 6.20918 14.6735 6.11515C14.2559 5.9605 13.7867 5.90359 13.3079 5.94937L13.2419 5.95555L13.3247 5.93081C13.3703 5.9172 13.4183 5.89864 13.4327 5.89122C13.4795 5.864 13.8971 5.88503 14.1299 5.92586C14.2499 5.94689 14.4551 6.00009 14.5919 6.04587C15.0323 6.19433 15.4595 6.46281 15.8135 6.81418C15.8879 6.88841 16.0859 7.11853 16.0751 7.11853C16.0715 7.11853 16.0283 7.07152 15.9767 7.01461Z" fill="#EBBF89"/>
<path d="M7.3007 7.00842C7.3103 6.99234 7.4519 6.87975 7.4519 6.88841C7.4519 6.89089 7.4159 6.92306 7.3727 6.9577C7.3283 6.99358 7.2959 7.01708 7.3007 7.00842Z" fill="#EBBF89"/>
<path d="M16.9151 6.73747C16.8347 6.48508 16.8299 6.46776 16.8539 6.51848C16.8779 6.56921 16.9931 6.93419 16.9895 6.94656C16.9871 6.95151 16.9547 6.85748 16.9151 6.73747Z" fill="#EBBF89"/>
<path d="M16.3247 6.782C16.2731 6.72014 16.2551 6.69416 16.2683 6.70158C16.2755 6.70653 16.2995 6.73251 16.3199 6.75973C16.3607 6.81293 16.3643 6.82777 16.3247 6.782Z" fill="#EBBF89"/>
<path d="M7.5719 6.79315C7.5719 6.79068 7.5947 6.77212 7.6235 6.75356C7.6511 6.73376 7.6679 6.72634 7.6595 6.73624C7.6451 6.7548 7.5719 6.80181 7.5719 6.79315Z" fill="#EBBF89"/>
<path d="M6.77986 6.65455C6.82306 6.63105 6.86386 6.61249 6.86986 6.61249C6.87706 6.61249 6.84706 6.63105 6.80386 6.65455C6.76066 6.67806 6.72106 6.69662 6.71386 6.69662C6.70786 6.69662 6.73666 6.67806 6.77986 6.65455Z" fill="#EBBF89"/>
<path d="M16.11 6.53458L15.978 6.39478L16.1136 6.53087C16.2384 6.65706 16.254 6.67315 16.2444 6.67315C16.2432 6.67315 16.182 6.61005 16.11 6.53458Z" fill="#EBBF89"/>
<path d="M16.7771 6.34773C16.7147 6.19679 16.7063 6.16833 16.7399 6.23143C16.7711 6.29081 16.8395 6.46402 16.8335 6.47021C16.8311 6.47268 16.8047 6.41701 16.7771 6.34773Z" fill="#EBBF89"/>
<path d="M8.26795 6.39476C8.28475 6.38487 8.30395 6.37744 8.30995 6.37744C8.31715 6.37744 8.30875 6.38487 8.29195 6.39476C8.27515 6.40466 8.25715 6.41208 8.24995 6.41208C8.24395 6.41208 8.25115 6.40466 8.26795 6.39476Z" fill="#EBBF89"/>
<path d="M9.38151 6.39227C9.40911 6.38979 9.45231 6.38979 9.47751 6.39227C9.50151 6.39474 9.47871 6.39721 9.42591 6.39721C9.37311 6.39721 9.35271 6.39474 9.38151 6.39227Z" fill="#EBBF89"/>
<path d="M9.73547 6.39227C9.75348 6.38979 9.77988 6.38979 9.79548 6.39227C9.80988 6.39474 9.79548 6.39721 9.76188 6.39721C9.72947 6.39721 9.71627 6.39474 9.73547 6.39227Z" fill="#EBBF89"/>
<path d="M9.95753 6.35516C9.97193 6.35268 9.99353 6.35268 10.0055 6.35516C10.0163 6.35887 10.0043 6.36135 9.97793 6.36011C9.95153 6.36011 9.94193 6.35763 9.95753 6.35516Z" fill="#EBBF89"/>
<path d="M9.3035 6.3428C9.3215 6.34032 9.35031 6.34032 9.36951 6.3428C9.38751 6.34527 9.37191 6.34774 9.3359 6.34774C9.2999 6.34774 9.2843 6.34527 9.3035 6.3428Z" fill="#EBBF89"/>
<path d="M9.80154 6.3428C9.82314 6.34032 9.85554 6.34032 9.87353 6.3428C9.89153 6.34527 9.87353 6.34774 9.83394 6.34774C9.79434 6.34774 9.77994 6.34527 9.80154 6.3428Z" fill="#EBBF89"/>
<path d="M9.51951 6.33041C9.55671 6.32793 9.61911 6.32793 9.65751 6.33041C9.69471 6.33288 9.66351 6.33412 9.58791 6.33412C9.51231 6.33412 9.48111 6.33288 9.51951 6.33041Z" fill="#EBBF89"/>
<path d="M7.65475 6.24504C7.68475 6.23514 7.72795 6.22525 7.75075 6.22153C7.77475 6.21782 7.75675 6.22648 7.70995 6.24009C7.61515 6.26731 7.57435 6.27102 7.65475 6.24504Z" fill="#EBBF89"/>
<path d="M8.68787 6.24506C8.71787 6.2364 8.75027 6.22897 8.75987 6.22897C8.76947 6.22897 8.75387 6.23763 8.72387 6.24753C8.69387 6.25619 8.66147 6.26362 8.65187 6.26362C8.64227 6.26362 8.65787 6.25495 8.68787 6.24506Z" fill="#EBBF89"/>
<path d="M10.4939 6.23886C10.3787 6.20545 10.0931 6.1572 9.91193 6.13988C9.81953 6.13122 9.66473 6.12751 9.51233 6.13246C9.37433 6.13617 9.26393 6.13741 9.26633 6.13493C9.26753 6.13246 9.35873 6.12504 9.46674 6.11638C9.67194 6.10153 9.82313 6.10895 10.1159 6.14854C10.2587 6.16834 10.5647 6.23515 10.5959 6.2537C10.6259 6.27102 10.5899 6.26608 10.4939 6.23886Z" fill="#EBBF89"/>
<path d="M8.80795 6.21535C8.84875 6.20174 8.87995 6.20174 8.84995 6.21535C8.83675 6.22153 8.81515 6.22524 8.80195 6.22524C8.78275 6.22524 8.78395 6.22277 8.80795 6.21535Z" fill="#EBBF89"/>
<path d="M7.90793 6.18443C7.99433 6.16216 8.02793 6.1634 7.94993 6.18567C7.91753 6.19433 7.87913 6.20175 7.86593 6.20175C7.85273 6.20175 7.87193 6.19309 7.90793 6.18443Z" fill="#EBBF89"/>
<path d="M9.04197 6.16587C9.06237 6.16092 9.09477 6.15598 9.11397 6.15598C9.14397 6.15598 9.14277 6.15845 9.10197 6.16711C9.04077 6.17948 8.99157 6.17948 9.04197 6.16587Z" fill="#EBBF89"/>
<path d="M16.6211 5.99513C16.5731 5.89492 16.4951 5.74645 16.4495 5.6648C16.4027 5.58314 16.3619 5.51262 16.3595 5.50767C16.3571 5.50148 16.3571 5.49777 16.3607 5.49777C16.3823 5.49777 16.7291 6.15721 16.7147 6.17205C16.7111 6.17453 16.6691 6.09534 16.6211 5.99513Z" fill="#EBBF89"/>
<path d="M9.18958 6.14483C9.20398 6.14236 9.22558 6.14236 9.23758 6.14483C9.24838 6.14854 9.23638 6.15102 9.20998 6.14978C9.18358 6.14978 9.17398 6.14731 9.18958 6.14483Z" fill="#EBBF89"/>
<path d="M10.41 6.14111C10.3944 6.13492 10.3932 6.12997 10.404 6.12997C10.4136 6.12997 10.4328 6.13492 10.446 6.14111C10.4616 6.1473 10.4628 6.15225 10.452 6.15225C10.4424 6.15225 10.4232 6.1473 10.41 6.14111Z" fill="#EBBF89"/>
<path d="M16.5911 6.12999C16.5779 6.10895 16.5587 6.04833 16.5683 6.0607C16.5827 6.07678 16.6091 6.14112 16.6019 6.14112C16.5995 6.14112 16.5947 6.13617 16.5911 6.12999Z" fill="#EBBF89"/>
<path d="M16.4963 5.93821C16.4231 5.80088 16.2563 5.53364 16.1663 5.40868C15.7979 4.89401 15.2303 4.34097 14.7227 3.99827C14.6027 3.91785 14.5943 3.90919 14.5883 3.86712C14.5859 3.84238 14.5835 3.82011 14.5847 3.81887C14.5859 3.81763 14.6567 3.86588 14.7431 3.92527C15.3731 4.35953 15.9455 4.97195 16.3403 5.63386C16.4519 5.82191 16.5551 6.01739 16.5431 6.01739C16.5407 6.01739 16.5191 5.98151 16.4963 5.93821Z" fill="#EBBF89"/>
<path d="M9.76193 5.81944L9.71393 5.81078L9.75593 5.80954C9.77873 5.80954 9.81113 5.81449 9.82793 5.81944C9.86633 5.83181 9.83033 5.83181 9.76193 5.81944Z" fill="#EBBF89"/>
<path d="M9.55795 5.79469L9.50995 5.78603L9.55195 5.78479C9.57475 5.78479 9.61795 5.7885 9.64795 5.79345L9.70195 5.80335H9.65395C9.62755 5.80335 9.58435 5.79964 9.55795 5.79469Z" fill="#EBBF89"/>
<path d="M8.44807 12.2814C8.44807 9.04607 8.44567 9.18092 8.50927 8.96688C8.54767 8.83574 8.64247 8.64397 8.72047 8.5351C8.96887 8.19115 9.33967 7.98207 9.76207 7.94619C9.85207 7.93876 10.7437 7.93629 12.1141 7.93876C14.0797 7.94248 14.3317 7.94495 14.4145 7.96227C14.8405 8.05382 15.1993 8.3223 15.4009 8.70336C15.4573 8.80852 15.5113 8.96194 15.5437 9.10421L15.5689 9.21556L15.5725 12.2504L15.5761 15.2841H14.8741H14.1721L14.1697 13.8155L14.1661 12.3457H12.0121H9.85807L9.85447 13.8155L9.85207 15.2841H9.15007H8.44807V12.2814ZM14.1697 10.1484C14.1721 9.53724 14.1697 9.40857 14.1565 9.3962C14.1433 9.3863 13.5781 9.38382 11.9989 9.38506L9.85807 9.38877L9.85447 10.1249C9.85327 10.5295 9.85447 10.8685 9.85807 10.8771C9.86167 10.8895 10.2997 10.892 12.0145 10.8895L14.1661 10.8858L14.1697 10.1484Z" fill="white"/>
</svg>
