<svg width="66" height="24" viewBox="0 0 66 24" fill="none" xmlns="http://www.w3.org/2000/svg">
<path d="M35.38 6.68H40.285C41.285 6.68 42.005 6.9 42.445 7.34C42.895 7.77 43.12 8.415 43.12 9.275C43.12 9.975 42.975 10.525 42.685 10.925C42.405 11.315 41.96 11.575 41.35 11.705V11.765C42.04 11.905 42.525 12.175 42.805 12.575C43.085 12.975 43.225 13.54 43.225 14.27C43.225 15.14 43.005 15.815 42.565 16.295C42.135 16.765 41.375 17 40.285 17H35.38V6.68ZM39.715 11.015C40.325 11.015 40.76 10.91 41.02 10.7C41.29 10.48 41.425 10.12 41.425 9.62C41.425 9.24 41.375 8.95 41.275 8.75C41.185 8.55 41.02 8.41 40.78 8.33C40.54 8.25 40.185 8.21 39.715 8.21H37.075V11.015H39.715ZM39.775 15.485C40.235 15.485 40.59 15.44 40.84 15.35C41.09 15.26 41.265 15.11 41.365 14.9C41.475 14.69 41.53 14.395 41.53 14.015C41.53 13.465 41.4 13.085 41.14 12.875C40.89 12.655 40.435 12.545 39.775 12.545H37.075V15.485H39.775ZM52.1303 17L47.2553 9.77H47.1953V17H45.5753V6.68H47.3303L52.0703 13.655H52.1303V6.68H53.7503V17H52.1303ZM56.503 6.68H61.408C62.408 6.68 63.128 6.9 63.568 7.34C64.018 7.77 64.243 8.415 64.243 9.275C64.243 9.975 64.098 10.525 63.808 10.925C63.528 11.315 63.083 11.575 62.473 11.705V11.765C63.163 11.905 63.648 12.175 63.928 12.575C64.208 12.975 64.348 13.54 64.348 14.27C64.348 15.14 64.128 15.815 63.688 16.295C63.258 16.765 62.498 17 61.408 17H56.503V6.68ZM60.838 11.015C61.448 11.015 61.883 10.91 62.143 10.7C62.413 10.48 62.548 10.12 62.548 9.62C62.548 9.24 62.498 8.95 62.398 8.75C62.308 8.55 62.143 8.41 61.903 8.33C61.663 8.25 61.308 8.21 60.838 8.21H58.198V11.015H60.838ZM60.898 15.485C61.358 15.485 61.713 15.44 61.963 15.35C62.213 15.26 62.388 15.11 62.488 14.9C62.598 14.69 62.653 14.395 62.653 14.015C62.653 13.465 62.523 13.085 62.263 12.875C62.013 12.655 61.558 12.545 60.898 12.545H58.198V15.485H60.898Z" fill="#00183C"/>
<path d="M12 24C18.6274 24 24 18.6274 24 12C24 5.37258 18.6274 0 12 0C5.37258 0 0 5.37258 0 12C0 18.6274 5.37258 24 12 24Z" fill="#F0B90B"/>
<path d="M11.9512 2.8639L6.37695 8.43817L8.4415 10.5027L14.0158 4.92844L11.9512 2.8639Z" fill="#060606"/>
<path d="M12.0498 21.1278L17.624 15.5536L15.5595 13.489L9.9852 19.0633L12.0498 21.1278Z" fill="#060606"/>
<path d="M17.6241 8.55238L12.0498 2.9781L9.98526 5.04265L15.5595 10.6169L17.6241 8.55238Z" fill="#060606"/>
<path d="M6.3769 15.4395L11.9512 21.0137L14.0157 18.9492L8.44145 13.3749L6.3769 15.4395Z" fill="#060606"/>
<path d="M12.0145 9.93302L9.99121 11.9563L12.0145 13.9795L14.0377 11.9563L12.0145 9.93302Z" fill="#060606"/>
<path d="M4.94903 9.93302L2.92578 11.9563L4.94903 13.9795L6.97229 11.9563L4.94903 9.93302Z" fill="#060606"/>
<path d="M19.0218 9.93302L16.9985 11.9563L19.0218 13.9795L21.045 11.9563L19.0218 9.93302Z" fill="#060606"/>
</svg>
