<svg width="34" height="35" viewBox="0 0 34 35" fill="none" xmlns="http://www.w3.org/2000/svg">
<g filter="url(#filter0_d)">
<path d="M15.2169 28.83C14.8193 28.7583 14.614 28.6827 14.1902 28.4543C14.1492 28.4316 14.067 28.3957 14.0092 28.3749C13.9494 28.3542 13.9009 28.3277 13.9009 28.3183C13.9009 28.307 13.9084 28.3032 13.9177 28.3107C13.927 28.3164 13.9401 28.3126 13.9457 28.3032C13.9625 28.2786 13.8318 28.1861 13.6918 28.1219C13.5929 28.0785 13.5444 28.0407 13.4716 27.9519C13.2625 27.7046 13.0796 27.3798 12.9694 27.0682C12.9134 26.9039 12.8929 26.7585 12.9302 26.7812C12.9694 26.8057 12.9825 26.7698 12.9638 26.6962C12.9508 26.6433 12.9265 26.6093 12.891 26.5885C12.85 26.564 12.8369 26.5413 12.8369 26.496C12.8369 26.4507 12.8444 26.4375 12.8705 26.4394C12.8985 26.4413 12.9022 26.4205 12.8948 26.2052C12.8836 25.7954 12.9508 25.4083 13.0982 25.0306C13.2364 24.6813 13.4118 24.4094 13.718 24.077C13.7665 24.0241 13.7702 24.0128 13.7441 24.0034C13.7273 23.9977 13.7142 23.9807 13.7142 23.9694C13.7142 23.9373 13.9121 23.7787 14.0969 23.6578C14.2332 23.5709 14.2556 23.5615 14.3545 23.5615C14.515 23.5615 14.6551 23.4897 14.5636 23.4557C14.5486 23.4482 14.5356 23.4369 14.5356 23.4293C14.5356 23.4066 14.7409 23.3575 14.8996 23.3443C14.9817 23.3368 15.0919 23.3236 15.1423 23.3122C15.2599 23.2877 15.7807 23.2915 15.9916 23.3179C17.1377 23.4633 18.0468 24.2828 18.3231 25.4215C18.3809 25.6595 18.3996 25.8256 18.3996 26.0862C18.3977 27.2117 17.7537 28.1993 16.7383 28.6393C16.2604 28.8451 15.6911 28.9169 15.2169 28.83Z" fill="#5CE1E6"/>
<path d="M28.4688 18.714C28.4707 18.6857 28.4408 18.6838 28.1813 18.6876C27.4384 18.6989 26.828 18.4723 26.2587 17.9738C26.1915 17.9152 26.1261 17.851 26.1112 17.8322C26.0851 17.7982 26.0851 17.7982 26.0589 17.8322C26.0235 17.8813 25.9936 17.8586 25.8611 17.6868C25.6725 17.4413 25.624 17.3431 25.624 17.2147C25.624 17.1372 25.6109 17.0768 25.5848 17.0239C25.5475 16.9484 25.5437 16.9465 25.5176 16.9805C25.4672 17.0504 25.4467 16.9711 25.3869 16.4895C25.3421 16.1307 25.3552 15.6511 25.4168 15.3527C25.6389 14.2782 26.4155 13.4587 27.4515 13.2056C28.3904 12.9753 29.3741 13.2472 30.0555 13.9251C30.7293 14.5974 31.0112 15.602 30.7928 16.5537C30.7405 16.786 30.6715 16.9711 30.5427 17.226C30.4792 17.3506 30.4083 17.5017 30.3859 17.5621C30.3504 17.6509 30.3392 17.666 30.3205 17.6414C30.3037 17.6169 30.2925 17.6226 30.2477 17.6792C30.2179 17.717 30.1656 17.8095 30.132 17.885C30.076 18.0078 30.0536 18.0361 29.9136 18.1494C29.6392 18.3722 29.3349 18.5403 29.0232 18.6404C28.8403 18.6989 28.7936 18.7027 28.8011 18.6574C28.8048 18.6291 28.7936 18.6234 28.7413 18.6272C28.6928 18.6291 28.6629 18.646 28.6275 18.6876C28.5733 18.7537 28.4632 18.7726 28.4688 18.714Z" fill="#5CE1E6"/>
<path d="M5.36117 15.8381C4.88144 15.7493 4.48384 15.5718 4.1105 15.2791C3.56357 14.8505 3.2033 14.2122 3.09504 13.4833C3.0689 13.3133 3.0689 12.8658 3.09317 12.7034C3.14544 12.3654 3.23317 12.0953 3.38997 11.7875C3.4497 11.6742 3.52064 11.5175 3.5505 11.4419C3.59717 11.3192 3.6065 11.3079 3.61957 11.3456L3.63637 11.3891L3.68117 11.3343C3.7073 11.3022 3.7521 11.2229 3.78384 11.1549C3.81557 11.0869 3.8473 11.0189 3.85477 11.0038C3.8641 10.9887 3.94064 10.9189 4.0265 10.849C4.28597 10.6356 4.57157 10.4789 4.89637 10.3693C5.1129 10.2957 5.15023 10.2919 5.14277 10.3391C5.13903 10.3656 5.15024 10.3712 5.2025 10.3675C5.25104 10.3656 5.2809 10.3486 5.31637 10.307C5.37237 10.239 5.48064 10.222 5.47504 10.2806C5.47317 10.3108 5.50304 10.3146 5.80917 10.3165C6.1937 10.3202 6.36544 10.3448 6.68277 10.4487C7.09344 10.5827 7.51904 10.8471 7.79717 11.1417C7.8401 11.187 7.8457 11.1889 7.87557 11.1606C7.9073 11.1322 7.9129 11.1322 7.94837 11.1662C8.00997 11.221 8.14437 11.4042 8.2377 11.5552C8.3105 11.6761 8.31984 11.7044 8.31984 11.8007C8.31984 11.8612 8.3329 11.9424 8.3497 11.982C8.37583 12.0462 8.38144 12.0481 8.40197 12.0198C8.41504 12.0009 8.43557 11.9858 8.4449 11.9858C8.4673 11.9858 8.5009 12.1066 8.51397 12.2407C8.5401 12.4824 8.54944 12.5523 8.57184 12.675C8.58677 12.7619 8.5905 12.8186 8.57744 12.8412C8.5681 12.8582 8.56624 12.9224 8.57184 12.9829C8.5793 13.0414 8.57557 13.1925 8.56437 13.3171C8.5065 13.944 8.27317 14.5011 7.8793 14.9543C7.5377 15.349 7.04117 15.6511 6.49984 15.7928C6.16944 15.8815 5.6953 15.9004 5.36117 15.8381Z" fill="#5CE1E6"/>
<path d="M18.549 6.09406C18.5359 6.0865 18.4165 6.07895 18.2802 6.07895C17.7837 6.07706 17.3394 5.9581 16.9138 5.7145C15.6613 4.99314 15.1759 3.38424 15.8162 2.06805C16.0365 1.61484 16.3314 1.26927 16.7383 0.991676C17.1415 0.717862 17.5354 0.576234 18.0543 0.52336C18.3194 0.495034 18.4575 0.506364 18.9597 0.589453C18.9746 0.591341 19.0007 0.598894 19.0157 0.60456C19.0306 0.610225 19.1183 0.642327 19.2117 0.674429C19.3573 0.725415 19.6802 0.876485 19.7343 0.919918C19.7455 0.927471 19.8221 0.961462 19.9079 0.995453C19.9919 1.02755 20.061 1.06343 20.061 1.07288C20.061 1.08421 20.0535 1.08609 20.0423 1.08043C20.033 1.07476 20.0143 1.07476 20.0031 1.08232C19.9714 1.1012 20.0965 1.19562 20.2365 1.25416C20.3447 1.29759 20.3802 1.32592 20.4661 1.42978C20.6863 1.69604 20.8674 2.02084 20.9757 2.34375C21.041 2.54014 21.0485 2.61568 20.9999 2.6119C20.9458 2.60812 20.9663 2.71387 21.0317 2.7743C21.0933 2.83284 21.1138 2.94803 21.0597 2.9367C21.0354 2.93103 21.0298 2.9858 21.0261 3.31815C21.0205 3.74681 20.9999 3.86956 20.8879 4.20569C20.7591 4.58903 20.5911 4.87606 20.2887 5.21974C20.1935 5.32927 20.1749 5.35948 20.1991 5.36892C20.2159 5.37459 20.229 5.38969 20.229 5.40291C20.229 5.43313 19.9938 5.62763 19.8351 5.72582C19.7194 5.79758 19.6839 5.8108 19.6018 5.8108C19.4991 5.8108 19.3946 5.83913 19.3535 5.87878C19.3293 5.89955 19.3311 5.90522 19.3573 5.91655C19.4525 5.95243 19.2975 6.00719 19.0157 6.03741C18.8981 6.04874 18.7487 6.0714 18.6853 6.08462C18.6218 6.09595 18.5602 6.10161 18.549 6.09406Z" fill="#5CE1E6"/>
<path d="M13.7424 28.2654C13.1152 27.9935 12.6934 27.7688 12.2024 27.4421C11.6238 27.0569 11.2504 26.7491 10.7222 26.2241C10.207 25.7123 9.89709 25.3366 9.50883 24.7455C8.5979 23.3632 8.06216 21.7694 7.94456 20.0888C7.90536 19.5374 7.93896 18.6933 8.0211 18.1079C8.08643 17.6339 8.19283 17.1675 8.24883 17.1089C8.27123 17.0844 8.29176 17.0693 8.2955 17.073C8.29923 17.0768 8.28989 17.1316 8.27496 17.1939C8.00056 18.2589 7.92963 19.6431 8.08643 20.8045C8.17976 21.4956 8.39443 22.3133 8.66509 23.0044C9.45656 25.0269 11.0152 26.7982 12.9136 27.833C13.3112 28.0501 13.9198 28.3334 13.9422 28.3107C13.9459 28.307 13.9739 28.324 14.0038 28.3485C14.0355 28.3731 14.056 28.3938 14.0504 28.3938C14.0448 28.3938 13.9067 28.3372 13.7424 28.2654Z" fill="#EBBF89"/>
<path d="M13.4628 28.018C12.0983 27.393 10.8831 26.4016 9.97215 25.176C9.41402 24.4244 8.94362 23.4916 8.65802 22.5757C8.53295 22.1792 8.48815 21.9998 8.38735 21.5031C8.31268 21.1406 8.21748 20.2946 8.19882 19.8282C8.18762 19.526 8.21002 18.7499 8.22682 18.8972C8.23988 19.0086 8.26788 18.9992 8.29401 18.8745L8.31642 18.7744L8.32202 18.9066C8.32575 18.9803 8.33695 19.0369 8.34815 19.035C8.36122 19.0331 8.36495 19.1974 8.36122 19.5071C8.35562 19.9603 8.37428 20.3758 8.41348 20.6628C8.49748 21.269 8.56842 21.6353 8.68415 22.0413C9.02575 23.2386 9.58762 24.3168 10.3828 25.2988C10.5919 25.5575 10.6441 25.6122 10.6591 25.5877C10.6721 25.5669 10.5321 25.346 10.3791 25.142C9.94042 24.5566 9.61002 24.0373 9.37855 23.5709C9.19935 23.2046 9.04815 22.8533 9.03695 22.774C9.03322 22.7381 9.00148 22.6267 8.96602 22.5247C8.45455 21.0367 8.34068 19.3787 8.64868 17.8397C8.75135 17.3298 8.96788 16.5518 9.03695 16.4517C9.05748 16.4215 9.07802 16.3913 9.07988 16.3875C9.08362 16.3838 9.09108 16.3838 9.09668 16.3913C9.10228 16.397 9.06122 16.5443 9.00335 16.7199C8.79242 17.3695 8.67108 17.9341 8.58708 18.646C8.52548 19.1786 8.54975 20.5212 8.62255 20.6118C8.66548 20.6628 8.66922 20.5967 8.64308 20.2851C8.58895 19.645 8.63561 18.7518 8.76068 18.0682C8.81295 17.7755 8.93615 17.2486 8.94922 17.26C8.95295 17.2656 8.93988 17.3355 8.91935 17.4167C8.89882 17.4998 8.85775 17.7018 8.82601 17.868C8.43961 19.9641 8.82415 22.1848 9.88068 23.9788C10.2559 24.6152 10.8159 25.278 11.4655 25.8539C11.8948 26.2354 12.0609 26.3657 12.0945 26.3449C12.1188 26.3298 12.0852 26.2939 11.8948 26.1315C11.4729 25.7709 10.8663 25.1458 10.8868 25.0929C10.8924 25.0797 10.8644 25.0325 10.8252 24.9891C10.7057 24.8588 10.3361 24.3546 10.3604 24.3546C10.3641 24.3546 10.4201 24.4245 10.4817 24.5113C10.7337 24.8588 11.0791 25.2516 11.318 25.4593C11.3908 25.5216 11.5999 25.7104 11.7847 25.8785C12.1655 26.2278 12.4343 26.445 12.7441 26.6527L12.9607 26.7962L13.0055 26.9492C13.1063 27.2891 13.3396 27.6876 13.6177 27.9991C13.6943 28.0822 13.7521 28.1502 13.7484 28.1483C13.7447 28.1483 13.6177 28.0898 13.4628 28.018Z" fill="#EBBF89"/>
<path d="M12.6523 26.428C11.9355 25.9465 11.2373 25.2837 10.6587 24.534C10.5243 24.3603 10.3544 24.1091 10.1547 23.7881C10.0427 23.6049 9.71973 22.995 9.71973 22.9648C9.71973 22.9553 9.78506 23.0705 9.86533 23.2216C10.0296 23.5294 10.1061 23.6597 10.3171 23.9769C10.8715 24.8154 11.7637 25.6953 12.712 26.3374C12.8651 26.4413 12.8949 26.4696 12.9043 26.5225C12.9117 26.5564 12.9136 26.5867 12.9099 26.5904C12.9061 26.5942 12.7904 26.5206 12.6523 26.428Z" fill="#EBBF89"/>
<path d="M10.1961 24.1204C10.0094 23.8315 9.77795 23.4047 9.62675 23.0705C9.48302 22.7551 9.28515 22.2453 9.29635 22.2151C9.30009 22.2037 9.33555 22.2887 9.37475 22.402C9.54649 22.893 9.85635 23.535 10.1569 24.0204C10.2633 24.1941 10.3473 24.3357 10.3436 24.3357C10.338 24.3357 10.2726 24.2394 10.1961 24.1204Z" fill="#EBBF89"/>
<path d="M13.75 24.0071C13.7463 24.0033 13.6623 23.9863 13.5652 23.9693C13.0407 23.8787 12.3463 23.6464 11.9524 23.4312C11.9001 23.4009 11.8087 23.3519 11.7508 23.3197C11.5343 23.2008 11.2524 23.0044 11.0265 22.8156C10.2519 22.1716 9.67321 21.3294 9.37454 20.4173C9.17481 19.8093 9.06281 19.0747 9.07401 18.461C9.07961 18.2306 9.09454 18.1664 9.12814 18.2287C9.14121 18.2495 9.14681 18.3703 9.14307 18.5289C9.13187 19.1955 9.27748 19.9641 9.53134 20.5778C9.66948 20.9102 9.88788 21.32 10.0503 21.5485C10.0783 21.59 10.1361 21.6712 10.1772 21.7297C10.3172 21.9299 10.4908 22.1282 10.5095 22.1093C10.5319 22.0866 10.4889 22.0149 10.3004 21.7618C10.1156 21.5107 9.97188 21.2916 9.85241 21.0688C9.74041 20.8649 9.57801 20.4966 9.54254 20.3701C9.52948 20.3229 9.49214 20.1964 9.46228 20.0869C9.35588 19.7111 9.26814 19.2616 9.27374 19.1219L9.27561 19.0766L9.28681 19.12C9.30734 19.1918 9.33721 19.1691 9.34841 19.0728L9.35961 18.9822L9.36148 19.0577C9.36708 19.1672 9.43428 19.5543 9.48654 19.7772C9.61534 20.3172 9.87854 20.9272 10.166 21.3596C10.2705 21.5126 10.5337 21.8374 10.6887 21.9998C10.8044 22.1225 11.2039 22.4756 11.2879 22.5285C11.3177 22.5474 11.3457 22.555 11.3513 22.5455C11.3569 22.5342 11.2636 22.4379 11.1423 22.3284C10.9612 22.1641 10.6327 21.8242 10.6569 21.8242C10.6607 21.8242 10.7204 21.8789 10.7895 21.945C11.0359 22.1811 11.5268 22.6022 11.6631 22.6966C12.042 22.9591 12.4732 23.1876 12.8335 23.316C13.1023 23.4123 13.5671 23.5105 13.8545 23.535C13.9367 23.5407 14.03 23.5482 14.0599 23.552C14.0916 23.5558 14.1831 23.5596 14.2652 23.5596L14.4145 23.5615L14.3399 23.6011C14.2335 23.6578 13.9255 23.8693 13.834 23.9486C13.7929 23.9845 13.7537 24.0109 13.75 24.0071Z" fill="#EBBF89"/>
<path d="M21.2558 23.7182C20.666 23.6861 20.3057 23.6465 19.8932 23.5691C19.4825 23.4935 19.279 23.4388 19.2286 23.3897C19.2044 23.367 19.1857 23.3443 19.1894 23.3424C19.1913 23.3387 19.2977 23.3613 19.4246 23.3934C20.1228 23.5615 20.8396 23.6427 21.6198 23.6427C22.8462 23.6408 23.9158 23.4331 25.0974 22.9648C25.4428 22.8288 26.1838 22.4492 26.5198 22.2359C27.959 21.3219 29.1257 20.0567 29.9041 18.5668C30.0758 18.2401 30.3353 17.6603 30.3222 17.6377C30.3166 17.6282 30.3334 17.5961 30.3577 17.5659L30.4044 17.5093L30.3633 17.6131C30.3428 17.6698 30.3129 17.7472 30.2998 17.7831C30.2532 17.9153 29.9956 18.461 29.8574 18.7197C28.995 20.3456 27.5876 21.76 25.9972 22.6041C24.8193 23.2273 23.6302 23.5785 22.3105 23.6918C22.0734 23.7126 21.4294 23.7296 21.2558 23.7182Z" fill="#EBBF89"/>
<path d="M14.2931 23.4538C13.7947 23.4312 13.2609 23.333 12.867 23.1914C12.7942 23.1649 12.7139 23.1366 12.6878 23.1272C12.6617 23.1196 12.5739 23.0818 12.4918 23.046C11.8478 22.7551 11.3139 22.3661 10.8305 21.8431C10.5822 21.573 10.5897 21.5711 10.8547 21.8374C11.7059 22.6909 12.6001 23.1593 13.6958 23.3273C13.9235 23.3632 14.5937 23.3745 14.8811 23.35L15.0305 23.3368L14.9091 23.3708C14.8419 23.3896 14.7635 23.4161 14.7318 23.4293C14.6777 23.4519 14.5022 23.4614 14.2931 23.4538Z" fill="#EBBF89"/>
<path d="M21.1532 23.4293C21.1121 23.4218 21.086 23.4142 21.0953 23.4123C21.1345 23.4066 21.0599 23.3538 21.0095 23.3538C20.9777 23.3538 20.9591 23.3462 20.9665 23.3349C20.9721 23.3254 21.0151 23.316 21.0599 23.316C21.1047 23.316 21.1476 23.3066 21.1532 23.2971C21.1625 23.282 21.2689 23.2801 21.4855 23.2896C22.0492 23.3122 22.8519 23.2386 23.4847 23.1102C24.922 22.8137 26.2754 22.1433 27.4682 21.1368C27.5988 21.0273 27.638 20.9839 27.6231 20.9688C27.6082 20.9537 27.5932 20.9537 27.5764 20.965C27.5615 20.9763 27.4999 21.0179 27.4364 21.0594C27.373 21.1009 27.2311 21.2029 27.121 21.2879C26.7719 21.5542 26.2884 21.8846 26.0122 22.0451C25.6276 22.268 24.9836 22.5739 24.8679 22.589C24.8455 22.5928 24.6831 22.6419 24.5039 22.7004C23.6004 22.9988 22.8369 23.1328 21.9092 23.1593C20.9143 23.1857 19.9716 23.0441 18.8628 22.7042C18.6556 22.64 18.4913 22.5569 18.5268 22.5342C18.5361 22.5286 18.6687 22.5663 18.8217 22.6192C19.434 22.8269 20.0612 22.9685 20.6959 23.0422C20.9665 23.0743 21.6049 23.1045 21.8345 23.097C22.3908 23.0781 22.7193 23.0441 22.7081 23.0044C22.7044 22.9931 22.6223 22.9893 22.4879 22.995C22.0735 23.0139 21.1177 23.0044 20.8919 22.9799C20.47 22.9346 19.7476 22.8005 19.5479 22.7306L19.4919 22.7117L19.5479 22.7212C19.5796 22.7249 19.7047 22.7514 19.8279 22.7778C20.4196 22.9062 20.8415 22.9459 21.6105 22.9459C22.2956 22.9459 22.5233 22.9289 23.0722 22.8345C24.1007 22.657 25.0172 22.3303 25.889 21.8317C26.2436 21.6278 26.365 21.5447 26.7159 21.269C27.2367 20.8592 27.75 20.3475 28.1383 19.8508C28.3791 19.5411 28.394 19.5204 28.3735 19.4996C28.3623 19.4883 28.2932 19.5581 28.1812 19.6941C27.9292 20 27.2796 20.6572 27.2348 20.6496C27.2106 20.6458 27.2031 20.6534 27.2068 20.6798C27.2124 20.7063 27.205 20.7119 27.1844 20.7044C27.1658 20.6968 27.1303 20.7138 27.093 20.7459C26.925 20.8913 26.3332 21.3332 26.1802 21.4257C26.0644 21.4956 26.0999 21.4578 26.2287 21.3729C26.4284 21.2407 26.8988 20.8762 27.1079 20.6931C27.2162 20.5986 27.3599 20.4532 27.4308 20.372C27.4999 20.2908 27.6959 20.0661 27.8676 19.8716C28.2578 19.4316 28.4556 19.1824 28.6666 18.8689L28.8308 18.6234L28.954 18.5875C29.3087 18.4855 29.7138 18.2419 30.033 17.9379L30.1599 17.8171L30.0759 18.0172C29.781 18.7291 29.2135 19.645 28.6684 20.2852C28.0394 21.0254 27.2535 21.6901 26.4415 22.1717C25.301 22.8477 24.1436 23.2235 22.7212 23.3821C22.1687 23.4425 21.3641 23.4671 21.1532 23.4293Z" fill="#EBBF89"/>
<path d="M20.6309 23.2197C20.4442 23.1951 20.4199 23.1838 20.5842 23.197C20.7466 23.2083 20.9109 23.2367 20.8176 23.2367C20.7877 23.2367 20.7037 23.2291 20.6309 23.2197Z" fill="#EBBF89"/>
<path d="M20.347 23.1706C20.3638 23.1668 20.3936 23.1668 20.4123 23.1706C20.4291 23.1763 20.4141 23.18 20.3787 23.18C20.3432 23.18 20.3283 23.1763 20.347 23.1706Z" fill="#EBBF89"/>
<path d="M20.4345 22.7287C20.0593 22.6966 19.8391 22.6702 19.6412 22.6343C19.3873 22.5871 19.1428 22.5267 19.1204 22.5021C19.1111 22.4927 19.1316 22.4945 19.1671 22.504C19.378 22.5682 19.8167 22.6456 20.1639 22.6834C20.3057 22.6985 20.8545 22.7004 21.0972 22.6872C21.2372 22.6796 21.2559 22.6815 21.1719 22.6928C21.1103 22.7004 20.9908 22.7079 20.9068 22.7098C20.8228 22.7117 20.7481 22.7212 20.7425 22.7306C20.7295 22.7514 20.6921 22.7514 20.4345 22.7287Z" fill="#EBBF89"/>
<path d="M19.3241 22.6739C19.2998 22.6645 19.2979 22.657 19.3147 22.657C19.3297 22.657 19.3595 22.6645 19.3801 22.6739C19.4043 22.6834 19.4062 22.6909 19.3894 22.6909C19.3745 22.6909 19.3446 22.6834 19.3241 22.6739Z" fill="#EBBF89"/>
<path d="M21.3177 22.6607C21.3345 22.657 21.3643 22.657 21.383 22.6607C21.3998 22.6664 21.3849 22.6702 21.3494 22.6702C21.3139 22.6702 21.299 22.6664 21.3177 22.6607Z" fill="#EBBF89"/>
<path d="M21.5825 22.6173C21.6142 22.6097 21.659 22.6022 21.6852 22.6022C21.7262 22.6022 21.7262 22.6041 21.6758 22.6173C21.646 22.6249 21.5993 22.6324 21.5732 22.6324C21.5321 22.6324 21.5321 22.6305 21.5825 22.6173Z" fill="#EBBF89"/>
<path d="M10.5318 22.4624C10.4497 22.3756 10.3564 22.2755 10.3265 22.2396L10.2705 22.1735L10.3284 22.2302C10.446 22.3491 10.6961 22.6173 10.6886 22.6173C10.6849 22.6173 10.614 22.5474 10.5318 22.4624Z" fill="#EBBF89"/>
<path d="M23.3093 22.5984C23.3355 22.5909 23.3728 22.5833 23.3933 22.5833C23.4232 22.5833 23.4213 22.5871 23.384 22.5984C23.3579 22.606 23.3205 22.6135 23.3 22.6135C23.2701 22.6135 23.272 22.6097 23.3093 22.5984Z" fill="#EBBF89"/>
<path d="M21.8718 22.5607C21.9353 22.5399 21.9838 22.5399 21.9372 22.5607C21.9166 22.5701 21.883 22.5758 21.8625 22.5758C21.8326 22.5758 21.8345 22.572 21.8718 22.5607Z" fill="#EBBF89"/>
<path d="M23.5612 22.5399C23.634 22.521 23.6993 22.5078 23.7105 22.5096C23.731 22.5172 23.4902 22.5795 23.4548 22.5776C23.4417 22.5776 23.4902 22.5606 23.5612 22.5399Z" fill="#EBBF89"/>
<path d="M20.3281 22.5361C20.3281 22.5191 20.3393 22.5021 20.3524 22.4964C20.3655 22.4908 20.5391 22.4851 20.7369 22.4832C20.9348 22.4813 21.1943 22.4681 21.3119 22.453C22.3031 22.3321 23.2009 21.9469 23.9905 21.3049C24.1809 21.15 24.2145 21.1141 24.1884 21.099C24.1679 21.0858 24.0783 21.1406 23.9383 21.2482C23.7964 21.3596 23.5425 21.5409 23.4025 21.6297C23.1767 21.7732 22.7063 22.0168 22.5999 22.0432C22.5849 22.047 22.4468 22.0885 22.2919 22.1358C21.8532 22.2717 21.2484 22.3907 21.1233 22.3661C21.0879 22.3605 21.0897 22.3567 21.1383 22.3548C21.2708 22.3491 21.3436 22.2793 21.2223 22.2755C21.1943 22.2755 21.2745 22.2585 21.4015 22.2396C21.8121 22.1754 22.2359 22.0583 22.6167 21.8997C22.8145 21.8185 23.1673 21.6391 23.2532 21.5787C23.2793 21.5598 23.3316 21.5277 23.3708 21.505C23.5257 21.4163 23.8543 21.1406 24.1137 20.88C24.3825 20.61 24.6401 20.3021 24.6233 20.2719C24.6084 20.2474 24.5505 20.287 24.4927 20.3645C24.4012 20.4872 24.0521 20.8422 23.9345 20.931L23.8225 21.0178L23.9289 20.9159C24.2164 20.6421 24.6924 20.0699 24.8903 19.7564C25.0825 19.4543 25.2953 19.0162 25.3961 18.7178C25.5081 18.3873 25.5977 17.8699 25.6164 17.4394L25.6295 17.1807L25.7135 17.3261C25.7975 17.4715 25.9879 17.7358 26.0383 17.7793C26.0625 17.7982 26.0588 17.8359 26.014 18.0701C25.9225 18.5573 25.7919 18.9859 25.6239 19.3674C25.5324 19.577 25.3849 19.8678 25.3252 19.9547C25.3084 19.9811 25.2897 20.0151 25.2823 20.0302C25.2692 20.0623 25.0471 20.3777 24.8865 20.5911C24.6569 20.897 24.1417 21.3747 23.7665 21.6297C22.8836 22.2302 21.9279 22.521 20.7407 22.555C20.3711 22.5644 20.3281 22.5625 20.3281 22.5361Z" fill="#EBBF89"/>
<path d="M22.1243 22.4946C22.2064 22.4681 22.283 22.4492 22.2923 22.4492C22.3203 22.4511 22.0347 22.5418 22.003 22.5399C21.988 22.5399 22.0422 22.5191 22.1243 22.4946Z" fill="#EBBF89"/>
<path d="M23.9439 22.4379C24.0204 22.4115 24.0932 22.3907 24.1025 22.3926C24.1324 22.3945 23.9383 22.4606 23.8673 22.4738C23.8319 22.4794 23.8673 22.4625 23.9439 22.4379Z" fill="#EBBF89"/>
<path d="M20.5056 22.3775C20.612 22.3737 20.78 22.3737 20.8789 22.3775C20.9779 22.3794 20.892 22.3831 20.6867 22.3831C20.4813 22.3831 20.3992 22.3794 20.5056 22.3775Z" fill="#EBBF89"/>
<path d="M24.2987 22.3227C24.9688 22.0791 25.4691 21.8412 26.031 21.4994C26.0627 21.4786 26.0907 21.4673 26.0907 21.4729C26.0907 21.5126 25.3272 21.9224 24.9278 22.098C24.6944 22.2 24.1811 22.3907 24.1456 22.3888C24.1326 22.3888 24.2016 22.3586 24.2987 22.3227Z" fill="#EBBF89"/>
<path d="M20.1603 22.3586C20.1883 22.3548 20.2294 22.3548 20.2537 22.3586C20.2761 22.3624 20.2537 22.3662 20.2014 22.3662C20.151 22.3662 20.1305 22.3624 20.1603 22.3586Z" fill="#EBBF89"/>
<path d="M20.011 22.3397C20.0278 22.3359 20.0577 22.3359 20.0763 22.3397C20.0932 22.3454 20.0782 22.3491 20.0427 22.3491C20.0073 22.3491 19.9923 22.3454 20.011 22.3397Z" fill="#EBBF89"/>
<path d="M22.6 22.3378C22.615 22.3284 22.6486 22.3133 22.6747 22.3076C22.7064 22.2982 22.712 22.3001 22.6934 22.3114C22.6784 22.3208 22.6448 22.3359 22.6187 22.3416C22.587 22.3511 22.5814 22.3492 22.6 22.3378Z" fill="#EBBF89"/>
<path d="M20.6923 22.3019C20.7147 22.2982 20.752 22.2982 20.7763 22.3019C20.7987 22.3057 20.78 22.3095 20.7334 22.3095C20.6867 22.3095 20.668 22.3057 20.6923 22.3019Z" fill="#EBBF89"/>
<path d="M20.9554 22.2906C20.9629 22.2812 21.0151 22.2774 21.0711 22.2812L21.1719 22.2868L21.0562 22.2963C20.9927 22.3019 20.9479 22.2982 20.9554 22.2906Z" fill="#EBBF89"/>
<path d="M9.22505 22.0225C9.19705 21.9318 9.17838 21.8563 9.18212 21.8506C9.18585 21.8468 9.21385 21.9167 9.24185 22.0055C9.26985 22.0942 9.28851 22.1717 9.28478 22.1773C9.27918 22.183 9.25118 22.1131 9.22505 22.0225Z" fill="#EBBF89"/>
<path d="M23.4399 21.9299C23.4399 21.9243 23.4661 21.9073 23.4959 21.8903C23.5277 21.8733 23.5519 21.8657 23.5519 21.8695C23.5519 21.8751 23.5277 21.8921 23.4959 21.9091C23.4661 21.9261 23.4399 21.9337 23.4399 21.9299Z" fill="#EBBF89"/>
<path d="M10.0334 21.8865C9.99606 21.8393 9.94193 21.7486 9.95126 21.7486C9.95686 21.7486 9.98486 21.7864 10.0166 21.8336C10.0745 21.9205 10.0819 21.9431 10.0334 21.8865Z" fill="#EBBF89"/>
<path d="M9.12267 21.6637C9.0984 21.5749 9.08347 21.4994 9.08907 21.4937C9.0928 21.4899 9.1152 21.5579 9.13947 21.6467C9.16186 21.7373 9.1768 21.8128 9.17306 21.8166C9.16933 21.8223 9.14693 21.7524 9.12267 21.6637Z" fill="#EBBF89"/>
<path d="M25.3088 21.76C25.3144 21.7543 25.46 21.6656 25.6317 21.5617C26.4605 21.0594 27.153 20.4476 27.8138 19.628C28.0453 19.341 28.3757 18.8897 28.4466 18.7631C28.4765 18.7084 28.4989 18.6914 28.5512 18.6819C28.5885 18.6763 28.6202 18.6744 28.624 18.6763C28.6445 18.697 28.2357 19.2711 27.9221 19.662C27.4013 20.3097 26.5912 21.0122 25.8333 21.4711C25.501 21.6731 25.2658 21.8015 25.3088 21.76Z" fill="#EBBF89"/>
<path d="M9.83583 21.6032C9.81717 21.573 9.79103 21.5315 9.77797 21.5088C9.73877 21.4314 9.76863 21.4635 9.82837 21.5598C9.88997 21.6618 9.89557 21.6882 9.83583 21.6032Z" fill="#EBBF89"/>
<path d="M24.0186 21.5334C24.0186 21.5296 24.0746 21.4805 24.1418 21.4276C24.2108 21.3729 24.2612 21.337 24.2538 21.3502C24.2388 21.3748 24.0186 21.5466 24.0186 21.5334Z" fill="#EBBF89"/>
<path d="M9.05002 21.3596C9.03695 21.303 9.02948 21.252 9.03508 21.2463C9.03882 21.2426 9.05189 21.286 9.06495 21.3445C9.07802 21.4012 9.08549 21.4522 9.07989 21.4578C9.07615 21.4616 9.06308 21.4182 9.05002 21.3596Z" fill="#EBBF89"/>
<path d="M24.513 21.0877C24.625 20.9744 24.7221 20.88 24.7277 20.88C24.7314 20.88 24.6437 20.9744 24.5317 21.0877C24.4197 21.2029 24.3226 21.2955 24.317 21.2955C24.3133 21.2955 24.401 21.2029 24.513 21.0877Z" fill="#EBBF89"/>
<path d="M8.96597 20.9536C8.95851 20.9102 8.95664 20.8705 8.96224 20.8667C8.96597 20.863 8.97531 20.8932 8.98277 20.9366C8.99024 20.9801 8.99211 21.0178 8.98651 21.0235C8.98277 21.0292 8.97344 20.9971 8.96597 20.9536Z" fill="#EBBF89"/>
<path d="M23.8975 20.7743C24.2615 20.406 24.3997 20.238 24.6666 19.832C24.7991 19.6299 25.0063 19.2428 25.0679 19.0804C25.2359 18.6461 25.3535 18.2004 25.4039 17.8114C25.4301 17.6093 25.4375 16.8502 25.4151 16.6595L25.4021 16.5462L25.445 16.6878C25.4693 16.7652 25.4973 16.8502 25.5066 16.8767C25.5253 16.9239 25.5234 17.1807 25.5029 17.5187C25.4693 18.0135 25.3218 18.6234 25.1165 19.0955C25.0362 19.2806 24.8738 19.594 24.8197 19.6752C24.7991 19.7017 24.7842 19.73 24.7842 19.7357C24.7842 19.7602 24.5677 20.0623 24.3997 20.2757C24.2242 20.4967 23.9237 20.8045 23.7389 20.9555C23.6829 21.0009 23.7538 20.9197 23.8975 20.7743Z" fill="#EBBF89"/>
<path d="M9.32965 20.6326C9.31845 20.5986 9.31285 20.5684 9.31658 20.5646C9.32031 20.5608 9.33338 20.5835 9.34458 20.6175C9.35578 20.6515 9.36138 20.6817 9.35765 20.6855C9.35391 20.6893 9.34085 20.6666 9.32965 20.6326Z" fill="#EBBF89"/>
<path d="M9.12632 20.034C9.09272 19.9188 9.06659 19.8131 9.06845 19.7999C9.06845 19.7866 9.09832 19.8735 9.13192 19.9925C9.16739 20.1114 9.19352 20.2172 9.19166 20.2266C9.18792 20.2361 9.15992 20.1492 9.12632 20.034Z" fill="#EBBF89"/>
<path d="M8.97705 19.3126C8.97705 19.2767 8.98078 19.2616 8.98638 19.2805C8.99012 19.2975 8.99012 19.3277 8.98638 19.3466C8.98078 19.3636 8.97705 19.3485 8.97705 19.3126Z" fill="#EBBF89"/>
<path d="M8.94731 19.12C8.89877 18.6007 8.89504 18.4629 8.92678 18.1211C8.94358 17.9303 8.97344 17.6773 8.99397 17.5583C9.02757 17.3525 9.11717 16.971 9.13397 16.954C9.15077 16.9371 9.13957 16.9918 9.09291 17.1712C8.96784 17.6565 8.90811 18.4232 8.95291 18.9614C8.96411 19.1049 8.97158 19.2258 8.96784 19.2314C8.96224 19.2352 8.95477 19.1861 8.94731 19.12Z" fill="#EBBF89"/>
<path d="M9.25879 18.9727C9.25879 18.9161 9.26252 18.8915 9.26626 18.9217C9.26999 18.9501 9.26999 18.9954 9.26626 19.0256C9.26252 19.0539 9.25879 19.0294 9.25879 18.9727Z" fill="#EBBF89"/>
<path d="M9.3335 18.8406C9.3335 18.7631 9.33723 18.731 9.34097 18.7707C9.3447 18.8085 9.3447 18.8727 9.34097 18.9123C9.33723 18.9501 9.3335 18.918 9.3335 18.8406Z" fill="#EBBF89"/>
<path d="M9.24219 18.5668C9.24219 18.4327 9.24405 18.3798 9.24779 18.4497C9.25152 18.5195 9.25152 18.631 9.24779 18.6952C9.24405 18.7594 9.24219 18.7027 9.24219 18.5668Z" fill="#EBBF89"/>
<path d="M8.23047 18.6517C8.23047 18.6158 8.2342 18.6007 8.23981 18.6196C8.24354 18.6366 8.24354 18.6668 8.23981 18.6857C8.2342 18.7027 8.23047 18.6876 8.23047 18.6517Z" fill="#EBBF89"/>
<path d="M8.41895 18.6234C8.41895 18.5724 8.42268 18.5516 8.42641 18.5818C8.43015 18.6101 8.43015 18.6517 8.42641 18.6762C8.42268 18.6989 8.41895 18.6762 8.41895 18.6234Z" fill="#EBBF89"/>
<path d="M8.43377 18.461C8.43377 18.4251 8.44124 18.3628 8.45057 18.3213C8.46364 18.2627 8.46364 18.2759 8.45617 18.3779C8.44497 18.5176 8.43191 18.5686 8.43377 18.461Z" fill="#EBBF89"/>
<path d="M9.25879 18.1513C9.25879 18.1003 9.26252 18.0795 9.26626 18.1098C9.26999 18.1381 9.26999 18.1796 9.26626 18.2042C9.26252 18.2268 9.25879 18.2042 9.25879 18.1513Z" fill="#EBBF89"/>
<path d="M9.27783 17.9624C9.27783 17.9209 9.28156 17.9058 9.2853 17.9303C9.28903 17.953 9.28903 17.987 9.2853 18.0059C9.2797 18.0229 9.27596 18.004 9.27783 17.9624Z" fill="#EBBF89"/>
<path d="M24.836 12.9941C24.8304 12.9885 24.8752 12.8336 24.9349 12.6505C25.2243 11.761 25.3587 10.983 25.3923 9.99352C25.4091 9.51954 25.3568 8.7793 25.3045 8.74531C25.2691 8.72454 25.2653 8.80385 25.2859 9.01723C25.3456 9.64228 25.312 10.4939 25.2019 11.1643C25.1664 11.3853 25.0675 11.8555 25.0544 11.8687C25.0376 11.8857 25.0451 11.8309 25.0712 11.7119C25.1067 11.5609 25.1683 11.1851 25.2075 10.8716C25.2485 10.543 25.2541 9.3156 25.2168 8.99268C25.0544 7.63495 24.7035 6.53025 24.1043 5.48409C23.9157 5.15363 23.8448 5.04599 23.6525 4.79861C23.24 4.2642 22.7509 3.75245 22.2637 3.34456C21.9333 3.06697 21.8736 3.02543 21.8512 3.04809C21.8419 3.05753 21.9501 3.16706 22.1331 3.32568C22.5512 3.69202 23.0869 4.25287 23.0589 4.2963C23.0533 4.30575 23.0757 4.34729 23.1112 4.38695C23.2904 4.60033 23.6861 5.15362 23.7664 5.30092C23.8 5.36512 23.7384 5.28203 23.6171 5.10264C23.3595 4.72308 22.9077 4.16601 22.7509 4.0376C22.7061 3.99983 22.5848 3.89408 22.4821 3.79966C21.7989 3.17461 21.5544 2.97067 21.2184 2.74406C21.1027 2.66664 21.0037 2.60055 20.9944 2.59677C20.9869 2.59299 20.9571 2.51935 20.9291 2.43059C20.7965 2.0227 20.5819 1.66014 20.2888 1.35044L20.1675 1.22392L20.3709 1.31456C22.2843 2.17189 23.8355 3.65426 24.7501 5.4992C25.312 6.63033 25.6051 7.7558 25.7171 9.20796C25.7376 9.48177 25.7432 10.3391 25.7245 10.3882C25.7189 10.4052 25.7059 10.4146 25.6984 10.409C25.676 10.3957 25.6461 10.4411 25.6368 10.5034C25.6312 10.5449 25.6293 10.5374 25.6256 10.4732C25.6256 10.4241 25.6125 10.375 25.5976 10.3636C25.5789 10.3466 25.5752 10.2692 25.5827 9.97842C25.6051 9.04745 25.4632 8.00695 25.1925 7.13264C24.9891 6.47926 24.6867 5.80134 24.3283 5.19139C24.1192 4.83827 23.94 4.57767 23.6488 4.2C23.3464 3.8091 23.3165 3.777 23.2904 3.80344C23.2736 3.81855 23.2848 3.84876 23.3427 3.92618C23.3837 3.98095 23.4267 4.04704 23.4397 4.07348C23.4528 4.09991 23.5405 4.22266 23.6357 4.34729C24.1267 4.99878 24.5131 5.65215 24.7781 6.28287C24.8248 6.3924 24.8659 6.50003 24.8677 6.52458C24.8715 6.54913 24.8827 6.57935 24.8939 6.59256C24.9051 6.60578 24.9107 6.62089 24.9051 6.62655C24.8995 6.63222 24.9256 6.72475 24.9629 6.83239C25.3176 7.85966 25.4725 8.85861 25.4501 9.9803C25.4352 10.8036 25.3661 11.2795 25.1347 12.184C25.0189 12.6354 24.9592 12.8242 24.9013 12.9262C24.8528 13.0111 24.8509 13.0111 24.836 12.9941Z" fill="#EBBF89"/>
<path d="M8.51593 12.3974C8.51219 12.3842 8.48606 12.3011 8.45806 12.2142C8.41699 12.0839 8.40953 12.0254 8.41139 11.8838C8.42819 10.9283 8.66153 10.0936 9.13566 9.29294C9.40072 8.84539 9.85246 8.32231 10.2519 8.00129L10.4013 7.88232L10.2519 8.02584C10.1698 8.10515 10.097 8.16936 10.0895 8.17124C10.0615 8.17313 9.61352 8.68488 9.46979 8.87938C9.25886 9.16642 9.15432 9.33071 9.01619 9.60452C8.75859 10.1163 8.59806 10.6639 8.52339 11.2776C8.49726 11.4948 8.49539 12.1727 8.52152 12.3219C8.53646 12.4125 8.53459 12.4541 8.51593 12.3974Z" fill="#EBBF89"/>
<path d="M24.8047 12.4012C24.8047 12.3861 24.8196 12.3049 24.8402 12.2218C24.9316 11.8442 25.0063 11.238 25.01 10.8244C25.01 10.6809 25.0138 10.6639 25.0306 10.7092C25.0492 10.7583 25.0287 11.2097 24.9988 11.4193C24.9951 11.4457 24.982 11.5477 24.9708 11.6459C24.941 11.8857 24.8084 12.49 24.8047 12.4012Z" fill="#EBBF89"/>
<path d="M25.6444 12.2577C26.0663 10.5034 26.0346 8.83784 25.5492 7.18929C24.9127 5.02333 23.5183 3.14629 21.6311 1.91318C21.1383 1.59216 20.3039 1.15406 20.0519 1.08608C20.0053 1.07286 19.9455 1.04453 19.9175 1.01998C19.8765 0.98788 19.9175 0.999211 20.0911 1.06908C21.4389 1.6186 22.6223 2.45892 23.6135 3.57117C24.1885 4.217 24.629 4.87415 25.0135 5.66538C25.9935 7.6746 26.2567 9.8349 25.7826 11.9971C25.7415 12.1803 25.7228 12.2312 25.6799 12.2766L25.6258 12.3313L25.6444 12.2577Z" fill="#EBBF89"/>
<path d="M24.9727 12.1463C24.9727 12.1368 24.9876 12.0726 25.0081 12.0046C25.0268 11.9366 25.0436 11.8989 25.0436 11.9197C25.0436 11.9593 24.9764 12.1784 24.9727 12.1463Z" fill="#EBBF89"/>
<path d="M8.22864 11.6893C8.13717 11.5326 7.95611 11.2795 7.89451 11.2229C7.86651 11.1983 7.86091 11.1794 7.87211 11.1568C7.87957 11.1398 7.89824 11.0623 7.90944 10.9849C7.96544 10.6337 8.08864 10.1956 8.23797 9.81414C8.61877 8.83974 9.26277 8.01452 10.1177 7.41024C10.9969 6.78897 12.0758 6.45472 13.2388 6.44528C13.4142 6.44528 13.5729 6.45095 13.5934 6.4585C13.6756 6.49249 13.5598 6.50949 13.1716 6.51704C12.3204 6.53404 11.6652 6.69266 10.9148 7.06656C10.7729 7.13643 10.7654 7.1402 10.5713 7.25728C10.3716 7.37436 10.1588 7.52543 9.95344 7.68972C9.76491 7.84268 9.72944 7.87856 9.75557 7.89555C9.77611 7.90877 9.86757 7.85401 10.0057 7.74637C10.2577 7.54809 10.5713 7.33848 10.8028 7.21196C11.0529 7.07789 11.3945 6.92871 11.5308 6.8966C11.5457 6.89283 11.6185 6.87205 11.6894 6.84939C11.9377 6.77386 12.102 6.7342 12.3614 6.68888C12.6022 6.64545 12.8206 6.62657 12.7105 6.65678C12.6396 6.67755 12.662 6.70777 12.7572 6.7191C12.8393 6.72854 12.8412 6.73043 12.7777 6.73231C12.7404 6.7342 12.5873 6.75686 12.438 6.7833C11.6185 6.92304 10.9092 7.22518 10.2894 7.69538C9.94597 7.95787 9.24784 8.70944 9.31131 8.74909C9.32251 8.75476 9.37104 8.7151 9.41771 8.66034C9.59317 8.45829 9.93104 8.11649 10.0169 8.05795L10.1028 7.99752L10.0356 8.05606C9.95157 8.12782 9.41397 8.73021 9.30197 8.87939C9.19184 9.02291 9.00331 9.30428 8.93237 9.42702C8.83717 9.5932 8.62624 10.0445 8.56651 10.2107C8.43211 10.5884 8.34251 11.0737 8.32197 11.5552L8.31077 11.8328L8.22864 11.6893Z" fill="#EBBF89"/>
<path d="M3.54687 11.457C3.76341 10.8697 4.04154 10.3051 4.38501 9.74805C4.90207 8.9115 5.57594 8.13349 6.36554 7.46501C7.37541 6.60769 8.66714 5.93732 9.96447 5.59552C10.7111 5.39913 11.3719 5.3066 12.1746 5.28771C12.981 5.26883 13.6978 5.34248 14.4538 5.51998C14.6199 5.55775 14.6722 5.57852 14.7114 5.62007L14.7599 5.67105L14.5882 5.62762C13.8061 5.43123 13.009 5.34625 12.1298 5.36325C11.2506 5.38024 10.545 5.48788 9.72927 5.72771C8.22287 6.17336 6.89941 6.95704 5.77381 8.07684C5.01594 8.8303 4.41301 9.6593 3.95754 10.5789C3.81194 10.8697 3.61594 11.3192 3.61594 11.3569C3.61594 11.3721 3.59727 11.4079 3.57487 11.4344C3.55434 11.4627 3.53941 11.4721 3.54687 11.457Z" fill="#EBBF89"/>
<path d="M24.6587 11.3437C24.6587 11.2965 24.6624 11.2776 24.6662 11.3022C24.6699 11.3248 24.6699 11.3626 24.6662 11.3871C24.6624 11.4098 24.6587 11.3909 24.6587 11.3437Z" fill="#EBBF89"/>
<path d="M24.6777 11.0982C24.6777 11.0208 24.6815 10.9887 24.6852 11.0283C24.6889 11.0661 24.6889 11.1303 24.6852 11.17C24.6815 11.2077 24.6777 11.1756 24.6777 11.0982Z" fill="#EBBF89"/>
<path d="M25.4598 11.1549C25.4579 11.1284 25.4654 11.0737 25.4728 11.0321C25.484 10.983 25.4896 10.9736 25.4896 11.0038C25.4915 11.0302 25.484 11.085 25.4766 11.1266C25.4654 11.1756 25.4598 11.1851 25.4598 11.1549Z" fill="#EBBF89"/>
<path d="M3.78418 11.1719C3.78418 11.1454 3.92978 10.8225 4.04925 10.5789C4.37218 9.92744 4.80338 9.26651 5.25698 8.72833C5.46045 8.48473 5.99805 7.94088 6.23885 7.73504C7.37938 6.75309 8.76071 6.07139 10.2223 5.77491C10.9988 5.61629 11.9172 5.53131 12.5762 5.55775C12.7759 5.5653 12.9215 5.57663 12.8972 5.5823C12.8244 5.60118 12.8412 5.62951 12.9402 5.65217L13.0335 5.67483L12.9122 5.68049C12.845 5.68427 12.7927 5.6956 12.7946 5.70693C12.7964 5.71826 12.5836 5.72581 12.1879 5.72581C11.8052 5.72581 11.4972 5.73526 11.3628 5.75036C11.081 5.78246 10.562 5.86366 10.4202 5.89577C10.0263 5.98641 9.92738 6.01285 9.69218 6.0846C8.55538 6.43584 7.56605 6.97214 6.58418 7.76903C6.32098 7.98431 6.29111 8.01452 6.31538 8.03907C6.33405 8.05795 6.57485 7.89555 7.04525 7.54621C7.44285 7.25162 7.58845 7.15342 7.91885 6.9627C8.31645 6.73232 9.01645 6.39619 9.04258 6.42262C9.04818 6.4264 9.16205 6.39241 9.29645 6.3452C9.95351 6.12048 10.5172 5.9883 11.1575 5.9071C12.1655 5.78058 13.1567 5.82779 14.1442 6.04872C14.3476 6.09405 14.413 6.11104 14.8068 6.22057C15.0868 6.29799 15.3164 6.3773 15.3388 6.40752C15.3519 6.42262 15.3743 6.43395 15.3874 6.43395C15.4023 6.43395 15.4135 6.4434 15.4135 6.45284C15.4135 6.48305 15.3836 6.4755 15.098 6.37919C14.4466 6.15636 13.7895 6.01473 13.0615 5.9392C12.5482 5.88633 11.3162 5.91654 11.2359 5.98452C11.1855 6.02795 11.2527 6.03173 11.5775 6.00529C12.1375 5.95997 12.8972 5.99019 13.502 6.08272C13.7503 6.12048 14.2263 6.22057 14.3308 6.25456C14.4316 6.28855 14.3962 6.28477 14.0844 6.22057C13.2258 6.04117 12.3559 5.99774 11.4655 6.08649C10.2167 6.20924 9.04445 6.5888 7.95991 7.21952C7.22631 7.64818 6.43298 8.35443 5.82071 9.12488C5.58178 9.42325 5.54818 9.47234 5.57058 9.495C5.58178 9.50633 5.65085 9.43647 5.75351 9.30994C5.95885 9.05501 6.68498 8.31855 6.72045 8.3261C6.73351 8.32988 6.87165 8.23357 7.02471 8.11272C7.71165 7.57075 8.28845 7.21763 8.99031 6.91171C9.38605 6.73798 10.086 6.49627 10.1383 6.51515C10.1495 6.51893 10.129 6.52837 10.0935 6.53781C9.97031 6.56425 9.41218 6.75875 9.16018 6.86261C8.11671 7.29505 7.05271 8.00886 6.47405 8.66601C6.37138 8.78309 6.18658 8.99459 6.06151 9.13433C5.76285 9.46857 5.44738 9.86701 5.27378 10.1257C5.19725 10.2409 5.13005 10.3429 5.12631 10.3523C5.12258 10.3637 5.05538 10.392 4.97885 10.4165C4.58871 10.5412 4.18551 10.7829 3.89245 11.0737C3.83271 11.1303 3.78418 11.1757 3.78418 11.1719Z" fill="#EBBF89"/>
<path d="M24.7893 11.1454C24.7837 11.1284 24.7837 11.0453 24.7874 10.9604C24.8024 10.7168 24.7706 10.2258 24.7202 9.92743C24.6213 9.34203 24.4645 8.8756 24.1845 8.33175C23.9848 7.94275 23.4789 7.2365 23.4341 7.28182C23.4136 7.30259 23.464 7.38379 23.6936 7.69915C23.9904 8.10704 24.233 8.55269 24.3637 8.92659C24.4477 9.1683 24.5578 9.57241 24.5896 9.75747C24.5952 9.78391 24.6026 9.8179 24.6064 9.83301C24.6232 9.89155 24.6717 10.2768 24.6698 10.3315C24.6661 10.3863 24.6661 10.3844 24.6549 10.3183C24.6381 10.2069 24.6064 10.2352 24.597 10.375L24.5877 10.5034L24.5728 10.3334C24.5261 9.76691 24.3488 9.13431 24.0856 8.58668C24.009 8.42806 23.9642 8.34497 23.8224 8.09759C23.7253 7.93331 23.4248 7.56885 23.1802 7.32147C22.8816 7.02122 22.6109 6.79839 22.5885 6.83427C22.5792 6.84749 22.624 6.89848 22.7042 6.96835C22.8853 7.12886 23.2941 7.54997 23.2792 7.56507C23.2717 7.57074 23.2624 7.56696 23.2586 7.55374C23.2493 7.52542 22.7845 7.09864 22.5456 6.89659C22.0453 6.47548 21.4032 6.1318 20.8394 5.98262C20.481 5.8882 20.2346 5.85043 19.7381 5.81833L19.5552 5.807L19.7362 5.69558C19.8352 5.63516 19.9752 5.53507 20.0461 5.47276C20.1544 5.38023 20.1842 5.36323 20.2178 5.37645C20.2384 5.38589 20.3168 5.40289 20.3877 5.41422C20.5576 5.44065 20.9794 5.54829 21.2053 5.62194C21.8474 5.82966 22.428 6.15824 22.9917 6.63222C23.2754 6.87204 23.4173 7.01556 23.6469 7.30259C24.4384 8.28454 24.821 9.3798 24.8528 10.7545C24.8621 11.136 24.8602 11.1738 24.8322 11.1738C24.8154 11.1738 24.7968 11.1605 24.7893 11.1454Z" fill="#EBBF89"/>
<path d="M24.6045 10.7772C24.6045 10.6261 24.6082 10.5657 24.6101 10.6412C24.6138 10.7149 24.6138 10.8395 24.6101 10.915C24.6082 10.9887 24.6045 10.9283 24.6045 10.7772Z" fill="#EBBF89"/>
<path d="M25.4952 10.8509C25.4971 10.8055 25.5045 10.7432 25.5139 10.7111C25.5232 10.6752 25.5251 10.7036 25.5176 10.7867C25.5064 10.9358 25.4915 10.9774 25.4952 10.8509Z" fill="#EBBF89"/>
<path d="M24.6777 10.5317C24.6777 10.4543 24.6815 10.4222 24.6852 10.4618C24.6889 10.4996 24.6889 10.5638 24.6852 10.6035C24.6815 10.6412 24.6777 10.6091 24.6777 10.5317Z" fill="#EBBF89"/>
<path d="M24.9895 10.5487C24.9895 10.4921 24.9857 10.3882 24.9801 10.3145L24.9727 10.1824L24.9895 10.2957C25.01 10.4486 25.0175 10.6223 25.0025 10.6393C24.9951 10.645 24.9895 10.6054 24.9895 10.5487Z" fill="#EBBF89"/>
<path d="M5.33313 10.2843C5.3742 10.2069 5.44886 10.0955 5.60193 9.8802C6.30753 8.89258 7.1382 8.11268 8.12193 7.51974C8.4318 7.33279 8.74913 7.16095 8.74913 7.17983C8.74913 7.18361 8.7062 7.21193 8.65206 7.23837C8.49153 7.32146 8.06593 7.58205 7.8942 7.70291C7.099 8.26564 6.4382 8.92091 5.81846 9.7669C5.67846 9.95573 5.48806 10.2333 5.4526 10.3013C5.45073 10.3051 5.419 10.3126 5.3798 10.3183C5.31073 10.3296 5.31073 10.3296 5.33313 10.2843Z" fill="#EBBF89"/>
<path d="M24.9556 10.1163C24.9556 10.0804 24.9593 10.0653 24.9649 10.0842C24.9686 10.1012 24.9686 10.1314 24.9649 10.1503C24.9593 10.1673 24.9556 10.1522 24.9556 10.1163Z" fill="#EBBF89"/>
<path d="M24.9051 9.84246C24.8995 9.79336 24.8976 9.74993 24.9014 9.74615C24.907 9.74048 24.9163 9.77636 24.9237 9.82357C24.9293 9.87267 24.9312 9.9161 24.9275 9.91988C24.9219 9.92555 24.9126 9.88967 24.9051 9.84246Z" fill="#EBBF89"/>
<path d="M24.8307 9.49309C24.8233 9.46098 24.8214 9.42888 24.827 9.4251C24.8307 9.41944 24.8401 9.44399 24.8475 9.47609C24.8625 9.55541 24.8475 9.57051 24.8307 9.49309Z" fill="#EBBF89"/>
<path d="M24.7111 9.0852C24.7 9.04555 24.6944 9.00967 24.7 9.00589C24.7037 9.00212 24.7149 9.03044 24.7261 9.07009C24.7373 9.10975 24.7429 9.14563 24.7373 9.1494C24.7335 9.15318 24.7223 9.12486 24.7111 9.0852Z" fill="#EBBF89"/>
<path d="M24.8884 8.11271C24.8697 8.02774 24.8604 7.95598 24.8641 7.9522C24.8678 7.94842 24.8865 8.01263 24.9052 8.09572C24.922 8.18069 24.9332 8.25245 24.9294 8.25812C24.9238 8.26189 24.907 8.19769 24.8884 8.11271Z" fill="#EBBF89"/>
<path d="M9.39338 7.92575C9.50538 7.81245 9.60245 7.71803 9.60805 7.71803C9.61178 7.71803 9.52405 7.81245 9.41205 7.92575C9.30005 8.04095 9.20298 8.13348 9.19738 8.13348C9.19365 8.13348 9.28138 8.04095 9.39338 7.92575Z" fill="#EBBF89"/>
<path d="M24.1324 7.85778C24.11 7.8219 24.1025 7.79735 24.1118 7.80301C24.1324 7.81623 24.1921 7.92576 24.179 7.92576C24.1753 7.92576 24.1548 7.89554 24.1324 7.85778Z" fill="#EBBF89"/>
<path d="M24.8047 7.76334C24.7823 7.6727 24.7673 7.59716 24.7711 7.59339C24.7748 7.58772 24.7972 7.65759 24.8215 7.74634C24.8457 7.83509 24.8607 7.91063 24.8551 7.91629C24.8513 7.92007 24.8289 7.85209 24.8047 7.76334Z" fill="#EBBF89"/>
<path d="M23.1863 7.65383C22.9249 7.36491 22.5311 7.02878 22.1745 6.78895C21.8665 6.58123 21.5529 6.4245 21.1591 6.28098C20.5095 6.04493 19.7796 5.95807 19.0348 6.02794L18.9321 6.03738L19.0609 5.99961C19.1319 5.97884 19.2065 5.95051 19.2289 5.93918C19.3017 5.89764 19.9513 5.92974 20.3135 5.99206C20.5001 6.02416 20.8193 6.10536 21.0321 6.17523C21.7172 6.40184 22.3817 6.81161 22.9324 7.34791C23.0481 7.46122 23.3561 7.81245 23.3393 7.81245C23.3337 7.81245 23.2665 7.74069 23.1863 7.65383Z" fill="#EBBF89"/>
<path d="M9.69019 7.64439C9.70512 7.61984 9.92539 7.448 9.92539 7.46122C9.92539 7.465 9.86939 7.51409 9.80219 7.56697C9.73312 7.62173 9.68272 7.65761 9.69019 7.64439Z" fill="#EBBF89"/>
<path d="M24.6457 7.23083C24.5206 6.8456 24.5131 6.81916 24.5505 6.89659C24.5878 6.97401 24.767 7.53108 24.7614 7.54996C24.7577 7.55752 24.7073 7.414 24.6457 7.23083Z" fill="#EBBF89"/>
<path d="M23.7275 7.29883C23.6472 7.20442 23.6192 7.16476 23.6398 7.17609C23.651 7.18365 23.6883 7.2233 23.7201 7.26484C23.7835 7.34604 23.7891 7.3687 23.7275 7.29883Z" fill="#EBBF89"/>
<path d="M10.1118 7.31582C10.1118 7.31204 10.1473 7.28372 10.1921 7.25539C10.235 7.22518 10.2612 7.21385 10.2481 7.22895C10.2257 7.25728 10.1118 7.32904 10.1118 7.31582Z" fill="#EBBF89"/>
<path d="M8.87977 7.10434C8.94697 7.06846 9.01044 7.04013 9.01977 7.04013C9.03097 7.04013 8.98431 7.06846 8.91711 7.10434C8.84991 7.14022 8.78831 7.16854 8.77711 7.16854C8.76777 7.16854 8.81257 7.14022 8.87977 7.10434Z" fill="#EBBF89"/>
<path d="M23.3933 6.92115L23.188 6.70776L23.3989 6.91548C23.5931 7.1081 23.6173 7.13265 23.6024 7.13265C23.6005 7.13265 23.5053 7.03634 23.3933 6.92115Z" fill="#EBBF89"/>
<path d="M24.4309 6.636C24.3338 6.40562 24.3208 6.36219 24.373 6.45849C24.4216 6.54913 24.528 6.8135 24.5186 6.82294C24.5149 6.82672 24.4738 6.74174 24.4309 6.636Z" fill="#EBBF89"/>
<path d="M11.1943 6.70776C11.2205 6.69265 11.2503 6.68132 11.2597 6.68132C11.2709 6.68132 11.2578 6.69265 11.2317 6.70776C11.2055 6.72287 11.1775 6.7342 11.1663 6.7342C11.157 6.7342 11.1682 6.72287 11.1943 6.70776Z" fill="#EBBF89"/>
<path d="M12.9266 6.70397C12.9696 6.7002 13.0368 6.7002 13.076 6.70397C13.1133 6.70775 13.0778 6.71152 12.9957 6.71152C12.9136 6.71152 12.8818 6.70775 12.9266 6.70397Z" fill="#EBBF89"/>
<path d="M13.4777 6.70397C13.5057 6.7002 13.5468 6.7002 13.5711 6.70397C13.5935 6.70775 13.5711 6.71152 13.5188 6.71152C13.4684 6.71152 13.4479 6.70775 13.4777 6.70397Z" fill="#EBBF89"/>
<path d="M13.8227 6.64733C13.8451 6.64356 13.8787 6.64356 13.8974 6.64733C13.9142 6.653 13.8955 6.65678 13.8545 6.65489C13.8134 6.65489 13.7985 6.65111 13.8227 6.64733Z" fill="#EBBF89"/>
<path d="M12.8054 6.62846C12.8334 6.62468 12.8782 6.62468 12.908 6.62846C12.936 6.63223 12.9118 6.63601 12.8558 6.63601C12.7998 6.63601 12.7755 6.63223 12.8054 6.62846Z" fill="#EBBF89"/>
<path d="M13.5801 6.62846C13.6137 6.62468 13.6641 6.62468 13.6921 6.62846C13.7201 6.63223 13.6921 6.63601 13.6305 6.63601C13.5689 6.63601 13.5465 6.63223 13.5801 6.62846Z" fill="#EBBF89"/>
<path d="M13.1413 6.60957C13.1992 6.60579 13.2963 6.60579 13.356 6.60957C13.4139 6.61335 13.3653 6.61524 13.2477 6.61524C13.1301 6.61524 13.0816 6.61335 13.1413 6.60957Z" fill="#EBBF89"/>
<path d="M10.2405 6.47926C10.2872 6.46415 10.3544 6.44904 10.3898 6.44338C10.4272 6.43771 10.3992 6.45093 10.3264 6.4717C10.1789 6.51325 10.1155 6.51891 10.2405 6.47926Z" fill="#EBBF89"/>
<path d="M11.848 6.47926C11.8947 6.46604 11.9451 6.45471 11.96 6.45471C11.9749 6.45471 11.9507 6.46793 11.904 6.48304C11.8573 6.49626 11.8069 6.50759 11.792 6.50759C11.7771 6.50759 11.8013 6.49437 11.848 6.47926Z" fill="#EBBF89"/>
<path d="M14.6572 6.46982C14.478 6.41884 14.0338 6.34519 13.7519 6.31875C13.6082 6.30553 13.3674 6.29987 13.1303 6.30742C12.9156 6.31309 12.7439 6.31498 12.7476 6.3112C12.7495 6.30742 12.8914 6.29609 13.0594 6.28287C13.3786 6.26021 13.6138 6.27154 14.0692 6.33197C14.2914 6.36218 14.7674 6.46416 14.8159 6.49248C14.8626 6.51892 14.8066 6.51137 14.6572 6.46982Z" fill="#EBBF89"/>
<path d="M12.0344 6.43393C12.0979 6.41316 12.1464 6.41316 12.0998 6.43393C12.0792 6.44337 12.0456 6.44904 12.0251 6.44904C11.9952 6.44904 11.9971 6.44526 12.0344 6.43393Z" fill="#EBBF89"/>
<path d="M10.6348 6.38675C10.7692 6.35276 10.8215 6.35465 10.7002 6.38864C10.6498 6.40186 10.59 6.41319 10.5695 6.41319C10.549 6.41319 10.5788 6.39997 10.6348 6.38675Z" fill="#EBBF89"/>
<path d="M12.3987 6.3584C12.4304 6.35085 12.4808 6.34329 12.5107 6.34329C12.5573 6.34329 12.5555 6.34707 12.492 6.36029C12.3968 6.37917 12.3203 6.37917 12.3987 6.3584Z" fill="#EBBF89"/>
<path d="M24.1883 6.09783C24.1137 5.94487 23.9923 5.71826 23.9214 5.59363C23.8486 5.469 23.7851 5.36136 23.7814 5.35381C23.7777 5.34436 23.7777 5.3387 23.7833 5.3387C23.8169 5.3387 24.3563 6.3452 24.3339 6.36786C24.3283 6.37164 24.263 6.25078 24.1883 6.09783Z" fill="#EBBF89"/>
<path d="M12.6284 6.3263C12.6508 6.32253 12.6844 6.32253 12.7031 6.3263C12.7198 6.33197 12.7012 6.33575 12.6601 6.33386C12.6191 6.33386 12.6041 6.33008 12.6284 6.3263Z" fill="#EBBF89"/>
<path d="M14.5267 6.32065C14.5024 6.3112 14.5006 6.30365 14.5174 6.30365C14.5323 6.30365 14.5622 6.3112 14.5827 6.32065C14.607 6.33009 14.6088 6.33764 14.592 6.33764C14.5771 6.33764 14.5472 6.33009 14.5267 6.32065Z" fill="#EBBF89"/>
<path d="M24.1416 6.30366C24.121 6.27155 24.0911 6.17902 24.1061 6.19791C24.1285 6.22246 24.1696 6.32065 24.1584 6.32065C24.1546 6.32065 24.1472 6.3131 24.1416 6.30366Z" fill="#EBBF89"/>
<path d="M23.9941 6.01097C23.8803 5.80136 23.6208 5.39347 23.4808 5.20275C22.9077 4.41718 22.0248 3.57308 21.2352 3.05C21.0485 2.92726 21.0354 2.91404 21.0261 2.84984C21.0224 2.81207 21.0186 2.77808 21.0205 2.77619C21.0224 2.7743 21.1325 2.84795 21.2669 2.93859C22.2469 3.60141 23.1373 4.53615 23.7515 5.54643C23.9251 5.83346 24.0856 6.13183 24.0669 6.13183C24.0632 6.13183 24.0296 6.07706 23.9941 6.01097Z" fill="#EBBF89"/>
<path d="M13.5185 5.82967L13.4438 5.81645L13.5092 5.81456C13.5446 5.81456 13.595 5.82211 13.6212 5.82967C13.6809 5.84855 13.6249 5.84855 13.5185 5.82967Z" fill="#EBBF89"/>
<path d="M13.2011 5.7919L13.1265 5.77868L13.1918 5.77679C13.2273 5.77679 13.2945 5.78246 13.3411 5.79001L13.4251 5.80512H13.3505C13.3094 5.80512 13.2422 5.79945 13.2011 5.7919Z" fill="#EBBF89"/>
<path d="M11.4746 15.6926C11.4746 10.7545 11.4709 10.9604 11.5698 10.6337C11.6296 10.4335 11.777 10.1408 11.8984 9.97463C12.2848 9.44966 12.8616 9.13053 13.5186 9.07577C13.6586 9.06444 15.0456 9.06066 17.1773 9.06443C20.2349 9.0701 20.6269 9.07388 20.7557 9.10031C21.4184 9.24005 21.9765 9.64983 22.2901 10.2314C22.3778 10.392 22.4618 10.6261 22.5122 10.8433L22.5514 11.0132L22.557 15.6454L22.5626 20.2757H21.4706H20.3786L20.3749 18.0342L20.3693 15.7908H17.0186H13.668L13.6624 18.0342L13.6586 20.2757H12.5666H11.4746V15.6926ZM20.3749 12.4371C20.3786 11.5042 20.3749 11.3078 20.3544 11.2889C20.3338 11.2738 19.4546 11.2701 16.9981 11.2719L13.668 11.2776L13.6624 12.4012C13.6605 13.0187 13.6624 13.5361 13.668 13.5493C13.6736 13.5682 14.3549 13.572 17.0224 13.5682L20.3693 13.5625L20.3749 12.4371Z" fill="white"/>
</g>
<defs>
<filter id="filter0_d" x="0" y="0" width="34" height="35" filterUnits="userSpaceOnUse" color-interpolation-filters="sRGB">
<feFlood flood-opacity="0" result="BackgroundImageFix"/>
<feColorMatrix in="SourceAlpha" type="matrix" values="0 0 0 0 0 0 0 0 0 0 0 0 0 0 0 0 0 0 127 0"/>
<feOffset dy="3"/>
<feGaussianBlur stdDeviation="1.5"/>
<feColorMatrix type="matrix" values="0 0 0 0 0 0 0 0 0 0.588768 0 0 0 0 1 0 0 0 0.7 0"/>
<feBlend mode="normal" in2="BackgroundImageFix" result="effect1_dropShadow"/>
<feBlend mode="normal" in="SourceGraphic" in2="effect1_dropShadow" result="shape"/>
</filter>
</defs>
</svg>
