<svg width="40" height="40" viewBox="0 0 40 40" fill="none" xmlns="http://www.w3.org/2000/svg">
<circle cx="20" cy="20" r="20" fill="#D8E8FF"/>
<path d="M16.0038 26.157C15.9965 26.157 15.9886 26.157 15.9813 26.157C15.9364 26.1531 15.8915 26.1499 15.8466 26.146C15.8247 26.1449 15.8028 26.1433 15.7809 26.1422C15.7725 26.1405 15.7641 26.1383 15.7556 26.1367C15.7118 26.135 15.6675 26.1334 15.6237 26.1312C15.6186 26.1295 15.6136 26.1279 15.6091 26.1262C15.5591 26.1218 15.5092 26.1185 15.4592 26.1136C15.1594 26.0834 14.8629 26.0345 14.5704 25.9642C14.0836 25.8472 13.6176 25.6764 13.1758 25.4436C12.6632 25.1728 12.205 24.8339 11.8109 24.4132C11.6806 24.2743 11.5588 24.1293 11.4521 23.9717C11.4415 23.9557 11.4252 23.9426 11.4111 23.9283C11.4111 23.7893 11.4111 23.6504 11.4111 23.5109C11.4156 23.4917 11.4224 23.4724 11.4235 23.4532C11.4257 23.4115 11.4257 23.3692 11.4263 23.3274C11.4319 23.233 11.437 23.138 11.4431 23.0435C11.4538 22.8815 11.4633 22.7195 11.4768 22.5574C11.4931 22.3702 11.5099 22.1829 11.533 21.9961C11.565 21.7369 11.5964 21.4777 11.6402 21.2201C11.6969 20.8867 11.7609 20.5545 11.83 20.2233C11.9187 19.7971 12.0287 19.3753 12.1494 18.9568C12.2578 18.5822 12.3729 18.2093 12.5054 17.8424C12.598 17.586 12.6912 17.3289 12.7906 17.0746C12.9226 16.7363 13.0635 16.4019 13.2196 16.0734C13.3212 15.8598 13.4284 15.6483 13.5323 15.4352C13.5621 15.3743 13.6042 15.3259 13.662 15.2886C13.7973 15.2002 13.9292 15.1068 14.0651 15.02C14.4985 14.7427 14.9556 14.5109 15.4356 14.3209C15.9398 14.1215 16.4591 13.9721 16.9959 13.8843C17.143 13.8601 17.2918 13.8453 17.4394 13.826C17.4439 13.8249 17.4484 13.8238 17.4529 13.8228C17.4669 13.8228 17.481 13.8228 17.495 13.8228C17.4995 13.8211 17.5046 13.8195 17.509 13.8178C17.5343 13.8167 17.5601 13.8151 17.5854 13.814C17.6236 13.8134 17.6623 13.826 17.6988 13.8052C17.7325 13.8052 17.7662 13.8052 17.7999 13.8052C17.8493 13.8606 17.8998 13.9156 17.9464 13.9793C17.929 13.9859 17.9189 13.9897 17.9088 13.993C17.6561 14.0732 17.4024 14.149 17.1514 14.2336C16.7039 14.384 16.2677 14.5625 15.8415 14.7647C15.508 14.9223 15.183 15.0947 14.8685 15.287C14.6035 15.449 14.3464 15.622 14.1055 15.8169C14.0848 15.834 14.0651 15.8521 14.0449 15.8691C14.0471 15.8719 14.0488 15.8752 14.0511 15.8779C14.069 15.8702 14.0876 15.8625 14.105 15.8543C14.3604 15.7324 14.6125 15.6033 14.8714 15.4896C15.3014 15.3007 15.7422 15.1381 16.1919 14.9986C16.6719 14.8498 17.1581 14.7268 17.6545 14.6416C17.7887 14.6186 17.9234 14.6004 18.0581 14.5823C18.1485 14.5702 18.2389 14.5614 18.3293 14.551C18.3922 14.5439 18.4551 14.5356 18.5185 14.5285C18.5303 14.5268 18.5427 14.5246 18.5545 14.523C18.6117 14.5175 18.669 14.512 18.7263 14.5071C18.7723 14.5027 18.8184 14.4999 18.865 14.495C18.9295 14.4884 18.9935 14.4807 19.0581 14.4736C19.0626 14.4719 19.0676 14.4703 19.0721 14.4686C19.1126 14.4664 19.1524 14.4648 19.1928 14.4626C19.1973 14.4609 19.2024 14.4593 19.2069 14.4576C19.2546 14.4554 19.3018 14.4532 19.3495 14.4511C19.3545 14.4494 19.359 14.4483 19.3641 14.4467C19.4191 14.445 19.4747 14.4428 19.5297 14.4412C19.5348 14.4395 19.5393 14.4373 19.5443 14.4357C19.5769 14.4362 19.6089 14.4373 19.6414 14.4379C19.6459 14.4362 19.651 14.4346 19.6555 14.4329C19.7071 14.4318 19.7588 14.4302 19.8104 14.4291C19.8189 14.428 19.8267 14.4274 19.8351 14.4263C19.9087 14.4263 19.9828 14.4269 20.0563 14.4269C20.0608 14.4252 20.0659 14.4236 20.0704 14.4219C20.1518 14.4225 20.2332 14.423 20.3141 14.4236C20.3191 14.4247 20.3242 14.4258 20.3292 14.4269C20.4106 14.4263 20.492 14.4263 20.5729 14.4258C20.5774 14.4269 20.5819 14.428 20.5869 14.4285C20.6425 14.4296 20.6975 14.4313 20.7531 14.4324C20.7576 14.434 20.7627 14.4357 20.7671 14.4373C20.7963 14.4373 20.825 14.4373 20.8542 14.4373C20.8587 14.4384 20.8632 14.4395 20.8676 14.4406C20.9008 14.4417 20.9339 14.4423 20.967 14.4434C20.9715 14.445 20.9766 14.4467 20.9811 14.4483C21.0024 14.4483 21.0237 14.4483 21.0456 14.4483C21.0501 14.4494 21.0546 14.4505 21.0585 14.4516C21.0844 14.4527 21.1096 14.4538 21.1355 14.4543C21.1399 14.456 21.145 14.4576 21.1495 14.4593C21.1635 14.4593 21.177 14.4587 21.191 14.4587C21.1955 14.4598 21.2006 14.4604 21.2051 14.4615C21.2455 14.4637 21.2854 14.4659 21.3258 14.4681C21.3308 14.4697 21.3353 14.4708 21.3404 14.4725C21.3752 14.4769 21.41 14.4818 21.4454 14.4851C21.5066 14.4911 21.5678 14.4944 21.6284 14.5016C21.7188 14.5126 21.8092 14.5268 21.8996 14.5395C21.995 14.5527 22.0916 14.562 22.1865 14.5785C22.3779 14.6114 22.5694 14.6449 22.7597 14.6839C23.3375 14.8014 23.9023 14.9629 24.4553 15.1634C24.9943 15.3589 25.517 15.589 26.0223 15.857C26.0369 15.8647 26.0526 15.8708 26.0684 15.8774C26.0667 15.862 26.0605 15.8554 26.0538 15.8499C25.8449 15.6741 25.6203 15.5204 25.3896 15.3732C24.9657 15.103 24.521 14.8707 24.0617 14.6636C23.5553 14.4351 23.0348 14.2413 22.5026 14.0787C22.4639 14.0672 22.4262 14.054 22.3808 14.0391C22.4526 13.9573 22.5189 13.8815 22.5857 13.8057C22.6194 13.8057 22.6531 13.8057 22.6867 13.8057C22.7232 13.8266 22.762 13.814 22.8002 13.8145C22.844 13.8167 22.8883 13.8189 22.9321 13.8211C22.9372 13.8228 22.9416 13.8238 22.9467 13.8255C22.9742 13.8299 23.0017 13.8348 23.0292 13.8381C23.1202 13.8491 23.2111 13.8568 23.3015 13.87C23.6743 13.9238 24.0387 14.0117 24.3975 14.1237C24.8691 14.2715 25.3222 14.4609 25.7579 14.6905C26.1138 14.8783 26.4541 15.0914 26.7792 15.3265C26.7994 15.3413 26.8173 15.3622 26.8286 15.3842C26.9162 15.5539 27.0065 15.7225 27.0868 15.8955C27.221 16.1849 27.3535 16.476 27.4776 16.7698C27.6668 17.2174 27.8352 17.6733 27.9868 18.1346C28.052 18.3329 28.1188 18.5312 28.1761 18.7316C28.2732 19.0732 28.3669 19.4159 28.4557 19.7592C28.5112 19.975 28.5595 20.1936 28.6028 20.4122C28.6583 20.6901 28.7083 20.9691 28.756 21.2481C28.788 21.437 28.8144 21.6271 28.8391 21.8171C28.8588 21.9676 28.8739 22.1181 28.8891 22.2691C28.9076 22.458 28.9256 22.647 28.9402 22.8359C28.9492 22.954 28.9503 23.0732 28.9553 23.1918C28.9582 23.2396 28.943 23.2884 28.9654 23.3351C28.9654 23.5367 28.9654 23.7377 28.9654 23.9393C28.9149 24.0074 28.8666 24.0766 28.8144 24.143C28.6538 24.3457 28.4736 24.5308 28.2805 24.7038C28.0755 24.8872 27.8566 25.0514 27.6253 25.2008C27.3878 25.3546 27.1385 25.4875 26.8791 25.6028C26.6562 25.7022 26.4277 25.7879 26.1936 25.8593C25.8752 25.956 25.5513 26.029 25.2211 26.0763C25.074 26.0971 24.9275 26.1213 24.7782 26.1251C24.7697 26.1268 24.7613 26.129 24.7529 26.1306C24.7125 26.1323 24.672 26.1345 24.6322 26.1361C24.6204 26.1378 24.608 26.14 24.5962 26.1416C24.5743 26.1427 24.5524 26.1444 24.53 26.1455C24.4851 26.1493 24.4402 26.1531 24.3952 26.1564C24.3879 26.1564 24.3801 26.1564 24.3728 26.1564C24.3672 26.1455 24.3627 26.1328 24.3548 26.1235C24.2661 26.0175 24.1757 25.9126 24.0876 25.8066C23.8647 25.5386 23.6429 25.27 23.4206 25.002C23.4116 24.991 23.4043 24.9784 23.3931 24.9619C23.4133 24.9553 23.4284 24.9498 23.4441 24.9449C23.5699 24.9042 23.6968 24.8663 23.822 24.8224C24.2352 24.6769 24.626 24.4868 24.9921 24.249C25.3127 24.0409 25.6046 23.7992 25.8617 23.5191C25.9342 23.4406 25.9976 23.3544 26.065 23.2714C26.0712 23.2632 26.0729 23.2517 26.0768 23.2412C26.0246 23.2626 25.9808 23.2895 25.9364 23.317C25.6276 23.507 25.3087 23.6789 24.9786 23.8311C24.6827 23.9678 24.3762 24.0804 24.0718 24.1968C23.6221 24.3693 23.1617 24.5083 22.6907 24.6132C22.3735 24.6835 22.0534 24.7389 21.7317 24.784C21.6363 24.7971 21.5403 24.8076 21.4443 24.8175C21.3943 24.823 21.3443 24.8246 21.2943 24.829C21.2169 24.8361 21.1394 24.8438 21.0619 24.8515C21.0535 24.8532 21.0451 24.8554 21.0366 24.857C20.9889 24.8587 20.9412 24.8608 20.8935 24.8625C20.8817 24.8641 20.8693 24.8663 20.8575 24.868C20.7801 24.8702 20.7026 24.8724 20.6245 24.8746C20.6088 24.8762 20.5925 24.8779 20.5768 24.8795C20.4056 24.8795 20.2343 24.8795 20.0631 24.8795C20.0434 24.8779 20.0238 24.8762 20.0041 24.8751C19.9227 24.8729 19.8413 24.8707 19.7605 24.8691C19.752 24.8674 19.7436 24.8652 19.7352 24.8636C19.6835 24.8619 19.6319 24.8597 19.5802 24.8581C19.5718 24.8565 19.5634 24.8543 19.5555 24.8526C19.5151 24.851 19.4747 24.8488 19.4343 24.8471C19.4258 24.8455 19.4174 24.8433 19.4096 24.8416C19.3731 24.84 19.3366 24.8378 19.3001 24.8361C19.295 24.8345 19.2905 24.8323 19.2855 24.8306C19.1726 24.8191 19.0592 24.8103 18.9464 24.7955C18.6628 24.7581 18.381 24.7137 18.1008 24.6554C17.6707 24.5665 17.2463 24.4555 16.8286 24.321C16.5961 24.2463 16.3665 24.1633 16.1369 24.0793C15.8427 23.9711 15.5546 23.8486 15.275 23.708C15.1038 23.6218 14.932 23.5378 14.772 23.4318C14.6591 23.3571 14.539 23.2934 14.4216 23.2247C14.4166 23.222 14.4098 23.2209 14.4042 23.2192C14.4301 23.2698 14.4604 23.3132 14.4929 23.3544C14.6473 23.5482 14.8225 23.7229 15.0117 23.8838C15.325 24.1502 15.6697 24.372 16.0397 24.556C16.3339 24.7021 16.6394 24.8213 16.9543 24.9163C16.9706 24.9213 16.9863 24.9289 17.0054 24.9366C16.992 24.9548 16.983 24.9663 16.974 24.9778C16.6663 25.3507 16.3586 25.7231 16.051 26.096C16.0313 26.1136 16.0184 26.1361 16.0038 26.157ZM24.4025 20.8318C24.3913 20.745 24.3857 20.6572 24.3683 20.572C24.2981 20.2271 24.137 19.9284 23.8748 19.6856C23.6261 19.4555 23.3302 19.3248 22.9888 19.294C22.9096 19.2781 22.8305 19.2781 22.7508 19.294C22.6851 19.3039 22.6177 19.3099 22.5531 19.3248C22.2359 19.3951 21.9731 19.5549 21.7604 19.7933C21.3376 20.2667 21.218 20.951 21.4566 21.548C21.6166 21.9478 21.8906 22.2482 22.2926 22.43C22.4341 22.4937 22.5834 22.5327 22.7395 22.5459C22.8299 22.5635 22.9197 22.5624 23.0101 22.5454C23.1258 22.5371 23.2375 22.5108 23.3459 22.4718C23.7754 22.318 24.0696 22.0247 24.2549 21.6216C24.3672 21.3777 24.4059 21.1196 24.402 20.8543C24.4031 20.8466 24.4031 20.8395 24.4025 20.8318ZM17.4984 19.2929C17.4226 19.277 17.3474 19.277 17.2716 19.2929C17.2019 19.3034 17.1312 19.3094 17.0621 19.3253C16.7022 19.4066 16.4159 19.5994 16.1964 19.8861C15.9404 20.2216 15.8314 20.6022 15.8539 21.0196C15.8707 21.3261 15.9634 21.609 16.1369 21.8649C16.3541 22.1851 16.6478 22.4059 17.0301 22.5064C17.0981 22.5239 17.1688 22.5322 17.2384 22.5448C17.3361 22.5629 17.4333 22.5618 17.5309 22.5454C17.5545 22.5421 17.5787 22.5388 17.6022 22.5349C17.9941 22.4729 18.308 22.2817 18.5505 21.9791C18.8172 21.6458 18.9267 21.2624 18.9149 20.8423C18.9076 20.5742 18.8425 20.3199 18.7077 20.0871C18.4416 19.6246 18.0452 19.3478 17.4984 19.2929Z" fill="#0E1612"/>
</svg>
