<svg width="40" height="40" viewBox="0 0 40 40" fill="none" xmlns="http://www.w3.org/2000/svg">
<circle cx="20" cy="20" r="20" fill="#D8E8FF"/>
<path d="M24.4805 10H15.5191C12.4759 10 10 12.476 10 15.5192V24.4806C10 27.524 12.4759 29.9999 15.5191 29.9999H24.4805C27.524 29.9999 29.9999 27.5239 29.9999 24.4806V15.5192C30 12.476 27.524 10 24.4805 10ZM28.2255 24.4806C28.2255 26.5455 26.5455 28.2254 24.4806 28.2254H15.5191C13.4543 28.2255 11.7745 26.5455 11.7745 24.4806V15.5192C11.7745 13.4545 13.4543 11.7745 15.5191 11.7745H24.4805C26.5454 11.7745 28.2254 13.4545 28.2254 15.5192V24.4806H28.2255Z" fill="#0E1612"/>
<path d="M20.0001 14.8467C17.1585 14.8467 14.8467 17.1585 14.8467 20.0001C14.8467 22.8417 17.1585 25.1534 20.0001 25.1534C22.8418 25.1534 25.1536 22.8417 25.1536 20.0001C25.1536 17.1585 22.8418 14.8467 20.0001 14.8467ZM20.0001 23.3788C18.1371 23.3788 16.6212 21.8631 16.6212 20C16.6212 18.1368 18.1369 16.621 20.0001 16.621C21.8634 16.621 23.3791 18.1368 23.3791 20C23.3791 21.8631 21.8632 23.3788 20.0001 23.3788Z" fill="#0E1612"/>
<path d="M25.3696 13.3423C25.0278 13.3423 24.6919 13.4807 24.4505 13.7232C24.2078 13.9645 24.0684 14.3005 24.0684 14.6436C24.0684 14.9856 24.208 15.3214 24.4505 15.5639C24.6918 15.8053 25.0278 15.9449 25.3696 15.9449C25.7127 15.9449 26.0475 15.8053 26.29 15.5639C26.5325 15.3214 26.6709 14.9855 26.6709 14.6436C26.6709 14.3005 26.5325 13.9645 26.29 13.7232C26.0487 13.4807 25.7127 13.3423 25.3696 13.3423Z" fill="#0E1612"/>
</svg>
