<svg width="40" height="40" viewBox="0 0 40 40" fill="none" xmlns="http://www.w3.org/2000/svg">
<circle cx="20" cy="20" r="20" fill="#D8E8FF"/>
<path d="M30 22.1614V29.5555H25.7134V22.6566C25.7134 20.9235 25.0933 19.7408 23.5417 19.7408C22.3572 19.7408 21.6524 20.5379 21.3423 21.3089C21.2292 21.5846 21.2001 21.9682 21.2001 22.3541V29.5555H16.912C16.912 29.5555 16.9697 17.871 16.912 16.6604H21.1997V18.4882C21.191 18.5019 21.1797 18.5167 21.1715 18.5299H21.1997V18.4882C21.7693 17.6109 22.7867 16.3575 25.0638 16.3575C27.885 16.3574 30 18.2005 30 22.1614ZM12.4265 10.4443C10.9595 10.4443 10 11.4065 10 12.6719C10 13.9096 10.9317 14.901 12.3695 14.901H12.3982C13.8935 14.901 14.8235 13.9098 14.8235 12.6719C14.7953 11.4065 13.8935 10.4443 12.4265 10.4443ZM10.2547 29.5555H14.5411V16.6604H10.2547V29.5555Z" fill="#0E1612"/>
</svg>
